#N canvas 160 104 1257 666 10;
#X floatatom 50 311 5 0 0 0 - - -;
#X obj 991 63 hsl 128 15 0 360 0 0 empty empty empty -2 -8 0 10 -262144
-1 -1 1357 1;
#X floatatom 199 308 5 0 0 0 - - -;
#X floatatom 410 305 5 0 0 0 - - -;
#X floatatom 1087 440 5 0 0 0 - - -;
#X msg 1092 373 bang;
#X obj 49 333 vsl 15 64 -1 1 0 0 empty empty empty 0 -9 0 10 -262144
-1 -1 3876 1;
#X obj 199 330 vsl 15 64 -1 1 0 0 empty empty empty 0 -9 0 10 -262144
-1 -1 5191 1;
#X obj 410 329 vsl 15 64 -1 1 0 0 empty empty empty 0 -9 0 10 -262144
-1 -1 3150 1;
#X obj 637 136 s COSPAN-WIDTH;
#X floatatom 637 109 5 0 0 0 - - -;
#X floatatom 528 305 5 0 0 0 - - -;
#X obj 528 329 vsl 15 64 -1 1 0 0 empty empty empty 0 -9 0 10 -262144
-1 -1 3150 1;
#X floatatom 648 306 5 0 0 0 - - -;
#X obj 648 330 vsl 15 64 -1 1 0 0 empty empty empty 0 -9 0 10 -262144
-1 -1 3150 1;
#X floatatom 780 308 5 0 0 0 - - -;
#X obj 780 332 vsl 15 64 -1 1 0 0 empty empty empty 0 -9 0 10 -262144
-1 -1 3150 1;
#X obj 1085 408 expr 360/6;
#X obj 988 33 inlet;
#X text 1033 30 position 0-360;
#X obj 639 61 loadbang;
#X msg 645 85 2;
#X obj 720 30 inlet;
#X text 760 31 width;
#X obj 50 259 r \$0-POS;
#X obj 199 255 r \$0-POS;
#X obj 410 253 r \$0-POS;
#X obj 528 253 r \$0-POS;
#X obj 648 254 r \$0-POS;
#X obj 780 256 r \$0-POS;
#X obj 988 87 s \$0-POS;
#X obj 50 412 * 360;
#X obj 199 410 * 360;
#X obj 410 409 * 360;
#X obj 528 408 * 360;
#X obj 648 409 * 360;
#X obj 780 411 * 360;
#X obj 50 440 outlet;
#X obj 199 438 outlet;
#X obj 410 435 outlet;
#X obj 527 438 outlet;
#X obj 648 435 outlet;
#X obj 780 439 outlet;
#X obj 50 286 cospan 0 6;
#X obj 199 283 cospan 1 6;
#X obj 410 280 cospan 2 6;
#X obj 528 280 cospan 3 6;
#X obj 648 281 cospan 4 6;
#X obj 780 283 cospan 5 6;
#X connect 0 0 6 0;
#X connect 1 0 30 0;
#X connect 2 0 7 0;
#X connect 3 0 8 0;
#X connect 5 0 17 0;
#X connect 6 0 31 0;
#X connect 7 0 32 0;
#X connect 8 0 33 0;
#X connect 10 0 9 0;
#X connect 11 0 12 0;
#X connect 12 0 34 0;
#X connect 13 0 14 0;
#X connect 14 0 35 0;
#X connect 15 0 16 0;
#X connect 16 0 36 0;
#X connect 17 0 4 0;
#X connect 18 0 1 0;
#X connect 20 0 21 0;
#X connect 21 0 10 0;
#X connect 22 0 10 0;
#X connect 24 0 43 0;
#X connect 25 0 44 0;
#X connect 26 0 45 0;
#X connect 27 0 46 0;
#X connect 28 0 47 0;
#X connect 29 0 48 0;
#X connect 31 0 37 0;
#X connect 32 0 38 0;
#X connect 33 0 39 0;
#X connect 34 0 40 0;
#X connect 35 0 41 0;
#X connect 36 0 42 0;
#X connect 43 0 0 0;
#X connect 44 0 2 0;
#X connect 45 0 3 0;
#X connect 46 0 11 0;
#X connect 47 0 13 0;
#X connect 48 0 15 0;
