#N canvas 778 154 548 676 10;
#X obj 52 129 r \$0-to-GUI;
#X obj 52 307 s \$0-from-GUI;
#X obj 249 499 inlet~ signal;
#N canvas 0 0 450 300 GUI_init 0;
#X obj 121 121 f \$0;
#X obj 117 91 bng 15 250 50 0 empty empty empty 17 7 0 10 -262144 -1
-1;
#X msg 124 144 \; \$1-to-GUI size 120 \; \$1-to-GUI src_font 40 \;
\$1-to-GUI sphere_col 27 \; \$1-to-GUI src_col 1 15;
#X obj 146 93 loadbang;
#X connect 0 0 2 0;
#X connect 1 0 0 0;
#X connect 3 0 0 0;
#X restore 442 155 pd GUI_init;
#X text 111 72 arg1: imterpolation time for positions (in ms);
#N canvas 886 436 450 300 init_arg 0;
#X obj 106 111 f \$1;
#X obj 106 67 loadbang;
#X obj 120 87 bng 15 250 50 0 empty empty empty 17 7 0 10 -262144 -1
-1;
#X text 19 34 init arg1: interpolation time (ms);
#X obj 106 145 sel 0;
#X msg 92 188 200;
#X text 55 190 std:;
#X obj 136 231 outlet;
#X connect 0 0 4 0;
#X connect 1 0 0 0;
#X connect 2 0 0 0;
#X connect 4 0 5 0;
#X connect 4 1 7 0;
#X connect 5 0 7 0;
#X restore 447 499 pd init_arg;
#X obj 247 128 import iemgui iem_ambi iemlib iemmatrix;
#N canvas 336 468 326 334 speedlim_parameters 0;
#X obj 64 32 r \$0-from-GUI;
#X obj 64 84 route 1;
#X obj 64 116 unpack;
#X obj 197 111 r \$0-itime;
#X obj 64 230 pack 0 0;
#X obj 64 263 outlet theta_phi;
#X obj 64 168 iemlib/speedlim 200;
#X obj 115 197 iemlib/speedlim 200;
#X connect 0 0 1 0;
#X connect 1 0 2 0;
#X connect 2 0 6 0;
#X connect 2 1 7 0;
#X connect 3 0 6 1;
#X connect 3 0 7 1;
#X connect 4 0 5 0;
#X connect 6 0 4 0;
#X connect 7 0 4 1;
#X restore 53 347 pd speedlim_parameters;
#X obj 52 165 cube_sphere 0 60 40 1108 195567 241290 48 13;
#X text 76 472 matrix multiplication to generate ambisonic signals:
;
#X obj 53 391 ambi_encode 2;
#X obj 53 419 mtx 9 1;
#X obj 53 533 mtx_mul~ 9 1 200 ----------------------------------------
;
#X text 140 35 2nd ORDER 3D AMBISONIC ENCODER;
#X obj 28 621 outlet~;
#X obj 81 621 outlet~;
#X obj 134 621 outlet~;
#X obj 187 621 outlet~;
#X obj 240 621 outlet~;
#X obj 293 621 outlet~;
#X obj 346 621 outlet~;
#X obj 399 621 outlet~;
#X obj 452 621 outlet~;
#X text 156 392 encode 2 order ambisonic;
#X connect 0 0 8 0;
#X connect 2 0 12 1;
#X connect 5 0 12 2;
#X connect 7 0 10 0;
#X connect 8 0 1 0;
#X connect 10 0 11 0;
#X connect 11 0 12 0;
#X connect 12 0 14 0;
#X connect 12 1 15 0;
#X connect 12 2 16 0;
#X connect 12 3 17 0;
#X connect 12 4 18 0;
#X connect 12 5 19 0;
#X connect 12 6 20 0;
#X connect 12 7 21 0;
#X connect 12 8 22 0;
#X coords 0 -1 1 1 124 138 1 50 150;
