#N canvas 578 155 955 773 10;
#X declare -lib iemgui -lib iem_ambi -lib iemlib -lib iemmatrix;
#X obj 52 129 r \$0-to-GUI;
#X obj 52 307 s \$0-from-GUI;
#X obj 105 493 inlet~ signal;
#N canvas 0 0 450 300 GUI_init 0;
#X obj 121 121 f \$0;
#X obj 117 91 bng 15 250 50 0 empty empty empty 17 7 0 10 -262144 -1
-1;
#X msg 124 144 \; \$1-to-GUI size 120 \; \$1-to-GUI src_font 40 \;
\$1-to-GUI sphere_col 27 \; \$1-to-GUI src_col 1 15;
#X obj 146 93 loadbang;
#X connect 0 0 2 0;
#X connect 1 0 0 0;
#X connect 3 0 0 0;
#X restore 374 155 pd GUI_init;
#X text 49 62 arg1: imterpolation time for positions (in ms);
#N canvas 886 436 450 300 init_arg 0;
#X obj 106 111 f \$1;
#X obj 106 67 loadbang;
#X obj 120 87 bng 15 250 50 0 empty empty empty 17 7 0 10 -262144 -1
-1;
#X text 19 34 init arg1: interpolation time (ms);
#X obj 106 145 sel 0;
#X msg 92 188 200;
#X text 55 190 std:;
#X obj 136 231 outlet;
#X connect 0 0 4 0;
#X connect 1 0 0 0;
#X connect 2 0 0 0;
#X connect 4 0 5 0;
#X connect 4 1 7 0;
#X connect 5 0 7 0;
#X restore 172 533 pd init_arg;
#X obj 179 128 import iemgui iem_ambi iemlib iemmatrix;
#X text 120 23 AMBISONIC B-FORMAT ENCODER;
#N canvas 336 468 326 334 speedlim_parameters 0;
#X obj 64 32 r \$0-from-GUI;
#X obj 64 84 route 1;
#X obj 64 116 unpack;
#X obj 197 111 r \$0-itime;
#X obj 64 230 pack 0 0;
#X obj 64 263 outlet theta_phi;
#X obj 64 168 iemlib/speedlim 200;
#X obj 115 197 iemlib/speedlim 200;
#X connect 0 0 1 0;
#X connect 1 0 2 0;
#X connect 2 0 6 0;
#X connect 2 1 7 0;
#X connect 3 0 6 1;
#X connect 3 0 7 1;
#X connect 4 0 5 0;
#X connect 6 0 4 0;
#X connect 7 0 4 1;
#X restore 53 347 pd speedlim_parameters;
#X obj 50 155 cube_sphere 0 60 40 1108 195567 241290 36 114;
#X obj 53 391 ambi_encode 1;
#X text 156 392 encode 1 order ambisonic (B-Format);
#X text 48 82 First Order Ambisonic Encoder (can be used for 2D or
3D ambisonic);
#X obj 53 419 mtx 4 1;
#X obj 53 533 mtx_mul~ 4 1 200;
#X text 76 472 matrix multiplication to generate ambisonic signals:
;
#X obj 52 621 outlet~ W;
#X obj 132 621 outlet~ X;
#X obj 210 621 outlet~ Y;
#X obj 289 621 outlet~ Z;
#X obj 520 20 inlet;
#X obj 523 53 hsl 128 15 0 360 0 0 empty empty empty -2 -8 0 10 -262144
-1 -1 5500 1;
#X text 564 17 degrees azimuth;
#X obj 684 35 inlet;
#X obj 687 68 hsl 128 15 0 100 0 0 empty empty empty -2 -8 0 10 -262144
-1 -1 0 1;
#X msg 514 137 src_dp 1 \$1 \$2;
#X obj 514 112 pack f f;
#X text 728 33 elevation 0- 100;
#X obj 521 76 t b f;
#X msg 428 221 1 \$1 \$2;
#X connect 0 0 9 0;
#X connect 2 0 14 1;
#X connect 5 0 14 2;
#X connect 8 0 10 0;
#X connect 9 0 1 0;
#X connect 10 0 13 0;
#X connect 13 0 14 0;
#X connect 14 0 16 0;
#X connect 14 1 17 0;
#X connect 14 2 18 0;
#X connect 14 3 19 0;
#X connect 20 0 21 0;
#X connect 21 0 28 0;
#X connect 23 0 24 0;
#X connect 24 0 26 0;
#X connect 25 0 9 0;
#X connect 26 0 25 0;
#X connect 26 0 29 0;
#X connect 28 0 24 0;
#X connect 28 1 26 1;
#X connect 29 0 1 0;
#X coords 0 -1 1 1 124 138 1 50 150;
