#N canvas 333 70 696 665 10;
#X obj 155 98 notein;
#X obj 155 121 pack f f;
#X obj 155 142 route \$1;
#X obj 155 214 outlet;
#X obj 155 189 t b;
#X obj 241 221 outlet;
#X obj 183 188 t b;
#X obj 155 165 sel 80 0;
#X text 101 330 left outputs a bang \, middle outputs bang for noteoff
;
#X text 43 27 button abstraction built for quneo each press from midi
button \$1 sends a bang for noteon an noteoff;
#X connect 0 0 1 0;
#X connect 0 1 1 1;
#X connect 1 0 2 0;
#X connect 2 0 7 0;
#X connect 4 0 3 0;
#X connect 6 0 5 0;
#X connect 7 0 4 0;
#X connect 7 1 6 0;
