#N canvas 926 224 563 717 10;
#X obj -12 129 random 127;
#X obj -12 172 line;
#X obj -39 269 nozip;
#X msg -12 151 \$1 1000;
#X obj -39 377 clip~ -1 1;
#X obj -11 422 sig~;
#X obj -39 442 svf~ 660 0;
#X obj -39 342 formant;
#X obj -30 314 r f1;
#X obj 1 314 r f2;
#X obj 32 315 r f3;
#X obj -11 401 r filterall_l;
#X obj -39 532 svf~ 660 0;
#X obj -11 510 sig~;
#X obj -11 489 r filterall_h;
#X obj -12 194 / 127;
#X obj -20 588 nozip;
#X obj -12 63 inlet;
#X obj 81 37 inlet;
#X obj -12 104 delay;
#X obj 264 19 loadbang;
#X msg 264 42 1000;
#X obj -20 615 outlet~;
#X text 23 9 audio goes here;
#X text 125 35 delay time goes here;
#X text 272 216 manual vca control here;
#X text 32 60 delay trigger;
#X obj 7 565 r gate;
#X obj -38 10 inlet~;
#X obj 233 218 inlet;
#X connect 0 0 3 0;
#X connect 1 0 15 0;
#X connect 2 0 7 0;
#X connect 3 0 1 0;
#X connect 4 0 6 0;
#X connect 5 0 6 1;
#X connect 6 0 12 0;
#X connect 7 0 4 0;
#X connect 8 0 7 1;
#X connect 9 0 7 2;
#X connect 10 0 7 3;
#X connect 11 0 5 0;
#X connect 12 1 16 0;
#X connect 13 0 12 1;
#X connect 14 0 13 0;
#X connect 15 0 2 1;
#X connect 16 0 22 0;
#X connect 17 0 19 0;
#X connect 18 0 19 1;
#X connect 19 0 0 0;
#X connect 20 0 21 0;
#X connect 21 0 19 1;
#X connect 27 0 16 1;
#X connect 28 0 2 0;
#X connect 29 0 2 1;
