#N canvas 850 372 450 300 10;
#X obj 25 25 inlet;
#X obj 89 25 inlet;
#X obj 29 204 outlet;
#X obj 25 51 t f b f;
#X obj 37 85 f \$1;
#X msg 37 117 1 \$1;
#X msg 25 143 0 \$1;
#X obj 29 177 route 0;
#X obj 68 85 <= \$1;
#X connect 0 0 3 0;
#X connect 1 0 4 1;
#X connect 1 0 8 1;
#X connect 3 0 6 0;
#X connect 3 1 4 0;
#X connect 3 2 8 0;
#X connect 4 0 5 0;
#X connect 5 0 7 0;
#X connect 6 0 7 0;
#X connect 7 0 2 0;
#X connect 8 0 7 1;
