#N canvas 122 22 1510 953 10;
#X declare -lib earplug~ -lib iemlib -lib iemgui;
#X declare -lib earplug~ -lib iemlib -lib iemgui;
#X declare -lib earplug~ -lib iemlib -lib iemgui;
#X declare -lib earplug~ -lib iemlib -lib iemgui;
#X declare -lib earplug~ -lib iemlib -lib iemgui;
#X declare -lib earplug~ -lib iemlib -lib iemgui;
#X declare -lib iemgui -lib iem_ambi -lib iemlib -lib iemmatrix;
#X declare -lib iem_ambi -lib iemmatrix;
#X declare -lib iemgui -lib iem_ambi -lib iemlib -lib iemmatrix;
#X declare -lib iem_ambi -lib iemmatrix;
#X declare -lib iemgui -lib iem_ambi -lib iemlib -lib iemmatrix;
#X declare -lib iem_ambi -lib iemmatrix;
#X declare -lib iemgui -lib iem_ambi -lib iemlib -lib iemmatrix;
#X declare -lib iem_ambi -lib iemmatrix;
#X declare -lib iemgui -lib iem_ambi -lib iemlib -lib iemmatrix;
#X declare -lib iem_ambi -lib iemmatrix;
#X declare -lib iemgui -lib iem_ambi -lib iemlib -lib iemmatrix;
#X declare -lib iem_ambi -lib iemmatrix;
#X obj 197 9 mtof~;
#X obj 285 10 mtof~;
#X obj 371 9 mtof~;
#X obj 455 8 mtof~;
#X obj 18 297 catch~ tone1;
#X obj 106 297 catch~ tone2;
#X obj 187 297 catch~ tone3;
#X obj 268 297 catch~ tone4;
#X obj 264 196 random 127;
#X obj 264 239 line;
#X obj 190 197 random 127;
#X obj 190 240 line;
#X obj 115 198 random 127;
#X obj 115 241 line;
#X obj 45 198 random 127;
#X obj 45 241 line;
#X obj 115 264 / 127;
#X obj 190 263 / 127;
#X obj 264 263 / 127;
#X obj 47 -15 tgl 15 0 empty empty empty 17 7 0 10 -262144 -1 -1 1
1;
#X obj 197 87 throw~ tone1;
#X obj 285 86 throw~ tone2;
#X obj 371 88 throw~ tone3;
#X obj 18 338 nozip;
#X obj 106 337 nozip;
#X obj 187 336 nozip;
#X obj 268 335 nozip;
#X obj 543 11 mtof~;
#X obj 455 87 throw~ tone4;
#X obj 349 195 random 127;
#X obj 349 238 line;
#X obj 349 262 / 127;
#X obj 353 334 nozip;
#X obj 353 296 catch~ tone5;
#X obj 634 11 mtof~;
#X obj 543 87 throw~ tone5;
#X obj 634 88 throw~ tone6;
#X obj 433 195 random 127;
#X obj 433 238 line;
#X obj 433 262 / 127;
#X obj 437 334 nozip;
#X obj 437 296 catch~ tone6;
#X msg 349 217 \$1 1000;
#X msg 264 218 \$1 1000;
#X msg 190 219 \$1 1000;
#X msg 115 220 \$1 1000;
#X msg 45 220 \$1 1000;
#X msg 433 217 \$1 1000;
#X obj 45 173 delay \$1;
#X obj 115 173 delay \$1;
#X obj 190 173 delay \$1;
#X obj 264 172 delay \$1;
#X obj 349 172 delay \$1;
#X obj 433 172 delay \$1;
#X obj 47 71 t b f;
#X obj 47 26 random 10000;
#X obj 47 5 metro 1000;
#X obj 47 -39 loadbang;
#X obj 699 1209 writesf~;
#X msg 687 1125 start;
#X msg 761 1129 stop;
#X msg 711 1165 open blah.wav;
#X obj 48 126 sel 0 1 2 3 4 5;
#X obj 47 103 random 6;
#X obj 438 -113 r pitch;
#X obj 18 446 clip~ -1 1;
#X msg 516 156 280 2250 2900;
#X msg 544 209 550 1770 2490;
#X msg 561 233 690 1660 2490;
#X msg 568 255 640 1190 2390;
#X msg 578 277 310 870 2250;
#X msg 583 298 450 1030 2380;
#X msg 587 321 500 1500 2500;
#X msg 596 342 710 1100 2640;
#X obj 556 368 unpack f f f;
#X msg 530 184 400 1900 2550;
#X obj 546 421 line;
#X obj 580 445 line;
#X obj 615 472 line;
#X obj 46 491 sig~;
#X obj 18 511 svf~ 660 0;
#X obj 808 -32 nozip;
#X obj 627 -114 hsl 128 15 0 127 0 0 empty empty empty -2 -8 0 10 -262144
-1 -1 0 1;
#X obj 892 -45 hsl 128 15 0 1 0 0 empty empty empty -2 -8 0 10 -262144
-1 -1 10037 1;
#X obj 808 46 throw~ noise;
#X obj 624 -92 mtof;
#X floatatom 660 -67 5 0 0 0 - - -;
#X obj 1083 131 throw~ bass;
#X obj 1113 48 hsl 128 15 0 1 0 0 empty empty empty -2 -8 0 10 -262144
-1 -1 8672 1;
#X obj 1096 -152 bng 15 250 50 0 empty empty empty 17 7 0 10 -262144
-1 -1;
#X obj 1108 -47 line;
#X obj 546 452 s f1;
#X obj 580 475 s f2;
#X obj 615 498 s f3;
#X obj 18 411 formant;
#X obj 27 383 r f1;
#X obj 58 383 r f2;
#X obj 89 384 r f3;
#X obj 106 436 formant;
#X obj 115 408 r f1;
#X obj 146 408 r f2;
#X obj 177 408 r f3;
#X obj 188 469 formant;
#X obj 197 441 r f1;
#X obj 228 441 r f2;
#X obj 259 441 r f3;
#X obj 267 398 formant;
#X obj 276 370 r f1;
#X obj 307 370 r f2;
#X obj 338 370 r f3;
#X obj 350 420 formant;
#X obj 359 392 r f1;
#X obj 390 392 r f2;
#X obj 421 392 r f3;
#X obj 420 448 formant;
#X obj 429 420 r f1;
#X obj 460 420 r f2;
#X obj 491 420 r f3;
#X obj 37 685 throw~ tones1;
#X obj -125 -157 + 3;
#X obj -90 -158 + 4;
#X obj -25 -160 + 8;
#X obj -60 -159 - 12;
#X obj 5 -159 + 24;
#X obj 438 -75 / 1;
#X obj -24 -123 + 7;
#X obj 8 -123 + 14;
#X obj -128 -124 + 21;
#X obj -90 -124 - 7;
#X obj -58 -123 - 14;
#X obj -141 -88 + 9;
#X obj -105 -89 - 18;
#X obj -67 -89 - 9;
#X obj -34 -90 + 27;
#X obj 0 -90 - 27;
#X obj 285 -17 - 7;
#X obj 455 -17 - 14;
#X obj 543 -16 + 7;
#X obj 808 21 hip~ 75;
#N canvas 0 22 450 300 fire 0;
#N canvas 8 22 450 300 hissing 0;
#X obj 71 34 noise~;
#X obj 200 96 lop~ 1;
#X obj 155 234 *~;
#X obj 155 272 outlet~;
#X obj 200 179 *~;
#X obj 289 133 noise~;
#X obj 289 157 lop~ 1;
#X obj 290 185 *~;
#X obj 71 58 hip~ 1000;
#X obj 200 120 *~ 10;
#X obj 200 147 *~;
#X obj 200 205 *~ 600;
#X obj 290 208 *~ 10;
#X obj 398 25 inlet;
#X obj 248 255 svf~ 3520;
#X connect 0 0 8 0;
#X connect 0 0 1 0;
#X connect 1 0 9 0;
#X connect 2 0 14 0;
#X connect 4 0 11 0;
#X connect 5 0 6 0;
#X connect 6 0 7 1;
#X connect 7 0 12 0;
#X connect 8 0 7 0;
#X connect 8 0 2 0;
#X connect 9 0 10 0;
#X connect 9 0 10 1;
#X connect 10 0 4 1;
#X connect 10 0 4 0;
#X connect 11 0 2 1;
#X connect 12 0 14 0;
#X connect 13 0 14 1;
#X connect 14 0 3 0;
#X restore 191 -111 pd hissing;
#N canvas 0 22 450 300 flames 0;
#X obj 157 72 noise~;
#X obj 157 103 bp~ 30 5;
#X obj 157 126 *~ 100;
#X obj 157 148 hip~ 25;
#X obj 157 171 clip~ -0.9 0.9;
#X obj 157 194 hip~ 25;
#X obj 157 243 outlet~;
#X obj 157 218 *~ 0.6;
#X connect 0 0 1 0;
#X connect 1 0 2 0;
#X connect 2 0 3 0;
#X connect 3 0 4 0;
#X connect 4 0 5 0;
#X connect 5 0 7 0;
#X connect 7 0 6 0;
#X restore 116 -112 pd flames;
#X obj 115 -71 outlet~;
#X obj 191 -140 inlet;
#X text 232 -143 freq inlet for svf~;
#X connect 0 0 2 0;
#X connect 1 0 2 0;
#X connect 3 0 0 0;
#X restore 847 -131 pd fire;
#X obj 1162 -150 bng 15 250 50 0 empty empty empty 17 7 0 10 -262144
-1 -1;
#X obj 634 -15 - 28;
#X obj 197 31 phasor~;
#X obj 285 32 phasor~;
#X obj 371 31 phasor~;
#X obj 455 30 phasor~;
#X obj 543 32 phasor~;
#X obj 634 33 phasor~;
#X obj 841 676 hsl 128 15 0 127 0 0 empty empty empty -2 -8 0 10 -262144
-1 -1 10785 1;
#X obj 839 744 s filterall_l;
#X obj 46 470 r filterall_l;
#X obj 18 601 svf~ 660 0;
#X obj 46 579 sig~;
#X obj 46 558 r filterall_h;
#X obj 1000 656 hsl 128 15 0 127 0 0 empty empty empty -2 -8 0 10 -262144
-1 -1 0 1;
#X obj 997 752 s filterall_h;
#X obj 839 712 * 10;
#X obj 997 727 * 10;
#X obj 131 495 clip~ -1 1;
#X obj 159 540 sig~;
#X obj 131 560 svf~ 660 0;
#X obj 159 519 r filterall_l;
#X obj 131 650 svf~ 660 0;
#X obj 159 628 sig~;
#X obj 159 607 r filterall_h;
#X obj 247 497 clip~ -1 1;
#X obj 275 542 sig~;
#X obj 247 562 svf~ 660 0;
#X obj 275 521 r filterall_l;
#X obj 247 652 svf~ 660 0;
#X obj 275 630 sig~;
#X obj 275 609 r filterall_h;
#X obj 367 500 clip~ -1 1;
#X obj 395 545 sig~;
#X obj 367 565 svf~ 660 0;
#X obj 395 524 r filterall_l;
#X obj 367 655 svf~ 660 0;
#X obj 395 633 sig~;
#X obj 395 612 r filterall_h;
#X obj 486 513 clip~ -1 1;
#X obj 514 558 sig~;
#X obj 486 578 svf~ 660 0;
#X obj 514 537 r filterall_l;
#X obj 486 668 svf~ 660 0;
#X obj 514 646 sig~;
#X obj 514 625 r filterall_h;
#X obj 610 548 clip~ -1 1;
#X obj 638 593 sig~;
#X obj 610 613 svf~ 660 0;
#X obj 638 572 r filterall_l;
#X obj 610 703 svf~ 660 0;
#X obj 638 681 sig~;
#X obj 638 660 r filterall_h;
#X obj 150 713 throw~ tones2;
#X obj 266 724 throw~ tones3;
#X obj 386 727 throw~ tones4;
#X obj 505 761 throw~ tones5;
#X obj 629 796 throw~ tones6;
#X obj 197 -13 + 14;
#X obj 352 776 catch~ noise;
#X obj 135 761 catch~ bass;
#X msg 884 623 128;
#X msg 1074 630 0;
#X obj -130 563 s \$0-p1;
#X obj -127 541 hsl 128 15 0 360 0 0 empty empty empty -2 -8 0 10 -262144
-1 -1 4022 1;
#X obj -128 586 hsl 128 15 0 360 0 0 empty empty empty -2 -8 0 10 -262144
-1 -1 6138 1;
#X obj -131 607 s \$0-p2;
#X obj -128 633 hsl 128 15 0 360 0 0 empty empty empty -2 -8 0 10 -262144
-1 -1 8255 1;
#X obj -129 678 hsl 128 15 0 360 0 0 empty empty empty -2 -8 0 10 -262144
-1 -1 10372 1;
#X obj -131 655 s \$0-p3;
#X obj -132 699 s \$0-p4;
#X obj -128 720 hsl 128 15 0 360 0 0 empty empty empty -2 -8 0 10 -262144
-1 -1 12488 1;
#X obj -129 765 hsl 128 15 0 360 0 0 empty empty empty -2 -8 0 10 -262144
-1 -1 1905 1;
#X obj -131 742 s \$0-p5;
#X obj -132 786 s \$0-p6;
#X obj -134 481 hsl 128 15 0 360 0 0 empty empty empty -2 -8 0 10 -262144
-1 -1 4052 1;
#X obj -135 182 vsl 15 128 0 4 0 0 empty empty empty 0 -9 0 10 -262144
-1 -1 190 1;
#X floatatom -105 300 5 0 0 0 - - -;
#X obj 45 263 / 127;
#X obj 197 55 *~ 0.5;
#X obj 286 56 *~ 0.5;
#X obj 371 55 *~ 0.5;
#X obj 455 54 *~ 0.5;
#X obj 543 57 *~ 0.5;
#X obj 634 57 *~ 0.5;
#X obj 177 671 r \$0-gate;
#X obj 64 634 r \$0-gate;
#X obj 1312 768 s \$0-gate;
#X msg 1313 605 1;
#X obj 293 676 r \$0-gate;
#X obj 413 677 r \$0-gate;
#X obj 532 700 r \$0-gate;
#X obj 656 727 r \$0-gate;
#X msg 1349 605 0;
#X obj 1314 493 tgl 15 0 empty empty empty 17 7 0 10 -262144 -1 -1
1 1;
#X obj 1314 533 f;
#X obj 1348 533 + 1;
#X obj 1314 556 % 2;
#X obj 1314 578 sel 0 1;
#X obj -135 330 lfo;
#X obj -135 354 * 360;
#N canvas 367 195 799 633 guy 0;
#X obj 134 51 inlet;
#X obj 123 140 t f f;
#X obj 150 163 +;
#X msg 224 58 360;
#X obj 227 99 / 6;
#X obj 150 188 t f f;
#X obj 177 209 +;
#X obj 182 239 t f f;
#X obj 209 262 +;
#X obj 209 287 t f f;
#X obj 236 308 +;
#X obj 243 333 t f f;
#X obj 270 356 +;
#X obj 221 37 loadbang;
#X obj 123 514 mod 360;
#X obj 171 516 mod 360;
#X obj 217 517 mod 360;
#X obj 264 517 mod 360;
#X obj 311 516 mod 360;
#X obj 358 516 mod 360;
#X obj 128 562 outlet;
#X obj 173 563 outlet;
#X obj 217 564 outlet;
#X obj 262 565 outlet;
#X obj 307 566 outlet;
#X obj 352 567 outlet;
#X connect 0 0 1 0;
#X connect 1 0 14 0;
#X connect 1 1 2 0;
#X connect 2 0 5 0;
#X connect 3 0 4 0;
#X connect 4 0 2 1;
#X connect 4 0 6 1;
#X connect 4 0 8 1;
#X connect 4 0 10 1;
#X connect 4 0 12 1;
#X connect 5 0 15 0;
#X connect 5 1 6 0;
#X connect 6 0 7 0;
#X connect 7 0 16 0;
#X connect 7 1 8 0;
#X connect 8 0 9 0;
#X connect 9 0 17 0;
#X connect 9 1 10 0;
#X connect 10 0 11 0;
#X connect 11 0 18 0;
#X connect 11 1 12 0;
#X connect 12 0 19 0;
#X connect 13 0 3 0;
#X connect 14 0 20 0;
#X connect 15 0 21 0;
#X connect 16 0 22 0;
#X connect 17 0 23 0;
#X connect 18 0 24 0;
#X connect 19 0 25 0;
#X restore -125 513 pd guy --------;
#X obj -42 413 swap 1;
#X obj -41 434 -;
#X obj -41 457 + 360;
#X obj -45 391 bng 15 250 50 0 empty empty empty 17 7 0 10 -262144
-1 -1;
#X obj -20 391 bng 15 250 50 0 empty empty empty 17 7 0 10 -262144
-1 -1;
#X obj 1479 405 notein;
#X floatatom 1475 443 5 0 0 0 - - -;
#X floatatom 1512 447 5 0 0 0 - - -;
#N canvas 0 22 450 300 presets 0;
#X obj 91 25 boxbutton 17;
#X obj 90 61 f;
#X obj 124 62 + 1;
#X obj 84 148 bng 15 250 50 0 empty empty empty 17 7 0 10 -262144 -1
-1;
#X obj 105 148 bng 15 250 50 0 empty empty empty 17 7 0 10 -262144
-1 -1;
#X obj 125 148 bng 15 250 50 0 empty empty empty 17 7 0 10 -262144
-1 -1;
#X obj 146 148 bng 15 250 50 0 empty empty empty 17 7 0 10 -262144
-1 -1;
#X obj 84 175 s p1;
#X obj 100 199 s p2;
#X obj 90 85 mod 4;
#X obj 90 115 sel 0 1 2 3;
#X obj 130 179 s p3;
#X obj 146 203 s p4;
#X connect 0 0 1 0;
#X connect 1 0 2 0;
#X connect 1 0 9 0;
#X connect 2 0 1 1;
#X connect 3 0 7 0;
#X connect 4 0 8 0;
#X connect 5 0 11 0;
#X connect 6 0 12 0;
#X connect 9 0 10 0;
#X connect 10 0 3 0;
#X connect 10 1 4 0;
#X connect 10 2 5 0;
#X connect 10 3 6 0;
#X restore 228 -170 pd presets;
#X obj -72 256 spigot;
#X msg -52 198 0;
#X msg -21 197 1;
#X obj -97 229 r \$0-ctl;
#X obj -39 282 / 32;
#X obj 84 1248 stereo-out~;
#X obj -112 924 binaural~;
#X obj 85 1161 stereo-rev~;
#X text 199 1170 <- try reverberation;
#X text 221 1186 (but a very simple reverb);
#X obj -94 898 r \$0-p1;
#X obj 57 924 binaural~;
#X obj 201 929 binaural~;
#X obj 357 925 binaural~;
#X obj 512 925 binaural~;
#X obj 656 930 binaural~;
#X obj 75 898 r \$0-p2;
#X obj 219 903 r \$0-p3;
#X obj 375 899 r \$0-p4;
#X obj 530 899 r \$0-p5;
#X obj 674 904 r \$0-p6;
#X obj 679 427 bng 15 250 50 0 empty empty empty 17 7 0 10 -262144
-1 -1;
#X obj 679 405 del;
#X obj 679 474 s \$0-rand;
#X obj 516 109 r \$0-rand;
#X msg 615 451 \$1 60000;
#X msg 580 424 \$1 60000;
#X msg 546 399 \$1 60000;
#X obj 134 822 nozip;
#X obj 398 802 hsl 128 15 0 1 0 0 empty empty empty -2 -8 0 10 -262144
-1 -1 2540 1;
#X obj 358 832 nozip;
#X obj 159 796 hsl 128 15 0 1 0 0 empty empty empty -2 -8 0 10 -262144
-1 -1 1270 1;
#X floatatom 725 128 5 0 0 0 - - -;
#X obj 1086 -92 unpack;
#X obj 1138 -69 del;
#X obj 725 173 s change;
#X obj 725 150 b;
#X msg 1312 720 \$1 \$2;
#X obj 1313 699 pack;
#X obj 1399 651 hsl 128 15 0 500 0 0 empty empty empty -2 -8 0 10 -262144
-1 -1 6691 1;
#X obj 1312 745 line;
#X obj 818 203 s pitch;
#X floatatom 818 177 5 0 0 0 - - -;
#X obj 811 127 loadbang;
#X obj -45 360 loadbang;
#X obj 218 754 loadbang;
#X obj 1314 467 loadbang;
#X obj 1180 484 line;
#X msg 818 152 55;
#X obj 1314 512 metro 110;
#X msg 1159 -114 0 120000;
#X obj 1082 101 *~ 1;
#X obj 1092 436 unpack;
#X obj 1125 463 del;
#X obj 944 568 loadbang;
#X obj 754 228 sel 0 1 2 3 4 5 6 7 8;
#X obj 679 449 random 8;
#X obj 1083 20 osc~ 50;
#X obj 814 328 line;
#X obj 814 357 s bass_f;
#X obj 1083 -7 r bass_f;
#X msg 737 260 70;
#X msg 768 260 50;
#X msg 801 260 68.75;
#X msg 844 260 86.25;
#X msg 814 305 \$1 12000;
#X msg 889 260 80;
#X msg 920 260 77.5;
#X obj 516 129 sel 0 1 2 3 4 5 6 7 8;
#X obj 1219 427 unpack;
#X obj 1252 454 del;
#X obj 1158 358 loadbang;
#X msg 984 260 62.5;
#X msg 953 260 56;
#X msg 1027 260 44.375;
#X text 578 107 vocal formants;
#X text 930 229 divided down from bottom formant band;
#X msg 1141 402 0 300000;
#X msg 1209 403 500 300000;
#X msg 889 -178 0 120000;
#X obj 889 -75 line;
#X obj 1184 -85 unpack;
#X obj 1217 -21 del;
#X obj 1095 -180 loadbang;
#X msg 1094 -125 1 120000;
#X msg 305 766 0.2;
#X obj 746 -142 unpack;
#X obj 796 -141 del;
#X obj 794 -211 loadbang;
#X msg 746 -174 1 200000;
#X obj 927 -128 + 360000;
#X obj 894 -157 unpack;
#X obj 927 -106 del;
#X text 621 155 i: ee green;
#X text 648 208 e red;
#X text 635 186 i pink;
#X text 662 254 ^ mustard;
#X text 671 277 u blue;
#X text 681 297 u wooden;
#X text 691 341 a olive;
#X text 687 321 a rose;
#X text 658 234 ae amber;
#X obj 1217 -51 + 100000;
#X msg 679 379 80000;
#X obj 754 436 unpack;
#X obj 757 463 del;
#X obj 690 511 f;
#X floatatom 749 522 5 0 0 0 - - -;
#X text 788 523 arrived at this vowel/color;
#X obj 960 350 led_color_picker;
#X obj 808 -8 *~ 0.3;
#N canvas 204 262 450 300 lfo 0;
#X obj 154 -79 snapshot~;
#X floatatom 154 11 5 0 0 0 - - -;
#X obj 279 -139 tgl 15 0 empty empty empty 17 7 0 10 -262144 -1 -1
1 1;
#X obj 321 -87 bng 15 250 50 0 empty empty empty 17 7 0 10 -262144
-1 -1;
#X obj 154 -50 + 1;
#X obj 154 -17 / 2;
#X obj 154 58 outlet;
#X obj 154 -143 inlet;
#X obj 276 -112 metro 10;
#X obj 356 -139 inlet;
#X obj 154 -113 osc~ 0.001;
#X connect 0 0 4 0;
#X connect 1 0 6 0;
#X connect 2 0 8 0;
#X connect 3 0 0 0;
#X connect 4 0 5 0;
#X connect 5 0 1 0;
#X connect 7 0 10 0;
#X connect 8 0 3 0;
#X connect 9 0 2 0;
#X connect 10 0 0 0;
#X restore 840 580 pd lfo;
#X floatatom 884 714 5 0 0 0 - - -;
#X obj 838 653 jrange 0 1 20 127;
#X obj 37 657 nozip;
#X obj 150 693 nozip;
#X obj 266 698 nozip;
#X obj 386 699 nozip;
#X obj 505 722 nozip;
#X obj 629 749 nozip;
#X obj 1083 70 nozip;
#X obj -135 378 jspigot;
#X obj 874 971 b-format-encoder~;
#X obj 867 1124 ambi-4ch-2D-decoder~;
#X obj 931 872 r \$0-p1;
#X obj 84 1220 *~ 1;
#X obj 187 1222 *~ 1;
#X obj 931 903 swap 1;
#X obj 932 924 -;
#X obj 932 947 + 360;
#X obj 847 835 catch~ tones1;
#X obj 1019 970 b-format-encoder~;
#X obj 1012 1123 ambi-4ch-2D-decoder~;
#X obj 1076 902 swap 1;
#X obj 1077 923 -;
#X obj 1077 946 + 360;
#X obj 992 834 catch~ tones2;
#X obj 1077 871 r \$0-p2;
#X obj 1163 970 b-format-encoder~;
#X obj 1156 1123 ambi-4ch-2D-decoder~;
#X obj 1220 902 swap 1;
#X obj 1221 923 -;
#X obj 1221 946 + 360;
#X obj 1308 969 b-format-encoder~;
#X obj 1301 1122 ambi-4ch-2D-decoder~;
#X obj 1365 901 swap 1;
#X obj 1366 922 -;
#X obj 1366 945 + 360;
#X obj 1136 834 catch~ tones3;
#X obj 1281 833 catch~ tones4;
#X obj 1448 969 b-format-encoder~;
#X obj 1441 1122 ambi-4ch-2D-decoder~;
#X obj 1505 901 swap 1;
#X obj 1506 922 -;
#X obj 1506 945 + 360;
#X obj 1593 968 b-format-encoder~;
#X obj 1586 1121 ambi-4ch-2D-decoder~;
#X obj 1650 900 swap 1;
#X obj 1651 921 -;
#X obj 1651 944 + 360;
#X obj 1421 833 catch~ tones5;
#X obj 1566 832 catch~ tones6;
#X obj 1219 871 r \$0-p3;
#X obj 1366 870 r \$0-p4;
#X obj 1505 870 r \$0-p5;
#X obj 1651 869 r \$0-p6;
#X obj 1151 1243 quadrophon-out~;
#X obj 1175 1208 *~ 2;
#X obj 1208 1208 *~ 2;
#X obj 1241 1208 *~ 2;
#X obj 1274 1208 *~ 2;
#X obj -135 100 loadbang;
#X msg -135 156 0.06;
#X msg 218 775 0.1;
#X obj 79 822 *~ 0.2;
#X obj 78 851 dac~ 5;
#X obj 1027 901 dac~ 5;
#X obj 1028 872 *~ 0.1;
#X obj 1170 900 dac~ 5;
#X obj 1171 871 *~ 0.1;
#X obj 1317 899 dac~ 5;
#X obj 1318 870 *~ 0.1;
#X obj 1456 900 dac~ 5;
#X obj 1457 871 *~ 0.1;
#X obj 1604 899 dac~ 5;
#X obj 1605 870 *~ 0.1;
#X obj 885 902 dac~ 5;
#X obj 886 873 *~ 0.1;
#X obj 1067 1205 loadbang;
#X msg 1067 1226 100;
#X connect 0 0 142 0;
#X connect 1 0 143 0;
#X connect 2 0 144 0;
#X connect 3 0 145 0;
#X connect 4 0 23 0;
#X connect 5 0 24 0;
#X connect 6 0 25 0;
#X connect 7 0 26 0;
#X connect 8 0 43 0;
#X connect 9 0 18 0;
#X connect 10 0 44 0;
#X connect 11 0 17 0;
#X connect 12 0 45 0;
#X connect 13 0 16 0;
#X connect 14 0 46 0;
#X connect 15 0 218 0;
#X connect 16 0 24 1;
#X connect 17 0 25 1;
#X connect 18 0 26 1;
#X connect 19 0 56 0;
#X connect 23 0 94 0;
#X connect 24 0 98 0;
#X connect 25 0 102 0;
#X connect 26 0 106 0;
#X connect 27 0 146 0;
#X connect 29 0 42 0;
#X connect 30 0 31 0;
#X connect 31 0 32 1;
#X connect 32 0 110 0;
#X connect 33 0 32 0;
#X connect 34 0 147 0;
#X connect 37 0 47 0;
#X connect 38 0 39 0;
#X connect 39 0 40 1;
#X connect 40 0 114 0;
#X connect 41 0 40 0;
#X connect 42 0 30 0;
#X connect 43 0 9 0;
#X connect 44 0 11 0;
#X connect 45 0 13 0;
#X connect 46 0 15 0;
#X connect 47 0 38 0;
#X connect 48 0 14 0;
#X connect 49 0 12 0;
#X connect 50 0 10 0;
#X connect 51 0 8 0;
#X connect 52 0 29 0;
#X connect 53 0 37 0;
#X connect 54 0 63 0;
#X connect 54 1 48 1;
#X connect 54 1 49 1;
#X connect 54 1 50 1;
#X connect 54 1 51 1;
#X connect 54 1 52 1;
#X connect 54 1 53 1;
#X connect 55 0 54 0;
#X connect 56 0 55 0;
#X connect 57 0 19 0;
#X connect 59 0 58 0;
#X connect 60 0 58 0;
#X connect 61 0 58 0;
#X connect 62 0 48 0;
#X connect 62 1 49 0;
#X connect 62 2 50 0;
#X connect 62 3 51 0;
#X connect 62 4 52 0;
#X connect 62 5 53 0;
#X connect 63 0 62 0;
#X connect 64 0 124 0;
#X connect 65 0 80 0;
#X connect 66 0 74 0;
#X connect 67 0 74 0;
#X connect 68 0 74 0;
#X connect 69 0 74 0;
#X connect 70 0 74 0;
#X connect 71 0 74 0;
#X connect 72 0 74 0;
#X connect 73 0 74 0;
#X connect 74 0 278 0;
#X connect 74 1 277 0;
#X connect 74 2 276 0;
#X connect 74 2 354 0;
#X connect 75 0 74 0;
#X connect 76 0 91 0;
#X connect 77 0 92 0;
#X connect 78 0 93 0;
#X connect 79 0 80 1;
#X connect 80 0 151 0;
#X connect 81 0 361 0;
#X connect 82 0 85 0;
#X connect 83 0 81 1;
#X connect 85 0 86 0;
#X connect 85 0 139 0;
#X connect 88 0 371 1;
#X connect 89 0 335 0;
#X connect 90 0 88 0;
#X connect 94 0 65 0;
#X connect 95 0 94 1;
#X connect 96 0 94 2;
#X connect 97 0 94 3;
#X connect 98 0 158 0;
#X connect 99 0 98 1;
#X connect 100 0 98 2;
#X connect 101 0 98 3;
#X connect 102 0 165 0;
#X connect 103 0 102 1;
#X connect 104 0 102 2;
#X connect 105 0 102 3;
#X connect 106 0 172 0;
#X connect 107 0 106 1;
#X connect 108 0 106 2;
#X connect 109 0 106 3;
#X connect 110 0 179 0;
#X connect 111 0 110 1;
#X connect 112 0 110 2;
#X connect 113 0 110 3;
#X connect 114 0 186 0;
#X connect 115 0 114 1;
#X connect 116 0 114 2;
#X connect 117 0 114 3;
#X connect 124 0 2 0;
#X connect 124 0 135 0;
#X connect 124 0 136 0;
#X connect 124 0 137 0;
#X connect 124 0 141 0;
#X connect 124 0 198 0;
#X connect 135 0 1 0;
#X connect 136 0 3 0;
#X connect 137 0 27 0;
#X connect 138 0 84 0;
#X connect 139 0 81 0;
#X connect 140 0 301 0;
#X connect 141 0 34 0;
#X connect 142 0 219 0;
#X connect 143 0 220 0;
#X connect 144 0 221 0;
#X connect 145 0 222 0;
#X connect 146 0 223 0;
#X connect 147 0 224 0;
#X connect 148 0 156 0;
#X connect 148 0 363 0;
#X connect 150 0 79 0;
#X connect 151 1 365 0;
#X connect 152 0 151 1;
#X connect 153 0 152 0;
#X connect 154 0 157 0;
#X connect 156 0 149 0;
#X connect 157 0 155 0;
#X connect 158 0 160 0;
#X connect 159 0 160 1;
#X connect 160 0 162 0;
#X connect 161 0 159 0;
#X connect 162 1 366 0;
#X connect 163 0 162 1;
#X connect 164 0 163 0;
#X connect 165 0 167 0;
#X connect 166 0 167 1;
#X connect 167 0 169 0;
#X connect 168 0 166 0;
#X connect 169 1 367 0;
#X connect 170 0 169 1;
#X connect 171 0 170 0;
#X connect 172 0 174 0;
#X connect 173 0 174 1;
#X connect 174 0 176 0;
#X connect 175 0 173 0;
#X connect 176 1 368 0;
#X connect 177 0 176 1;
#X connect 178 0 177 0;
#X connect 179 0 181 0;
#X connect 180 0 181 1;
#X connect 181 0 183 0;
#X connect 182 0 180 0;
#X connect 183 1 369 0;
#X connect 184 0 183 1;
#X connect 185 0 184 0;
#X connect 186 0 188 0;
#X connect 187 0 188 1;
#X connect 188 0 190 0;
#X connect 189 0 187 0;
#X connect 190 1 370 0;
#X connect 191 0 190 1;
#X connect 192 0 191 0;
#X connect 198 0 0 0;
#X connect 199 0 281 0;
#X connect 200 0 279 0;
#X connect 200 0 425 0;
#X connect 202 0 154 0;
#X connect 204 0 203 0;
#X connect 205 0 206 0;
#X connect 207 0 209 0;
#X connect 208 0 210 0;
#X connect 211 0 213 0;
#X connect 212 0 214 0;
#X connect 215 0 241 0;
#X connect 216 0 217 0;
#X connect 216 0 239 0;
#X connect 218 0 23 1;
#X connect 219 0 20 0;
#X connect 220 0 21 0;
#X connect 221 0 22 0;
#X connect 222 0 28 0;
#X connect 223 0 35 0;
#X connect 224 0 36 0;
#X connect 225 0 366 1;
#X connect 226 0 365 1;
#X connect 228 0 289 0;
#X connect 229 0 367 1;
#X connect 230 0 368 1;
#X connect 231 0 369 1;
#X connect 232 0 370 1;
#X connect 233 0 289 0;
#X connect 234 0 228 0;
#X connect 234 0 300 0;
#X connect 235 0 236 0;
#X connect 235 0 237 0;
#X connect 236 0 235 1;
#X connect 237 0 238 0;
#X connect 238 0 228 0;
#X connect 238 1 233 0;
#X connect 239 0 240 0;
#X connect 240 0 372 0;
#X connect 241 0 204 0;
#X connect 241 1 205 0;
#X connect 241 2 207 0;
#X connect 241 3 208 0;
#X connect 241 4 211 0;
#X connect 241 5 212 0;
#X connect 242 0 243 0;
#X connect 242 1 243 1;
#X connect 243 0 244 0;
#X connect 244 0 215 0;
#X connect 245 0 372 1;
#X connect 246 0 372 2;
#X connect 247 0 248 0;
#X connect 247 1 249 0;
#X connect 251 0 255 0;
#X connect 252 0 251 1;
#X connect 253 0 251 1;
#X connect 254 0 251 0;
#X connect 255 0 216 0;
#X connect 257 0 258 0;
#X connect 257 1 258 1;
#X connect 258 0 376 0;
#X connect 258 1 377 0;
#X connect 261 0 257 1;
#X connect 262 0 258 0;
#X connect 262 1 258 1;
#X connect 263 0 258 0;
#X connect 263 1 258 1;
#X connect 264 0 258 0;
#X connect 264 1 258 1;
#X connect 265 0 258 0;
#X connect 266 0 258 1;
#X connect 267 0 262 1;
#X connect 268 0 263 1;
#X connect 269 0 264 1;
#X connect 270 0 265 1;
#X connect 271 0 266 1;
#X connect 272 0 307 0;
#X connect 273 0 272 0;
#X connect 275 0 283 0;
#X connect 275 0 319 0;
#X connect 276 0 78 0;
#X connect 277 0 77 0;
#X connect 278 0 76 0;
#X connect 278 0 355 0;
#X connect 279 0 389 0;
#X connect 280 0 281 1;
#X connect 281 0 394 0;
#X connect 282 0 279 1;
#X connect 283 0 287 0;
#X connect 283 0 306 0;
#X connect 283 0 360 0;
#X connect 284 1 285 0;
#X connect 285 0 140 0;
#X connect 287 0 286 0;
#X connect 288 0 291 0;
#X connect 289 0 288 0;
#X connect 290 0 289 1;
#X connect 291 0 227 0;
#X connect 293 0 292 0;
#X connect 294 0 299 0;
#X connect 294 0 66 0;
#X connect 295 0 245 0;
#X connect 296 0 336 0;
#X connect 296 0 424 0;
#X connect 297 0 234 0;
#X connect 298 0 290 0;
#X connect 299 0 293 0;
#X connect 300 0 235 0;
#X connect 301 0 90 0;
#X connect 301 0 332 0;
#X connect 302 0 87 0;
#X connect 303 1 304 0;
#X connect 304 0 329 0;
#X connect 305 0 201 0;
#X connect 305 0 202 0;
#X connect 305 0 362 1;
#X connect 306 0 312 0;
#X connect 306 1 313 0;
#X connect 306 2 314 0;
#X connect 306 3 315 0;
#X connect 306 4 317 0;
#X connect 306 5 318 0;
#X connect 306 6 324 0;
#X connect 306 7 323 0;
#X connect 306 8 325 0;
#X connect 307 0 274 0;
#X connect 307 0 357 1;
#X connect 308 0 371 0;
#X connect 309 0 310 0;
#X connect 311 0 308 0;
#X connect 312 0 316 0;
#X connect 313 0 316 0;
#X connect 314 0 316 0;
#X connect 315 0 316 0;
#X connect 316 0 309 0;
#X connect 317 0 316 0;
#X connect 318 0 316 0;
#X connect 319 0 66 0;
#X connect 319 1 75 0;
#X connect 319 2 67 0;
#X connect 319 3 68 0;
#X connect 319 4 69 0;
#X connect 319 5 70 0;
#X connect 319 6 71 0;
#X connect 319 7 72 0;
#X connect 319 8 73 0;
#X connect 320 1 321 0;
#X connect 321 0 328 0;
#X connect 322 0 329 0;
#X connect 323 0 316 0;
#X connect 324 0 316 0;
#X connect 325 0 316 0;
#X connect 328 0 298 0;
#X connect 328 0 303 0;
#X connect 329 0 298 0;
#X connect 329 0 320 0;
#X connect 330 0 342 0;
#X connect 330 0 331 0;
#X connect 331 0 83 0;
#X connect 332 0 353 0;
#X connect 333 0 89 0;
#X connect 334 0 89 0;
#X connect 335 0 90 0;
#X connect 335 0 284 0;
#X connect 336 0 280 0;
#X connect 337 1 338 0;
#X connect 338 0 330 0;
#X connect 339 0 340 0;
#X connect 340 0 331 0;
#X connect 340 0 337 0;
#X connect 341 0 343 0;
#X connect 342 1 341 0;
#X connect 343 0 340 0;
#X connect 353 0 333 0;
#X connect 354 0 273 0;
#X connect 355 1 356 0;
#X connect 356 0 357 0;
#X connect 357 0 358 0;
#X connect 361 0 138 0;
#X connect 362 0 364 0;
#X connect 364 0 148 0;
#X connect 365 0 118 0;
#X connect 366 0 193 0;
#X connect 367 0 194 0;
#X connect 368 0 195 0;
#X connect 369 0 196 0;
#X connect 370 0 197 0;
#X connect 371 0 302 0;
#X connect 372 0 215 0;
#X connect 372 1 242 0;
#X connect 373 0 374 0;
#X connect 373 1 374 1;
#X connect 373 2 374 2;
#X connect 374 0 418 0;
#X connect 374 1 419 0;
#X connect 374 2 420 0;
#X connect 374 3 421 0;
#X connect 375 0 378 0;
#X connect 376 0 256 0;
#X connect 377 0 256 1;
#X connect 378 0 379 0;
#X connect 378 1 379 1;
#X connect 379 0 380 0;
#X connect 380 0 373 1;
#X connect 381 0 373 0;
#X connect 381 0 257 0;
#X connect 382 0 383 0;
#X connect 382 1 383 1;
#X connect 382 2 383 2;
#X connect 383 0 418 0;
#X connect 383 1 419 0;
#X connect 383 2 420 0;
#X connect 383 3 421 0;
#X connect 384 0 385 0;
#X connect 384 1 385 1;
#X connect 385 0 386 0;
#X connect 386 0 382 1;
#X connect 387 0 382 0;
#X connect 387 0 262 0;
#X connect 388 0 384 0;
#X connect 389 0 390 0;
#X connect 389 1 390 1;
#X connect 389 2 390 2;
#X connect 390 0 418 0;
#X connect 390 1 419 0;
#X connect 390 2 420 0;
#X connect 390 3 421 0;
#X connect 391 0 392 0;
#X connect 391 1 392 1;
#X connect 392 0 393 0;
#X connect 393 0 389 1;
#X connect 394 0 395 0;
#X connect 394 1 395 1;
#X connect 394 2 395 2;
#X connect 395 0 418 0;
#X connect 395 1 419 0;
#X connect 395 2 420 0;
#X connect 395 3 421 0;
#X connect 396 0 397 0;
#X connect 396 1 397 1;
#X connect 397 0 398 0;
#X connect 398 0 394 1;
#X connect 399 0 389 0;
#X connect 399 0 263 0;
#X connect 400 0 394 0;
#X connect 400 0 264 0;
#X connect 401 0 402 0;
#X connect 401 1 402 1;
#X connect 401 2 402 2;
#X connect 402 0 418 0;
#X connect 402 1 419 0;
#X connect 402 2 420 0;
#X connect 402 3 421 0;
#X connect 403 0 404 0;
#X connect 403 1 404 1;
#X connect 404 0 405 0;
#X connect 405 0 401 1;
#X connect 406 0 407 0;
#X connect 406 1 407 1;
#X connect 406 2 407 2;
#X connect 407 0 418 0;
#X connect 407 1 419 0;
#X connect 407 2 420 0;
#X connect 407 3 421 0;
#X connect 408 0 409 0;
#X connect 408 1 409 1;
#X connect 409 0 410 0;
#X connect 410 0 406 1;
#X connect 411 0 401 0;
#X connect 411 0 265 0;
#X connect 412 0 406 0;
#X connect 412 0 266 0;
#X connect 413 0 391 0;
#X connect 414 0 396 0;
#X connect 415 0 403 0;
#X connect 416 0 408 0;
#X connect 418 0 417 1;
#X connect 419 0 417 2;
#X connect 420 0 417 3;
#X connect 421 0 417 4;
#X connect 422 0 423 0;
#X connect 423 0 216 0;
#X connect 424 0 282 0;
#X connect 425 0 426 0;
#X connect 428 0 427 0;
#X connect 430 0 429 0;
#X connect 432 0 431 0;
#X connect 434 0 433 0;
#X connect 436 0 435 0;
#X connect 438 0 437 0;
#X connect 439 0 440 0;
#X connect 440 0 417 0;
