#N canvas 709 298 1453 855 10;
#X declare -lib mrpeach;
#X declare -lib iemgui -lib iem_ambi -lib iemlib -lib iemmatrix;
#X declare -lib iem_ambi -lib iemmatrix;
#X declare -lib iemgui -lib iem_ambi -lib iemlib -lib iemmatrix;
#X declare -lib iem_ambi -lib iemmatrix;
#X declare -lib iemgui -lib iem_ambi -lib iemlib -lib iemmatrix;
#X declare -lib iem_ambi -lib iemmatrix;
#X declare -lib iemgui -lib iem_ambi -lib iemlib -lib iemmatrix;
#X declare -lib iem_ambi -lib iemmatrix;
#X declare -lib iemgui -lib iem_ambi -lib iemlib -lib iemmatrix;
#X declare -lib iem_ambi -lib iemmatrix;
#X declare -lib iemgui -lib iem_ambi -lib iemlib -lib iemmatrix;
#X declare -lib iem_ambi -lib iemmatrix;
#X declare -lib earplug~ -lib iemlib -lib iemgui;
#X declare -lib earplug~ -lib iemlib -lib iemgui;
#X declare -lib earplug~ -lib iemlib -lib iemgui;
#X declare -lib earplug~ -lib iemlib -lib iemgui;
#X declare -lib earplug~ -lib iemlib -lib iemgui;
#X declare -lib earplug~ -lib iemlib -lib iemgui;
#X declare -lib iemgui -lib iem_ambi -lib iemlib -lib iemmatrix;
#X declare -lib iem_ambi -lib iemmatrix;
#X declare -lib earplug~ -lib iemlib -lib iemgui;
#X obj 184 549 mtof~;
#X obj 272 550 mtof~;
#X obj 358 549 mtof~;
#X obj 442 548 mtof~;
#X obj -31 596 tgl 15 0 empty empty empty 17 7 0 10 -262144 -1 -1 1
1;
#X obj 184 627 throw~ tone1;
#X obj 272 626 throw~ tone2;
#X obj 358 628 throw~ tone3;
#X obj 530 551 mtof~;
#X obj 442 627 throw~ tone4;
#X obj 621 551 mtof~;
#X obj 530 627 throw~ tone5;
#X obj 621 628 throw~ tone6;
#X obj -31 678 t b f;
#X obj -31 637 random 10000;
#X obj -31 616 metro 1000;
#X obj -31 572 loadbang;
#X obj -30 737 sel 0 1 2 3 4 5;
#X obj -31 714 random 6;
#X obj 425 427 r pitch;
#X msg 467 780 280 2250 2900;
#X msg 493 830 550 1770 2490;
#X msg 510 854 690 1660 2490;
#X msg 517 876 640 1190 2390;
#X msg 527 898 310 870 2250;
#X msg 532 919 450 1030 2380;
#X msg 536 942 500 1500 2500;
#X msg 545 963 710 1100 2640;
#X obj 505 989 unpack f f f;
#X msg 479 805 400 1900 2550;
#X obj 506 1102 line;
#X obj 540 1126 line;
#X obj 575 1153 line;
#X obj 506 1133 s f1;
#X obj 540 1156 s f2;
#X obj 575 1179 s f3;
#X obj -32 880 throw~ tones1;
#X obj 425 465 / 1;
#X obj 272 523 - 7;
#X obj 442 523 - 14;
#X obj 530 524 + 7;
#X obj 621 525 - 28;
#X obj 184 571 phasor~;
#X obj 272 572 phasor~;
#X obj 358 571 phasor~;
#X obj 442 570 phasor~;
#X obj 530 572 phasor~;
#X obj 621 573 phasor~;
#X obj 1252 762 hsl 128 15 0 127 0 0 empty empty empty -2 -8 0 10 -262144
-1 -1 12694 1;
#X obj 1250 830 s filterall_l;
#X obj 1411 742 hsl 128 15 0 127 0 0 empty empty empty -2 -8 0 10 -262144
-1 -1 0 1;
#X obj 1408 838 s filterall_h;
#X obj 1250 798 * 10;
#X obj 1408 813 * 10;
#X obj 184 527 + 14;
#X obj 339 1316 catch~ noise;
#X obj 122 1301 catch~ bass;
#X msg 1295 709 128;
#X msg 1485 716 0;
#X obj -255 694 vsl 15 128 0 4 0 0 empty empty empty 0 -9 0 10 -262144
-1 -1 190 1;
#X floatatom -225 812 5 0 0 0 - - -;
#X obj 184 595 *~ 0.5;
#X obj 273 596 *~ 0.5;
#X obj 358 595 *~ 0.5;
#X obj 442 594 *~ 0.5;
#X obj 530 597 *~ 0.5;
#X obj 621 597 *~ 0.5;
#X msg 1300 1145 1;
#X msg 1336 1145 0;
#X obj 1301 1033 tgl 15 0 empty empty empty 17 7 0 10 -262144 -1 -1
1 1;
#X obj 1301 1073 f;
#X obj 1335 1073 + 1;
#X obj 1301 1096 % 2;
#X obj 1301 1118 sel 0 1;
#X obj -255 842 lfo;
#X obj -255 866 * 360;
#X obj -162 925 swap 1;
#X obj -161 946 -;
#X obj -161 969 + 360;
#X obj -165 903 bng 15 250 50 0 empty empty empty 17 7 0 10 -262144
-1 -1;
#X obj -140 903 bng 15 250 50 0 empty empty empty 17 7 0 10 -262144
-1 -1;
#X obj 1489 899 notein;
#X floatatom 1485 937 5 0 0 0 - - -;
#X floatatom 1522 941 5 0 0 0 - - -;
#X obj -192 768 spigot;
#X msg -172 710 0;
#X msg -141 709 1;
#X obj -217 741 r \$0-ctl;
#X obj -159 794 / 32;
#X obj 71 1788 stereo-out~;
#X obj 72 1701 stereo-rev~;
#X obj 628 1048 bng 15 250 50 0 empty empty empty 17 7 0 10 -262144
-1 -1;
#X obj 628 1026 del;
#X obj 628 1095 s \$0-rand;
#X obj 121 1362 nozip;
#X obj 385 1342 hsl 128 15 0 1 0 0 empty empty empty -2 -8 0 10 -262144
-1 -1 2540 1;
#X obj 345 1372 nozip;
#X obj 146 1336 hsl 128 15 0 1 0 0 empty empty empty -2 -8 0 10 -262144
-1 -1 1270 1;
#X floatatom 674 749 5 0 0 0 - - -;
#X obj 674 794 s change;
#X obj 674 771 b;
#X msg 1299 1260 \$1 \$2;
#X obj 1300 1239 pack;
#X obj 1386 1191 hsl 128 15 0 500 0 0 empty empty empty -2 -8 0 10
-262144 -1 -1 323 1;
#X obj 1299 1285 line;
#X obj 767 824 s pitch;
#X floatatom 767 798 5 0 0 0 - - -;
#X obj 760 748 loadbang;
#X obj -165 872 loadbang;
#X obj 205 1294 loadbang;
#X obj 1301 1007 loadbang;
#X obj 1167 1024 line;
#X msg 767 773 55;
#X obj 1301 1052 metro 110;
#X obj 1079 976 unpack;
#X obj 1112 1003 del;
#X obj 1355 654 loadbang;
#X obj 703 849 sel 0 1 2 3 4 5 6 7 8;
#X obj 628 1070 random 8;
#X obj 763 949 line;
#X obj 763 978 s bass_f;
#X msg 686 881 70;
#X msg 717 881 50;
#X msg 750 881 68.75;
#X msg 793 881 86.25;
#X msg 763 926 \$1 12000;
#X msg 838 881 80;
#X msg 869 881 77.5;
#X obj 465 750 sel 0 1 2 3 4 5 6 7 8;
#X obj 1206 967 unpack;
#X obj 1239 994 del;
#X obj 1196 918 loadbang;
#X msg 933 881 62.5;
#X msg 902 881 56;
#X msg 976 881 44.375;
#X text 527 728 vocal formants;
#X text 879 850 divided down from bottom formant band;
#X msg 1128 942 0 300000;
#X msg 1196 943 500 300000;
#X msg 292 1306 0.2;
#X text 570 776 i: ee green;
#X text 597 829 e red;
#X text 584 807 i pink;
#X text 611 875 ^ mustard;
#X text 620 898 u blue;
#X text 630 918 u wooden;
#X text 640 962 a olive;
#X text 636 942 a rose;
#X text 607 855 ae amber;
#X msg 628 1000 80000;
#X obj 703 1057 unpack;
#X obj 706 1084 del;
#X obj 639 1132 f;
#X floatatom 698 1143 5 0 0 0 - - -;
#X text 743 1145 arrived at this vowel/color;
#X obj 909 971 led_color_picker;
#N canvas 204 262 450 300 lfo 0;
#X obj 154 -79 snapshot~;
#X floatatom 154 11 5 0 0 0 - - -;
#X obj 279 -139 tgl 15 0 empty empty empty 17 7 0 10 -262144 -1 -1
1 1;
#X obj 321 -87 bng 15 250 50 0 empty empty empty 17 7 0 10 -262144
-1 -1;
#X obj 154 -50 + 1;
#X obj 154 -17 / 2;
#X obj 154 58 outlet;
#X obj 154 -143 inlet;
#X obj 276 -112 metro 10;
#X obj 356 -139 inlet;
#X obj 154 -113 osc~ 0.001;
#X connect 0 0 4 0;
#X connect 1 0 6 0;
#X connect 2 0 8 0;
#X connect 3 0 0 0;
#X connect 4 0 5 0;
#X connect 5 0 1 0;
#X connect 7 0 10 0;
#X connect 8 0 3 0;
#X connect 9 0 2 0;
#X connect 10 0 0 0;
#X restore 1251 666 pd lfo;
#X floatatom 1295 800 5 0 0 0 - - -;
#X obj 1249 739 jrange 0 1 20 127;
#X obj -255 890 jspigot;
#X obj 71 1760 *~ 1;
#X obj 174 1762 *~ 1;
#X obj 628 1404 catch~ tones1;
#X obj -255 612 loadbang;
#X msg -255 668 0.06;
#X msg 205 1315 0.1;
#X obj 66 1362 *~ 0.2;
#X obj 65 1391 dac~ 5;
#X obj 182 28 vsl 15 128 0 1 0 0 empty empty empty 0 -9 0 10 -262144
-1 -1 0 1;
#X obj 206 28 vsl 15 128 0 1 0 0 empty empty empty 0 -9 0 10 -262144
-1 -1 0 1;
#X msg -52 549 0;
#X msg -19 549 1;
#X msg -213 668 0;
#X obj 142 30 vsl 15 128 0 1 0 0 empty empty empty 0 -9 0 10 -262144
-1 -1 0 1;
#X obj 231 28 vsl 15 128 0 1 0 0 empty empty empty 0 -9 0 10 -262144
-1 -1 0 1;
#X obj 254 28 vsl 15 128 0 1 0 0 empty empty empty 0 -9 0 10 -262144
-1 -1 0 1;
#X obj 278 28 vsl 15 128 0 1 0 0 empty empty empty 0 -9 0 10 -262144
-1 -1 0 1;
#X msg 205 501 14;
#X msg 287 498 7;
#X msg 463 496 14;
#X msg 545 495 7;
#X msg 642 498 28;
#X obj 450 30 vsl 15 128 0 50 0 0 empty empty empty 0 -9 0 10 -262144
-1 -1 0 1;
#X obj 364 261 jrange 0 127 0 50;
#X obj 474 30 vsl 15 128 0 50 0 0 empty empty empty 0 -9 0 10 -262144
-1 -1 0 1;
#X obj 479 261 jrange 0 127 0 50;
#X obj 498 30 vsl 15 128 0 50 0 0 empty empty empty 0 -9 0 10 -262144
-1 -1 0 1;
#X obj 490 326 jrange 0 127 0 50;
#X obj 524 30 vsl 15 128 0 50 0 0 empty empty empty 0 -9 0 10 -262144
-1 -1 0 1;
#X obj 541 286 jrange 0 127 0 50;
#X obj 551 30 vsl 15 128 0 50 0 0 empty empty empty 0 -9 0 10 -262144
-1 -1 0 1;
#X obj 653 284 jrange 0 127 0 50;
#X obj 416 30 vsl 15 128 0 127 0 0 empty empty empty 0 -9 0 10 -262144
-1 -1 0 1;
#X obj 325 378 spigot~;
#X obj 325 349 sig~;
#X obj 385 351 tgl 15 0 empty empty empty 17 7 0 10 -262144 -1 -1 0
1;
#X obj 391 405 snapshot~;
#X floatatom 392 430 0 0 0 0 - - -;
#X obj 391 379 metro 200;
#X msg 385 322 0;
#X msg 428 322 1;
#X obj -58 297 s remote;
#X obj -109 295 s auto;
#X obj -213 645 r remote;
#X obj -193 613 r auto;
#X obj -51 521 r remote;
#X obj 6 520 r auto;
#X obj 1486 659 r remote;
#X obj 1411 613 r auto;
#X msg 1504 682 0;
#X msg 1441 638 1;
#X obj 832 745 r auto;
#X obj 371 463 r auto;
#X obj 680 32 vsl 15 128 0 127 0 0 empty empty empty 0 -9 0 10 -262144
-1 -1 0 1;
#X obj 682 263 s remote_lpf;
#X obj 1365 706 r remote_lpf;
#X obj 815 33 vsl 15 128 0 127 0 0 empty empty empty 0 -9 0 10 -262144
-1 -1 0 1;
#X obj 773 261 s remote_hpf;
#X obj 1436 773 r remote_hpf;
#X obj 1410 1007 r remote;
#X obj 1362 1007 r auto;
#X msg 1413 1029 0;
#X msg 1362 1028 1;
#X obj 1443 1105 r r_gate;
#X obj 917 34 vsl 15 128 0 1 0 0 empty empty tones_global_vca 0 -9
0 10 -262144 -1 -1 0 1;
#X obj 886 292 s r_gate;
#X obj -69 -161 import mrpeach;
#X obj -69 -140 udpreceive 9001;
#X obj -69 -118 unpackOSC;
#X obj -69 -95 s OSC;
#X obj 348 -66 r OSC;
#X obj 15 16 bng 15 250 50 0 empty empty remote_control 17 7 0 10 -262144
-1 -1;
#X obj 2 102 bng 15 250 50 0 empty empty generative_control 17 7 0
10 -262144 -1 -1;
#X obj 1031 36 vsl 15 128 0 1 0 0 empty empty noise_vca 0 -9 0 10 -262144
-1 -1 0 1;
#X obj 1104 38 vsl 15 128 0 1 0 0 empty empty bass_vca 0 -9 0 10 -262144
-1 -1 0 1;
#X obj 1102 290 s r_bassvca;
#X msg 1550 177 280 2250 2900;
#X msg 1550 227 550 1770 2490;
#X msg 1551 251 690 1660 2490;
#X msg 1551 273 640 1190 2390;
#X msg 1552 295 310 870 2250;
#X msg 1552 316 450 1030 2380;
#X msg 1552 339 500 1500 2500;
#X msg 1552 360 710 1100 2640;
#X msg 1550 202 400 1900 2550;
#X text 1449 47 ih;
#X text 1449 75 eh;
#X text 1448 100 ae;
#X text 1448 144 oo;
#X text 1449 16 ee;
#X text 1449 170 uh;
#X text 1450 190 o;
#X text 1449 214 ah;
#X obj 1425 417 unpack f f f;
#X msg 1471 19 0;
#X obj 1513 80 sel 0 1 2 3 4 5 6 7 8;
#X msg 1471 48 1;
#X msg 1472 77 2;
#X msg 1471 101 3;
#X msg 1472 124 4;
#X msg 1473 144 5;
#X msg 1472 167 6;
#X msg 1471 191 7;
#X msg 1472 215 8;
#X obj 1425 499 line;
#X obj 1482 496 line;
#X obj 1540 495 line;
#X obj 1425 524 s nf1;
#X obj 1482 520 s nf2;
#X obj 1540 519 s nf3;
#X msg 1425 477 \$1 \$2;
#X msg 1482 475 \$1 \$2;
#X msg 1540 474 \$1 \$2;
#X obj 1425 450 pack f f;
#X obj 1482 450 pack f f;
#X obj 1540 450 pack f f;
#X obj 1545 418 r nft;
#X obj 1329 35 vsl 15 128 0 127 0 0 empty empty empty 0 -9 0 10 -262144
-1 -1 0 1;
#X obj 1339 291 s nft;
#X obj 1339 266 jrange 0 127 0 10000;
#X obj 1359 -44 loadbang;
#X msg 1359 -21 0;
#X obj 1514 -10 r \$0-rand;
#X obj 1514 19 spigot;
#X obj 1647 -33 r remote;
#X obj 1585 -33 r auto;
#X msg 1585 -10 1;
#X msg 1647 -10 0;
#X obj -122 1494 jrouter \$0-p1 rp1;
#X obj -122 1468 r remote-01;
#X obj -100 112 s remote-01;
#X msg -121 79 0;
#X msg -86 78 1;
#X obj -7 1467 r remote-01;
#X obj -7 1493 jrouter \$0-p2 rp2;
#N canvas 90 28 1033 529 quad_panners---------------------- 0;
#X obj -113 196 b-format-encoder~;
#X obj -120 349 ambi-4ch-2D-decoder~;
#X obj 32 195 b-format-encoder~;
#X obj 25 348 ambi-4ch-2D-decoder~;
#X obj 176 195 b-format-encoder~;
#X obj 169 348 ambi-4ch-2D-decoder~;
#X obj 321 194 b-format-encoder~;
#X obj 314 347 ambi-4ch-2D-decoder~;
#X obj 461 194 b-format-encoder~;
#X obj 454 347 ambi-4ch-2D-decoder~;
#X obj 606 193 b-format-encoder~;
#X obj 599 346 ambi-4ch-2D-decoder~;
#X obj 63 447 outlet~;
#X obj 121 446 outlet~;
#X obj 178 446 outlet~;
#X obj 236 445 outlet~;
#X obj -112 97 inlet~;
#X obj -56 97 inlet;
#X obj 90 96 inlet;
#X obj 232 96 inlet;
#X obj 379 95 inlet;
#X obj 518 95 inlet;
#X obj 32 97 inlet~;
#X obj 176 96 inlet~;
#X obj 319 97 inlet~;
#X obj 464 95 inlet~;
#X obj 608 96 inlet~;
#X obj 663 95 inlet;
#X connect 0 0 1 0;
#X connect 0 1 1 1;
#X connect 0 2 1 2;
#X connect 1 0 12 0;
#X connect 1 1 13 0;
#X connect 1 2 14 0;
#X connect 1 3 15 0;
#X connect 2 0 3 0;
#X connect 2 1 3 1;
#X connect 2 2 3 2;
#X connect 3 0 12 0;
#X connect 3 1 13 0;
#X connect 3 2 14 0;
#X connect 3 3 15 0;
#X connect 4 0 5 0;
#X connect 4 1 5 1;
#X connect 4 2 5 2;
#X connect 5 0 12 0;
#X connect 5 1 13 0;
#X connect 5 2 14 0;
#X connect 5 3 15 0;
#X connect 6 0 7 0;
#X connect 6 1 7 1;
#X connect 6 2 7 2;
#X connect 7 0 12 0;
#X connect 7 1 13 0;
#X connect 7 2 14 0;
#X connect 7 3 15 0;
#X connect 8 0 9 0;
#X connect 8 1 9 1;
#X connect 8 2 9 2;
#X connect 9 0 12 0;
#X connect 9 1 13 0;
#X connect 9 2 14 0;
#X connect 9 3 15 0;
#X connect 10 0 11 0;
#X connect 10 1 11 1;
#X connect 10 2 11 2;
#X connect 11 0 12 0;
#X connect 11 1 13 0;
#X connect 11 2 14 0;
#X connect 11 3 15 0;
#X connect 16 0 0 0;
#X connect 17 0 0 1;
#X connect 18 0 2 1;
#X connect 19 0 4 1;
#X connect 20 0 6 1;
#X connect 21 0 8 1;
#X connect 22 0 2 0;
#X connect 23 0 4 0;
#X connect 24 0 6 0;
#X connect 25 0 8 0;
#X connect 26 0 10 0;
#X connect 27 0 10 1;
#X restore 638 1630 pd quad_panners----------------------;
#X obj 640 1718 quadrophon-out~;
#X obj 664 1683 *~ 2;
#X obj 697 1683 *~ 2;
#X obj 730 1683 *~ 2;
#X obj 763 1683 *~ 2;
#X obj 628 1449 spigot~;
#X obj 49 41 bng 15 250 50 0 empty empty binaural 17 7 0 10 -262144
-1 -1;
#X obj 48 72 bng 15 250 50 0 empty empty 4-channel 17 7 0 10 -262144
-1 -1;
#X msg -139 136 0;
#X msg -103 136 1;
#X obj -117 170 s quad-01;
#X obj -68 -50 loadbang;
#X obj 735 1449 spigot~;
#X obj 838 1451 spigot~;
#X obj 945 1451 spigot~;
#X obj 1051 1451 spigot~;
#X obj 1158 1451 spigot~;
#X obj 735 1404 catch~ tones2;
#X obj 838 1406 catch~ tones3;
#X obj 945 1406 catch~ tones4;
#X obj 1051 1406 catch~ tones5;
#X obj 1158 1406 catch~ tones6;
#N canvas 0 22 450 300 autopanners 0;
#X obj -133 1113 s \$0-p1;
#X obj -130 1091 hsl 128 15 0 360 0 0 empty empty empty -2 -8 0 10
-262144 -1 -1 5750 1;
#X obj -131 1136 hsl 128 15 0 360 0 0 empty empty empty -2 -8 0 10
-262144 -1 -1 7867 1;
#X obj -134 1157 s \$0-p2;
#X obj -131 1183 hsl 128 15 0 360 0 0 empty empty empty -2 -8 0 10
-262144 -1 -1 9984 1;
#X obj -132 1228 hsl 128 15 0 360 0 0 empty empty empty -2 -8 0 10
-262144 -1 -1 12100 1;
#X obj -134 1205 s \$0-p3;
#X obj -135 1249 s \$0-p4;
#X obj -131 1270 hsl 128 15 0 360 0 0 empty empty empty -2 -8 0 10
-262144 -1 -1 1517 1;
#X obj -132 1315 hsl 128 15 0 360 0 0 empty empty empty -2 -8 0 10
-262144 -1 -1 3634 1;
#X obj -134 1292 s \$0-p5;
#X obj -135 1336 s \$0-p6;
#X obj -137 1031 hsl 128 15 0 360 0 0 empty empty empty -2 -8 0 10
-262144 -1 -1 5775 1;
#N canvas 367 195 799 633 guy 0;
#X obj 134 51 inlet;
#X obj 123 140 t f f;
#X obj 150 163 +;
#X msg 224 58 360;
#X obj 227 99 / 6;
#X obj 150 188 t f f;
#X obj 177 209 +;
#X obj 182 239 t f f;
#X obj 209 262 +;
#X obj 209 287 t f f;
#X obj 236 308 +;
#X obj 243 333 t f f;
#X obj 270 356 +;
#X obj 221 37 loadbang;
#X obj 123 514 mod 360;
#X obj 171 516 mod 360;
#X obj 217 517 mod 360;
#X obj 264 517 mod 360;
#X obj 311 516 mod 360;
#X obj 358 516 mod 360;
#X obj 128 562 outlet;
#X obj 173 563 outlet;
#X obj 217 564 outlet;
#X obj 262 565 outlet;
#X obj 307 566 outlet;
#X obj 352 567 outlet;
#X connect 0 0 1 0;
#X connect 1 0 14 0;
#X connect 1 1 2 0;
#X connect 2 0 5 0;
#X connect 3 0 4 0;
#X connect 4 0 2 1;
#X connect 4 0 6 1;
#X connect 4 0 8 1;
#X connect 4 0 10 1;
#X connect 4 0 12 1;
#X connect 5 0 15 0;
#X connect 5 1 6 0;
#X connect 6 0 7 0;
#X connect 7 0 16 0;
#X connect 7 1 8 0;
#X connect 8 0 9 0;
#X connect 9 0 17 0;
#X connect 9 1 10 0;
#X connect 10 0 11 0;
#X connect 11 0 18 0;
#X connect 11 1 12 0;
#X connect 12 0 19 0;
#X connect 13 0 3 0;
#X connect 14 0 20 0;
#X connect 15 0 21 0;
#X connect 16 0 22 0;
#X connect 17 0 23 0;
#X connect 18 0 24 0;
#X connect 19 0 25 0;
#X restore -128 1063 pd guy --------;
#X obj -81 980 inlet;
#X connect 1 0 0 0;
#X connect 2 0 3 0;
#X connect 4 0 6 0;
#X connect 5 0 7 0;
#X connect 8 0 10 0;
#X connect 9 0 11 0;
#X connect 12 0 13 0;
#X connect 13 0 1 0;
#X connect 13 1 2 0;
#X connect 13 2 4 0;
#X connect 13 3 5 0;
#X connect 13 4 8 0;
#X connect 13 5 9 0;
#X connect 14 0 12 0;
#X restore -247 1026 pd autopanners;
#X obj 104 1469 r remote-01;
#X obj 219 1468 r remote-01;
#X obj 332 1469 r remote-01;
#X obj 447 1468 r remote-01;
#X obj 104 1495 jrouter \$0-p3 rp3;
#X obj 219 1494 jrouter \$0-p4 rp4;
#X obj 332 1495 jrouter \$0-p5 rp5;
#X obj 447 1494 jrouter \$0-p6 rp6;
#X obj 462 1566 jrouter \$0-p1 rp1;
#X obj 462 1540 r remote-01;
#X obj 577 1539 r remote-01;
#X obj 577 1565 jrouter \$0-p2 rp2;
#X obj 688 1541 r remote-01;
#X obj 803 1540 r remote-01;
#X obj 916 1541 r remote-01;
#X obj 1031 1540 r remote-01;
#X obj 688 1567 jrouter \$0-p3 rp3;
#X obj 803 1566 jrouter \$0-p4 rp4;
#X obj 916 1567 jrouter \$0-p5 rp5;
#X obj 1031 1566 jrouter \$0-p6 rp6;
#N canvas 1077 810 1042 581 binaural_panners--------------- 0;
#X obj -107 165 binaural~;
#X obj 62 165 binaural~;
#X obj 206 170 binaural~;
#X obj 356 171 binaural~;
#X obj 506 172 binaural~;
#X obj 661 171 binaural~;
#X obj 144 511 outlet~;
#X obj 251 509 outlet~;
#X obj -107 46 inlet~;
#X obj 206 47 inlet~;
#X obj 355 49 inlet~;
#X obj 509 51 inlet~;
#X obj 658 53 inlet~;
#X obj -30 45 inlet;
#X obj 138 46 inlet;
#X obj 61 47 inlet~;
#X obj 283 46 inlet;
#X obj 432 48 inlet;
#X obj 586 50 inlet;
#X obj 735 52 inlet;
#X obj 558 106 wrap360;
#X obj 433 112 wrap360;
#X obj 286 101 wrap360;
#X obj 138 101 wrap360;
#X obj -23 91 wrap360;
#X obj 740 116 wrap360;
#X connect 0 0 6 0;
#X connect 0 1 7 0;
#X connect 1 0 6 0;
#X connect 1 1 7 0;
#X connect 2 0 6 0;
#X connect 2 1 7 0;
#X connect 3 0 6 0;
#X connect 3 1 7 0;
#X connect 4 0 6 0;
#X connect 4 1 7 0;
#X connect 5 0 6 0;
#X connect 5 1 7 0;
#X connect 8 0 0 0;
#X connect 9 0 2 0;
#X connect 10 0 3 0;
#X connect 11 0 4 0;
#X connect 12 0 5 0;
#X connect 13 0 24 0;
#X connect 14 0 23 0;
#X connect 15 0 1 0;
#X connect 16 0 22 0;
#X connect 17 0 21 0;
#X connect 18 0 20 0;
#X connect 19 0 25 0;
#X connect 20 0 4 1;
#X connect 21 0 3 1;
#X connect 22 0 2 1;
#X connect 23 0 1 1;
#X connect 24 0 0 1;
#X connect 25 0 5 1;
#X restore 61 1578 pd binaural_panners---------------;
#X obj -56 1714 sel 0 1;
#X msg -21 1742 0;
#X msg -56 1742 100;
#X obj 541 1648 sel 0 1;
#X msg 541 1677 0;
#X msg 576 1677 100;
#X obj 541 1625 r quad-01;
#X obj -56 1688 r quad-01;
#X obj 667 1425 r quad-01;
#X obj 773 1425 r quad-01;
#X obj 877 1427 r quad-01;
#X obj 984 1427 r quad-01;
#X obj 1090 1427 r quad-01;
#X obj 1197 1427 r quad-01;
#X obj 224 1425 dac~ 1 2 3 4;
#N canvas 143 424 450 300 tonepanners 0;
#X obj 78 41 hsl 128 15 0 360 0 0 empty empty empty -2 -8 0 10 -262144
-1 -1 0 1;
#X obj 127 79 s rp1;
#X obj 76 117 hsl 128 15 0 360 0 0 empty empty empty -2 -8 0 10 -262144
-1 -1 0 1;
#X obj 74 207 hsl 128 15 0 360 0 0 empty empty empty -2 -8 0 10 -262144
-1 -1 0 1;
#X obj 256 41 hsl 128 15 0 360 0 0 empty empty empty -2 -8 0 10 -262144
-1 -1 0 1;
#X obj 254 117 hsl 128 15 0 360 0 0 empty empty empty -2 -8 0 10 -262144
-1 -1 0 1;
#X obj 252 207 hsl 128 15 0 360 0 0 empty empty empty -2 -8 0 10 -262144
-1 -1 0 1;
#X obj 125 155 s rp2;
#X obj 123 245 s rp3;
#X obj 305 79 s rp4;
#X obj 303 155 s rp5;
#X obj 301 245 s rp6;
#X obj 75 10 inlet;
#X obj 117 10 inlet;
#X obj 157 10 inlet;
#X obj 199 10 inlet;
#X obj 242 9 inlet;
#X obj 284 9 inlet;
#X connect 0 0 1 0;
#X connect 2 0 7 0;
#X connect 3 0 8 0;
#X connect 4 0 9 0;
#X connect 5 0 10 0;
#X connect 6 0 11 0;
#X connect 12 0 0 0;
#X connect 13 0 2 0;
#X connect 14 0 3 0;
#X connect 15 0 4 0;
#X connect 16 0 5 0;
#X connect 17 0 6 0;
#X restore 681 380 pd tonepanners;
#X obj 597 -66 r OSC;
#X obj 593 -27 routeOSC /pan1 /pan2 /pan3 /pan4 /pan5 /pan6;
#X obj 1084 214 hsl 128 15 0 360 0 0 empty empty noise_pan -2 -8 0
10 -262144 -1 -1 0 1;
#X obj 953 299 s noisepan;
#N canvas 144 425 552 463 noisepanner 0;
#X obj 89 -1 b-format-encoder~;
#X obj 82 152 ambi-4ch-2D-decoder~;
#X obj 91 -98 inlet~;
#X obj 146 -99 inlet;
#X obj 82 193 outlet~;
#X obj 134 193 outlet~;
#X obj 185 193 outlet~;
#X obj 237 193 outlet~;
#X connect 0 0 1 0;
#X connect 0 1 1 1;
#X connect 0 2 1 2;
#X connect 1 0 4 0;
#X connect 1 1 5 0;
#X connect 1 2 6 0;
#X connect 1 3 7 0;
#X connect 2 0 0 0;
#X connect 3 0 0 1;
#X restore 941 1653 pd noisepanner;
#X obj 1022 1597 r remote-01;
#N canvas 565 332 527 430 noisebinaural 0;
#X obj 70 127 binaural~;
#X obj 67 9 inlet~;
#X obj 144 8 inlet;
#X obj 65 314 outlet~;
#X obj 178 310 outlet~;
#X obj 132 64 wrap360;
#X connect 0 0 3 0;
#X connect 0 1 4 0;
#X connect 1 0 0 0;
#X connect 2 0 5 0;
#X connect 5 0 0 1;
#X restore 289 1639 pd noisebinaural;
#X obj 351 1408 spigot~;
#X obj 390 1384 r quad-01;
#X obj 383 1585 r remote-01;
#X obj 383 1611 jrouter \$0-p4 noisepan;
#X obj 1022 1623 jrouter \$0-p4 noisepan;
#X obj 887 -69 r OSC;
#X obj 1626 139 loadbang;
#X obj 1200 38 vsl 15 128 0 127 0 0 empty empty bass_freq 0 -9 0 10
-262144 -1 -1 0 1;
#X obj 1167 340 s rbass;
#X obj 1167 316 jrange 0 127 30 100;
#N canvas 0 22 1517 807 bass_stuff 0;
#X obj -198 -72 throw~ bass;
#X obj -168 -155 hsl 128 15 0 1 0 0 empty empty empty -2 -8 0 10 -262144
-1 -1 809 1;
#X obj -185 -355 bng 15 250 50 0 empty empty empty 17 7 0 10 -262144
-1 -1;
#X obj -173 -250 line;
#X obj -119 -353 bng 15 250 50 0 empty empty empty 17 7 0 10 -262144
-1 -1;
#X obj -195 -295 unpack;
#X obj -143 -272 del;
#X msg -122 -317 0 120000;
#X obj -199 -102 *~ 1;
#X obj -198 -183 osc~ 50;
#X obj -97 -288 unpack;
#X obj -64 -224 del;
#X obj -186 -383 loadbang;
#X msg -187 -328 1 120000;
#X obj -64 -254 + 100000;
#X obj -198 -133 nozip;
#X obj -119 -188 spigot~;
#X obj -85 -102 nozip;
#X obj -26 -162 r r_bassvca;
#X obj 43 -370 r remote;
#X obj -19 -370 r auto;
#X msg -19 -347 0;
#X msg 43 -347 1;
#X obj -202 -216 jrouter bass_f rbass;
#X connect 1 0 15 1;
#X connect 2 0 13 0;
#X connect 3 0 1 0;
#X connect 4 0 7 0;
#X connect 5 1 6 0;
#X connect 6 0 4 0;
#X connect 7 0 3 0;
#X connect 7 0 10 0;
#X connect 8 0 0 0;
#X connect 9 0 16 0;
#X connect 10 0 14 0;
#X connect 11 0 2 0;
#X connect 12 0 2 0;
#X connect 13 0 3 0;
#X connect 13 0 5 0;
#X connect 14 0 11 0;
#X connect 15 0 8 0;
#X connect 16 0 15 0;
#X connect 16 1 17 0;
#X connect 17 0 0 0;
#X connect 18 0 17 1;
#X connect 19 0 22 0;
#X connect 20 0 21 0;
#X connect 20 0 2 0;
#X connect 21 0 16 1;
#X connect 21 0 23 0;
#X connect 22 0 16 1;
#X connect 22 0 23 0;
#X connect 23 0 9 0;
#X restore 1124 486 pd bass_stuff;
#X obj 1023 299 s noisevca;
#N canvas 23 500 457 456 noise_stuff 0;
#X obj -218 247 nozip;
#X obj -134 234 hsl 128 15 0 1 0 0 empty empty empty -2 -8 0 10 -262144
-1 -1 485 1;
#X obj -103 371 throw~ noise;
#N canvas 0 22 450 300 fire 0;
#N canvas 8 22 450 300 hissing 0;
#X obj 71 34 noise~;
#X obj 200 96 lop~ 1;
#X obj 155 234 *~;
#X obj 155 272 outlet~;
#X obj 200 179 *~;
#X obj 289 133 noise~;
#X obj 289 157 lop~ 1;
#X obj 290 185 *~;
#X obj 71 58 hip~ 1000;
#X obj 200 120 *~ 10;
#X obj 200 147 *~;
#X obj 200 205 *~ 600;
#X obj 290 208 *~ 10;
#X obj 398 25 inlet;
#X obj 248 255 svf~ 3520;
#X connect 0 0 8 0;
#X connect 0 0 1 0;
#X connect 1 0 9 0;
#X connect 2 0 14 0;
#X connect 4 0 11 0;
#X connect 5 0 6 0;
#X connect 6 0 7 1;
#X connect 7 0 12 0;
#X connect 8 0 7 0;
#X connect 8 0 2 0;
#X connect 9 0 10 0;
#X connect 9 0 10 1;
#X connect 10 0 4 1;
#X connect 10 0 4 0;
#X connect 11 0 2 1;
#X connect 12 0 14 0;
#X connect 13 0 14 1;
#X connect 14 0 3 0;
#X restore 191 -111 pd hissing;
#N canvas 0 22 450 300 flames 0;
#X obj 157 72 noise~;
#X obj 157 103 bp~ 30 5;
#X obj 157 126 *~ 100;
#X obj 157 148 hip~ 25;
#X obj 157 171 clip~ -0.9 0.9;
#X obj 157 194 hip~ 25;
#X obj 157 243 outlet~;
#X obj 157 218 *~ 0.6;
#X connect 0 0 1 0;
#X connect 1 0 2 0;
#X connect 2 0 3 0;
#X connect 3 0 4 0;
#X connect 4 0 5 0;
#X connect 5 0 7 0;
#X connect 7 0 6 0;
#X restore 116 -112 pd flames;
#X obj 115 -71 outlet~;
#X obj 191 -140 inlet;
#X text 232 -143 freq inlet for svf~;
#X connect 0 0 2 0;
#X connect 1 0 2 0;
#X connect 3 0 0 0;
#X restore -179 148 pd fire;
#X obj -137 204 line;
#X obj -280 137 unpack;
#X obj -230 138 del;
#X obj -232 68 loadbang;
#X msg -280 105 1 200000;
#X obj -132 122 unpack;
#X obj -99 173 del;
#X obj -218 212 spigot~;
#X obj -76 69 r remote;
#X obj -138 69 r auto;
#X msg -213 186 0;
#X msg -180 186 1;
#X obj -162 271 nozip;
#X obj -103 345 formant;
#X obj -107 293 r nf1;
#X obj -70 293 r nf2;
#X obj -31 294 r nf3;
#X msg -33 330 10;
#X obj -34 263 loadbang;
#X obj -218 271 *~ 4;
#X obj -65 204 r noisevca;
#X msg -137 101 0 200000;
#X connect 0 0 23 0;
#X connect 1 0 0 1;
#X connect 3 0 11 0;
#X connect 4 0 1 0;
#X connect 5 1 6 0;
#X connect 6 0 25 0;
#X connect 7 0 8 0;
#X connect 8 0 4 0;
#X connect 8 0 5 0;
#X connect 9 1 10 0;
#X connect 10 0 8 0;
#X connect 11 0 0 0;
#X connect 11 1 16 0;
#X connect 12 0 15 0;
#X connect 13 0 14 0;
#X connect 13 0 8 0;
#X connect 14 0 11 1;
#X connect 15 0 11 1;
#X connect 16 0 17 0;
#X connect 17 0 2 0;
#X connect 18 0 17 1;
#X connect 19 0 17 2;
#X connect 20 0 17 3;
#X connect 21 0 17 3;
#X connect 22 0 21 0;
#X connect 23 0 17 0;
#X connect 24 0 16 1;
#X connect 25 0 9 0;
#X connect 25 0 4 0;
#X restore 927 484 pd noise_stuff;
#X obj 887 -29 routeOSC /tlpf /thpf /tvca /nvca /npan /bvca /bfreq
;
#X obj 34 258 s rvca1;
#X obj 83 258 s rvca2;
#X obj 428 296 r remote;
#X obj 385 296 r auto;
#X obj 1307 1320 s gate;
#X obj -31 782 catch~ tone1;
#X obj 49 782 r rvca1;
#X obj 105 782 catch~ tone2;
#X obj 185 782 r rvca2;
#X obj -32 824 channel~;
#X obj 104 824 channel~;
#X obj 238 824 channel~;
#X obj 239 782 catch~ tone3;
#X obj 319 782 r rvca3;
#X obj 238 880 throw~ tones3;
#X obj 104 880 throw~ tones2;
#X obj -36 962 channel~;
#X obj 100 962 channel~;
#X obj 234 962 channel~;
#X obj -35 920 catch~ tone4;
#X obj 45 920 r rvca4;
#X obj -36 1018 throw~ tones4;
#X obj 101 920 catch~ tone5;
#X obj 181 920 r rvca5;
#X obj 100 1018 throw~ tones5;
#X obj 235 920 catch~ tone6;
#X obj 315 920 r rvca6;
#X obj 234 1018 throw~ tones6;
#X obj 693 992 r auto;
#X obj 481 1023 pack f f;
#X obj 516 1047 pack f f;
#X obj 566 1069 pack f f;
#X msg 506 1080 \$1 \$2;
#X msg 539 1105 \$1 \$2;
#X msg 575 1132 \$1 \$2;
#X msg 693 1015 60000;
#X obj 790 1013 r remote;
#X obj 789 1074 spigot;
#X msg 824 1038 1;
#X msg 857 1039 0;
#X obj 739 1037 r nft;
#X obj 518 678 r vowels;
#X obj 1527 53 s vowels;
#X obj 1205 -109 r OSC;
#X obj 64 -69 r OSC;
#X obj 64 -29 routeOSC /vca1 /vca2 /vca3 /vca4 /vca5 /vca6;
#X obj 79 -157 r OSC;
#X obj 79 -133 routeOSC /remote /generative /bi /quad;
#X obj 162 217 hsl 128 15 0 360 0 0 empty empty empty -2 -8 0 10 -262144
-1 -1 0 1;
#X obj 24 217 hsl 128 15 0 360 0 0 empty empty empty -2 -8 0 10 -262144
-1 -1 0 1;
#X obj 440 217 hsl 128 15 0 360 0 0 empty empty empty -2 -8 0 10 -262144
-1 -1 0 1;
#X obj 302 217 hsl 128 15 0 360 0 0 empty empty empty -2 -8 0 10 -262144
-1 -1 0 1;
#X obj 717 217 hsl 128 15 0 360 0 0 empty empty empty -2 -8 0 10 -262144
-1 -1 0 1;
#X obj 579 217 hsl 128 15 0 360 0 0 empty empty empty -2 -8 0 10 -262144
-1 -1 0 1;
#X obj 1422 19 bng 15 250 50 0 empty empty empty 17 7 0 10 -262144
-1 -1;
#X obj 1422 48 bng 15 250 50 0 empty empty empty 17 7 0 10 -262144
-1 -1;
#X obj 1422 76 bng 15 250 50 0 empty empty empty 17 7 0 10 -262144
-1 -1;
#X obj 1423 102 bng 15 250 50 0 empty empty empty 17 7 0 10 -262144
-1 -1;
#X obj 1423 126 bng 15 250 50 0 empty empty empty 17 7 0 10 -262144
-1 -1;
#X obj 1423 147 bng 15 250 50 0 empty empty empty 17 7 0 10 -262144
-1 -1;
#X obj 1423 170 bng 15 250 50 0 empty empty empty 17 7 0 10 -262144
-1 -1;
#X obj 1423 193 bng 15 250 50 0 empty empty empty 17 7 0 10 -262144
-1 -1;
#X obj 1424 216 bng 15 250 50 0 empty empty empty 17 7 0 10 -262144
-1 -1;
#X text 405 164 master;
#X obj 992 267 jrange 0 1 0 20;
#X obj 1102 266 jrange 0 1 0 10;
#X text 1263 174 formant time 0 - 10 secs;
#X text 265 191 6 tone panners (0-360) /pan1 through /pan6;
#X text 612 165 tones lpf - /tlpf (0-127);
#X text 138 2 6 tones vcas (0-1) /vca1 through /vca6;
#X text 744 2 tones hpf - /thpf (0-127);
#X text 915 2 /tvca (0-1);
#X text 1027 5 /nvca (0-1);
#X text 1102 7 /bvca (0-1);
#X text 1196 7 /bfreq (0-127);
#X text 1291 9 /formanttime 0-127;
#X text 1262 234 vowel formants - /vowel_ee - /vowel_ah;
#X text 1080 233 /npan;
#X text 393 0 5 tones - offset (0-127) mapped 0-50 /t1 thru /t6;
#X text 525 11 +;
#X text 453 10 +;
#X text 477 11 -;
#X text 502 11 -;
#X text 555 11 -;
#X obj 348 -26 routeOSC /t1 /t2 /t3 /t4 /t5 /t6;
#X text 1448 125 a;
#X obj 1205 -83 routeOSC /vowel_ee /vowel_ih /vowel_eh /vowel_ae /vowel_a
/vowel_oo /vowel_uh /vowel_o /vowel_ah /formanttime;
#X obj 1002 656 loadbang;
#X msg 1002 940 1;
#X obj 1002 681 t b b;
#X obj 132 258 s rvca3;
#X obj 181 258 s rvca4;
#X obj 233 259 s rvca5;
#X obj 286 259 s rvca6;
#X obj 938 -135 bang;
#X obj 990 -150 bng 15 250 50 0 empty empty empty 17 7 0 10 -262144
-1 -1;
#X msg 821 -67 127;
#X msg 926 -70 1;
#X connect 0 0 42 0;
#X connect 1 0 43 0;
#X connect 2 0 44 0;
#X connect 3 0 45 0;
#X connect 4 0 15 0;
#X connect 8 0 46 0;
#X connect 10 0 47 0;
#X connect 13 0 18 0;
#X connect 13 1 386 2;
#X connect 13 1 387 2;
#X connect 13 1 388 2;
#X connect 13 1 393 2;
#X connect 13 1 394 2;
#X connect 13 1 395 2;
#X connect 14 0 13 0;
#X connect 15 0 14 0;
#X connect 16 0 4 0;
#X connect 17 0 386 1;
#X connect 17 1 387 1;
#X connect 17 2 388 1;
#X connect 17 3 393 1;
#X connect 17 4 394 1;
#X connect 17 5 395 1;
#X connect 18 0 17 0;
#X connect 19 0 37 0;
#X connect 20 0 28 0;
#X connect 21 0 28 0;
#X connect 22 0 28 0;
#X connect 23 0 28 0;
#X connect 24 0 28 0;
#X connect 25 0 28 0;
#X connect 26 0 28 0;
#X connect 27 0 28 0;
#X connect 28 0 406 0;
#X connect 28 1 407 0;
#X connect 28 2 149 0;
#X connect 28 2 408 0;
#X connect 29 0 28 0;
#X connect 30 0 33 0;
#X connect 31 0 34 0;
#X connect 32 0 35 0;
#X connect 37 0 2 0;
#X connect 37 0 38 0;
#X connect 37 0 39 0;
#X connect 37 0 40 0;
#X connect 37 0 41 0;
#X connect 37 0 54 0;
#X connect 38 0 1 0;
#X connect 39 0 3 0;
#X connect 40 0 8 0;
#X connect 41 0 10 0;
#X connect 42 0 61 0;
#X connect 43 0 62 0;
#X connect 44 0 63 0;
#X connect 45 0 64 0;
#X connect 46 0 65 0;
#X connect 47 0 66 0;
#X connect 48 0 52 0;
#X connect 48 0 157 0;
#X connect 50 0 53 0;
#X connect 52 0 49 0;
#X connect 53 0 51 0;
#X connect 54 0 0 0;
#X connect 55 0 96 0;
#X connect 56 0 94 0;
#X connect 56 0 166 0;
#X connect 58 0 50 0;
#X connect 59 0 60 0;
#X connect 59 0 74 0;
#X connect 61 0 5 0;
#X connect 62 0 6 0;
#X connect 63 0 7 0;
#X connect 64 0 9 0;
#X connect 65 0 11 0;
#X connect 66 0 12 0;
#X connect 67 0 102 0;
#X connect 68 0 102 0;
#X connect 69 0 67 0;
#X connect 69 0 113 0;
#X connect 70 0 71 0;
#X connect 70 0 72 0;
#X connect 71 0 70 1;
#X connect 72 0 73 0;
#X connect 73 0 67 0;
#X connect 73 1 68 0;
#X connect 74 0 75 0;
#X connect 75 0 159 0;
#X connect 76 0 77 0;
#X connect 76 1 77 1;
#X connect 77 0 78 0;
#X connect 78 0 318 0;
#X connect 79 0 159 1;
#X connect 80 0 159 2;
#X connect 81 0 82 0;
#X connect 81 1 83 0;
#X connect 84 0 88 0;
#X connect 85 0 84 1;
#X connect 86 0 84 1;
#X connect 87 0 84 0;
#X connect 88 0 59 0;
#X connect 90 0 160 0;
#X connect 90 1 161 0;
#X connect 91 0 118 0;
#X connect 92 0 91 0;
#X connect 94 0 354 0;
#X connect 94 0 354 1;
#X connect 94 0 354 2;
#X connect 94 0 354 3;
#X connect 95 0 96 1;
#X connect 96 0 363 0;
#X connect 97 0 94 1;
#X connect 98 0 100 0;
#X connect 98 0 117 0;
#X connect 98 0 155 0;
#X connect 100 0 99 0;
#X connect 101 0 104 0;
#X connect 102 0 101 0;
#X connect 103 0 102 1;
#X connect 104 0 381 0;
#X connect 106 0 105 0;
#X connect 107 0 112 0;
#X connect 107 0 20 0;
#X connect 108 0 79 0;
#X connect 109 0 139 0;
#X connect 109 0 165 0;
#X connect 110 0 69 0;
#X connect 111 0 103 0;
#X connect 112 0 106 0;
#X connect 113 0 70 0;
#X connect 114 1 115 0;
#X connect 115 0 138 0;
#X connect 116 0 57 0;
#X connect 116 0 58 0;
#X connect 116 0 156 1;
#X connect 117 0 121 0;
#X connect 117 1 122 0;
#X connect 117 2 123 0;
#X connect 117 3 124 0;
#X connect 117 4 126 0;
#X connect 117 5 127 0;
#X connect 117 6 133 0;
#X connect 117 7 132 0;
#X connect 117 8 134 0;
#X connect 118 0 93 0;
#X connect 118 0 152 1;
#X connect 119 0 120 0;
#X connect 121 0 125 0;
#X connect 122 0 125 0;
#X connect 123 0 125 0;
#X connect 124 0 125 0;
#X connect 125 0 119 0;
#X connect 126 0 125 0;
#X connect 127 0 125 0;
#X connect 128 0 20 0;
#X connect 128 1 29 0;
#X connect 128 2 21 0;
#X connect 128 3 22 0;
#X connect 128 4 23 0;
#X connect 128 5 24 0;
#X connect 128 6 25 0;
#X connect 128 7 26 0;
#X connect 128 8 27 0;
#X connect 129 1 130 0;
#X connect 130 0 137 0;
#X connect 131 0 138 0;
#X connect 132 0 125 0;
#X connect 133 0 125 0;
#X connect 134 0 125 0;
#X connect 137 0 111 0;
#X connect 137 0 114 0;
#X connect 138 0 111 0;
#X connect 138 0 129 0;
#X connect 139 0 95 0;
#X connect 149 0 92 0;
#X connect 150 1 151 0;
#X connect 151 0 152 0;
#X connect 152 0 153 0;
#X connect 156 0 158 0;
#X connect 158 0 48 0;
#X connect 159 0 318 0;
#X connect 159 1 76 0;
#X connect 160 0 89 1;
#X connect 161 0 89 2;
#X connect 162 0 301 0;
#X connect 163 0 164 0;
#X connect 164 0 59 0;
#X connect 165 0 97 0;
#X connect 166 0 167 0;
#X connect 168 0 378 0;
#X connect 169 0 467 0;
#X connect 170 0 4 0;
#X connect 171 0 4 0;
#X connect 172 0 59 0;
#X connect 173 0 377 0;
#X connect 174 0 468 0;
#X connect 175 0 469 0;
#X connect 176 0 470 0;
#X connect 177 0 54 1;
#X connect 178 0 38 1;
#X connect 179 0 39 1;
#X connect 180 0 40 1;
#X connect 181 0 41 1;
#X connect 182 0 183 0;
#X connect 183 0 54 1;
#X connect 184 0 185 0;
#X connect 185 0 38 1;
#X connect 186 0 187 0;
#X connect 187 0 39 1;
#X connect 188 0 189 0;
#X connect 189 0 40 1;
#X connect 190 0 191 0;
#X connect 191 0 41 1;
#X connect 192 0 194 0;
#X connect 193 1 196 0;
#X connect 194 0 193 0;
#X connect 195 0 193 1;
#X connect 195 0 198 0;
#X connect 196 0 197 0;
#X connect 196 0 197 0;
#X connect 197 0 37 0;
#X connect 198 0 196 0;
#X connect 199 0 195 0;
#X connect 200 0 195 0;
#X connect 203 0 172 0;
#X connect 204 0 164 0;
#X connect 205 0 170 0;
#X connect 206 0 171 0;
#X connect 207 0 58 0;
#X connect 207 0 57 0;
#X connect 207 0 209 0;
#X connect 208 0 57 0;
#X connect 208 0 58 0;
#X connect 208 0 210 0;
#X connect 209 0 156 1;
#X connect 210 0 156 1;
#X connect 211 0 112 0;
#X connect 212 0 177 0;
#X connect 212 0 178 0;
#X connect 212 0 179 0;
#X connect 212 0 180 0;
#X connect 212 0 181 0;
#X connect 213 0 214 0;
#X connect 215 0 52 0;
#X connect 216 0 217 0;
#X connect 218 0 53 0;
#X connect 219 0 221 0;
#X connect 220 0 222 0;
#X connect 221 0 69 0;
#X connect 222 0 69 0;
#X connect 223 0 381 0;
#X connect 224 0 225 0;
#X connect 227 0 228 0;
#X connect 228 0 229 0;
#X connect 230 0 461 0;
#X connect 231 0 292 0;
#X connect 231 0 201 0;
#X connect 232 0 291 0;
#X connect 232 0 202 0;
#X connect 233 0 441 0;
#X connect 234 0 442 0;
#X connect 236 0 253 0;
#X connect 237 0 253 0;
#X connect 238 0 253 0;
#X connect 239 0 253 0;
#X connect 240 0 253 0;
#X connect 241 0 253 0;
#X connect 242 0 253 0;
#X connect 243 0 253 0;
#X connect 244 0 253 0;
#X connect 253 0 273 0;
#X connect 253 1 274 0;
#X connect 253 2 275 0;
#X connect 254 0 255 0;
#X connect 254 0 419 0;
#X connect 255 0 236 0;
#X connect 255 1 244 0;
#X connect 255 2 237 0;
#X connect 255 3 238 0;
#X connect 255 4 239 0;
#X connect 255 5 240 0;
#X connect 255 6 241 0;
#X connect 255 7 242 0;
#X connect 255 8 243 0;
#X connect 256 0 255 0;
#X connect 256 0 419 0;
#X connect 257 0 255 0;
#X connect 257 0 419 0;
#X connect 258 0 255 0;
#X connect 258 0 419 0;
#X connect 259 0 255 0;
#X connect 259 0 419 0;
#X connect 260 0 255 0;
#X connect 260 0 419 0;
#X connect 261 0 255 0;
#X connect 261 0 419 0;
#X connect 262 0 255 0;
#X connect 262 0 419 0;
#X connect 263 0 255 0;
#X connect 263 0 419 0;
#X connect 264 0 267 0;
#X connect 265 0 268 0;
#X connect 266 0 269 0;
#X connect 270 0 264 0;
#X connect 271 0 265 0;
#X connect 272 0 266 0;
#X connect 273 0 270 0;
#X connect 274 0 271 0;
#X connect 275 0 272 0;
#X connect 276 0 275 1;
#X connect 276 0 274 1;
#X connect 276 0 273 1;
#X connect 277 0 279 0;
#X connect 279 0 278 0;
#X connect 280 0 281 0;
#X connect 281 0 277 0;
#X connect 282 0 283 0;
#X connect 283 0 255 0;
#X connect 283 0 419 0;
#X connect 284 0 287 0;
#X connect 285 0 286 0;
#X connect 286 0 283 1;
#X connect 287 0 283 1;
#X connect 288 0 339 1;
#X connect 289 0 288 0;
#X connect 291 0 290 0;
#X connect 292 0 290 0;
#X connect 293 0 294 0;
#X connect 294 0 339 3;
#X connect 295 0 297 0;
#X connect 295 1 298 0;
#X connect 295 2 299 0;
#X connect 295 3 300 0;
#X connect 297 0 296 1;
#X connect 298 0 296 2;
#X connect 299 0 296 3;
#X connect 300 0 296 4;
#X connect 301 0 339 0;
#X connect 301 1 295 0;
#X connect 302 0 304 0;
#X connect 303 0 305 0;
#X connect 304 0 306 0;
#X connect 305 0 306 0;
#X connect 307 0 303 0;
#X connect 307 0 232 0;
#X connect 308 0 339 2;
#X connect 308 1 295 2;
#X connect 309 0 339 4;
#X connect 309 1 295 4;
#X connect 310 0 339 6;
#X connect 310 1 295 6;
#X connect 311 0 339 8;
#X connect 311 1 295 8;
#X connect 312 0 339 10;
#X connect 312 1 295 10;
#X connect 313 0 308 0;
#X connect 314 0 309 0;
#X connect 315 0 310 0;
#X connect 316 0 311 0;
#X connect 317 0 312 0;
#X connect 319 0 323 0;
#X connect 320 0 324 0;
#X connect 321 0 325 0;
#X connect 322 0 326 0;
#X connect 323 0 339 5;
#X connect 324 0 339 7;
#X connect 325 0 339 9;
#X connect 326 0 339 11;
#X connect 327 0 295 1;
#X connect 328 0 327 0;
#X connect 329 0 330 0;
#X connect 330 0 295 3;
#X connect 331 0 335 0;
#X connect 332 0 336 0;
#X connect 333 0 337 0;
#X connect 334 0 338 0;
#X connect 335 0 295 5;
#X connect 336 0 295 7;
#X connect 337 0 295 9;
#X connect 338 0 295 11;
#X connect 339 0 90 0;
#X connect 339 1 90 1;
#X connect 340 0 342 0;
#X connect 340 1 341 0;
#X connect 341 0 89 0;
#X connect 342 0 89 0;
#X connect 343 0 344 0;
#X connect 343 1 345 0;
#X connect 344 0 296 0;
#X connect 345 0 296 0;
#X connect 346 0 343 0;
#X connect 347 0 340 0;
#X connect 348 0 301 1;
#X connect 349 0 308 1;
#X connect 350 0 309 1;
#X connect 351 0 310 1;
#X connect 352 0 311 1;
#X connect 353 0 312 1;
#X connect 356 0 357 0;
#X connect 357 0 426 0;
#X connect 357 1 425 0;
#X connect 357 2 428 0;
#X connect 357 3 427 0;
#X connect 357 4 430 0;
#X connect 357 5 429 0;
#X connect 358 0 359 0;
#X connect 360 0 297 0;
#X connect 360 1 298 0;
#X connect 360 2 299 0;
#X connect 360 3 300 0;
#X connect 361 0 367 0;
#X connect 362 0 90 0;
#X connect 362 1 90 1;
#X connect 363 0 362 0;
#X connect 363 1 360 0;
#X connect 364 0 363 1;
#X connect 365 0 366 0;
#X connect 366 0 362 1;
#X connect 367 0 360 1;
#X connect 368 0 376 0;
#X connect 369 0 236 0;
#X connect 370 0 372 0;
#X connect 372 0 371 0;
#X connect 376 0 213 0;
#X connect 376 1 216 0;
#X connect 376 2 224 0;
#X connect 376 3 233 0;
#X connect 376 4 358 0;
#X connect 376 5 234 0;
#X connect 376 6 370 0;
#X connect 379 0 200 0;
#X connect 380 0 199 0;
#X connect 382 0 386 0;
#X connect 383 0 386 3;
#X connect 384 0 387 0;
#X connect 385 0 387 3;
#X connect 386 0 36 0;
#X connect 387 0 392 0;
#X connect 388 0 391 0;
#X connect 389 0 388 0;
#X connect 390 0 388 3;
#X connect 393 0 398 0;
#X connect 394 0 401 0;
#X connect 395 0 404 0;
#X connect 396 0 393 0;
#X connect 397 0 393 3;
#X connect 399 0 394 0;
#X connect 400 0 394 3;
#X connect 402 0 395 0;
#X connect 403 0 395 3;
#X connect 405 0 412 0;
#X connect 405 0 416 0;
#X connect 406 0 409 0;
#X connect 407 0 410 0;
#X connect 408 0 411 0;
#X connect 409 0 30 0;
#X connect 409 0 150 0;
#X connect 410 0 31 0;
#X connect 411 0 32 0;
#X connect 412 0 407 1;
#X connect 412 0 408 1;
#X connect 412 0 406 1;
#X connect 413 0 415 0;
#X connect 414 0 406 1;
#X connect 414 0 407 1;
#X connect 414 0 408 1;
#X connect 415 0 414 1;
#X connect 416 0 414 1;
#X connect 417 0 414 0;
#X connect 418 0 98 0;
#X connect 418 0 128 0;
#X connect 420 0 463 0;
#X connect 421 0 422 0;
#X connect 422 0 173 0;
#X connect 422 1 168 0;
#X connect 422 2 169 0;
#X connect 422 3 174 0;
#X connect 422 4 175 0;
#X connect 422 5 176 0;
#X connect 423 0 424 0;
#X connect 424 0 231 0;
#X connect 424 0 471 0;
#X connect 424 1 232 0;
#X connect 424 2 302 0;
#X connect 424 3 303 0;
#X connect 425 0 355 1;
#X connect 426 0 355 0;
#X connect 427 0 355 3;
#X connect 428 0 355 2;
#X connect 429 0 355 5;
#X connect 430 0 355 4;
#X connect 431 0 254 0;
#X connect 432 0 256 0;
#X connect 433 0 257 0;
#X connect 434 0 258 0;
#X connect 435 0 259 0;
#X connect 436 0 260 0;
#X connect 437 0 261 0;
#X connect 438 0 262 0;
#X connect 439 0 263 0;
#X connect 441 0 374 0;
#X connect 442 0 235 0;
#X connect 461 0 192 0;
#X connect 461 1 182 0;
#X connect 461 2 184 0;
#X connect 461 3 186 0;
#X connect 461 4 188 0;
#X connect 461 5 190 0;
#X connect 463 0 431 0;
#X connect 463 1 432 0;
#X connect 463 2 433 0;
#X connect 463 3 434 0;
#X connect 463 4 435 0;
#X connect 463 5 436 0;
#X connect 463 6 437 0;
#X connect 463 7 438 0;
#X connect 463 8 439 0;
#X connect 463 9 277 0;
#X connect 464 0 466 0;
#X connect 465 0 155 1;
#X connect 466 0 98 0;
#X connect 466 1 465 0;
#X connect 471 0 277 0;
#X connect 471 0 370 0;
#X connect 471 0 234 0;
#X connect 471 0 233 0;
#X connect 471 0 216 0;
#X connect 471 0 190 0;
#X connect 471 0 188 0;
#X connect 471 0 184 0;
#X connect 471 0 182 0;
#X connect 471 0 192 0;
#X connect 471 0 176 0;
#X connect 471 0 175 0;
#X connect 471 0 174 0;
#X connect 471 0 169 0;
#X connect 471 0 168 0;
#X connect 471 0 173 0;
#X connect 471 0 431 0;
#X connect 471 0 474 0;
#X connect 471 0 473 0;
#X connect 472 0 471 0;
#X connect 473 0 213 0;
#X connect 474 0 224 0;
#X coords 0 -1 1 1 1500 250 1 0 0;
