#N canvas 927 527 656 378 10;
#X obj 67 67 inlet;
#X obj 67 317 outlet;
#X obj 67 92 - \$1;
#X obj 176 329 outlet;
#X text 233 331 matrix messages;
#X obj 67 193 cos;
#X msg 144 99 bang;
#X obj 138 123 expr 4*atan(1);
#X obj 138 77 loadbang;
#X obj 67 146 * 3.141;
#X obj 67 233 pow 6;
#X obj 99 193 r COSPAN-WIDTH;
#X obj 302 137 f \$2;
#X obj 260 138 f \$1;
#X obj 260 94 t b b;
#X text 388 33 f1: index e.g. 0;
#X text 388 56 f2: steps e.g. 12 or 5;
#X msg 302 163 360 \$1;
#X obj 302 187 / 1;
#X obj 260 219 *;
#X obj 176 267 pack 0 0;
#X obj 260 70 loadbang;
#X floatatom 267 250 5 0 0 0 - - -;
#X obj 229 242 + 1;
#X msg 176 298 element \$2 1 \$1;
#X obj 241 40 bng 15 250 50 0 empty empty empty 17 7 0 10 -262144 -1
-1;
#X obj 67 111 / 180;
#X connect 0 0 2 0;
#X connect 2 0 26 0;
#X connect 5 0 10 0;
#X connect 6 0 7 0;
#X connect 7 0 9 1;
#X connect 8 0 7 0;
#X connect 9 0 5 0;
#X connect 10 0 20 0;
#X connect 10 0 1 0;
#X connect 11 0 10 1;
#X connect 12 0 17 0;
#X connect 13 0 19 0;
#X connect 13 0 23 0;
#X connect 14 0 13 0;
#X connect 14 1 12 0;
#X connect 17 0 18 0;
#X connect 18 0 19 1;
#X connect 19 0 2 1;
#X connect 19 0 22 0;
#X connect 20 0 24 0;
#X connect 21 0 14 0;
#X connect 23 0 20 1;
#X connect 24 0 3 0;
#X connect 25 0 14 0;
#X connect 26 0 9 0;
