#N canvas 0 22 588 359 10;
#X obj 87 109 spigot;
#X obj 140 109 spigot;
#X obj 84 167 outlet;
#X msg 256 76 0;
#X msg 215 76 1;
#X obj 271 39 sel 0 1;
#X msg 334 77 0;
#X msg 293 77 1;
#X text 353 37 0 routes left \, 1 routes right;
#X obj 271 15 inlet;
#X obj 87 67 r \$1;
#X obj 140 67 r \$2;
#X text 49 34 arguments define send/receives;
#X connect 0 0 2 0;
#X connect 1 0 2 0;
#X connect 3 0 1 1;
#X connect 4 0 0 1;
#X connect 5 0 4 0;
#X connect 5 0 3 0;
#X connect 5 1 7 0;
#X connect 5 1 6 0;
#X connect 6 0 0 1;
#X connect 7 0 1 1;
#X connect 9 0 5 0;
#X connect 10 0 0 0;
#X connect 11 0 1 0;
