#N canvas 318 344 605 341 10;
#X obj 142 119 spigot;
#X obj 202 119 spigot;
#X obj 56 14 inlet;
#X msg 203 53 0;
#X msg 234 53 1;
#X obj 204 22 inlet;
#X msg 315 67 0;
#X msg 346 67 1;
#X obj 315 41 inlet;
#X text 57 31 control to be routed;
#X text 239 20 bang routes to left outlet;
#X text 352 43 bang routes to right outlet;
#X obj 136 194 outlet;
#X obj 196 193 outlet;
#X connect 0 0 12 0;
#X connect 1 0 13 0;
#X connect 2 0 0 0;
#X connect 2 0 1 0;
#X connect 3 0 1 1;
#X connect 4 0 0 1;
#X connect 5 0 3 0;
#X connect 5 0 4 0;
#X connect 6 0 0 1;
#X connect 7 0 1 1;
#X connect 8 0 6 0;
#X connect 8 0 7 0;
