#N canvas 354 59 1293 859 10;
#X obj 278 357 t a;
#X obj 71 504 comport;
#X obj 228 273 spigot 0;
#X obj 228 298 print output;
#X obj 273 250 tgl 15 0 empty empty empty 17 7 0 10 -262144 -1 -1 0
1;
#X msg -42 383 baud 115200;
#X obj -42 356 delay 10;
#X obj -48 238 hradio 15 1 0 8 empty empty empty 0 -8 0 10 -262144
-1 -1 0;
#X msg -48 292 devicename \$1;
#X msg 102 457 close;
#X obj -43 334 bang;
#X obj 278 330 led_driver 8;
#X obj -48 263 makefilename /dev/cu.usbserial-A400GYUY;
#X obj 80 -2 pack f f f;
#X obj 240 -223 vsl 15 128 0.6 1 0 0 empty empty empty 0 -9 0 10 -262144
-1 -1 0 1;
#X obj 159 -227 vsl 15 128 0.95 1 0 0 empty empty empty 0 -9 0 10 -262144
-1 -1 0 1;
#X obj 70 -227 vsl 15 128 0 1 0 0 empty empty empty 0 -9 0 10 -262144
-1 -1 8400 1;
#X obj 241 -76 t b f;
#X obj 161 -77 t b f;
#X obj 77 -71 t b f;
#N canvas 204 262 450 300 lfo 0;
#X obj 154 -79 snapshot~;
#X floatatom 154 11 5 0 0 0 - - -;
#X obj 279 -139 tgl 15 0 empty empty empty 17 7 0 10 -262144 -1 -1
0 1;
#X obj 321 -87 bng 15 250 50 0 empty empty empty 17 7 0 10 -262144
-1 -1;
#X obj 154 -50 + 1;
#X obj 154 -17 / 2;
#X obj 154 58 outlet;
#X obj 154 -143 inlet;
#X obj 276 -112 metro 10;
#X obj 356 -139 inlet;
#X obj 154 -113 osc~ 0.01;
#X connect 0 0 4 0;
#X connect 1 0 6 0;
#X connect 2 0 8 0;
#X connect 3 0 0 0;
#X connect 4 0 5 0;
#X connect 5 0 1 0;
#X connect 7 0 10 0;
#X connect 8 0 3 0;
#X connect 9 0 2 0;
#X connect 10 0 0 0;
#X restore 70 -305 pd lfo;
#N canvas 803 274 450 300 lfo 0;
#X obj 154 -79 snapshot~;
#X floatatom 154 11 5 0 0 0 - - -;
#X obj 279 -139 tgl 15 0 empty empty empty 17 7 0 10 -262144 -1 -1
0 1;
#X obj 321 -87 bng 15 250 50 0 empty empty empty 17 7 0 10 -262144
-1 -1;
#X obj 154 -50 + 1;
#X obj 154 -17 / 2;
#X obj 154 58 outlet;
#X obj 154 -143 inlet;
#X obj 276 -112 metro 10;
#X obj 154 -113 osc~ 2;
#X obj 215 -148 inlet;
#X connect 0 0 4 0;
#X connect 1 0 6 0;
#X connect 2 0 8 0;
#X connect 3 0 0 0;
#X connect 4 0 5 0;
#X connect 5 0 1 0;
#X connect 7 0 9 0;
#X connect 8 0 3 0;
#X connect 9 0 0 0;
#X connect 10 0 2 0;
#X restore 240 -254 pd lfo;
#X obj 267 -276 tgl 15 0 empty empty empty 17 7 0 10 -262144 -1 -1
0 1;
#X obj 105 -332 tgl 15 0 empty empty empty 17 7 0 10 -262144 -1 -1
0 1;
#N canvas 204 262 450 300 lfo 0;
#X obj 154 -79 snapshot~;
#X obj 154 -113 osc~ 0.1;
#X floatatom 154 11 5 0 0 0 - - -;
#X obj 279 -139 tgl 15 0 empty empty empty 17 7 0 10 -262144 -1 -1
0 1;
#X obj 321 -87 bng 15 250 50 0 empty empty empty 17 7 0 10 -262144
-1 -1;
#X obj 154 -50 + 1;
#X obj 154 -17 / 2;
#X obj 154 58 outlet;
#X obj 154 -143 inlet;
#X obj 276 -112 metro 10;
#X obj 356 -139 inlet;
#X connect 0 0 5 0;
#X connect 1 0 0 0;
#X connect 2 0 7 0;
#X connect 3 0 9 0;
#X connect 4 0 0 0;
#X connect 5 0 6 0;
#X connect 6 0 2 0;
#X connect 8 0 1 0;
#X connect 9 0 4 0;
#X connect 10 0 3 0;
#X restore 157 -259 pd lfo;
#X obj 192 -286 tgl 15 0 empty empty empty 17 7 0 10 -262144 -1 -1
0 1;
#X obj -85 -326 hsl 128 15 0.001 2 0 0 empty empty empty -2 -8 0 10
-262144 -1 -1 0 1;
#X obj 241 -304 hsl 128 15 0.1 15 0 0 empty empty empty -2 -8 0 10
-262144 -1 -1 0 1;
#X msg 351 -37 black 2000 0 0 0;
#X floatatom 23 -80 5 0 0 0 - - -;
#X obj 375 -274 loadbang;
#X text 29 -173 hue;
#X text 128 -175 sat;
#X text 194 -173 val;
#X floatatom 120 -93 5 0 0 0 - - -;
#X floatatom 917 -178 5 0 0 0 - - -;
#X obj 917 -148 / 360;
#X floatatom 918 -113 5 0 0 0 - - -;
#X text 965 -148 hue degrees to 0-1;
#X text 822 136 amber;
#X text 965 14 i: ee green;
#X text 992 67 e red;
#X text 979 45 i pink;
#X text 1006 113 ^ mustard;
#X text 1015 136 u blue;
#X text 1025 156 u wooden;
#X text 1035 200 a olive;
#X text 1031 180 a rose;
#X text 1002 93 ae amber;
#X text 818 -18 green;
#X text 817 34 pink;
#X text 817 84 red;
#X text 825 187 mustard;
#X floatatom 204 -90 5 0 0 0 - - -;
#X text 827 239 blue;
#X text 826 290 wooden;
#X text 828 348 rose;
#X text 831 405 olive;
#X obj 692 -50 sel 0 1 2 3 4 5 6 7 8;
#X msg 822 3 0.33 1 0.8;
#X msg 819 57 0.833 1 1;
#X msg 819 107 0 1 0.8;
#X msg 823 155 0.09 1 0.7;
#X msg 826 206 0.125 1 1;
#X msg 828 258 0.666 1 0.8;
#X msg 827 309 0.08 1 0.3;
#X msg 829 367 0.905 0.8 0.3;
#X msg 832 424 0.227 1 0.42;
#X msg 588 203 current 60000 \$1 \$2 \$3;
#X msg 80 29 current 0 \$1 \$2 \$3;
#X obj 692 -240 inlet;
#X obj -30 74 loadbang;
#X msg -27 190 1;
#X msg 28 430 devices;
#X msg 59 136 open 3;
#X msg 72 398 open 1;
#X msg 33 157 baud 115200;
#X obj 33 109 t b b;
#X text -73 102 osx;
#X text 74 109 xp;
#X obj 482 336 led_driver 10;
#X obj 482 362 t a;
#X obj 378 361 t a;
#X obj 378 335 led_driver 6;
#X obj 488 439 t a;
#X obj 488 413 led_driver 5;
#X obj 367 438 t a;
#X obj 263 438 t a;
#X obj 367 412 led_driver 15;
#X obj 263 412 led_driver 14;
#N canvas 330 514 611 441 ext_control 0;
#X obj 57 -193 outlet;
#X obj 57 -350 r OSC;
#X obj 57 -318 routeOSC /led1 /led2 /led3 /led4 /led5 /led6;
#X obj 143 -194 outlet;
#X msg 143 -251 current 0 \$1;
#X obj 230 -194 outlet;
#X msg 230 -251 current 0 \$1;
#X obj 316 -195 outlet;
#X msg 316 -252 current 0 \$1;
#X obj 404 -196 outlet;
#X msg 404 -253 current 0 \$1;
#X obj 490 -197 outlet;
#X msg 490 -254 current 0 \$1;
#X text 191 -385 expects osc messages formatted: /led# h s v;
#X obj 10 -280 print;
#X msg 57 -250 current 0 \$1 \$2 \$3;
#X connect 1 0 2 0;
#X connect 2 0 15 0;
#X connect 2 1 4 0;
#X connect 2 2 6 0;
#X connect 2 3 8 0;
#X connect 2 4 10 0;
#X connect 2 5 12 0;
#X connect 4 0 3 0;
#X connect 6 0 5 0;
#X connect 8 0 7 0;
#X connect 10 0 9 0;
#X connect 12 0 11 0;
#X connect 15 0 0 0;
#X connect 15 0 14 0;
#X restore 448 113 pd ext_control;
#X obj 491 -303 r OSC;
#X obj 491 -278 routeOSC /remote /generative;
#X obj 692 -133 spigot;
#X msg 725 -162 0;
#X msg 758 -162 1;
#X obj 762 -246 inlet;
#X obj 762 -214 route 0 1;
#X msg 862 -234 1;
#X obj 529 -75 delay 1000;
#X obj 787 -191 t b b;
#X connect 0 0 1 0;
#X connect 0 0 2 0;
#X connect 2 0 3 0;
#X connect 4 0 2 1;
#X connect 5 0 1 0;
#X connect 6 0 5 0;
#X connect 7 0 12 0;
#X connect 8 0 1 0;
#X connect 8 0 10 0;
#X connect 9 0 1 0;
#X connect 10 0 6 0;
#X connect 11 0 0 0;
#X connect 12 0 8 0;
#X connect 13 0 69 0;
#X connect 14 0 17 0;
#X connect 14 0 53 0;
#X connect 15 0 18 0;
#X connect 15 0 34 0;
#X connect 16 0 19 0;
#X connect 16 0 29 0;
#X connect 17 0 13 0;
#X connect 17 1 13 2;
#X connect 18 0 13 0;
#X connect 18 1 13 1;
#X connect 19 0 13 0;
#X connect 19 1 13 0;
#X connect 20 0 16 0;
#X connect 21 0 14 0;
#X connect 22 0 21 1;
#X connect 23 0 20 1;
#X connect 24 0 15 0;
#X connect 25 0 24 1;
#X connect 26 0 20 0;
#X connect 27 0 21 0;
#X connect 28 0 11 0;
#X connect 28 0 80 0;
#X connect 28 0 83 0;
#X connect 28 0 85 0;
#X connect 28 0 88 0;
#X connect 28 0 89 0;
#X connect 30 0 14 0;
#X connect 30 0 15 0;
#X connect 30 0 16 0;
#X connect 35 0 36 0;
#X connect 36 0 37 0;
#X connect 58 0 59 0;
#X connect 58 1 60 0;
#X connect 58 2 61 0;
#X connect 58 3 62 0;
#X connect 58 4 63 0;
#X connect 58 5 64 0;
#X connect 58 6 65 0;
#X connect 58 7 66 0;
#X connect 58 8 67 0;
#X connect 59 0 68 0;
#X connect 60 0 68 0;
#X connect 61 0 68 0;
#X connect 62 0 68 0;
#X connect 63 0 68 0;
#X connect 64 0 68 0;
#X connect 65 0 68 0;
#X connect 66 0 68 0;
#X connect 67 0 68 0;
#X connect 68 0 11 0;
#X connect 68 0 80 0;
#X connect 68 0 83 0;
#X connect 68 0 85 0;
#X connect 68 0 88 0;
#X connect 68 0 89 0;
#X connect 69 0 11 0;
#X connect 69 0 80 0;
#X connect 69 0 83 0;
#X connect 69 0 85 0;
#X connect 69 0 88 0;
#X connect 69 0 89 0;
#X connect 70 0 93 0;
#X connect 71 0 72 0;
#X connect 71 0 77 0;
#X connect 73 0 1 0;
#X connect 74 0 1 0;
#X connect 75 0 1 0;
#X connect 76 0 1 0;
#X connect 77 0 76 0;
#X connect 77 1 74 0;
#X connect 80 0 81 0;
#X connect 81 0 1 0;
#X connect 82 0 1 0;
#X connect 83 0 82 0;
#X connect 84 0 1 0;
#X connect 85 0 84 0;
#X connect 86 0 1 0;
#X connect 87 0 1 0;
#X connect 88 0 86 0;
#X connect 89 0 87 0;
#X connect 90 0 11 0;
#X connect 90 1 83 0;
#X connect 90 2 80 0;
#X connect 90 3 89 0;
#X connect 90 4 88 0;
#X connect 90 5 85 0;
#X connect 91 0 92 0;
#X connect 92 0 94 0;
#X connect 92 1 98 0;
#X connect 93 0 58 0;
#X connect 94 0 93 1;
#X connect 95 0 93 1;
#X connect 96 0 97 0;
#X connect 97 0 94 0;
#X connect 97 1 100 0;
#X connect 98 0 97 0;
#X connect 99 0 59 0;
#X connect 100 0 99 0;
#X connect 100 0 28 0;
#X connect 100 1 95 0;
