#N canvas 0 22 450 300 10;
#X obj 260 93 loadbang;
#X obj 225 168 snapshot~;
#X obj 242 142 metro 50;
#X obj 243 119 tgl 15 0 empty empty empty 17 7 0 10 -262144 -1 -1 1
1;
#X obj 170 63 inlet;
#X obj 171 224 outlet;
#X floatatom 246 199 5 0 0 0 - - -;
#X obj 170 97 phasor~ 0.6;
#X connect 0 0 3 0;
#X connect 1 0 5 0;
#X connect 1 0 6 0;
#X connect 2 0 1 0;
#X connect 3 0 2 0;
#X connect 4 0 7 0;
#X connect 7 0 1 0;
