#N canvas 462 159 1275 771 10;
#X obj 79 68 route 0 1 2 3;
#X obj 144 256 t a;
#X obj 144 441 comport;
#X obj 212 289 spigot 0;
#X obj 212 314 print output;
#X obj 257 266 tgl 15 0 empty empty empty 17 7 0 10 -262144 -1 -1 0
1;
#X msg -42 383 baud 115200;
#X obj -42 356 delay 10;
#X obj -43 285 makefilename /dev/ttyUSB%d;
#X obj -43 260 hradio 15 1 0 8 empty empty empty 0 -8 0 10 -262144
-1 -1 1;
#X msg -43 311 devicename \$1;
#X msg 175 394 close;
#X obj 28 -149 bng 15 250 50 0 empty empty empty 17 7 0 10 -262144
-1 -1;
#X obj -43 334 bang;
#X obj 86 -89 random 127;
#X obj 86 -67 / 127;
#X obj 28 -17 pack f f;
#X obj 263 -158 bng 15 250 50 0 empty empty empty 17 7 0 10 -262144
-1 -1;
#X obj 303 -95 random 127;
#X obj 303 -70 / 127;
#X obj 245 -20 pack f f;
#X obj 245 -131 t b b;
#X obj -150 -153 x37v-count 6;
#X obj -150 -182 until 6;
#X msg -150 -207 6;
#X msg -150 -127 \$1 current 1 0 0 0;
#X obj 251 79 route 4 5 6 7;
#X obj 135 135 led_driver 13;
#X obj 27 -76 random 6;
#X obj 26 -188 metro 500;
#X obj 25 -208 tgl 15 0 empty empty empty 17 7 0 10 -262144 -1 -1 0
1;
#X obj 80 -224 hsl 128 15 100 1000 0 0 empty empty empty -2 -8 0 10
-262144 -1 -1 0 1;
#X msg 79 27 \$1 black 4000 \$2 1 1;
#X obj 28 -126 t f b;
#X obj 438 -17 pack f f;
#X obj 436 -188 metro 500;
#X obj 435 -208 tgl 15 0 empty empty empty 17 7 0 10 -262144 -1 -1
0 1;
#X obj 490 -224 hsl 128 15 4 1000 1 0 empty empty empty -2 -8 0 10
-262144 -1 -1 0 1;
#X obj 438 -126 t b b;
#X obj 375 -61 x37v-count 6;
#X obj 485 -85 x37v-count 31;
#X obj 488 -58 / 30;
#X floatatom 507 -189 5 0 0 0 - - -;
#X obj 97 177 led_driver 6;
#X obj 116 158 led_driver 8;
#X obj 79 200 led_driver 7;
#X obj 251 211 led_driver 14;
#X obj 269 188 led_driver 15;
#X obj 464 -154 bng 15 250 50 0 empty empty empty 17 7 0 10 -262144
-1 -1;
#X obj 223 -94 x37v-count 6;
#X obj 235 -197 metro 500;
#X obj 234 -217 tgl 15 0 empty empty empty 17 7 0 10 -262144 -1 -1
0 1;
#X obj 289 -233 hsl 128 15 10 10000 0 0 empty empty empty -2 -8 0 10
-262144 -1 -1 11000 1;
#X floatatom 306 -198 5 0 0 0 - - -;
#X msg 436 -94 5;
#X obj 475 235 packOSC;
#X obj 494 324 udpsend;
#X obj 515 357 tgl 15 0 empty empty empty 17 7 0 10 -262144 -1 -1 0
1;
#X msg 544 263 disconnect;
#X msg 504 284 connect 10.42.43.100 1234;
#X msg 249 -61 5;
#X obj 363 75 unpack f f f f;
#X obj 365 120 pipe f f f 1000;
#X obj 371 161 pack f f f;
#X msg 363 54 \$4 \$5 \$6 \$3;
#X obj 373 272 print;
#X msg 372 197 sendtyped /hsv fff \$1 \$2 \$3;
#X msg 600 199 sendtyped /hsv fff \$4 \$5 \$6;
#X msg 245 19 \$1 current 2000 \$2 1 1;
#X obj 660 -9 pack f f;
#X obj 660 -235 metro 500;
#X obj 659 -255 tgl 15 0 empty empty empty 17 7 0 10 -262144 -1 -1
0 1;
#X obj 714 -271 hsl 128 15 4 1000 1 0 empty empty empty -2 -8 0 10
-262144 -1 -1 11500 1;
#X obj 660 -118 t b b;
#X obj 621 -75 x37v-count 6;
#X floatatom 731 -236 5 0 0 0 - - -;
#X obj 686 -146 bng 15 250 50 0 empty empty empty 17 7 0 10 -262144
-1 -1;
#X msg 489 27 \$1 black 1 \$2 1 1;
#X obj 941 -199 table \$0-blah;
#X msg 661 24 \$2 \$1;
#X obj 660 109 unpack f f;
#X obj 661 145 tabwrite \$0-blah;
#X obj 664 57 t a a;
#X obj 741 84 unpack f f;
#X obj 851 323 tabread \$0-blah;
#X obj 827 241 +;
#X obj 798 113 t b f;
#X obj 812 300 t f f;
#X obj 807 358 pack f f;
#X obj 793 207 t f f;
#X obj 707 -77 random 127;
#X obj 710 -50 / 127;
#X obj 685 473 print;
#X obj 620 -168 sel 0 1;
#X msg 588 -142 1;
#X msg 618 -143 0;
#X msg 813 460 sendtyped /hsv fff \$1 1 1;
#X obj 812 423 route 0;
#X obj 815 271 mod 6;
#X obj 802 168 x37v-count 6;
#X obj 798 141 until 6;
#X msg 486 71 sendtyped /strobe T;
#X msg 525 98 sendtyped /strobe F;
#X obj 660 -197 x37v-count 8;
#X connect 0 0 45 0;
#X connect 0 1 43 0;
#X connect 0 2 44 0;
#X connect 0 3 27 0;
#X connect 0 4 26 0;
#X connect 1 0 2 0;
#X connect 1 0 3 0;
#X connect 3 0 4 0;
#X connect 5 0 3 1;
#X connect 6 0 2 0;
#X connect 7 0 6 0;
#X connect 8 0 10 0;
#X connect 9 0 8 0;
#X connect 10 0 2 0;
#X connect 10 0 13 0;
#X connect 11 0 2 0;
#X connect 12 0 33 0;
#X connect 13 0 7 0;
#X connect 14 0 15 0;
#X connect 15 0 16 1;
#X connect 16 0 32 0;
#X connect 17 0 21 0;
#X connect 18 0 19 0;
#X connect 19 0 20 1;
#X connect 20 0 68 0;
#X connect 21 0 49 0;
#X connect 21 1 18 0;
#X connect 22 0 25 0;
#X connect 22 1 23 1;
#X connect 23 0 22 0;
#X connect 24 0 23 0;
#X connect 25 0 0 0;
#X connect 26 0 46 0;
#X connect 26 1 47 0;
#X connect 27 0 1 0;
#X connect 28 0 16 0;
#X connect 29 0 12 0;
#X connect 30 0 29 0;
#X connect 31 0 29 1;
#X connect 32 0 0 0;
#X connect 33 0 28 0;
#X connect 33 1 14 0;
#X connect 34 0 77 0;
#X connect 35 0 38 0;
#X connect 36 0 35 0;
#X connect 37 0 35 1;
#X connect 37 0 42 0;
#X connect 38 0 39 0;
#X connect 38 0 54 0;
#X connect 38 1 40 0;
#X connect 40 0 41 0;
#X connect 41 0 34 1;
#X connect 43 0 1 0;
#X connect 44 0 1 0;
#X connect 45 0 1 0;
#X connect 46 0 1 0;
#X connect 47 0 1 0;
#X connect 48 0 38 0;
#X connect 49 0 60 0;
#X connect 50 0 21 0;
#X connect 51 0 50 0;
#X connect 52 0 50 1;
#X connect 52 0 53 0;
#X connect 54 0 34 0;
#X connect 55 0 56 0;
#X connect 56 0 57 0;
#X connect 58 0 56 0;
#X connect 59 0 56 0;
#X connect 60 0 20 0;
#X connect 61 0 62 0;
#X connect 61 1 62 1;
#X connect 61 2 62 2;
#X connect 61 3 62 3;
#X connect 62 0 63 0;
#X connect 62 1 63 1;
#X connect 62 2 63 2;
#X connect 63 0 66 0;
#X connect 64 0 61 0;
#X connect 66 0 55 0;
#X connect 66 0 65 0;
#X connect 67 0 55 0;
#X connect 68 0 0 0;
#X connect 68 0 64 0;
#X connect 69 0 79 0;
#X connect 70 0 103 0;
#X connect 71 0 70 0;
#X connect 72 0 70 1;
#X connect 72 0 75 0;
#X connect 73 0 74 0;
#X connect 73 1 90 0;
#X connect 74 0 69 0;
#X connect 76 0 73 0;
#X connect 77 0 0 0;
#X connect 79 0 82 0;
#X connect 80 0 81 0;
#X connect 80 1 81 1;
#X connect 82 0 83 0;
#X connect 82 1 80 0;
#X connect 83 1 86 0;
#X connect 84 0 88 1;
#X connect 85 0 98 0;
#X connect 86 0 100 0;
#X connect 86 1 85 1;
#X connect 87 1 84 0;
#X connect 88 0 77 0;
#X connect 88 0 97 0;
#X connect 89 0 88 0;
#X connect 89 1 85 0;
#X connect 90 0 91 0;
#X connect 91 0 69 1;
#X connect 93 0 94 0;
#X connect 93 1 95 0;
#X connect 93 2 73 0;
#X connect 94 0 36 0;
#X connect 94 0 101 0;
#X connect 95 0 36 0;
#X connect 95 0 73 0;
#X connect 95 0 102 0;
#X connect 96 0 55 0;
#X connect 97 0 96 0;
#X connect 97 0 92 0;
#X connect 98 0 87 0;
#X connect 99 0 89 0;
#X connect 99 1 100 1;
#X connect 100 0 99 0;
#X connect 101 0 55 0;
#X connect 102 0 55 0;
#X connect 103 0 93 0;
