#N canvas 94 619 604 272 10;
#X obj 35 64 hsl 100 10 0 100 0 0 empty empty volume 15 6 0 10 -260818
-1 -262144 0 1;
#X obj 151 192 *~;
#X obj 298 138 line~;
#X msg 298 115 \$1 50;
#X obj 32 98 dbtorms;
#X text 19 15 8-Channel Output with Volume Control;
#X obj 150 58 inlet~;
#X obj 198 192 *~;
#X obj 197 58 inlet~;
#X obj 245 192 *~;
#X obj 244 58 inlet~;
#X obj 292 192 *~;
#X obj 291 58 inlet~;
#X obj 339 192 *~;
#X obj 338 58 inlet~;
#X obj 386 192 *~;
#X obj 385 58 inlet~;
#X obj 433 192 *~;
#X obj 432 58 inlet~;
#X obj 480 192 *~;
#X obj 479 58 inlet~;
#X obj 266 240 dac~ 1 2 3 4 5 6 7 8;
#X connect 0 0 4 0;
#X connect 1 0 21 0;
#X connect 2 0 1 1;
#X connect 2 0 7 1;
#X connect 2 0 9 1;
#X connect 2 0 11 1;
#X connect 2 0 13 1;
#X connect 2 0 15 1;
#X connect 2 0 17 1;
#X connect 2 0 19 1;
#X connect 3 0 2 0;
#X connect 4 0 3 0;
#X connect 6 0 1 0;
#X connect 7 0 21 1;
#X connect 8 0 7 0;
#X connect 9 0 21 2;
#X connect 10 0 9 0;
#X connect 11 0 21 3;
#X connect 12 0 11 0;
#X connect 13 0 21 4;
#X connect 14 0 13 0;
#X connect 15 0 21 5;
#X connect 16 0 15 0;
#X connect 17 0 21 6;
#X connect 18 0 17 0;
#X connect 19 0 21 7;
#X connect 20 0 19 0;
#X coords 0 -1 1 1 109 26 1 30 50;
