#N canvas 70 86 615 888 10;
#X obj -122 571 s \$0-p1;
#X obj -119 549 hsl 128 15 0 360 0 0 empty empty empty -2 -8 0 10 -262144
-1 -1 0 1;
#X obj -120 594 hsl 128 15 0 360 0 0 empty empty empty -2 -8 0 10 -262144
-1 -1 568 1;
#X obj -123 615 s \$0-p2;
#X obj -120 641 hsl 128 15 0 360 0 0 empty empty empty -2 -8 0 10 -262144
-1 -1 12204 1;
#X obj -121 686 hsl 128 15 0 360 0 0 empty empty empty -2 -8 0 10 -262144
-1 -1 48 1;
#X obj -123 663 s \$0-p3;
#X obj -124 707 s \$0-p4;
#X obj -120 728 hsl 128 15 0 360 0 0 empty empty empty -2 -8 0 10 -262144
-1 -1 0 1;
#X obj -121 773 hsl 128 15 0 360 0 0 empty empty empty -2 -8 0 10 -262144
-1 -1 0 1;
#X obj -123 750 s \$0-p5;
#X obj -124 794 s \$0-p6;
#X obj -122 518 6ch-pan_ctl ----;
#X obj -126 443 hsl 128 15 0 360 0 0 empty empty empty -2 -8 0 10 -262144
-1 -1 4001 1;
#X obj -129 110 vsl 15 128 0 4 0 0 empty empty empty 0 -9 0 10 -262144
-1 -1 317 1;
#X obj -129 54 loadbang;
#X floatatom -125 490 5 0 0 0 - - -;
#X obj -129 268 lfo;
#X obj -129 375 * 360;
#X msg -129 84 0.1;
#X connect 1 0 0 0;
#X connect 2 0 3 0;
#X connect 4 0 6 0;
#X connect 5 0 7 0;
#X connect 8 0 10 0;
#X connect 9 0 11 0;
#X connect 12 0 1 0;
#X connect 12 1 2 0;
#X connect 12 2 4 0;
#X connect 12 3 5 0;
#X connect 12 4 8 0;
#X connect 12 5 9 0;
#X connect 13 0 12 1;
#X connect 14 0 17 0;
#X connect 15 0 19 0;
#X connect 16 0 12 0;
#X connect 17 0 18 0;
#X connect 18 0 13 0;
#X connect 19 0 14 0;
