#N canvas 1256 229 449 383 10;
#X obj 60 101 list-drip;
#X obj 60 72 t a b;
#X obj 22 170 i 0;
#X obj 60 131 t b a;
#X msg 27 107 0;
#X obj 47 170 + 1;
#X obj 22 203 pack f f;
#X obj 59 10 inlet;
#X obj 59 42 list-lastx 1;
#X obj 156 -63 loadbang;
#X obj 156 -37 i \$1;
#X obj 156 -10 sel 0;
#X msg 156 13 1;
#X obj 108 6 inlet;
#X obj 22 233 outlet;
#X connect 0 0 3 0;
#X connect 1 0 0 0;
#X connect 1 1 4 0;
#X connect 2 0 5 0;
#X connect 2 0 6 0;
#X connect 3 0 2 0;
#X connect 3 1 6 1;
#X connect 4 0 2 1;
#X connect 5 0 2 1;
#X connect 6 0 14 0;
#X connect 7 0 8 0;
#X connect 8 0 1 0;
#X connect 9 0 10 0;
#X connect 10 0 11 0;
#X connect 11 0 12 0;
#X connect 11 1 8 1;
#X connect 12 0 8 1;
#X connect 13 0 8 1;
