#N canvas 94 619 604 272 10;
#X obj 35 64 hsl 100 10 0 100 0 0 empty empty volume 15 6 0 10 -260818
-1 -262144 0 1;
#X obj 151 192 *~;
#X obj 253 192 *~;
#X obj 296 146 line~;
#X msg 296 123 \$1 50;
#X obj 32 98 dbtorms;
#X text 19 15 4-Channel Output with Volume Control;
#X obj 150 58 inlet~ Ch1;
#X obj 252 58 inlet~ Ch2;
#X obj 350 58 inlet~ Ch3;
#X obj 452 58 inlet~ Ch4;
#X obj 266 240 dac~ 1 2 3 4;
#X obj 351 192 *~;
#X obj 453 192 *~;
#X obj -36 14 inlet;
#X connect 0 0 5 0;
#X connect 1 0 11 0;
#X connect 2 0 11 1;
#X connect 3 0 1 1;
#X connect 3 0 2 1;
#X connect 3 0 12 1;
#X connect 3 0 13 1;
#X connect 4 0 3 0;
#X connect 5 0 4 0;
#X connect 7 0 1 0;
#X connect 8 0 2 0;
#X connect 9 0 12 0;
#X connect 10 0 13 0;
#X connect 12 0 11 2;
#X connect 13 0 11 3;
#X connect 14 0 0 0;
#X coords 0 -1 1 1 109 26 1 30 50;
