#N canvas 311 56 1322 942 10;
#X obj 144 256 t a;
#X obj 144 441 comport;
#X obj 212 289 spigot 0;
#X obj 212 314 print output;
#X obj 257 266 tgl 15 0 empty empty empty 17 7 0 10 -262144 -1 -1 0
1;
#X msg -42 383 baud 115200;
#X obj -42 356 delay 10;
#X obj -43 260 hradio 15 1 0 8 empty empty empty 0 -8 0 10 -262144
-1 -1 1;
#X msg -43 311 devicename \$1;
#X msg 175 394 close;
#X obj -43 334 bang;
#X obj 116 158 led_driver 8;
#X obj -43 285 makefilename /dev/cu.usbserial-A400GYUY;
#X obj 80 -2 pack f f f;
#X obj 240 -223 vsl 15 128 0.6 1 0 0 empty empty empty 0 -9 0 10 -262144
-1 -1 0 1;
#X obj 159 -227 vsl 15 128 0.95 1 0 0 empty empty empty 0 -9 0 10 -262144
-1 -1 0 1;
#X obj 70 -227 vsl 15 128 0 1 0 0 empty empty empty 0 -9 0 10 -262144
-1 -1 0 1;
#X obj 241 -76 t b f;
#X obj 161 -77 t b f;
#X obj 77 -71 t b f;
#N canvas 204 262 450 300 lfo 0;
#X obj 154 -79 snapshot~;
#X floatatom 154 11 5 0 0 0 - - -;
#X obj 279 -139 tgl 15 0 empty empty empty 17 7 0 10 -262144 -1 -1
0 1;
#X obj 321 -87 bng 15 250 50 0 empty empty empty 17 7 0 10 -262144
-1 -1;
#X obj 154 -50 + 1;
#X obj 154 -17 / 2;
#X obj 154 58 outlet;
#X obj 154 -143 inlet;
#X obj 276 -112 metro 10;
#X obj 356 -139 inlet;
#X obj 154 -113 osc~ 0.01;
#X connect 0 0 4 0;
#X connect 1 0 6 0;
#X connect 2 0 8 0;
#X connect 3 0 0 0;
#X connect 4 0 5 0;
#X connect 5 0 1 0;
#X connect 7 0 10 0;
#X connect 8 0 3 0;
#X connect 9 0 2 0;
#X connect 10 0 0 0;
#X restore 70 -305 pd lfo;
#N canvas 803 274 450 300 lfo 0;
#X obj 154 -79 snapshot~;
#X floatatom 154 11 5 0 0 0 - - -;
#X obj 279 -139 tgl 15 0 empty empty empty 17 7 0 10 -262144 -1 -1
0 1;
#X obj 321 -87 bng 15 250 50 0 empty empty empty 17 7 0 10 -262144
-1 -1;
#X obj 154 -50 + 1;
#X obj 154 -17 / 2;
#X obj 154 58 outlet;
#X obj 154 -143 inlet;
#X obj 276 -112 metro 10;
#X obj 154 -113 osc~ 2;
#X obj 215 -148 inlet;
#X connect 0 0 4 0;
#X connect 1 0 6 0;
#X connect 2 0 8 0;
#X connect 3 0 0 0;
#X connect 4 0 5 0;
#X connect 5 0 1 0;
#X connect 7 0 9 0;
#X connect 8 0 3 0;
#X connect 9 0 0 0;
#X connect 10 0 2 0;
#X restore 240 -254 pd lfo;
#X obj 267 -276 tgl 15 0 empty empty empty 17 7 0 10 -262144 -1 -1
0 1;
#X obj 105 -332 tgl 15 0 empty empty empty 17 7 0 10 -262144 -1 -1
0 1;
#N canvas 204 262 450 300 lfo 0;
#X obj 154 -79 snapshot~;
#X obj 154 -113 osc~ 0.1;
#X floatatom 154 11 5 0 0 0 - - -;
#X obj 279 -139 tgl 15 0 empty empty empty 17 7 0 10 -262144 -1 -1
0 1;
#X obj 321 -87 bng 15 250 50 0 empty empty empty 17 7 0 10 -262144
-1 -1;
#X obj 154 -50 + 1;
#X obj 154 -17 / 2;
#X obj 154 58 outlet;
#X obj 154 -143 inlet;
#X obj 276 -112 metro 10;
#X obj 356 -139 inlet;
#X connect 0 0 5 0;
#X connect 1 0 0 0;
#X connect 2 0 7 0;
#X connect 3 0 9 0;
#X connect 4 0 0 0;
#X connect 5 0 6 0;
#X connect 6 0 2 0;
#X connect 8 0 1 0;
#X connect 9 0 4 0;
#X connect 10 0 3 0;
#X restore 157 -259 pd lfo;
#X obj 192 -286 tgl 15 0 empty empty empty 17 7 0 10 -262144 -1 -1
0 1;
#X msg 78 28 current 0 \$1 \$2 \$3;
#X obj -85 -326 hsl 128 15 0.001 2 0 0 empty empty empty -2 -8 0 10
-262144 -1 -1 0 1;
#X obj 241 -304 hsl 128 15 0.1 15 0 0 empty empty empty -2 -8 0 10
-262144 -1 -1 0 1;
#X floatatom 23 -80 5 0 0 0 - - -;
#X obj 683 -193 metro 200;
#X obj 738 -141 + 1;
#X obj 684 -140 f;
#X floatatom 687 -77 5 0 0 0 - - -;
#X obj 682 -218 tgl 15 0 empty empty empty 17 7 0 10 -262144 -1 -1
0 1;
#X obj 375 -274 loadbang;
#X text 29 -173 hue;
#X text 128 -175 sat;
#X text 194 -173 val;
#X floatatom 120 -93 5 0 0 0 - - -;
#X floatatom 917 -178 5 0 0 0 - - -;
#X obj 917 -148 / 360;
#X floatatom 918 -113 5 0 0 0 - - -;
#X text 965 -148 hue degrees to 0-1;
#X text 822 136 amber;
#X text 965 14 i: ee green;
#X text 992 67 e red;
#X text 979 45 i pink;
#X text 1006 113 ^ mustard;
#X text 1015 136 u blue;
#X text 1025 156 u wooden;
#X text 1035 200 a olive;
#X text 1031 180 a rose;
#X text 1002 93 ae amber;
#X obj 837 -195 vsl 15 128 0 1 0 0 empty empty empty 0 -9 0 10 -262144
-1 -1 0 1;
#X floatatom 882 -65 5 0 0 0 - - -;
#X text 818 -18 green;
#X text 817 34 pink;
#X text 817 84 red;
#X text 825 187 mustard;
#X floatatom 204 -90 5 0 0 0 - - -;
#X msg 822 3 black 0 0.33 1 0.8;
#X msg 826 206 black 0 0.125 1 1;
#X text 827 239 blue;
#X msg 828 258 black 0 0.666 1 0.8;
#X text 826 290 wooden;
#X msg 827 309 black 0 0.08 1 0.3;
#X text 828 348 rose;
#X msg 829 367 black 0 0.905 0.8 0.3;
#X msg 819 107 black 0 0 1 0.8;
#X text 831 405 olive;
#X msg 819 57 black 0 0.833 1 1;
#X msg 823 155 black 0 0.09 1 0.7;
#X msg 832 424 black 0 0.227 1 0.42;
#X obj 685 -113 mod 9;
#X obj 692 -50 sel 0 1 2 3 4 5 6 7 8;
#X msg 468 382 black 2000 0 0 0;
#X connect 0 0 1 0;
#X connect 0 0 2 0;
#X connect 2 0 3 0;
#X connect 4 0 2 1;
#X connect 5 0 1 0;
#X connect 6 0 5 0;
#X connect 7 0 12 0;
#X connect 8 0 1 0;
#X connect 8 0 10 0;
#X connect 9 0 1 0;
#X connect 10 0 6 0;
#X connect 11 0 0 0;
#X connect 12 0 8 0;
#X connect 13 0 26 0;
#X connect 14 0 17 0;
#X connect 14 0 60 0;
#X connect 15 0 18 0;
#X connect 15 0 39 0;
#X connect 16 0 19 0;
#X connect 16 0 29 0;
#X connect 17 0 13 0;
#X connect 17 1 13 2;
#X connect 18 0 13 0;
#X connect 18 1 13 1;
#X connect 19 0 13 0;
#X connect 19 1 13 0;
#X connect 20 0 16 0;
#X connect 21 0 14 0;
#X connect 22 0 21 1;
#X connect 23 0 20 1;
#X connect 24 0 15 0;
#X connect 25 0 24 1;
#X connect 26 0 11 0;
#X connect 27 0 20 0;
#X connect 28 0 21 0;
#X connect 30 0 32 0;
#X connect 31 0 32 1;
#X connect 32 0 31 0;
#X connect 32 0 74 0;
#X connect 33 0 75 0;
#X connect 34 0 30 0;
#X connect 35 0 14 0;
#X connect 35 0 15 0;
#X connect 35 0 16 0;
#X connect 40 0 41 0;
#X connect 41 0 42 0;
#X connect 54 0 55 0;
#X connect 61 0 11 0;
#X connect 62 0 11 0;
#X connect 64 0 11 0;
#X connect 66 0 11 0;
#X connect 68 0 11 0;
#X connect 69 0 11 0;
#X connect 71 0 11 0;
#X connect 72 0 11 0;
#X connect 73 0 11 0;
#X connect 74 0 33 0;
#X connect 75 0 61 0;
#X connect 75 1 71 0;
#X connect 75 2 69 0;
#X connect 75 3 72 0;
#X connect 75 4 62 0;
#X connect 75 5 64 0;
#X connect 75 6 66 0;
#X connect 75 7 68 0;
#X connect 75 8 73 0;
#X connect 76 0 11 0;
