#N canvas 454 324 409 456 10;
#X text 17 42 simple sampler;
#X text 17 19 SSAMPLER~;
#X obj 22 95 inlet IO;
#X obj 234 97 inlet load_sample;
#X obj 234 127 openpanel;
#X msg 233 156 set open \$1;
#X msg 233 219 open /home/holzi/workshops/PdSpatialization/patches/sounds/schritte.wav
;
#X obj 140 304 readsf~ 2;
#X msg 100 279 1;
#X msg 140 256 0;
#X obj 22 131 sel 0;
#X obj 72 169 t b b b;
#X text 83 150 start;
#X obj 98 358 outlet~;
#X obj 198 358 outlet~;
#X text 106 422 2007 \, Georg Holzmann \, <grh_at_mur_dot_at>;
#X obj 31 314 spigot 0;
#X msg 60 281 0;
#X obj 21 176 t b b;
#X connect 2 0 10 0;
#X connect 3 0 4 0;
#X connect 4 0 5 0;
#X connect 5 0 6 0;
#X connect 6 0 7 0;
#X connect 7 0 13 0;
#X connect 7 1 14 0;
#X connect 7 2 16 0;
#X connect 8 0 7 0;
#X connect 8 0 16 1;
#X connect 9 0 7 0;
#X connect 10 0 18 0;
#X connect 10 1 11 0;
#X connect 11 0 8 0;
#X connect 11 1 6 0;
#X connect 11 2 9 0;
#X connect 16 0 11 0;
#X connect 17 0 16 1;
#X connect 18 0 17 0;
#X connect 18 1 9 0;
