#N canvas 476 167 522 456 10;
#X obj 86 381 +~;
#X obj 192 382 +~;
#X obj 106 323 rev2~ 0 0;
#X obj 212 322 rev2~ 0 0;
#X obj 85 271 inlet~;
#X obj 192 273 inlet~;
#X obj 85 410 outlet~;
#X obj 192 410 outlet~;
#X text 33 50 simple \, cheap stereo reverberator;
#X obj 135 192 loadbang;
#X obj 96 237 f \$1;
#X obj 160 237 f \$2;
#X text 91 20 STEREO-REV~;
#X floatatom 87 109 4 0 100 1 dB - -;
#X floatatom 87 125 4 0 100 1 % - -;
#X obj 118 92 tgl 15 0 empty empty empty 17 7 0 10 -260818 -1 -1 1
1;
#X obj 190 89 loadbang;
#X msg 157 88 1;
#X obj 32 110 cnv 12 53 12 empty empty level 21 7 0 10 -233017 -1 0
;
#X obj 32 127 cnv 12 53 12 empty empty liveness 3 7 0 10 -233017 -1
0;
#X obj 268 153 clip 0 100;
#X obj 358 153 clip 0 100;
#X obj 260 95 inlet level;
#X obj 362 97 inlet liveness;
#X obj 105 357 *~ 1;
#X obj 211 351 *~ 1;
#X connect 0 0 6 0;
#X connect 1 0 7 0;
#X connect 2 0 24 0;
#X connect 2 1 25 0;
#X connect 3 0 25 0;
#X connect 3 1 24 0;
#X connect 4 0 0 0;
#X connect 4 0 2 0;
#X connect 5 0 1 0;
#X connect 5 0 3 0;
#X connect 9 0 10 0;
#X connect 9 0 11 0;
#X connect 10 0 2 2;
#X connect 10 0 3 2;
#X connect 11 0 2 1;
#X connect 11 0 3 1;
#X connect 13 0 20 0;
#X connect 14 0 21 0;
#X connect 15 0 24 1;
#X connect 15 0 25 1;
#X connect 16 0 17 0;
#X connect 17 0 15 0;
#X connect 20 0 3 2;
#X connect 20 0 2 2;
#X connect 21 0 3 1;
#X connect 21 0 2 1;
#X connect 22 0 13 0;
#X connect 23 0 14 0;
#X connect 24 0 0 1;
#X connect 25 0 1 1;
#X coords 0 -1 1 1 105 52 1 30 90;
