#N canvas 553 150 976 1005 10;
#X msg 188 191 stop;
#X obj 58 324 expr abs($f1 - $f2);
#X obj 169 281 f 0;
#X obj 58 359 > 0.5;
#X text 108 359 wrap if > 0.5;
#X obj 188 514 < 0.5;
#X obj 173 543 +;
#X obj 161 489 t f f;
#X obj 58 401 pack f f f;
#X obj 58 435 route 0 1;
#X obj 90 465 unpack f f;
#X obj 118 513 < 0.5;
#X obj 103 542 +;
#X obj 91 488 t f f;
#X obj 103 575 pack f f;
#X obj 57 625 s \$0-rampvals;
#X obj 235 -49 r \$0-rampvals;
#X msg 233 165 \$1 \, \$2 \$3;
#X obj 235 3 unpack f f;
#X obj 233 139 pack f f f;
#X msg 57 601 \$2 \$1;
#X obj 138 -81 inlet;
#X obj 252 424 outlet;
#X obj 138 -47 unpack f f;
#X obj 166 -4 t f b;
#X obj 58 248 t f f b;
#X text 185 -79 |value time-ms(;
#X obj 438 -30 f \$1;
#X obj 438 -6 t f f;
#X obj 438 16 != 0;
#X obj 438 60 route 1;
#X obj 438 39 pack f f;
#X obj 393 -57 inlet;
#X obj 438 -57 loadbang;
#X text 495 -57 line grain rate;
#X obj 235 -25 t a a;
#X obj 309 2 unpack f f;
#X obj 317 28 -;
#X obj 317 54 abs;
#X obj 317 77 wrap 1;
#X obj 317 106 *;
#X text 349 105 < - multiply time by the range this line will cover
;
#X obj 218 252 wrap 1;
#X obj 218 224 line 0 1;
#X connect 0 0 43 0;
#X connect 1 0 3 0;
#X connect 2 0 1 1;
#X connect 2 0 8 2;
#X connect 3 0 8 0;
#X connect 5 0 6 1;
#X connect 6 0 14 1;
#X connect 7 0 6 0;
#X connect 7 1 5 0;
#X connect 8 0 9 0;
#X connect 9 0 20 0;
#X connect 9 1 10 0;
#X connect 10 0 13 0;
#X connect 10 1 7 0;
#X connect 11 0 12 1;
#X connect 12 0 14 0;
#X connect 13 0 12 0;
#X connect 13 1 11 0;
#X connect 14 0 20 0;
#X connect 16 0 35 0;
#X connect 17 0 43 0;
#X connect 18 0 19 0;
#X connect 18 1 19 1;
#X connect 19 0 17 0;
#X connect 20 0 15 0;
#X connect 21 0 23 0;
#X connect 23 0 25 0;
#X connect 23 1 24 0;
#X connect 24 0 40 1;
#X connect 24 1 0 0;
#X connect 25 0 1 0;
#X connect 25 1 8 1;
#X connect 25 2 2 0;
#X connect 27 0 28 0;
#X connect 28 0 29 0;
#X connect 28 1 31 1;
#X connect 29 0 31 0;
#X connect 30 0 43 1;
#X connect 31 0 30 0;
#X connect 32 0 43 1;
#X connect 33 0 27 0;
#X connect 35 0 18 0;
#X connect 35 1 36 0;
#X connect 36 0 37 0;
#X connect 36 1 37 1;
#X connect 37 0 38 0;
#X connect 38 0 39 0;
#X connect 39 0 40 0;
#X connect 40 0 19 2;
#X connect 42 0 22 0;
#X connect 42 0 2 1;
#X connect 43 0 42 0;
