#N canvas 1569 1065 450 300 10;
#X obj 41 85 wrappedline;
#X obj 41 41 / 360;
#X obj 41 107 * 360;
#X msg 41 62 \$1 100;
#X obj 41 14 inlet;
#X obj 41 132 outlet;
#X connect 0 0 2 0;
#X connect 1 0 3 0;
#X connect 2 0 5 0;
#X connect 3 0 0 0;
#X connect 4 0 1 0;
