#N canvas 445 256 686 542 10;
#X obj 83 80 until 8;
#X obj 83 130 x37v-count 8;
#X obj 83 243 t a;
#X obj 83 211 list prepend;
#X obj 20 290 list append;
#X msg 143 96 set_length \$1;
#X obj 83 42 t f b f;
#X obj 83 8 inlet;
#X obj 20 327 outlet;
#X connect 0 0 1 0;
#X connect 1 0 3 0;
#X connect 1 1 0 1;
#X connect 1 1 4 0;
#X connect 2 0 3 1;
#X connect 2 0 4 1;
#X connect 3 0 2 0;
#X connect 4 0 8 0;
#X connect 5 0 1 0;
#X connect 6 0 0 0;
#X connect 6 1 3 1;
#X connect 6 2 5 0;
#X connect 7 0 6 0;
