#N canvas 7 10 677 648 10;
#X obj 42 51 inlet~;
#X obj 43 379 matrix_diag_mul_line8~ 6 50 ________________________________
;
#X obj 150 106 switch~;
#X obj 381 214 pp time;
#X obj 202 122 pp diag;
#X obj 186 191 pp col;
#X obj 331 186 pp time;
#X text 44 33 signal in;
#X obj 167 81 inlet;
#X text 166 65 switch_early1;
#X obj 343 125 inlet;
#X text 343 107 interpol;
#X obj 394 160 t b f;
#X obj 381 188 *;
#X obj 394 133 inlet;
#X text 393 116 dmfi;
#X obj 213 92 inlet;
#X text 211 75 damp_early1;
#X obj 255 104 inlet;
#X text 251 87 del_early1;
#X obj 297 116 inlet;
#X text 296 98 itp_early1;
#X obj 43 516 outlet~;
#X obj 57 516 outlet~;
#X obj 71 516 outlet~;
#X obj 85 516 outlet~;
#X obj 99 516 outlet~;
#X obj 113 516 outlet~;
#X obj 127 516 outlet~;
#X obj 141 516 outlet~;
#X obj 155 516 outlet~;
#X obj 169 516 outlet~;
#X obj 183 516 outlet~;
#X obj 197 516 outlet~;
#X obj 211 516 outlet~;
#X obj 225 516 outlet~;
#X obj 239 516 outlet~;
#X obj 253 516 outlet~;
#X obj 267 516 outlet~;
#X obj 281 516 outlet~;
#X obj 295 516 outlet~;
#X obj 309 516 outlet~;
#X obj 323 516 outlet~;
#X obj 337 516 outlet~;
#X obj 351 516 outlet~;
#X obj 365 516 outlet~;
#X obj 379 516 outlet~;
#X text 405 538 I4;
#X text 49 538 A0;
#X obj 43 278 6_delay1p_doppless~ 500 150 ________________________________
;
#X obj 608 492 +~;
#X obj 584 516 outlet~;
#X obj 608 516 outlet~;
#X obj 632 516 outlet~;
#X obj 656 516 outlet~;
#X text 622 543 5 earlies for reverb;
#X obj 680 516 outlet~;
#X obj 393 516 outlet~;
#X obj 407 516 outlet~;
#X obj 421 516 outlet~;
#X obj 435 516 outlet~;
#X obj 449 516 outlet~;
#X obj 463 516 outlet~;
#X obj 477 516 outlet~;
#X obj 491 516 outlet~;
#X obj 505 516 outlet~;
#X obj 519 516 outlet~;
#X obj 533 516 outlet~;
#X obj 42 412 matrix_mul_line8~ 6 36 50 __________________________________
;
#X obj 186 212 ambi_encode 5;
#X connect 0 0 49 0;
#X connect 1 0 68 0;
#X connect 1 1 68 1;
#X connect 1 2 68 2;
#X connect 1 3 68 3;
#X connect 1 4 68 4;
#X connect 1 5 68 5;
#X connect 3 0 49 2;
#X connect 4 0 1 0;
#X connect 5 0 69 0;
#X connect 6 0 1 0;
#X connect 6 0 68 0;
#X connect 8 0 2 0;
#X connect 10 0 13 0;
#X connect 10 0 6 0;
#X connect 12 0 13 0;
#X connect 12 1 13 1;
#X connect 13 0 3 0;
#X connect 14 0 12 0;
#X connect 16 0 4 0;
#X connect 18 0 49 1;
#X connect 20 0 5 0;
#X connect 49 0 1 0;
#X connect 49 0 51 0;
#X connect 49 1 1 1;
#X connect 49 1 50 0;
#X connect 49 2 1 2;
#X connect 49 2 53 0;
#X connect 49 3 1 3;
#X connect 49 3 54 0;
#X connect 49 4 1 4;
#X connect 49 4 56 0;
#X connect 49 5 1 5;
#X connect 49 5 50 1;
#X connect 50 0 52 0;
#X connect 68 0 22 0;
#X connect 68 1 23 0;
#X connect 68 2 24 0;
#X connect 68 3 25 0;
#X connect 68 4 26 0;
#X connect 68 5 27 0;
#X connect 68 6 28 0;
#X connect 68 7 29 0;
#X connect 68 8 30 0;
#X connect 68 9 31 0;
#X connect 68 10 32 0;
#X connect 68 11 33 0;
#X connect 68 12 34 0;
#X connect 68 13 35 0;
#X connect 68 14 36 0;
#X connect 68 15 37 0;
#X connect 68 16 38 0;
#X connect 68 17 39 0;
#X connect 68 18 40 0;
#X connect 68 19 41 0;
#X connect 68 20 42 0;
#X connect 68 21 43 0;
#X connect 68 22 44 0;
#X connect 68 23 45 0;
#X connect 68 24 46 0;
#X connect 68 25 57 0;
#X connect 68 26 58 0;
#X connect 68 27 59 0;
#X connect 68 28 60 0;
#X connect 68 29 61 0;
#X connect 68 30 62 0;
#X connect 68 31 63 0;
#X connect 68 32 64 0;
#X connect 68 33 65 0;
#X connect 68 34 66 0;
#X connect 68 35 67 0;
#X connect 69 0 68 0;
