#N canvas 85 34 739 652 10;
#X obj 49 534 outlet~;
#X obj 63 534 outlet~;
#X obj 77 534 outlet~;
#X obj 91 534 outlet~;
#X obj 105 534 outlet~;
#X obj 119 534 outlet~;
#X obj 133 534 outlet~;
#X obj 147 534 outlet~;
#X obj 161 534 outlet~;
#X obj 175 534 outlet~;
#X obj 189 534 outlet~;
#X obj 203 534 outlet~;
#X obj 217 534 outlet~;
#X obj 231 534 outlet~;
#X obj 245 534 outlet~;
#X obj 259 534 outlet~;
#X obj 273 534 outlet~;
#X obj 287 534 outlet~;
#X obj 301 534 outlet~;
#X obj 315 534 outlet~;
#X obj 329 534 outlet~;
#X obj 343 534 outlet~;
#X obj 357 534 outlet~;
#X obj 371 534 outlet~;
#X obj 385 534 outlet~;
#X text 411 556 I4;
#X text 55 556 A0;
#X obj 47 39 inlet~;
#X obj 48 426 matrix_diag_mul_line8~ 18 50 _______________________________
;
#X obj 418 200 pp time;
#X obj 177 102 switch~;
#X obj 229 114 pp diag;
#X obj 231 188 pp col;
#X obj 364 198 pp time;
#X obj 376 123 inlet;
#X text 376 106 interpol;
#X obj 427 157 t b f;
#X obj 418 177 *;
#X obj 427 131 inlet;
#X text 431 114 dmfi;
#X obj 177 75 inlet;
#X obj 229 89 inlet;
#X obj 279 101 inlet;
#X obj 325 112 inlet;
#X text 175 58 switch_early2;
#X text 229 71 damp_early2;
#X text 277 85 del_early2;
#X text 328 96 itp_early2;
#X text 47 24 signal in;
#X obj 47 260 18_delay1p_doppless~ 500 150 _______________________________
;
#X obj 591 512 +~;
#X obj 615 512 +~;
#X obj 639 512 +~;
#X obj 662 512 +~;
#X obj 605 490 +~;
#X obj 629 490 +~;
#X obj 653 490 +~;
#X obj 676 490 +~;
#X obj 591 536 outlet~;
#X obj 615 536 outlet~;
#X obj 639 536 outlet~;
#X obj 663 536 outlet~;
#X obj 619 469 +~;
#X obj 667 469 +~;
#X text 608 556 5 earlies for reverb;
#X obj 686 512 +~;
#X obj 700 490 +~;
#X obj 687 536 outlet~;
#X obj 714 469 +~;
#X obj 399 534 outlet~;
#X obj 413 534 outlet~;
#X obj 427 534 outlet~;
#X obj 441 534 outlet~;
#X obj 455 534 outlet~;
#X obj 469 534 outlet~;
#X obj 483 534 outlet~;
#X obj 497 534 outlet~;
#X obj 511 534 outlet~;
#X obj 525 534 outlet~;
#X obj 539 534 outlet~;
#X obj 48 462 matrix_mul_line8~ 18 36 50 _________________________________
;
#X obj 231 209 ambi_encode 5;
#X connect 27 0 49 0;
#X connect 28 0 80 0;
#X connect 28 1 80 1;
#X connect 28 2 80 2;
#X connect 28 3 80 3;
#X connect 28 4 80 4;
#X connect 28 5 80 5;
#X connect 28 6 80 6;
#X connect 28 7 80 7;
#X connect 28 8 80 8;
#X connect 28 9 80 9;
#X connect 28 10 80 10;
#X connect 28 11 80 11;
#X connect 28 12 80 12;
#X connect 28 13 80 13;
#X connect 28 14 80 14;
#X connect 28 15 80 15;
#X connect 28 16 80 16;
#X connect 28 17 80 17;
#X connect 29 0 49 2;
#X connect 31 0 28 0;
#X connect 32 0 81 0;
#X connect 33 0 28 0;
#X connect 33 0 80 0;
#X connect 34 0 37 0;
#X connect 34 0 33 0;
#X connect 36 0 37 0;
#X connect 36 1 37 1;
#X connect 37 0 29 0;
#X connect 38 0 36 0;
#X connect 40 0 30 0;
#X connect 41 0 31 0;
#X connect 42 0 49 1;
#X connect 43 0 32 0;
#X connect 49 0 28 0;
#X connect 49 0 50 0;
#X connect 49 1 28 1;
#X connect 49 1 51 0;
#X connect 49 2 28 2;
#X connect 49 2 52 0;
#X connect 49 3 28 3;
#X connect 49 3 53 0;
#X connect 49 4 28 4;
#X connect 49 4 65 0;
#X connect 49 5 28 5;
#X connect 49 5 54 0;
#X connect 49 6 28 6;
#X connect 49 6 55 0;
#X connect 49 7 28 7;
#X connect 49 7 56 0;
#X connect 49 8 28 8;
#X connect 49 8 57 0;
#X connect 49 9 28 9;
#X connect 49 9 66 0;
#X connect 49 10 28 10;
#X connect 49 10 62 0;
#X connect 49 11 28 11;
#X connect 49 11 55 1;
#X connect 49 12 28 12;
#X connect 49 12 63 0;
#X connect 49 13 28 13;
#X connect 49 13 57 1;
#X connect 49 14 28 14;
#X connect 49 14 68 0;
#X connect 49 15 28 15;
#X connect 49 15 62 1;
#X connect 49 16 28 16;
#X connect 49 16 63 1;
#X connect 49 17 28 17;
#X connect 49 17 68 1;
#X connect 50 0 58 0;
#X connect 51 0 59 0;
#X connect 52 0 60 0;
#X connect 53 0 61 0;
#X connect 54 0 50 1;
#X connect 55 0 51 1;
#X connect 56 0 52 1;
#X connect 57 0 53 1;
#X connect 62 0 54 1;
#X connect 63 0 56 1;
#X connect 65 0 67 0;
#X connect 66 0 65 1;
#X connect 68 0 66 1;
#X connect 80 0 0 0;
#X connect 80 1 1 0;
#X connect 80 2 2 0;
#X connect 80 3 3 0;
#X connect 80 4 4 0;
#X connect 80 5 5 0;
#X connect 80 6 6 0;
#X connect 80 7 7 0;
#X connect 80 8 8 0;
#X connect 80 9 9 0;
#X connect 80 10 10 0;
#X connect 80 11 11 0;
#X connect 80 12 12 0;
#X connect 80 13 13 0;
#X connect 80 14 14 0;
#X connect 80 15 15 0;
#X connect 80 16 16 0;
#X connect 80 17 17 0;
#X connect 80 18 18 0;
#X connect 80 19 19 0;
#X connect 80 20 20 0;
#X connect 80 21 21 0;
#X connect 80 22 22 0;
#X connect 80 23 23 0;
#X connect 80 24 24 0;
#X connect 80 25 69 0;
#X connect 80 26 70 0;
#X connect 80 27 71 0;
#X connect 80 28 72 0;
#X connect 80 29 73 0;
#X connect 80 30 74 0;
#X connect 80 31 75 0;
#X connect 80 32 76 0;
#X connect 80 33 77 0;
#X connect 80 34 78 0;
#X connect 80 35 79 0;
#X connect 81 0 80 0;
