#N canvas 77 29 727 640 10;
#X obj 49 534 outlet~;
#X obj 63 534 outlet~;
#X obj 77 534 outlet~;
#X obj 91 534 outlet~;
#X obj 105 534 outlet~;
#X obj 119 534 outlet~;
#X obj 133 534 outlet~;
#X obj 147 534 outlet~;
#X obj 161 534 outlet~;
#X obj 175 534 outlet~;
#X obj 189 534 outlet~;
#X text 55 556 A0;
#X obj 47 39 inlet~;
#X obj 418 200 pp time;
#X obj 177 102 switch~;
#X obj 229 114 pp diag;
#X obj 231 188 pp col;
#X obj 364 198 pp time;
#X obj 376 123 inlet;
#X text 376 106 interpol;
#X obj 427 157 t b f;
#X obj 418 177 *;
#X obj 427 131 inlet;
#X text 431 114 dmfi;
#X obj 177 75 inlet;
#X obj 229 89 inlet;
#X obj 279 101 inlet;
#X obj 325 112 inlet;
#X text 175 58 switch_early2;
#X text 229 71 damp_early2;
#X text 277 85 del_early2;
#X text 47 24 signal in;
#X obj 231 209 ambi_encode 5;
#X text 328 96 ip_early2;
#X obj 47 260 8_delay1p_doppless~ 500 150 _______________________________
;
#X obj 48 386 matrix_diag_mul_line8~ 8 50 _______________________________
;
#X obj 49 413 matrix_mul_line8~ 8 11 50 _________________________________
;
#X text 217 553 B5;
#X obj 285 508 +~;
#X obj 309 508 +~;
#X obj 333 508 +~;
#X obj 356 508 +~;
#X obj 285 532 outlet~;
#X obj 309 532 outlet~;
#X obj 333 532 outlet~;
#X obj 357 532 outlet~;
#X text 281 552 4 earlies for reverb;
#X connect 12 0 34 0;
#X connect 13 0 34 2;
#X connect 15 0 35 0;
#X connect 16 0 32 0;
#X connect 17 0 35 0;
#X connect 17 0 36 0;
#X connect 18 0 21 0;
#X connect 18 0 17 0;
#X connect 20 0 21 0;
#X connect 20 1 21 1;
#X connect 21 0 13 0;
#X connect 22 0 20 0;
#X connect 24 0 14 0;
#X connect 25 0 15 0;
#X connect 26 0 34 1;
#X connect 27 0 16 0;
#X connect 32 0 36 0;
#X connect 34 0 35 0;
#X connect 34 0 38 0;
#X connect 34 1 35 1;
#X connect 34 1 39 0;
#X connect 34 2 35 2;
#X connect 34 2 40 0;
#X connect 34 3 35 3;
#X connect 34 3 41 0;
#X connect 34 4 35 4;
#X connect 34 4 38 1;
#X connect 34 5 35 5;
#X connect 34 5 39 1;
#X connect 34 6 35 6;
#X connect 34 6 40 1;
#X connect 34 7 35 7;
#X connect 34 7 41 1;
#X connect 35 0 36 0;
#X connect 35 1 36 1;
#X connect 35 2 36 2;
#X connect 35 3 36 3;
#X connect 35 4 36 4;
#X connect 35 5 36 5;
#X connect 35 6 36 6;
#X connect 35 7 36 7;
#X connect 36 0 0 0;
#X connect 36 1 1 0;
#X connect 36 2 2 0;
#X connect 36 3 3 0;
#X connect 36 4 4 0;
#X connect 36 5 5 0;
#X connect 36 6 6 0;
#X connect 36 7 7 0;
#X connect 36 8 8 0;
#X connect 36 9 9 0;
#X connect 36 10 10 0;
#X connect 38 0 42 0;
#X connect 39 0 43 0;
#X connect 40 0 44 0;
#X connect 41 0 45 0;
