#N canvas 8 12 995 654 10;
#X obj 37 18 inlet~;
#X text 115 469 1.arg: <float> max. delay-time in ms;
#X text 114 483 2.arg: <float> interpolation-time in ms;
#X obj 38 40 delwrite~ \$0-early2 \$1;
#X obj 55 434 outlet~;
#X obj 208 14 inlet;
#X obj 669 10 inlet;
#X obj 669 32 route time;
#X obj 123 435 outlet~;
#X obj 215 434 outlet~;
#X obj 283 436 outlet~;
#X obj 371 434 outlet~;
#X obj 443 434 outlet~;
#X obj 61 130 speedlim 100;
#X obj 134 264 speedlim 100;
#X obj 221 133 speedlim 100;
#X obj 292 262 speedlim 100;
#X obj 376 135 speedlim 100;
#X obj 451 263 speedlim 100;
#X obj 54 198 *~;
#X obj 67 262 *~;
#X obj 54 283 +~;
#N canvas 0 0 462 312 toggle 0;
#X obj 119 47 inlet;
#X obj 119 133 sel 0 1;
#X obj 119 101 f 0;
#X msg 156 72 1;
#X msg 184 73 0;
#X obj 58 149 outlet;
#X obj 207 154 outlet;
#X connect 0 0 2 0;
#X connect 1 0 3 0;
#X connect 1 1 4 0;
#X connect 2 0 1 0;
#X connect 2 0 5 0;
#X connect 3 0 2 1;
#X connect 3 0 6 0;
#X connect 4 0 2 1;
#X connect 4 0 6 0;
#X restore 1591 74 pd toggle 0 1;
#X obj 1592 140 pack 0 50;
#X obj 1729 132 pack 0 50;
#X obj 54 155 spigot;
#X obj 67 220 spigot;
#X obj 1669 125 loadbang;
#X obj 124 327 *~;
#X obj 137 391 *~;
#X obj 124 412 +~;
#X obj 124 284 spigot;
#X obj 137 349 spigot;
#X obj 212 198 *~;
#X obj 225 262 *~;
#X obj 212 283 +~;
#X obj 212 155 spigot;
#X obj 225 220 spigot;
#X obj 282 327 *~;
#X obj 295 391 *~;
#X obj 282 412 +~;
#X obj 282 284 spigot;
#X obj 295 349 spigot;
#X obj 372 198 *~;
#X obj 385 262 *~;
#X obj 372 283 +~;
#X obj 372 155 spigot;
#X obj 385 220 spigot;
#X obj 442 327 *~;
#X obj 455 391 *~;
#X obj 442 412 +~;
#X obj 442 284 spigot;
#X obj 455 349 spigot;
#X obj 1570 275 t f b;
#X obj 208 43 unpack 0 0 0 0 0 0 0 0 0 0 0 0 0 0 0 0 0 0;
#X obj 54 177 delread~ \$0-early2 2;
#X obj 67 241 delread~ \$0-early2 2;
#X obj 225 241 delread~ \$0-early2 2;
#X obj 212 177 delread~ \$0-early2 2;
#X obj 372 177 delread~ \$0-early2 2;
#X obj 385 241 delread~ \$0-early2 2;
#X obj 442 306 delread~ \$0-early2 2;
#X obj 455 370 delread~ \$0-early2 2;
#X obj 295 370 delread~ \$0-early2 2;
#X obj 282 306 delread~ \$0-early2 2;
#X obj 124 306 delread~ \$0-early2 2;
#X obj 137 370 delread~ \$0-early2 2;
#X obj 565 434 outlet~;
#X obj 633 435 outlet~;
#X obj 725 434 outlet~;
#X obj 793 436 outlet~;
#X obj 881 434 outlet~;
#X obj 953 434 outlet~;
#X obj 571 130 speedlim 100;
#X obj 644 264 speedlim 100;
#X obj 731 133 speedlim 100;
#X obj 802 262 speedlim 100;
#X obj 886 135 speedlim 100;
#X obj 961 263 speedlim 100;
#X obj 564 198 *~;
#X obj 577 262 *~;
#X obj 564 283 +~;
#X obj 564 155 spigot;
#X obj 577 220 spigot;
#X obj 634 327 *~;
#X obj 647 391 *~;
#X obj 634 412 +~;
#X obj 634 284 spigot;
#X obj 647 349 spigot;
#X obj 722 198 *~;
#X obj 735 262 *~;
#X obj 722 283 +~;
#X obj 722 155 spigot;
#X obj 735 220 spigot;
#X obj 792 327 *~;
#X obj 805 391 *~;
#X obj 792 412 +~;
#X obj 792 284 spigot;
#X obj 805 349 spigot;
#X obj 882 198 *~;
#X obj 895 262 *~;
#X obj 882 283 +~;
#X obj 882 155 spigot;
#X obj 895 220 spigot;
#X obj 952 327 *~;
#X obj 965 391 *~;
#X obj 952 412 +~;
#X obj 952 284 spigot;
#X obj 965 349 spigot;
#X obj 564 177 delread~ \$0-early2 2;
#X obj 577 241 delread~ \$0-early2 2;
#X obj 735 241 delread~ \$0-early2 2;
#X obj 722 177 delread~ \$0-early2 2;
#X obj 882 177 delread~ \$0-early2 2;
#X obj 895 241 delread~ \$0-early2 2;
#X obj 952 306 delread~ \$0-early2 2;
#X obj 965 370 delread~ \$0-early2 2;
#X obj 805 370 delread~ \$0-early2 2;
#X obj 792 306 delread~ \$0-early2 2;
#X obj 634 306 delread~ \$0-early2 2;
#X obj 647 370 delread~ \$0-early2 2;
#X obj 1065 434 outlet~;
#X obj 1133 435 outlet~;
#X obj 1225 434 outlet~;
#X obj 1293 436 outlet~;
#X obj 1381 434 outlet~;
#X obj 1453 434 outlet~;
#X obj 1071 130 speedlim 100;
#X obj 1144 264 speedlim 100;
#X obj 1231 133 speedlim 100;
#X obj 1302 262 speedlim 100;
#X obj 1386 135 speedlim 100;
#X obj 1570 254 speedlim 100;
#X obj 1064 198 *~;
#X obj 1077 262 *~;
#X obj 1064 283 +~;
#X obj 1064 155 spigot;
#X obj 1077 220 spigot;
#X obj 1134 327 *~;
#X obj 1147 391 *~;
#X obj 1134 412 +~;
#X obj 1134 284 spigot;
#X obj 1147 349 spigot;
#X obj 1222 198 *~;
#X obj 1235 262 *~;
#X obj 1222 283 +~;
#X obj 1222 155 spigot;
#X obj 1235 220 spigot;
#X obj 1292 327 *~;
#X obj 1305 391 *~;
#X obj 1292 412 +~;
#X obj 1292 284 spigot;
#X obj 1305 349 spigot;
#X obj 1382 198 *~;
#X obj 1395 262 *~;
#X obj 1382 283 +~;
#X obj 1382 155 spigot;
#X obj 1395 220 spigot;
#X obj 1452 327 *~;
#X obj 1465 391 *~;
#X obj 1452 412 +~;
#X obj 1452 284 spigot;
#X obj 1465 349 spigot;
#X obj 1064 177 delread~ \$0-early2 2;
#X obj 1077 241 delread~ \$0-early2 2;
#X obj 1235 241 delread~ \$0-early2 2;
#X obj 1222 177 delread~ \$0-early2 2;
#X obj 1382 177 delread~ \$0-early2 2;
#X obj 1395 241 delread~ \$0-early2 2;
#X obj 1452 306 delread~ \$0-early2 2;
#X obj 1465 370 delread~ \$0-early2 2;
#X obj 1305 370 delread~ \$0-early2 2;
#X obj 1292 306 delread~ \$0-early2 2;
#X obj 1134 306 delread~ \$0-early2 2;
#X obj 1147 370 delread~ \$0-early2 2;
#X obj 1719 173 line~;
#X obj 1631 172 line~;
#X obj 1720 193 cos~;
#X obj 1631 192 cos~;
#X msg 1683 149 0.25;
#X msg 1656 149 0;
#X obj 1592 116 * 0.25;
#X obj 1729 109 * 0.25;
#X connect 0 0 3 0;
#X connect 5 0 54 0;
#X connect 6 0 7 0;
#X connect 7 0 13 1;
#X connect 7 0 14 1;
#X connect 7 0 15 1;
#X connect 7 0 16 1;
#X connect 7 0 17 1;
#X connect 7 0 18 1;
#X connect 7 0 23 1;
#X connect 7 0 24 1;
#X connect 7 0 73 1;
#X connect 7 0 74 1;
#X connect 7 0 75 1;
#X connect 7 0 76 1;
#X connect 7 0 77 1;
#X connect 7 0 78 1;
#X connect 7 0 127 1;
#X connect 7 0 128 1;
#X connect 7 0 129 1;
#X connect 7 0 130 1;
#X connect 7 0 131 1;
#X connect 7 0 132 1;
#X connect 13 0 25 0;
#X connect 13 0 26 0;
#X connect 14 0 31 0;
#X connect 14 0 32 0;
#X connect 15 0 36 0;
#X connect 15 0 37 0;
#X connect 16 0 41 0;
#X connect 16 0 42 0;
#X connect 17 0 46 0;
#X connect 17 0 47 0;
#X connect 18 0 51 0;
#X connect 18 0 52 0;
#X connect 19 0 21 0;
#X connect 20 0 21 1;
#X connect 21 0 4 0;
#X connect 22 0 25 1;
#X connect 22 0 31 1;
#X connect 22 0 36 1;
#X connect 22 0 41 1;
#X connect 22 0 46 1;
#X connect 22 0 51 1;
#X connect 22 0 82 1;
#X connect 22 0 92 1;
#X connect 22 0 102 1;
#X connect 22 0 87 1;
#X connect 22 0 97 1;
#X connect 22 0 107 1;
#X connect 22 0 136 1;
#X connect 22 0 146 1;
#X connect 22 0 156 1;
#X connect 22 0 141 1;
#X connect 22 0 151 1;
#X connect 22 0 161 1;
#X connect 22 0 182 0;
#X connect 22 1 26 1;
#X connect 22 1 32 1;
#X connect 22 1 37 1;
#X connect 22 1 42 1;
#X connect 22 1 47 1;
#X connect 22 1 52 1;
#X connect 22 1 83 1;
#X connect 22 1 103 1;
#X connect 22 1 93 1;
#X connect 22 1 88 1;
#X connect 22 1 98 1;
#X connect 22 1 108 1;
#X connect 22 1 137 1;
#X connect 22 1 147 1;
#X connect 22 1 157 1;
#X connect 22 1 142 1;
#X connect 22 1 152 1;
#X connect 22 1 162 1;
#X connect 22 1 181 0;
#X connect 23 0 176 0;
#X connect 24 0 175 0;
#X connect 25 0 55 0;
#X connect 26 0 56 0;
#X connect 27 0 180 0;
#X connect 27 0 179 0;
#X connect 28 0 30 0;
#X connect 29 0 30 1;
#X connect 30 0 8 0;
#X connect 31 0 65 0;
#X connect 32 0 66 0;
#X connect 33 0 35 0;
#X connect 34 0 35 1;
#X connect 35 0 9 0;
#X connect 36 0 58 0;
#X connect 37 0 57 0;
#X connect 38 0 40 0;
#X connect 39 0 40 1;
#X connect 40 0 10 0;
#X connect 41 0 64 0;
#X connect 42 0 63 0;
#X connect 43 0 45 0;
#X connect 44 0 45 1;
#X connect 45 0 11 0;
#X connect 46 0 59 0;
#X connect 47 0 60 0;
#X connect 48 0 50 0;
#X connect 49 0 50 1;
#X connect 50 0 12 0;
#X connect 51 0 61 0;
#X connect 52 0 62 0;
#X connect 53 0 162 0;
#X connect 53 0 161 0;
#X connect 53 1 22 0;
#X connect 54 0 13 0;
#X connect 54 1 14 0;
#X connect 54 2 15 0;
#X connect 54 3 16 0;
#X connect 54 4 17 0;
#X connect 54 5 18 0;
#X connect 54 6 73 0;
#X connect 54 7 74 0;
#X connect 54 8 75 0;
#X connect 54 9 76 0;
#X connect 54 10 77 0;
#X connect 54 11 78 0;
#X connect 54 12 127 0;
#X connect 54 13 128 0;
#X connect 54 14 129 0;
#X connect 54 15 130 0;
#X connect 54 16 131 0;
#X connect 54 17 132 0;
#X connect 55 0 19 0;
#X connect 56 0 20 0;
#X connect 57 0 34 0;
#X connect 58 0 33 0;
#X connect 59 0 43 0;
#X connect 60 0 44 0;
#X connect 61 0 48 0;
#X connect 62 0 49 0;
#X connect 63 0 39 0;
#X connect 64 0 38 0;
#X connect 65 0 28 0;
#X connect 66 0 29 0;
#X connect 73 0 82 0;
#X connect 73 0 83 0;
#X connect 74 0 87 0;
#X connect 74 0 88 0;
#X connect 75 0 92 0;
#X connect 75 0 93 0;
#X connect 76 0 97 0;
#X connect 76 0 98 0;
#X connect 77 0 102 0;
#X connect 77 0 103 0;
#X connect 78 0 107 0;
#X connect 78 0 108 0;
#X connect 79 0 81 0;
#X connect 80 0 81 1;
#X connect 81 0 67 0;
#X connect 82 0 109 0;
#X connect 83 0 110 0;
#X connect 84 0 86 0;
#X connect 85 0 86 1;
#X connect 86 0 68 0;
#X connect 87 0 119 0;
#X connect 88 0 120 0;
#X connect 89 0 91 0;
#X connect 90 0 91 1;
#X connect 91 0 69 0;
#X connect 92 0 112 0;
#X connect 93 0 111 0;
#X connect 94 0 96 0;
#X connect 95 0 96 1;
#X connect 96 0 70 0;
#X connect 97 0 118 0;
#X connect 98 0 117 0;
#X connect 99 0 101 0;
#X connect 100 0 101 1;
#X connect 101 0 71 0;
#X connect 102 0 113 0;
#X connect 103 0 114 0;
#X connect 104 0 106 0;
#X connect 105 0 106 1;
#X connect 106 0 72 0;
#X connect 107 0 115 0;
#X connect 108 0 116 0;
#X connect 109 0 79 0;
#X connect 110 0 80 0;
#X connect 111 0 90 0;
#X connect 112 0 89 0;
#X connect 113 0 99 0;
#X connect 114 0 100 0;
#X connect 115 0 104 0;
#X connect 116 0 105 0;
#X connect 117 0 95 0;
#X connect 118 0 94 0;
#X connect 119 0 84 0;
#X connect 120 0 85 0;
#X connect 127 0 136 0;
#X connect 127 0 137 0;
#X connect 128 0 141 0;
#X connect 128 0 142 0;
#X connect 129 0 146 0;
#X connect 129 0 147 0;
#X connect 130 0 151 0;
#X connect 130 0 152 0;
#X connect 131 0 156 0;
#X connect 131 0 157 0;
#X connect 132 0 53 0;
#X connect 133 0 135 0;
#X connect 134 0 135 1;
#X connect 135 0 121 0;
#X connect 136 0 163 0;
#X connect 137 0 164 0;
#X connect 138 0 140 0;
#X connect 139 0 140 1;
#X connect 140 0 122 0;
#X connect 141 0 173 0;
#X connect 142 0 174 0;
#X connect 143 0 145 0;
#X connect 144 0 145 1;
#X connect 145 0 123 0;
#X connect 146 0 166 0;
#X connect 147 0 165 0;
#X connect 148 0 150 0;
#X connect 149 0 150 1;
#X connect 150 0 124 0;
#X connect 151 0 172 0;
#X connect 152 0 171 0;
#X connect 153 0 155 0;
#X connect 154 0 155 1;
#X connect 155 0 125 0;
#X connect 156 0 167 0;
#X connect 157 0 168 0;
#X connect 158 0 160 0;
#X connect 159 0 160 1;
#X connect 160 0 126 0;
#X connect 161 0 169 0;
#X connect 162 0 170 0;
#X connect 163 0 133 0;
#X connect 164 0 134 0;
#X connect 165 0 144 0;
#X connect 166 0 143 0;
#X connect 167 0 153 0;
#X connect 168 0 154 0;
#X connect 169 0 158 0;
#X connect 170 0 159 0;
#X connect 171 0 149 0;
#X connect 172 0 148 0;
#X connect 173 0 138 0;
#X connect 174 0 139 0;
#X connect 175 0 177 0;
#X connect 176 0 178 0;
#X connect 177 0 20 1;
#X connect 177 0 29 1;
#X connect 177 0 34 1;
#X connect 177 0 39 1;
#X connect 177 0 44 1;
#X connect 177 0 49 1;
#X connect 177 0 80 1;
#X connect 177 0 90 1;
#X connect 177 0 100 1;
#X connect 177 0 85 1;
#X connect 177 0 95 1;
#X connect 177 0 105 1;
#X connect 177 0 134 1;
#X connect 177 0 144 1;
#X connect 177 0 154 1;
#X connect 177 0 139 1;
#X connect 177 0 149 1;
#X connect 177 0 159 1;
#X connect 178 0 19 1;
#X connect 178 0 28 1;
#X connect 178 0 33 1;
#X connect 178 0 38 1;
#X connect 178 0 43 1;
#X connect 178 0 48 1;
#X connect 178 0 79 1;
#X connect 178 0 89 1;
#X connect 178 0 99 1;
#X connect 178 0 84 1;
#X connect 178 0 94 1;
#X connect 178 0 104 1;
#X connect 178 0 133 1;
#X connect 178 0 143 1;
#X connect 178 0 153 1;
#X connect 178 0 158 1;
#X connect 178 0 148 1;
#X connect 178 0 138 1;
#X connect 179 0 175 0;
#X connect 180 0 176 0;
#X connect 181 0 23 0;
#X connect 182 0 24 0;
