#N canvas 328 224 515 330 10;
#X obj 37 18 inlet~;
#X obj 55 226 outlet~;
#X obj 213 16 inlet;
#X obj 213 40 unpack 0 0 0 0 0 0;
#X obj 54 130 line~;
#X obj 383 16 inlet;
#X obj 383 38 route time;
#X obj 123 227 outlet~;
#X obj 124 130 line~;
#X obj 195 226 outlet~;
#X obj 194 130 line~;
#X obj 263 228 outlet~;
#X obj 264 130 line~;
#X obj 335 226 outlet~;
#X obj 334 130 line~;
#X obj 403 226 outlet~;
#X obj 404 130 line~;
#X obj 55 153 vd~ \$0-early1;
#X obj 123 174 vd~ \$0-early1;
#X obj 195 153 vd~ \$0-early1;
#X obj 263 174 vd~ \$0-early1;
#X obj 335 153 vd~ \$0-early1;
#X obj 403 174 vd~ \$0-early1;
#X obj 38 40 delwrite~ \$0-early1 \$1;
#X obj 54 109 pack 2 \$2;
#X obj 124 109 pack 2 \$2;
#X obj 194 109 pack 2 \$2;
#X obj 264 109 pack 2 \$2;
#X obj 334 109 pack 2 \$2;
#X obj 404 109 pack 2 \$2;
#X text 115 266 1.arg: <float> max. delay-time in ms;
#X text 114 280 2.arg: <float> interpolation-time in ms;
#X connect 0 0 23 0;
#X connect 2 0 3 0;
#X connect 3 0 24 0;
#X connect 3 1 25 0;
#X connect 3 2 26 0;
#X connect 3 3 27 0;
#X connect 3 4 28 0;
#X connect 3 5 29 0;
#X connect 4 0 17 0;
#X connect 5 0 6 0;
#X connect 6 0 24 1;
#X connect 6 0 25 1;
#X connect 6 0 26 1;
#X connect 6 0 27 1;
#X connect 6 0 28 1;
#X connect 6 0 29 1;
#X connect 8 0 18 0;
#X connect 10 0 19 0;
#X connect 12 0 20 0;
#X connect 14 0 21 0;
#X connect 16 0 22 0;
#X connect 17 0 1 0;
#X connect 18 0 7 0;
#X connect 19 0 9 0;
#X connect 20 0 11 0;
#X connect 21 0 13 0;
#X connect 22 0 15 0;
#X connect 24 0 4 0;
#X connect 25 0 8 0;
#X connect 26 0 10 0;
#X connect 27 0 12 0;
#X connect 28 0 14 0;
#X connect 29 0 16 0;
