#N canvas 14 59 952 533 10;
#X obj 37 18 inlet~;
#X obj 55 434 outlet~;
#X obj 213 16 inlet;
#X obj 213 38 unpack 0 0 0 0 0 0;
#X obj 544 27 inlet;
#X obj 544 51 route time;
#X obj 123 435 outlet~;
#X obj 215 434 outlet~;
#X obj 283 436 outlet~;
#X obj 371 434 outlet~;
#X obj 443 434 outlet~;
#X obj 38 40 delwrite~ \$0-early1 \$1;
#X text 115 456 1.arg: <float> max. delay-time in ms;
#X text 114 470 2.arg: <float> interpolation-time in ms;
#X obj 61 130 speedlim 100;
#X obj 134 264 speedlim 100;
#X obj 221 133 speedlim 100;
#X obj 292 262 speedlim 100;
#X obj 376 135 speedlim 100;
#X obj 524 248 speedlim 100;
#X obj 54 198 *~;
#X obj 67 262 *~;
#X obj 54 283 +~;
#N canvas 0 0 462 312 toggle 0;
#X obj 119 47 inlet;
#X obj 119 133 sel 0 1;
#X obj 119 101 f 0;
#X msg 156 72 1;
#X msg 184 73 0;
#X obj 58 149 outlet;
#X obj 207 154 outlet;
#X connect 0 0 2 0;
#X connect 1 0 3 0;
#X connect 1 1 4 0;
#X connect 2 0 1 0;
#X connect 2 0 5 0;
#X connect 3 0 2 1;
#X connect 3 0 6 0;
#X connect 4 0 2 1;
#X connect 4 0 6 0;
#X restore 669 53 pd toggle 0 1;
#X obj 635 138 pack 0 50;
#X obj 797 134 pack 0 50;
#X obj 54 155 spigot;
#X obj 67 220 spigot;
#X obj 717 113 loadbang;
#X obj 54 177 delread~ \$0-early1 2;
#X obj 67 241 delread~ \$0-early1 2;
#X obj 124 327 *~;
#X obj 137 391 *~;
#X obj 124 412 +~;
#X obj 124 284 spigot;
#X obj 137 349 spigot;
#X obj 124 306 delread~ \$0-early1 2;
#X obj 137 370 delread~ \$0-early1 2;
#X obj 212 198 *~;
#X obj 225 262 *~;
#X obj 212 283 +~;
#X obj 212 155 spigot;
#X obj 225 220 spigot;
#X obj 212 177 delread~ \$0-early1 2;
#X obj 225 241 delread~ \$0-early1 2;
#X obj 282 327 *~;
#X obj 295 391 *~;
#X obj 282 412 +~;
#X obj 282 284 spigot;
#X obj 295 349 spigot;
#X obj 282 306 delread~ \$0-early1 2;
#X obj 295 370 delread~ \$0-early1 2;
#X obj 372 198 *~;
#X obj 385 262 *~;
#X obj 372 283 +~;
#X obj 372 155 spigot;
#X obj 385 220 spigot;
#X obj 372 177 delread~ \$0-early1 2;
#X obj 385 241 delread~ \$0-early1 2;
#X obj 442 327 *~;
#X obj 455 391 *~;
#X obj 442 412 +~;
#X obj 442 284 spigot;
#X obj 455 349 spigot;
#X obj 442 306 delread~ \$0-early1 2;
#X obj 455 370 delread~ \$0-early1 2;
#X obj 524 271 t f b;
#X obj 784 168 line~;
#X obj 689 167 line~;
#X msg 709 136 0;
#X msg 742 135 0.25;
#X obj 689 190 cos~;
#X obj 785 189 cos~;
#X obj 797 112 * 0.25;
#X obj 636 116 * 0.25;
#X connect 0 0 11 0;
#X connect 2 0 3 0;
#X connect 3 0 14 0;
#X connect 3 1 15 0;
#X connect 3 2 16 0;
#X connect 3 3 17 0;
#X connect 3 4 18 0;
#X connect 3 5 19 0;
#X connect 4 0 5 0;
#X connect 5 0 14 1;
#X connect 5 0 15 1;
#X connect 5 0 16 1;
#X connect 5 0 17 1;
#X connect 5 0 18 1;
#X connect 5 0 19 1;
#X connect 5 0 24 1;
#X connect 5 0 25 1;
#X connect 14 0 26 0;
#X connect 14 0 27 0;
#X connect 15 0 34 0;
#X connect 15 0 35 0;
#X connect 16 0 41 0;
#X connect 16 0 42 0;
#X connect 17 0 48 0;
#X connect 17 0 49 0;
#X connect 18 0 55 0;
#X connect 18 0 56 0;
#X connect 19 0 66 0;
#X connect 20 0 22 0;
#X connect 21 0 22 1;
#X connect 22 0 1 0;
#X connect 23 0 26 1;
#X connect 23 0 34 1;
#X connect 23 0 41 1;
#X connect 23 0 48 1;
#X connect 23 0 55 1;
#X connect 23 0 62 1;
#X connect 23 0 73 0;
#X connect 23 1 27 1;
#X connect 23 1 35 1;
#X connect 23 1 42 1;
#X connect 23 1 49 1;
#X connect 23 1 56 1;
#X connect 23 1 63 1;
#X connect 23 1 74 0;
#X connect 24 0 68 0;
#X connect 25 0 67 0;
#X connect 26 0 29 0;
#X connect 27 0 30 0;
#X connect 28 0 69 0;
#X connect 28 0 70 0;
#X connect 29 0 20 0;
#X connect 30 0 21 0;
#X connect 31 0 33 0;
#X connect 32 0 33 1;
#X connect 33 0 6 0;
#X connect 34 0 36 0;
#X connect 35 0 37 0;
#X connect 36 0 31 0;
#X connect 37 0 32 0;
#X connect 38 0 40 0;
#X connect 39 0 40 1;
#X connect 40 0 7 0;
#X connect 41 0 43 0;
#X connect 42 0 44 0;
#X connect 43 0 38 0;
#X connect 44 0 39 0;
#X connect 45 0 47 0;
#X connect 46 0 47 1;
#X connect 47 0 8 0;
#X connect 48 0 50 0;
#X connect 49 0 51 0;
#X connect 50 0 45 0;
#X connect 51 0 46 0;
#X connect 52 0 54 0;
#X connect 53 0 54 1;
#X connect 54 0 9 0;
#X connect 55 0 57 0;
#X connect 56 0 58 0;
#X connect 57 0 52 0;
#X connect 58 0 53 0;
#X connect 59 0 61 0;
#X connect 60 0 61 1;
#X connect 61 0 10 0;
#X connect 62 0 64 0;
#X connect 63 0 65 0;
#X connect 64 0 59 0;
#X connect 65 0 60 0;
#X connect 66 0 62 0;
#X connect 66 0 63 0;
#X connect 66 1 23 0;
#X connect 67 0 72 0;
#X connect 68 0 71 0;
#X connect 69 0 68 0;
#X connect 70 0 67 0;
#X connect 71 0 20 1;
#X connect 71 0 31 1;
#X connect 71 0 38 1;
#X connect 71 0 45 1;
#X connect 71 0 52 1;
#X connect 71 0 59 1;
#X connect 72 0 21 1;
#X connect 72 0 32 1;
#X connect 72 0 39 1;
#X connect 72 0 46 1;
#X connect 72 0 53 1;
#X connect 72 0 60 1;
#X connect 73 0 25 0;
#X connect 74 0 24 0;
