#N canvas 13 11 1002 400 10;
#X obj 813 22 inlet;
#X obj 171 21 inlet~;
#X obj 203 21 inlet~;
#X obj 234 21 inlet~;
#X obj 265 21 inlet~;
#X obj 296 21 inlet~;
#X obj 320 21 inlet~;
#X obj 350 21 inlet~;
#X obj 380 21 inlet~;
#X obj 410 21 inlet~;
#X obj 440 21 inlet~;
#X obj 470 21 inlet~;
#X obj 501 21 inlet~;
#X text 897 129 interpol-time [ms];
#X obj 53 21 inlet~;
#X obj 80 21 inlet~;
#X obj 104 21 inlet~;
#X obj 11 21 inlet~;
#X obj 565 226 pp time;
#X obj 11 338 outlet~;
#X obj 61 338 outlet~;
#X obj 86 338 outlet~;
#X obj 114 338 outlet~;
#X obj 171 338 outlet~;
#X obj 202 338 outlet~;
#X obj 234 338 outlet~;
#X obj 266 338 outlet~;
#X obj 298 338 outlet~;
#X obj 320 338 outlet~;
#X obj 350 338 outlet~;
#X obj 380 338 outlet~;
#X obj 410 338 outlet~;
#X obj 440 338 outlet~;
#X obj 470 338 outlet~;
#X obj 501 338 outlet~;
#X obj 833 337 outlet;
#X obj 813 107 s \$0-rhoz_rhoy_rhox;
#X obj 110 157 r \$0-rhoz_rhoy_rhox;
#X obj 891 149 s \$0-interpol_time;
#X obj 565 200 r \$0-interpol_time;
#X obj 41 157 init 0 0 0;
#X obj 18 255 matrix_mul_line8~ 3 3 50;
#X obj 522 21 inlet~;
#X obj 552 21 inlet~;
#X obj 582 21 inlet~;
#X obj 612 21 inlet~;
#X obj 642 21 inlet~;
#X obj 672 21 inlet~;
#X obj 702 21 inlet~;
#X obj 522 338 outlet~;
#X obj 552 338 outlet~;
#X obj 582 338 outlet~;
#X obj 612 338 outlet~;
#X obj 642 338 outlet~;
#X obj 672 338 outlet~;
#X obj 702 338 outlet~;
#X obj 731 21 inlet~;
#X obj 762 21 inlet~;
#X obj 732 338 outlet~;
#X obj 763 338 outlet~;
#X obj 41 213 ambi_rot 4 _________________________________________________
;
#X obj 172 294 matrix_mul_line8~ 5 5 50;
#X obj 319 267 matrix_mul_line8~ 7 7 50 ______;
#X obj 521 298 matrix_mul_line8~ 9 9 50 ________________;
#X text 821 88 list of rho_z + rho_y + rho_x in degree;
#X obj 813 61 route rho_zyx interpol_time;
#X connect 0 0 65 0;
#X connect 1 0 61 0;
#X connect 2 0 61 1;
#X connect 3 0 61 2;
#X connect 4 0 61 3;
#X connect 5 0 61 4;
#X connect 6 0 62 0;
#X connect 7 0 62 1;
#X connect 8 0 62 2;
#X connect 9 0 62 3;
#X connect 10 0 62 4;
#X connect 11 0 62 5;
#X connect 12 0 62 6;
#X connect 14 0 41 0;
#X connect 15 0 41 1;
#X connect 16 0 41 2;
#X connect 17 0 19 0;
#X connect 18 0 41 0;
#X connect 18 0 61 0;
#X connect 18 0 62 0;
#X connect 18 0 63 0;
#X connect 37 0 60 0;
#X connect 39 0 18 0;
#X connect 40 0 60 0;
#X connect 41 0 20 0;
#X connect 41 1 21 0;
#X connect 41 2 22 0;
#X connect 42 0 63 0;
#X connect 43 0 63 1;
#X connect 44 0 63 2;
#X connect 45 0 63 3;
#X connect 46 0 63 4;
#X connect 47 0 63 5;
#X connect 48 0 63 6;
#X connect 56 0 63 7;
#X connect 57 0 63 8;
#X connect 60 0 41 0;
#X connect 60 1 61 0;
#X connect 60 2 62 0;
#X connect 60 3 63 0;
#X connect 61 0 23 0;
#X connect 61 1 24 0;
#X connect 61 2 25 0;
#X connect 61 3 26 0;
#X connect 61 4 27 0;
#X connect 62 0 28 0;
#X connect 62 1 29 0;
#X connect 62 2 30 0;
#X connect 62 3 31 0;
#X connect 62 4 32 0;
#X connect 62 5 33 0;
#X connect 62 6 34 0;
#X connect 63 0 49 0;
#X connect 63 1 50 0;
#X connect 63 2 51 0;
#X connect 63 3 52 0;
#X connect 63 4 53 0;
#X connect 63 5 54 0;
#X connect 63 6 55 0;
#X connect 63 7 58 0;
#X connect 63 8 59 0;
#X connect 65 0 36 0;
#X connect 65 1 38 0;
