#N canvas 26 10 942 686 10;
#X obj 619 159 / 100;
#X obj 19 47 inlet~;
#X obj 33 47 inlet~;
#X obj 48 47 inlet~;
#X obj 63 47 inlet~;
#X obj 78 47 inlet~;
#X obj 92 47 inlet~;
#X obj 107 47 inlet~;
#X obj 121 47 inlet~;
#X obj 136 47 inlet~;
#X obj 151 47 inlet~;
#X obj 165 47 inlet~;
#X obj 180 47 inlet~;
#X obj 195 47 inlet~;
#X obj 215 389 *~ 0.25;
#X obj 157 389 +~;
#X obj 172 389 +~;
#X obj 186 389 +~;
#X obj 201 389 +~;
#X obj 471 571 ambi_decode2 4 3 13 12 5;
#X obj 457 236 t b b b b b b b;
#X msg 457 550 pseudo_inverse;
#X obj 471 591 round_zero 1e-006;
#X obj 401 203 bng 15 250 50 0 empty empty empty 0 -6 0 8 -262144 -1
-1;
#X obj 513 531 pp pht_ls;
#X obj 499 493 pp mir_ls;
#X obj 485 429 pp mrg_ls;
#X obj 471 378 pp ind_ls;
#N canvas 0 0 503 306 zero_count 0;
#X obj 39 86 repack 1;
#X obj 40 109 sel 0;
#X obj 54 146 f;
#X obj 85 144 + 1;
#X msg 102 99 0;
#X obj 60 21 inlet;
#X obj 129 230 outlet;
#X obj 130 200 f;
#X obj 60 51 t a b;
#X obj 158 86 del 10;
#X msg 174 115 ***************************************;
#X obj 174 139 print ***;
#X obj 158 164 del 10;
#X connect 0 0 1 0;
#X connect 1 0 2 0;
#X connect 2 0 3 0;
#X connect 2 0 7 1;
#X connect 3 0 2 1;
#X connect 4 0 3 0;
#X connect 4 0 2 0;
#X connect 5 0 8 0;
#X connect 7 0 6 0;
#X connect 8 0 0 0;
#X connect 8 1 4 0;
#X connect 8 1 9 0;
#X connect 9 0 12 0;
#X connect 9 0 10 0;
#X connect 10 0 11 0;
#X connect 12 0 7 0;
#X restore 471 615 pd zero_count;
#X obj 471 635 print number_of_zeros_in_decoder:;
#X obj 19 358 matrix_mul_stat~ 25 25 _____________________________________
;
#X text 678 318 LS 13 .. 24 + 25;
#X text 708 383 LS 1 .. 12;
#X obj 211 47 inlet~;
#X obj 225 47 inlet~;
#X obj 240 47 inlet~;
#X obj 255 47 inlet~;
#X obj 270 47 inlet~;
#X obj 284 47 inlet~;
#X obj 299 47 inlet~;
#X obj 313 47 inlet~;
#X obj 328 47 inlet~;
#X obj 343 47 inlet~;
#X obj 358 47 inlet~;
#X obj 373 47 inlet~;
#X obj 200 609 outlet~;
#X obj 213 609 outlet~;
#X obj 230 609 outlet~;
#X obj 243 609 outlet~;
#X obj 259 609 outlet~;
#X obj 272 609 outlet~;
#X obj 289 609 outlet~;
#X obj 302 609 outlet~;
#X obj 319 609 outlet~;
#X obj 332 609 outlet~;
#X obj 348 609 outlet~;
#X obj 362 609 outlet~;
#X obj 24 609 outlet~;
#X obj 37 609 outlet~;
#X obj 53 609 outlet~;
#X obj 67 609 outlet~;
#X obj 83 609 outlet~;
#X obj 96 609 outlet~;
#X obj 113 609 outlet~;
#X obj 126 609 outlet~;
#X obj 142 609 outlet~;
#X obj 156 609 outlet~;
#X obj 172 609 outlet~;
#X obj 186 609 outlet~;
#X text 251 532 the 25-th LS will be added to;
#X text 273 545 LS 21 \, 22 \, 23 and 24;
#X text 296 558 with 25 %;
#X obj 454 43 inlet;
#X obj 686 615 outlet;
#X obj 554 615 print decoder;
#X obj 401 181 loadbang;
#X text 127 25 25 ambisonic signals;
#X text 573 83 mirror loudspeaker weight in %;
#X text 394 80 ambi order weight list;
#X obj 619 179 t b f;
#X obj 542 275 pp mirror_weight;
#X obj 527 313 pp ambi_weight;
#X obj 457 202 t b l;
#X obj 454 95 unpack 0 0 0 0 0;
#X obj 457 181 pack 0 0 0 0 0;
#X obj 454 119 clip -10 10;
#X obj 476 139 clip -10 10;
#X obj 499 159 clip -10 10;
#X obj 522 119 clip -10 10;
#X obj 545 139 clip -10 10;
#X obj 527 294 any 1 0.904509 0.654509 0.345492 0.0954921;
#X obj 542 256 f 0.863;
#X msg 485 397 1 0 0 \, 2 0 330 \, 3 0 300 \, 4 0 270 \, 5 0 240 \,
6 0 210 \, 7 0 180 \, 8 0 150 \, 9 0 120 \, 10 0 90 \, 11 0 60 \, 12
0 30;
#X msg 471 332 1 30 337.5 \, 2 30 292.5 \, 3 30 247.5 \, 4 30 202.5
\, 5 30 157.5 \, 6 30 112.5 \, 7 30 67.5 \, 8 30 22.5 \, 9 60 315 \,
10 60 225 \, 11 60 135 \, 12 60 45 \, 13 90 0;
#X msg 499 448 1 -30 0 \, 2 -30 330 \, 3 -30 300 \, 4 -30 270 \, 5
-30 240 \, 6 -30 210 \, 7 -30 180 \, 8 -30 150 \, 9 -30 120 \, 10 -30
90 \, 11 -30 60 \, 12 -30 30;
#X msg 513 512 1 -60 315 \, 2 -60 225 \, 3 -60 135 \, 4 -60 45 \, 5
-90 0;
#X obj 619 139 clip 0 100;
#X obj 410 609 outlet;
#X obj 454 66 route ambi_weight mirror_weight;
#X text 452 26 parameter;
#X connect 0 0 79 0;
#X connect 1 0 30 0;
#X connect 2 0 30 1;
#X connect 3 0 30 2;
#X connect 4 0 30 3;
#X connect 5 0 30 4;
#X connect 6 0 30 5;
#X connect 7 0 30 6;
#X connect 8 0 30 7;
#X connect 9 0 30 8;
#X connect 10 0 30 9;
#X connect 11 0 30 10;
#X connect 12 0 30 11;
#X connect 13 0 30 12;
#X connect 14 0 15 1;
#X connect 14 0 16 1;
#X connect 14 0 17 1;
#X connect 14 0 18 1;
#X connect 15 0 53 0;
#X connect 16 0 54 0;
#X connect 17 0 55 0;
#X connect 18 0 56 0;
#X connect 19 0 22 0;
#X connect 20 0 21 0;
#X connect 20 1 93 0;
#X connect 20 2 92 0;
#X connect 20 3 94 0;
#X connect 20 4 95 0;
#X connect 20 5 90 0;
#X connect 20 6 91 0;
#X connect 21 0 19 0;
#X connect 22 0 28 0;
#X connect 22 0 30 0;
#X connect 23 0 20 0;
#X connect 24 0 19 0;
#X connect 25 0 19 0;
#X connect 26 0 19 0;
#X connect 27 0 19 0;
#X connect 28 0 29 0;
#X connect 30 0 45 0;
#X connect 30 1 46 0;
#X connect 30 2 47 0;
#X connect 30 3 48 0;
#X connect 30 4 49 0;
#X connect 30 5 50 0;
#X connect 30 6 51 0;
#X connect 30 7 52 0;
#X connect 30 8 15 0;
#X connect 30 9 16 0;
#X connect 30 10 17 0;
#X connect 30 11 18 0;
#X connect 30 12 14 0;
#X connect 30 13 57 0;
#X connect 30 14 58 0;
#X connect 30 15 59 0;
#X connect 30 16 60 0;
#X connect 30 17 61 0;
#X connect 30 18 62 0;
#X connect 30 19 63 0;
#X connect 30 20 64 0;
#X connect 30 21 65 0;
#X connect 30 22 66 0;
#X connect 30 23 67 0;
#X connect 30 24 68 0;
#X connect 33 0 30 13;
#X connect 34 0 30 14;
#X connect 35 0 30 15;
#X connect 36 0 30 16;
#X connect 37 0 30 17;
#X connect 38 0 30 18;
#X connect 39 0 30 19;
#X connect 40 0 30 20;
#X connect 41 0 30 21;
#X connect 42 0 30 22;
#X connect 43 0 30 23;
#X connect 44 0 30 24;
#X connect 72 0 98 0;
#X connect 75 0 23 0;
#X connect 79 0 20 0;
#X connect 79 1 91 1;
#X connect 80 0 19 0;
#X connect 81 0 19 0;
#X connect 82 0 20 0;
#X connect 82 1 90 1;
#X connect 83 0 85 0;
#X connect 83 1 86 0;
#X connect 83 2 87 0;
#X connect 83 3 88 0;
#X connect 83 4 89 0;
#X connect 84 0 82 0;
#X connect 85 0 84 0;
#X connect 86 0 84 1;
#X connect 87 0 84 2;
#X connect 88 0 84 3;
#X connect 89 0 84 4;
#X connect 90 0 81 0;
#X connect 91 0 80 0;
#X connect 92 0 26 0;
#X connect 93 0 27 0;
#X connect 94 0 25 0;
#X connect 95 0 24 0;
#X connect 96 0 0 0;
#X connect 98 0 83 0;
#X connect 98 1 96 0;
