#N canvas 0 123 954 698 10;
#X obj 619 159 / 100;
#X obj 19 47 inlet~;
#X obj 33 47 inlet~;
#X obj 48 47 inlet~;
#X obj 63 47 inlet~;
#X obj 78 47 inlet~;
#X obj 92 47 inlet~;
#X obj 107 47 inlet~;
#X obj 121 47 inlet~;
#X obj 136 47 inlet~;
#X obj 151 47 inlet~;
#X obj 165 47 inlet~;
#X obj 180 47 inlet~;
#X obj 195 47 inlet~;
#X obj 457 236 t b b b b b b b;
#X msg 457 550 pseudo_inverse;
#X obj 471 591 round_zero 1e-006;
#X obj 401 203 bng 15 250 50 0 empty empty empty 0 -6 0 8 -262144 -1
-1;
#X obj 514 530 pp pht_ls;
#X obj 499 509 pp mir_ls;
#X obj 485 453 pp mrg_ls;
#X obj 471 396 pp ind_ls;
#N canvas 0 0 503 306 zero_count 0;
#X obj 39 86 repack 1;
#X obj 40 109 sel 0;
#X obj 54 146 f;
#X obj 85 144 + 1;
#X msg 102 99 0;
#X obj 60 21 inlet;
#X obj 129 230 outlet;
#X obj 130 200 f;
#X obj 60 51 t a b;
#X obj 158 86 del 10;
#X msg 174 115 ***************************************;
#X obj 174 139 print ***;
#X obj 158 164 del 10;
#X connect 0 0 1 0;
#X connect 1 0 2 0;
#X connect 2 0 3 0;
#X connect 2 0 7 1;
#X connect 3 0 2 1;
#X connect 4 0 3 0;
#X connect 4 0 2 0;
#X connect 5 0 8 0;
#X connect 7 0 6 0;
#X connect 8 0 0 0;
#X connect 8 1 4 0;
#X connect 8 1 9 0;
#X connect 9 0 12 0;
#X connect 9 0 10 0;
#X connect 10 0 11 0;
#X connect 12 0 7 0;
#X restore 471 615 pd zero_count;
#X obj 471 635 print number_of_zeros_in_decoder:;
#X obj 19 358 matrix_mul_stat~ 25 25 _____________________________________
;
#X text 678 318 LS 13 .. 24 + 25;
#X text 708 394 LS 1 .. 12;
#X obj 211 47 inlet~;
#X obj 225 47 inlet~;
#X obj 240 47 inlet~;
#X obj 255 47 inlet~;
#X obj 270 47 inlet~;
#X obj 284 47 inlet~;
#X obj 299 47 inlet~;
#X obj 313 47 inlet~;
#X obj 328 47 inlet~;
#X obj 343 47 inlet~;
#X obj 358 47 inlet~;
#X obj 373 47 inlet~;
#X obj 19 609 outlet~;
#X obj 32 609 outlet~;
#X obj 49 609 outlet~;
#X obj 62 609 outlet~;
#X obj 78 609 outlet~;
#X obj 91 609 outlet~;
#X obj 108 609 outlet~;
#X obj 121 609 outlet~;
#X obj 138 609 outlet~;
#X obj 151 609 outlet~;
#X obj 167 609 outlet~;
#X obj 181 609 outlet~;
#X obj 212 609 outlet~;
#X obj 225 609 outlet~;
#X obj 241 609 outlet~;
#X obj 255 609 outlet~;
#X obj 271 609 outlet~;
#X obj 284 609 outlet~;
#X obj 301 609 outlet~;
#X obj 314 609 outlet~;
#X obj 330 609 outlet~;
#X obj 344 609 outlet~;
#X obj 360 609 outlet~;
#X obj 374 609 outlet~;
#X text 279 444 the 25-th LS will be added to;
#X text 301 457 LS 21 \, 22 \, 23 and 24;
#X text 324 470 with 25 %;
#X obj 454 43 inlet;
#X obj 686 615 outlet;
#X obj 554 615 print decoder;
#X obj 401 181 loadbang;
#X text 127 25 25 ambisonic signals;
#X text 573 83 mirror loudspeaker weight in %;
#X text 394 80 ambi order weight list;
#X obj 619 179 t b f;
#X obj 542 275 pp mirror_weight;
#X obj 527 313 pp ambi_weight;
#X obj 457 202 t b l;
#X obj 454 95 unpack 0 0 0 0 0;
#X obj 457 181 pack 0 0 0 0 0;
#X obj 454 119 clip -10 10;
#X obj 476 139 clip -10 10;
#X obj 499 159 clip -10 10;
#X obj 522 119 clip -10 10;
#X obj 545 139 clip -10 10;
#X obj 619 139 clip 0 100;
#X obj 454 66 route ambi_weight mirror_weight;
#X text 452 26 parameter;
#X obj 527 294 any 1 1 1 1 1;
#X obj 542 256 f 0;
#X msg 471 335 1 90 0 \, 2 60 0 \, 3 60 120 \, 4 60 240 \, 5 30 0 \,
6 30 60 \, 7 30 120 \, 8 30 180 \, 9 30 240 \, 10 30 300 \, 11 0 0
\, 12 0 40 \, 13 0 80 \, 14 0 120 \, 15 0 160 \, 16 0 200 \, 17 0 240
\, 18 0 280 \, 19 0 320;
#X obj 471 571 ambi_decode2 4 3 19 6 0;
#X msg 485 419 1 -40 30 \, 2 -40 90 \, 3 -40 150 \, 4 -40 210 \, 5
-40 270 \, 6 -40 330;
#X msg 499 475 1 -40 30 \, 2 -40 90 \, 3 -40 150 \, 4 -40 210 \, 5
-40 270 \, 6 -40 330;
#X obj 196 609 outlet~;
#X connect 0 0 73 0;
#X connect 1 0 24 0;
#X connect 2 0 24 1;
#X connect 3 0 24 2;
#X connect 4 0 24 3;
#X connect 5 0 24 4;
#X connect 6 0 24 5;
#X connect 7 0 24 6;
#X connect 8 0 24 7;
#X connect 9 0 24 8;
#X connect 10 0 24 9;
#X connect 11 0 24 10;
#X connect 12 0 24 11;
#X connect 13 0 24 12;
#X connect 14 0 15 0;
#X connect 14 1 89 0;
#X connect 14 2 91 0;
#X connect 14 3 92 0;
#X connect 14 5 87 0;
#X connect 14 6 88 0;
#X connect 15 0 90 0;
#X connect 16 0 22 0;
#X connect 16 0 24 0;
#X connect 17 0 14 0;
#X connect 18 0 90 0;
#X connect 19 0 90 0;
#X connect 20 0 90 0;
#X connect 21 0 90 0;
#X connect 22 0 23 0;
#X connect 24 0 39 0;
#X connect 24 1 40 0;
#X connect 24 2 41 0;
#X connect 24 3 42 0;
#X connect 24 4 43 0;
#X connect 24 5 44 0;
#X connect 24 6 45 0;
#X connect 24 7 46 0;
#X connect 24 8 47 0;
#X connect 24 9 48 0;
#X connect 24 10 49 0;
#X connect 24 11 50 0;
#X connect 24 12 93 0;
#X connect 24 13 51 0;
#X connect 24 14 52 0;
#X connect 24 15 53 0;
#X connect 24 16 54 0;
#X connect 24 17 55 0;
#X connect 24 18 56 0;
#X connect 24 19 57 0;
#X connect 24 20 58 0;
#X connect 24 21 59 0;
#X connect 24 22 60 0;
#X connect 24 23 61 0;
#X connect 24 24 62 0;
#X connect 27 0 24 13;
#X connect 28 0 24 14;
#X connect 29 0 24 15;
#X connect 30 0 24 16;
#X connect 31 0 24 17;
#X connect 32 0 24 18;
#X connect 33 0 24 19;
#X connect 34 0 24 20;
#X connect 35 0 24 21;
#X connect 36 0 24 22;
#X connect 37 0 24 23;
#X connect 38 0 24 24;
#X connect 66 0 85 0;
#X connect 69 0 17 0;
#X connect 73 0 14 0;
#X connect 73 1 88 1;
#X connect 74 0 90 0;
#X connect 75 0 90 0;
#X connect 76 0 14 0;
#X connect 76 1 87 1;
#X connect 77 0 79 0;
#X connect 77 1 80 0;
#X connect 77 2 81 0;
#X connect 77 3 82 0;
#X connect 77 4 83 0;
#X connect 78 0 76 0;
#X connect 79 0 78 0;
#X connect 80 0 78 1;
#X connect 81 0 78 2;
#X connect 82 0 78 3;
#X connect 83 0 78 4;
#X connect 84 0 0 0;
#X connect 85 0 77 0;
#X connect 85 1 84 0;
#X connect 87 0 75 0;
#X connect 88 0 74 0;
#X connect 89 0 21 0;
#X connect 90 0 16 0;
#X connect 91 0 20 0;
#X connect 92 0 19 0;
