#N canvas -3 178 1010 408 10;
#X obj 152 22 inlet~;
#X obj 164 22 inlet~;
#X obj 235 20 inlet~;
#X obj 248 20 inlet~;
#X obj 317 22 inlet~;
#X obj 331 22 inlet~;
#X obj 391 22 inlet~;
#X obj 406 22 inlet~;
#X obj 470 22 inlet~;
#X obj 485 22 inlet~;
#X text 906 94 interpol-time [ms];
#X obj 70 20 inlet~;
#X obj 82 20 inlet~;
#X obj 11 21 inlet~;
#X obj 852 265 pp time;
#X obj 11 338 outlet~;
#X obj 76 338 outlet~;
#X obj 88 338 outlet~;
#X obj 163 338 outlet~;
#X obj 175 338 outlet~;
#X obj 242 339 outlet~;
#X obj 254 339 outlet~;
#X obj 329 338 outlet~;
#X obj 340 338 outlet~;
#X obj 407 337 outlet~;
#X obj 419 337 outlet~;
#X obj 482 337 outlet~;
#X obj 495 337 outlet~;
#X obj 859 338 outlet;
#X obj 905 75 s \$0-interpol_time;
#X obj 852 239 r \$0-interpol_time;
#X obj 31 205 matrix_mul_line8~ 2 2 50;
#X obj 116 175 matrix_mul_line8~ 2 2 50;
#X obj 191 210 matrix_mul_line8~ 2 2 50;
#X obj 285 181 matrix_mul_line8~ 2 2 50;
#X obj 366 209 matrix_mul_line8~ 2 2 50;
#X obj 440 181 matrix_mul_line8~ 2 2 50;
#X obj 539 21 inlet~;
#X obj 552 21 inlet~;
#X obj 603 21 inlet~;
#X obj 617 21 inlet~;
#X obj 668 20 inlet~;
#X obj 683 20 inlet~;
#X obj 734 20 inlet~;
#X obj 749 20 inlet~;
#X obj 554 337 outlet~;
#X obj 566 337 outlet~;
#X obj 623 337 outlet~;
#X obj 634 337 outlet~;
#X obj 693 338 outlet~;
#X obj 705 338 outlet~;
#X obj 760 338 outlet~;
#X obj 773 338 outlet~;
#X obj 532 206 matrix_mul_line8~ 2 2 50;
#X obj 583 181 matrix_mul_line8~ 2 2 50;
#X obj 664 209 matrix_mul_line8~ 2 2 50;
#X obj 721 182 matrix_mul_line8~ 2 2 50;
#X obj 229 120 ambi_rot 10 ___________________________________________
;
#X obj 833 25 inlet;
#X obj 833 76 s \$0-rhoz;
#X obj 229 67 r \$0-rhoz;
#X text 793 95 rho_z in degree;
#X obj 292 68 init 0;
#X obj 833 51 route rho_z interpol_time;
#X connect 0 0 32 0;
#X connect 1 0 32 1;
#X connect 2 0 33 0;
#X connect 3 0 33 1;
#X connect 4 0 34 0;
#X connect 5 0 34 1;
#X connect 6 0 35 0;
#X connect 7 0 35 1;
#X connect 8 0 36 0;
#X connect 9 0 36 1;
#X connect 11 0 31 0;
#X connect 12 0 31 1;
#X connect 13 0 15 0;
#X connect 14 0 31 0;
#X connect 14 0 32 0;
#X connect 14 0 33 0;
#X connect 14 0 34 0;
#X connect 14 0 35 0;
#X connect 14 0 36 0;
#X connect 14 0 53 0;
#X connect 14 0 54 0;
#X connect 14 0 55 0;
#X connect 14 0 56 0;
#X connect 30 0 14 0;
#X connect 31 0 16 0;
#X connect 31 1 17 0;
#X connect 32 0 18 0;
#X connect 32 1 19 0;
#X connect 33 0 20 0;
#X connect 33 1 21 0;
#X connect 34 0 22 0;
#X connect 34 1 23 0;
#X connect 35 0 24 0;
#X connect 35 1 25 0;
#X connect 36 0 26 0;
#X connect 36 1 27 0;
#X connect 37 0 53 0;
#X connect 38 0 53 1;
#X connect 39 0 54 0;
#X connect 40 0 54 1;
#X connect 41 0 55 0;
#X connect 42 0 55 1;
#X connect 43 0 56 0;
#X connect 44 0 56 1;
#X connect 53 0 45 0;
#X connect 53 1 46 0;
#X connect 54 0 47 0;
#X connect 54 1 48 0;
#X connect 55 0 49 0;
#X connect 55 1 50 0;
#X connect 56 0 51 0;
#X connect 56 1 52 0;
#X connect 57 0 31 0;
#X connect 57 1 32 0;
#X connect 57 2 33 0;
#X connect 57 3 34 0;
#X connect 57 4 35 0;
#X connect 57 5 36 0;
#X connect 57 6 53 0;
#X connect 57 7 54 0;
#X connect 57 8 55 0;
#X connect 57 9 56 0;
#X connect 58 0 63 0;
#X connect 60 0 57 0;
#X connect 62 0 57 0;
#X connect 63 0 59 0;
#X connect 63 1 29 0;
