#N canvas 0 4 972 688 10;
#X obj 17 587 outlet~;
#X obj 17 29 inlet~;
#X obj 17 563 +~;
#X obj 41 587 outlet~;
#X obj 41 563 +~;
#X obj 65 587 outlet~;
#X obj 65 563 +~;
#X obj 89 587 outlet~;
#X obj 89 563 +~;
#X obj 41 29 inlet~;
#X obj 65 29 inlet~;
#X obj 89 29 inlet~;
#X obj 113 29 inlet~;
#X obj 113 563 +~;
#X obj 137 563 +~;
#X obj 161 563 +~;
#X obj 185 563 +~;
#X obj 137 29 inlet~;
#X obj 161 29 inlet~;
#X obj 185 29 inlet~;
#X obj 209 29 inlet~;
#X obj 209 563 +~;
#X obj 113 587 outlet~;
#X obj 137 587 outlet~;
#X obj 161 587 outlet~;
#X obj 185 587 outlet~;
#X obj 209 587 outlet~;
#X text 23 609 A0;
#X text 27 12 A0;
#X obj 290 206 pp col;
#X text 793 11 src_in;
#X obj 790 29 inlet~;
#X obj 48 227 mull~ 1 50;
#X obj 103 205 r \$0-interpol;
#X obj 407 227 r \$0-interpol;
#X text 84 617 1.arg: <float> source-INDEX (1 .. N);
#X obj 75 140 r \$0-direct_damp;
#X obj 17 533 +~;
#X obj 41 533 +~;
#X obj 65 533 +~;
#X obj 89 533 +~;
#X obj 113 533 +~;
#X obj 137 533 +~;
#X obj 161 533 +~;
#X obj 185 533 +~;
#X obj 209 533 +~;
#X obj 90 161 r \$0-direct_gain;
#X obj 639 29 inlet~;
#X obj 663 29 inlet~;
#X obj 687 29 inlet~;
#X obj 711 29 inlet~;
#X obj 640 534 +~;
#X obj 664 534 +~;
#X obj 688 534 +~;
#X obj 712 534 +~;
#X obj 640 587 outlet~;
#X obj 664 587 outlet~;
#X obj 688 587 outlet~;
#X obj 712 587 outlet~;
#X obj 800 587 outlet;
#X text 801 604 dummy;
#X obj 756 201 noise~;
#X obj 756 223 *~ 1e-015;
#X text 757 176 dithering-noise;
#X text 756 184 against denormals;
#X obj 640 563 +~;
#X obj 664 563 +~;
#X obj 688 563 +~;
#X obj 712 563 +~;
#X text 300 617 (stat \, dyn \, doppless) (default: doppless);
#X obj 75 203 *;
#X obj 90 181 t b f;
#N canvas 0 0 478 328 delwrite_orderforce~ 0;
#X obj 61 31 inlet~;
#X obj 40 143 outlet~;
#X obj 62 72 delwrite~ \$0-direct 500;
#X connect 0 0 2 0;
#X connect 0 0 1 0;
#X restore 47 77 pd delwrite_orderforce~;
#X obj 258 99 r \$0-interpol;
#X obj 141 98 r \$0-direct_del;
#X text 83 645 3.arg: <symbol> delay-interpolation-mode;
#X text 84 632 2.arg: <float> multiplication-factor of delay-interpolation
;
#X text 439 632 -time (default: 1);
#X obj 275 118 r \$0-del_mul_fact_interpol;
#X obj 275 140 t b f;
#X obj 235 99 *;
#X obj 48 119 \$3_delread_orderforce~ \$0-direct;
#X obj 17 503 +~;
#X obj 41 503 +~;
#X obj 65 503 +~;
#X obj 89 503 +~;
#X obj 113 503 +~;
#X obj 137 503 +~;
#X obj 161 503 +~;
#X obj 185 503 +~;
#X obj 209 503 +~;
#X obj 640 504 +~;
#X obj 664 504 +~;
#X obj 688 504 +~;
#X obj 712 504 +~;
#X obj 170 227 r \$0-switch_direct;
#X obj 290 184 r \$0-direct_index_phi;
#X text 635 608 4 earlies for reverb out;
#X text 629 12 4 earlies for reverb in;
#X obj 290 227 ambi_encode 4;
#X text 230 13 B4;
#X text 234 604 B4;
#X obj 76 456 \$3_early2_encode_4o_2d~ ____________________________________
;
#X obj 100 347 \$3_early1_encode_4o_2d~ ____________________________________
;
#X obj 48 249 \$3_direct_encode_4o_2d~ ____________________________________
;
#X obj 1212 132 s \$0-interpol;
#X obj 1120 319 s \$0-direct_gain;
#X obj 1236 246 pp sonic_speed;
#X obj 1137 133 pp r_ambi;
#X obj 968 578 s \$0-direct_del;
#X obj 1006 532 s \$0-early1_del;
#X obj 975 391 route direct early1 early2;
#X obj 893 589 outlet;
#X obj 998 255 pp room_dim;
#X obj 1222 319 s \$0-gain_early1;
#X obj 1325 318 s \$0-gain_early2;
#X obj 1018 89 route \$1 0;
#X obj 892 31 inlet;
#X obj 1222 298 dbtorms;
#X obj 1115 270 route position direct_gain early1_gain early2_gain
;
#X obj 1325 297 dbtorms;
#X obj 1120 298 dbtorms;
#X text 978 35 ambisonic_radius;
#X text 979 47 = minimum-radius between source and listener;
#X obj 920 64 route listener source room ambi_radius interpol_time
;
#X text 894 15 parameters;
#X text 899 615 out;
#X text 894 606 para;
#X obj 1467 352 init 1;
#X obj 920 138 route position;
#X obj 780 318 init \$2;
#X obj 780 339 default 1;
#X obj 780 359 s \$0-del_mul_fact_interpol;
#X obj 1269 508 r \$0-gain_early1;
#X obj 885 426 sel doppless;
#X obj 885 404 symbol \$3;
#X obj 952 447 t b;
#X msg 952 468 0;
#X msg 885 453 1;
#X obj 885 383 loadbang;
#X obj 892 502 * 1;
#X obj 1018 166 dbtorms;
#X obj 1018 135 route gain;
#X obj 1018 188 s \$0-src_gain;
#X obj 512 234 lp1~ 1000 50;
#X obj 773 132 +~;
#X obj 1309 438 r \$0-gain_early2;
#X obj 772 110 mull~ 1 50;
#X obj 827 88 r \$0-interpol;
#X obj 798 68 r \$0-src_gain;
#X obj 1141 390 s \$0-switch_direct;
#X obj 1258 390 s \$0-switch_early1;
#X obj 1374 390 s \$0-switch_early2;
#X obj 1374 369 * 1;
#X obj 1259 369 * 1;
#X obj 844 308 prvu~;
#X msg 861 268 reset;
#X msg 932 268 start;
#X msg 899 268 stop;
#X obj 868 247 t b b;
#X obj 1212 111 spigot;
#X obj 1137 113 spigot;
#X obj 920 115 spigot;
#X obj 1009 278 spigot;
#X obj 1283 48 init 1;
#X obj 1283 75 f;
#X obj 1141 368 * 1;
#X obj 1453 185 t b f;
#X obj 1327 245 s \$0-dist_exp;
#X obj 1027 621 s \$0-direct_damp;
#X obj 1106 529 s \$0-early1_damp;
#X obj 1149 458 s \$0-early2_damp;
#X obj 1184 508 r \$0-dist_exp;
#X obj 1027 600 pow 1;
#X obj 1098 600 r \$0-dist_exp;
#X obj 1003 600 f;
#X obj 1062 600 t b f;
#X obj 1227 438 r \$0-dist_exp;
#X obj 1104 165 route size absorption_coeff cutoff_freq sonic_speed
distance_exponent;
#X obj 1109 223 s \$0-reflection_low;
#X obj 1230 223 s \$0-reflection_mid;
#X obj 1350 223 s \$0-reflection_high;
#X obj 608 192 r \$0-reflection_low;
#X obj 619 213 r \$0-reflection_mid;
#X obj 629 236 r \$0-reflection_high;
#X obj 513 260 hml_shelf~ -2 450 -4 3500 -6 50;
#X obj 514 311 hml_shelf~ -2 450 -4 3500 -6 50;
#N canvas 0 0 378 284 calc_reflection_cutoff 0;
#X obj 76 45 route low mid high;
#X obj 76 22 inlet;
#X obj 44 199 outlet;
#X obj 106 199 outlet;
#X obj 166 200 outlet;
#X obj 50 82 clip 0 1;
#X msg 50 103 1 \$1;
#X obj 50 123 -;
#X obj 109 82 clip 0 1;
#X msg 109 103 1 \$1;
#X obj 109 123 -;
#X obj 169 82 clip 0 1;
#X msg 169 103 1 \$1;
#X obj 169 123 -;
#X obj 49 157 v2db;
#X obj 106 155 v2db;
#X obj 168 152 v2db;
#X connect 0 0 5 0;
#X connect 0 1 8 0;
#X connect 0 2 11 0;
#X connect 1 0 0 0;
#X connect 5 0 6 0;
#X connect 6 0 7 0;
#X connect 7 0 14 0;
#X connect 8 0 9 0;
#X connect 9 0 10 0;
#X connect 10 0 15 0;
#X connect 11 0 12 0;
#X connect 12 0 13 0;
#X connect 13 0 16 0;
#X connect 14 0 2 0;
#X connect 15 0 3 0;
#X connect 16 0 4 0;
#X restore 1164 199 pd calc_reflection_cutoff;
#X obj 1052 458 s \$0-early2_del;
#X obj 651 167 r \$0-interpol;
#X obj 513 284 lp1~ 1000 50;
#X obj 1159 247 s \$0-cutoff;
#X obj 562 169 r \$0-cutoff;
#X obj 1433 162 gain2switch;
#X obj 878 225 sel 0 1;
#X obj 1374 347 gain2switch;
#X obj 1259 347 gain2switch;
#X obj 1141 347 gain2switch;
#X obj 1006 511 list_sub;
#X obj 1149 438 list_pow_mul;
#X obj 1106 508 list_pow_mul;
#X obj 1052 437 list_sub;
#X obj 975 370 cart2del_damp_2d;
#X obj 1009 345 pp src_xy;
#X obj 920 201 pp head_xy;
#X obj 920 158 unpack 0 0;
#X obj 920 180 pack 0 0;
#X obj 1009 301 unpack 0 0;
#X obj 1009 323 pack 0 0;
#X obj 998 212 unpack 0 0;
#X obj 998 233 pack 0 0;
#X obj 1259 415 s \$0-early2_index_phi;
#X obj 1208 483 s \$0-early1_index_phi;
#X obj 1091 578 s \$0-direct_index_phi;
#X obj 336 304 r \$0-interpol;
#X obj 211 284 r \$0-switch_early1;
#X obj 231 304 r \$0-early1_damp;
#X obj 252 324 r \$0-early1_del;
#X obj 350 323 r \$0-del_mul_fact_interpol;
#X obj 331 412 r \$0-interpol;
#X obj 336 433 r \$0-del_mul_fact_interpol;
#X obj 205 393 r \$0-switch_early2;
#X obj 218 413 r \$0-early2_damp;
#X obj 236 431 r \$0-early2_del;
#X obj 326 284 r \$0-early1_index_phi;
#X obj 319 393 r \$0-early2_index_phi;
#X obj 508 53 prvu~;
#X obj 512 85 vu 15 120 empty empty -1 -8 0 8 -66577 -1 1 0;
#X obj 1022 483 route del damp index_phi;
#X obj 968 555 route del damp index_phi;
#X obj 1071 415 route del damp index_phi;
#X obj 800 560 pp vu src \$1;
#X connect 1 0 82 0;
#X connect 2 0 0 0;
#X connect 4 0 3 0;
#X connect 6 0 5 0;
#X connect 8 0 7 0;
#X connect 9 0 83 0;
#X connect 10 0 84 0;
#X connect 11 0 85 0;
#X connect 12 0 86 0;
#X connect 13 0 22 0;
#X connect 14 0 23 0;
#X connect 15 0 24 0;
#X connect 16 0 25 0;
#X connect 17 0 87 0;
#X connect 18 0 88 0;
#X connect 19 0 89 0;
#X connect 20 0 90 0;
#X connect 21 0 26 0;
#X connect 29 0 99 0;
#X connect 31 0 147 0;
#X connect 32 0 104 0;
#X connect 33 0 32 2;
#X connect 34 0 104 3;
#X connect 36 0 70 0;
#X connect 37 0 2 0;
#X connect 38 0 4 0;
#X connect 39 0 6 0;
#X connect 40 0 8 0;
#X connect 41 0 13 0;
#X connect 42 0 14 0;
#X connect 43 0 15 0;
#X connect 44 0 16 0;
#X connect 45 0 21 0;
#X connect 46 0 71 0;
#X connect 47 0 91 0;
#X connect 48 0 92 0;
#X connect 49 0 93 0;
#X connect 50 0 94 0;
#X connect 51 0 65 0;
#X connect 52 0 66 0;
#X connect 53 0 67 0;
#X connect 54 0 68 0;
#X connect 61 0 62 0;
#X connect 62 0 65 1;
#X connect 62 0 66 1;
#X connect 62 0 67 1;
#X connect 62 0 68 1;
#X connect 62 0 145 1;
#X connect 65 0 55 0;
#X connect 66 0 56 0;
#X connect 67 0 57 0;
#X connect 68 0 58 0;
#X connect 70 0 32 1;
#X connect 71 0 70 0;
#X connect 71 1 70 1;
#X connect 72 0 81 0;
#X connect 73 0 80 0;
#X connect 74 0 81 1;
#X connect 78 0 79 0;
#X connect 79 0 80 0;
#X connect 79 1 80 1;
#X connect 80 0 81 2;
#X connect 81 0 32 0;
#X connect 82 0 37 0;
#X connect 83 0 38 0;
#X connect 84 0 39 0;
#X connect 85 0 40 0;
#X connect 86 0 41 0;
#X connect 87 0 42 0;
#X connect 88 0 43 0;
#X connect 89 0 44 0;
#X connect 90 0 45 0;
#X connect 91 0 51 0;
#X connect 92 0 52 0;
#X connect 93 0 53 0;
#X connect 94 0 54 0;
#X connect 95 0 104 1;
#X connect 96 0 29 0;
#X connect 99 0 104 2;
#X connect 102 0 2 1;
#X connect 102 1 4 1;
#X connect 102 2 6 1;
#X connect 102 3 8 1;
#X connect 102 4 13 1;
#X connect 102 5 14 1;
#X connect 102 6 15 1;
#X connect 102 7 16 1;
#X connect 102 8 21 1;
#X connect 102 9 51 1;
#X connect 102 10 52 1;
#X connect 102 11 53 1;
#X connect 102 12 54 1;
#X connect 103 0 37 1;
#X connect 103 1 38 1;
#X connect 103 2 39 1;
#X connect 103 3 40 1;
#X connect 103 4 41 1;
#X connect 103 5 42 1;
#X connect 103 6 43 1;
#X connect 103 7 44 1;
#X connect 103 8 45 1;
#X connect 103 9 91 1;
#X connect 103 10 92 1;
#X connect 103 11 93 1;
#X connect 103 12 94 1;
#X connect 104 0 82 1;
#X connect 104 1 83 1;
#X connect 104 2 84 1;
#X connect 104 3 85 1;
#X connect 104 4 86 1;
#X connect 104 5 87 1;
#X connect 104 6 88 1;
#X connect 104 7 89 1;
#X connect 104 8 90 1;
#X connect 107 0 202 0;
#X connect 108 0 202 0;
#X connect 111 0 229 0;
#X connect 111 1 228 0;
#X connect 111 2 230 0;
#X connect 113 0 202 0;
#X connect 116 0 142 0;
#X connect 116 1 119 0;
#X connect 117 0 112 0;
#X connect 117 0 124 0;
#X connect 118 0 114 0;
#X connect 119 0 163 0;
#X connect 119 1 121 0;
#X connect 119 1 197 0;
#X connect 119 2 118 0;
#X connect 119 2 196 0;
#X connect 119 3 120 0;
#X connect 119 3 195 0;
#X connect 120 0 115 0;
#X connect 121 0 106 0;
#X connect 124 0 162 0;
#X connect 124 1 116 0;
#X connect 124 2 178 0;
#X connect 124 3 161 0;
#X connect 124 4 160 0;
#X connect 128 0 153 0;
#X connect 128 0 154 0;
#X connect 128 0 166 0;
#X connect 129 0 205 0;
#X connect 130 0 131 0;
#X connect 131 0 132 0;
#X connect 133 0 200 2;
#X connect 134 0 138 0;
#X connect 134 1 136 0;
#X connect 135 0 134 0;
#X connect 136 0 137 0;
#X connect 137 0 140 1;
#X connect 138 0 140 1;
#X connect 139 0 135 0;
#X connect 140 0 198 1;
#X connect 140 0 201 1;
#X connect 141 0 143 0;
#X connect 142 0 141 0;
#X connect 142 0 193 0;
#X connect 142 1 119 0;
#X connect 144 0 185 0;
#X connect 145 0 144 0;
#X connect 145 0 155 0;
#X connect 145 0 72 0;
#X connect 146 0 199 2;
#X connect 147 0 145 0;
#X connect 148 0 147 2;
#X connect 149 0 147 1;
#X connect 153 0 152 0;
#X connect 154 0 151 0;
#X connect 155 0 231 0;
#X connect 156 0 155 0;
#X connect 157 0 155 0;
#X connect 158 0 155 0;
#X connect 159 0 156 0;
#X connect 159 1 158 0;
#X connect 160 0 105 0;
#X connect 161 0 108 0;
#X connect 162 0 129 0;
#X connect 163 0 207 0;
#X connect 164 0 165 0;
#X connect 165 0 160 1;
#X connect 165 0 161 1;
#X connect 165 0 162 1;
#X connect 165 0 163 1;
#X connect 166 0 150 0;
#X connect 167 0 166 0;
#X connect 167 0 154 0;
#X connect 167 0 153 0;
#X connect 167 1 166 1;
#X connect 167 1 154 1;
#X connect 167 1 153 1;
#X connect 172 0 200 1;
#X connect 173 0 169 0;
#X connect 174 0 176 0;
#X connect 175 0 173 0;
#X connect 176 0 175 0;
#X connect 176 1 173 1;
#X connect 177 0 199 1;
#X connect 178 0 209 0;
#X connect 178 1 187 0;
#X connect 178 2 191 0;
#X connect 178 3 107 0;
#X connect 178 4 168 0;
#X connect 182 0 185 1;
#X connect 182 0 186 1;
#X connect 183 0 185 3;
#X connect 183 0 186 3;
#X connect 184 0 185 5;
#X connect 184 0 186 5;
#X connect 185 0 190 0;
#X connect 185 0 103 0;
#X connect 186 0 102 0;
#X connect 187 0 179 0;
#X connect 187 1 180 0;
#X connect 187 2 181 0;
#X connect 189 0 144 2;
#X connect 189 0 185 6;
#X connect 189 0 190 2;
#X connect 189 0 186 6;
#X connect 190 0 186 0;
#X connect 192 0 144 1;
#X connect 192 0 190 1;
#X connect 193 0 194 0;
#X connect 193 0 167 0;
#X connect 193 0 165 0;
#X connect 194 0 159 0;
#X connect 194 1 157 0;
#X connect 195 0 153 0;
#X connect 196 0 154 0;
#X connect 197 0 166 0;
#X connect 198 0 110 0;
#X connect 199 0 171 0;
#X connect 200 0 170 0;
#X connect 201 0 188 0;
#X connect 202 0 111 0;
#X connect 203 0 202 0;
#X connect 204 0 202 0;
#X connect 205 0 206 0;
#X connect 205 1 206 1;
#X connect 206 0 204 0;
#X connect 207 0 208 0;
#X connect 207 1 208 1;
#X connect 208 0 203 0;
#X connect 209 0 210 0;
#X connect 209 1 210 1;
#X connect 210 0 113 0;
#X connect 214 0 103 5;
#X connect 215 0 103 1;
#X connect 216 0 103 2;
#X connect 217 0 103 3;
#X connect 218 0 103 6;
#X connect 219 0 102 5;
#X connect 220 0 102 6;
#X connect 221 0 102 1;
#X connect 222 0 102 2;
#X connect 223 0 102 3;
#X connect 224 0 103 4;
#X connect 225 0 102 4;
#X connect 226 0 227 0;
#X connect 228 0 198 0;
#X connect 228 1 200 0;
#X connect 228 2 212 0;
#X connect 229 0 109 0;
#X connect 229 0 140 0;
#X connect 229 1 175 0;
#X connect 229 2 213 0;
#X connect 230 0 201 0;
#X connect 230 1 199 0;
#X connect 230 2 211 0;
#X connect 231 0 59 0;
