#N canvas 0 0 988 704 10;
#X obj 17 587 outlet~;
#X obj 17 29 inlet~;
#X obj 17 563 +~;
#X obj 41 587 outlet~;
#X obj 41 563 +~;
#X obj 65 587 outlet~;
#X obj 65 563 +~;
#X obj 89 587 outlet~;
#X obj 89 563 +~;
#X obj 41 29 inlet~;
#X obj 65 29 inlet~;
#X obj 89 29 inlet~;
#X obj 113 29 inlet~;
#X obj 113 563 +~;
#X obj 137 563 +~;
#X obj 161 563 +~;
#X obj 185 563 +~;
#X obj 137 29 inlet~;
#X obj 161 29 inlet~;
#X obj 185 29 inlet~;
#X obj 209 29 inlet~;
#X obj 209 563 +~;
#X obj 233 563 +~;
#X obj 257 563 +~;
#X obj 233 29 inlet~;
#X obj 257 29 inlet~;
#X obj 113 587 outlet~;
#X obj 137 587 outlet~;
#X obj 161 587 outlet~;
#X obj 185 587 outlet~;
#X obj 209 587 outlet~;
#X obj 233 587 outlet~;
#X obj 257 587 outlet~;
#X text 23 609 A0;
#X text 27 12 A0;
#X text 562 11 src_in;
#X obj 559 29 inlet~;
#X obj 529 284 r \$0-interpol;
#X obj 587 587 outlet;
#X text 588 604 dummy;
#X text 273 12 B5;
#X text 281 604 B5;
#X obj 440 248 ambi_encode 5;
#X obj 874 126 s \$0-interpol;
#X obj 680 589 outlet;
#X obj 707 103 route \$1 0;
#X obj 679 31 inlet;
#X text 681 15 parameters;
#X text 686 615 out;
#X text 681 606 para;
#X obj 707 242 dbtorms;
#X obj 707 149 route gain;
#X obj 707 264 s \$0-src_gain;
#X obj 559 110 mull~ 1 50;
#X obj 614 88 r \$0-interpol;
#X obj 586 68 r \$0-src_gain;
#X obj 558 427 prvu~;
#X msg 575 387 reset;
#X msg 646 387 start;
#X msg 613 387 stop;
#X obj 582 366 t b b;
#X obj 874 105 spigot;
#X obj 810 252 spigot;
#X obj 929 54 init 1;
#X obj 929 81 f;
#X obj 558 447 s \$1_rgui_vu;
#X obj 718 178 gain2switch;
#X obj 592 344 sel 0 1;
#X obj 707 64 route source interpol_time;
#X obj 264 307 \$2_direct_encode_5o_2d~ _____________________;
#X text 23 623 1.arg: <float> source-INDEX (1 .. N);
#X text 23 633 2.arg: <symbol> delay-interpolation-mode;
#X text 264 634 (stat \, dyn) (default: dyn);
#X obj 810 225 route position ambi_weight;
#X obj 892 346 pp ambi_weight;
#X obj 921 251 init 1 1 1 1 1 1;
#X obj 892 284 unpack f f f f f f;
#X obj 892 311 pack f f f f f f;
#X obj 440 227 pp col 1;
#X obj 810 298 f;
#X connect 1 0 2 0;
#X connect 2 0 0 0;
#X connect 4 0 3 0;
#X connect 6 0 5 0;
#X connect 8 0 7 0;
#X connect 9 0 4 0;
#X connect 10 0 6 0;
#X connect 11 0 8 0;
#X connect 12 0 13 0;
#X connect 13 0 26 0;
#X connect 14 0 27 0;
#X connect 15 0 28 0;
#X connect 16 0 29 0;
#X connect 17 0 14 0;
#X connect 18 0 15 0;
#X connect 19 0 16 0;
#X connect 20 0 21 0;
#X connect 21 0 30 0;
#X connect 22 0 31 0;
#X connect 23 0 32 0;
#X connect 24 0 22 0;
#X connect 25 0 23 0;
#X connect 36 0 53 0;
#X connect 37 0 69 3;
#X connect 42 0 69 2;
#X connect 45 0 51 0;
#X connect 45 1 73 0;
#X connect 46 0 44 0;
#X connect 46 0 68 0;
#X connect 50 0 52 0;
#X connect 50 0 53 1;
#X connect 51 0 50 0;
#X connect 51 0 66 0;
#X connect 51 1 73 0;
#X connect 53 0 56 0;
#X connect 53 0 69 0;
#X connect 54 0 53 2;
#X connect 55 0 53 1;
#X connect 56 0 65 0;
#X connect 57 0 56 0;
#X connect 58 0 56 0;
#X connect 59 0 56 0;
#X connect 60 0 57 0;
#X connect 60 1 59 0;
#X connect 61 0 43 0;
#X connect 62 0 79 0;
#X connect 63 0 64 0;
#X connect 64 0 61 1;
#X connect 64 0 62 1;
#X connect 66 0 67 0;
#X connect 66 0 64 0;
#X connect 66 0 69 1;
#X connect 67 0 60 0;
#X connect 67 1 58 0;
#X connect 68 0 45 0;
#X connect 68 1 61 0;
#X connect 69 0 2 1;
#X connect 69 1 4 1;
#X connect 69 2 6 1;
#X connect 69 3 8 1;
#X connect 69 4 13 1;
#X connect 69 5 14 1;
#X connect 69 6 15 1;
#X connect 69 7 16 1;
#X connect 69 8 21 1;
#X connect 69 9 22 1;
#X connect 69 10 23 1;
#X connect 73 0 62 0;
#X connect 73 1 76 0;
#X connect 74 0 69 2;
#X connect 75 0 76 0;
#X connect 76 0 77 0;
#X connect 76 1 77 1;
#X connect 76 2 77 2;
#X connect 76 3 77 3;
#X connect 76 4 77 4;
#X connect 77 0 74 0;
#X connect 78 0 42 0;
#X connect 79 0 78 0;
