#N canvas -227 71 936 680 10;
#X obj 680 112 / 100;
#X obj 19 47 inlet~;
#X obj 29 47 inlet~;
#X obj 38 47 inlet~;
#X obj 49 47 inlet~;
#X obj 58 47 inlet~;
#X obj 69 47 inlet~;
#X obj 78 47 inlet~;
#X obj 89 47 inlet~;
#X obj 99 47 inlet~;
#X obj 109 47 inlet~;
#X obj 119 47 inlet~;
#X obj 129 47 inlet~;
#X obj 139 47 inlet~;
#X obj 215 389 *~ 0.25;
#X obj 157 389 +~;
#X obj 172 389 +~;
#X obj 186 389 +~;
#X obj 201 389 +~;
#X obj 473 225 t b b b b b b b;
#X msg 473 538 pseudo_inverse;
#X obj 567 579 round_zero 1e-006;
#X obj 412 183 bng 15 250 50 0 empty empty empty 0 -6 0 8 -262144 -1
-1;
#X obj 529 519 pp pht_ls;
#X obj 515 481 pp mir_ls;
#X obj 501 417 pp mrg_ls;
#X obj 487 366 pp ind_ls;
#X msg 501 385 1 0 0 \, 2 0 330 \, 3 0 300 \, 4 0 270 \, 5 0 240 \,
6 0 210 \, 7 0 180 \, 8 0 150 \, 9 0 120 \, 10 0 90 \, 11 0 60 \, 12
0 30;
#X msg 487 321 1 28 337.5 \, 2 28 292.5 \, 3 28 247.5 \, 4 28 202.5
\, 5 28 157.5 \, 6 28 112.5 \, 7 28 67.5 \, 8 28 22.5 \, 9 58 315 \,
10 58 225 \, 11 58 135 \, 12 58 45 \, 13 90 0;
#X msg 515 436 1 -28 0 \, 2 -28 330 \, 3 -28 300 \, 4 -28 270 \, 5
-28 240 \, 6 -28 210 \, 7 -28 180 \, 8 -28 150 \, 9 -28 120 \, 10 -28
90 \, 11 -28 60 \, 12 -28 30;
#N canvas 0 0 503 306 zero_count 0;
#X obj 39 86 repack 1;
#X obj 40 109 sel 0;
#X obj 54 146 f;
#X obj 85 144 + 1;
#X msg 102 99 0;
#X obj 60 21 inlet;
#X obj 129 230 outlet;
#X obj 130 200 f;
#X obj 60 51 t a b;
#X obj 158 86 del 10;
#X msg 174 115 ***************************************;
#X obj 174 139 print ***;
#X obj 158 164 del 10;
#X connect 0 0 1 0;
#X connect 1 0 2 0;
#X connect 2 0 3 0;
#X connect 2 0 7 1;
#X connect 3 0 2 1;
#X connect 4 0 3 0;
#X connect 4 0 2 0;
#X connect 5 0 8 0;
#X connect 7 0 6 0;
#X connect 8 0 0 0;
#X connect 8 1 4 0;
#X connect 8 1 9 0;
#X connect 9 0 12 0;
#X connect 9 0 10 0;
#X connect 10 0 11 0;
#X connect 12 0 7 0;
#X restore 581 602 pd zero_count;
#X obj 581 622 print number_of_zeros_in_decoder:;
#X text 694 306 LS 13 .. 24 + 25;
#X text 724 371 LS 1 .. 12;
#X obj 149 47 inlet~;
#X obj 160 47 inlet~;
#X obj 170 47 inlet~;
#X obj 180 47 inlet~;
#X obj 190 47 inlet~;
#X obj 201 47 inlet~;
#X obj 210 47 inlet~;
#X obj 220 47 inlet~;
#X obj 231 47 inlet~;
#X obj 241 47 inlet~;
#X obj 252 47 inlet~;
#X obj 261 47 inlet~;
#X obj 200 609 outlet~;
#X obj 213 609 outlet~;
#X obj 230 609 outlet~;
#X obj 243 609 outlet~;
#X obj 259 609 outlet~;
#X obj 272 609 outlet~;
#X obj 289 609 outlet~;
#X obj 302 609 outlet~;
#X obj 319 609 outlet~;
#X obj 332 609 outlet~;
#X obj 348 609 outlet~;
#X obj 362 609 outlet~;
#X obj 24 609 outlet~;
#X obj 37 609 outlet~;
#X obj 53 609 outlet~;
#X obj 67 609 outlet~;
#X obj 83 609 outlet~;
#X obj 96 609 outlet~;
#X obj 113 609 outlet~;
#X obj 126 609 outlet~;
#X obj 142 609 outlet~;
#X obj 156 609 outlet~;
#X obj 172 609 outlet~;
#X obj 186 609 outlet~;
#X text 283 492 the 25-th LS will be added to;
#X text 305 505 LS 21 \, 22 \, 23 and 24;
#X text 328 518 with 25 %;
#X obj 806 601 outlet;
#X obj 675 601 print decoder;
#X obj 412 161 loadbang;
#X obj 558 245 f 0.89;
#X obj 680 133 t b f;
#X obj 558 264 pp mirror_weight;
#X obj 543 302 pp ambi_weight;
#X obj 473 181 t b l;
#X obj 680 91 clip 0 1;
#X obj 467 98 clip -10 10;
#X obj 487 118 clip -10 10;
#X obj 508 138 clip -10 10;
#X obj 528 98 clip -10 10;
#X obj 549 117 clip -10 10;
#X obj 487 559 ambi_decode2 5 3 13 12 5;
#X msg 529 500 1 -58 0 \, 2 -58 270 \, 3 -58 180 \, 4 -58 90 \, 5 -90
0;
#X obj 271 47 inlet~;
#X obj 281 47 inlet~;
#X obj 291 47 inlet~;
#X obj 302 47 inlet~;
#X obj 312 47 inlet~;
#X obj 322 47 inlet~;
#X obj 332 47 inlet~;
#X obj 342 47 inlet~;
#X obj 352 47 inlet~;
#X obj 362 47 inlet~;
#X obj 373 47 inlet~;
#X obj 19 358 matrix_mul_stat~ 36 25 _____________________________________
;
#X text 127 25 36 ambisonic signals;
#X obj 467 74 unpack 0 0 0 0 0 0;
#X obj 473 160 pack 0 0 0 0 0 0;
#X obj 570 138 clip -10 10;
#X obj 543 283 any 1 0.9505 0.8117 0.6113 0.3887 0.1883;
#X obj 415 609 outlet;
#X obj 425 609 outlet;
#X obj 435 609 outlet;
#X obj 445 609 outlet;
#X obj 455 609 outlet;
#X obj 465 609 outlet;
#X obj 475 609 outlet;
#X obj 485 609 outlet;
#X obj 495 609 outlet;
#X obj 505 609 outlet;
#X obj 515 609 outlet;
#X obj 525 609 outlet;
#X obj 467 14 inlet;
#X text 604 53 mirror loudspeaker weight in %;
#X text 407 58 ambi order weight list;
#X obj 467 37 route ambi_weight mirror_weight;
#X text 465 -3 parameter;
#X connect 0 0 77 0;
#X connect 1 0 100 0;
#X connect 2 0 100 1;
#X connect 3 0 100 2;
#X connect 4 0 100 3;
#X connect 5 0 100 4;
#X connect 6 0 100 5;
#X connect 7 0 100 6;
#X connect 8 0 100 7;
#X connect 9 0 100 8;
#X connect 10 0 100 9;
#X connect 11 0 100 10;
#X connect 12 0 100 11;
#X connect 13 0 100 12;
#X connect 14 0 15 1;
#X connect 14 0 16 1;
#X connect 14 0 17 1;
#X connect 14 0 18 1;
#X connect 15 0 54 0;
#X connect 16 0 55 0;
#X connect 17 0 56 0;
#X connect 18 0 57 0;
#X connect 19 0 20 0;
#X connect 19 1 28 0;
#X connect 19 2 27 0;
#X connect 19 3 29 0;
#X connect 19 4 88 0;
#X connect 19 5 105 0;
#X connect 19 6 76 0;
#X connect 20 0 87 0;
#X connect 21 0 30 0;
#X connect 22 0 19 0;
#X connect 23 0 87 0;
#X connect 24 0 87 0;
#X connect 25 0 87 0;
#X connect 26 0 87 0;
#X connect 27 0 25 0;
#X connect 28 0 26 0;
#X connect 29 0 24 0;
#X connect 30 0 31 0;
#X connect 34 0 100 13;
#X connect 35 0 100 14;
#X connect 36 0 100 15;
#X connect 37 0 100 16;
#X connect 38 0 100 17;
#X connect 39 0 100 18;
#X connect 40 0 100 19;
#X connect 41 0 100 20;
#X connect 42 0 100 21;
#X connect 43 0 100 22;
#X connect 44 0 100 23;
#X connect 45 0 100 24;
#X connect 75 0 22 0;
#X connect 76 0 78 0;
#X connect 77 0 19 0;
#X connect 77 1 76 1;
#X connect 78 0 87 0;
#X connect 79 0 87 0;
#X connect 80 0 19 0;
#X connect 80 1 105 1;
#X connect 81 0 0 0;
#X connect 82 0 103 0;
#X connect 83 0 103 1;
#X connect 84 0 103 2;
#X connect 85 0 103 3;
#X connect 86 0 103 4;
#X connect 87 0 21 0;
#X connect 88 0 23 0;
#X connect 89 0 100 25;
#X connect 90 0 100 26;
#X connect 91 0 100 27;
#X connect 92 0 100 28;
#X connect 93 0 100 29;
#X connect 94 0 100 30;
#X connect 95 0 100 31;
#X connect 96 0 100 32;
#X connect 97 0 100 33;
#X connect 98 0 100 34;
#X connect 99 0 100 35;
#X connect 100 0 46 0;
#X connect 100 1 47 0;
#X connect 100 2 48 0;
#X connect 100 3 49 0;
#X connect 100 4 50 0;
#X connect 100 5 51 0;
#X connect 100 6 52 0;
#X connect 100 7 53 0;
#X connect 100 8 15 0;
#X connect 100 9 16 0;
#X connect 100 10 17 0;
#X connect 100 11 18 0;
#X connect 100 12 14 0;
#X connect 100 13 58 0;
#X connect 100 14 59 0;
#X connect 100 15 60 0;
#X connect 100 16 61 0;
#X connect 100 17 62 0;
#X connect 100 18 63 0;
#X connect 100 19 64 0;
#X connect 100 20 65 0;
#X connect 100 21 66 0;
#X connect 100 22 67 0;
#X connect 100 23 68 0;
#X connect 100 24 69 0;
#X connect 102 0 82 0;
#X connect 102 1 83 0;
#X connect 102 2 84 0;
#X connect 102 3 85 0;
#X connect 102 4 86 0;
#X connect 102 5 104 0;
#X connect 103 0 80 0;
#X connect 104 0 103 5;
#X connect 105 0 79 0;
#X connect 118 0 121 0;
#X connect 121 0 102 0;
#X connect 121 1 81 0;
