#N canvas 10 0 944 681 10;
#X obj 17 587 outlet~;
#X obj 17 29 inlet~;
#X obj 41 587 outlet~;
#X obj 65 587 outlet~;
#X obj 89 587 outlet~;
#X obj 41 29 inlet~;
#X obj 65 29 inlet~;
#X obj 89 29 inlet~;
#X obj 113 29 inlet~;
#X obj 137 29 inlet~;
#X obj 161 29 inlet~;
#X obj 185 29 inlet~;
#X obj 209 29 inlet~;
#X obj 233 29 inlet~;
#X obj 257 29 inlet~;
#X obj 281 29 inlet~;
#X obj 305 29 inlet~;
#X obj 329 29 inlet~;
#X obj 353 29 inlet~;
#X obj 377 29 inlet~;
#X obj 113 587 outlet~;
#X obj 137 587 outlet~;
#X obj 161 587 outlet~;
#X obj 185 587 outlet~;
#X obj 209 587 outlet~;
#X obj 233 587 outlet~;
#X obj 257 587 outlet~;
#X obj 281 587 outlet~;
#X obj 305 587 outlet~;
#X obj 329 587 outlet~;
#X obj 353 587 outlet~;
#X obj 377 587 outlet~;
#X obj 312 301 ambi_encode 4;
#X obj 401 29 inlet~;
#X obj 425 29 inlet~;
#X obj 449 29 inlet~;
#X obj 473 29 inlet~;
#X obj 497 29 inlet~;
#X obj 521 29 inlet~;
#X obj 545 29 inlet~;
#X obj 569 29 inlet~;
#X obj 593 29 inlet~;
#X obj 401 587 outlet~;
#X obj 425 587 outlet~;
#X obj 449 587 outlet~;
#X obj 473 587 outlet~;
#X obj 497 587 outlet~;
#X obj 521 587 outlet~;
#X obj 545 587 outlet~;
#X obj 569 587 outlet~;
#X obj 593 587 outlet~;
#X text 604 613 I4;
#X text 606 11 I4;
#X text 23 609 A0;
#X text 27 12 A0;
#X obj 428 307 r \$0-interpol;
#X obj 17 503 +~;
#X obj 41 503 +~;
#X obj 65 503 +~;
#X obj 89 503 +~;
#X obj 113 503 +~;
#X obj 137 503 +~;
#X obj 161 503 +~;
#X obj 185 503 +~;
#X obj 209 503 +~;
#X obj 233 503 +~;
#X obj 257 503 +~;
#X obj 281 503 +~;
#X obj 305 503 +~;
#X obj 329 503 +~;
#X obj 353 503 +~;
#X obj 377 503 +~;
#X obj 401 503 +~;
#X obj 425 503 +~;
#X obj 449 503 +~;
#X obj 473 503 +~;
#X obj 497 503 +~;
#X obj 521 503 +~;
#X obj 545 503 +~;
#X obj 569 503 +~;
#X obj 593 503 +~;
#X obj 72 330 \$3_direct_encode_4o_3d~ ____________________________________
;
#X text 675 11 src_in;
#X obj 672 29 inlet~;
#X obj 710 587 outlet;
#X text 711 604 dummy;
#X obj 997 126 s \$0-interpol;
#X obj 803 589 outlet;
#X obj 830 103 route \$1 0;
#X obj 802 31 inlet;
#X text 804 15 parameters;
#X text 809 615 out;
#X text 804 606 para;
#X obj 830 242 dbtorms;
#X obj 830 149 route gain;
#X obj 672 110 mull~ 1 50;
#X obj 727 88 r \$0-interpol;
#X obj 674 427 prvu~;
#X msg 691 387 reset;
#X msg 762 387 start;
#X msg 729 387 stop;
#X obj 698 366 t b b;
#X obj 997 105 spigot;
#X obj 933 252 spigot;
#X obj 1052 54 init 1;
#X obj 1052 81 f;
#X obj 674 447 s \$1_rgui_vu;
#X obj 842 175 gain2switch;
#X obj 708 344 sel 0 1;
#X obj 830 64 route source interpol_time;
#X obj 933 225 route position ambi_weight;
#X obj 1015 346 pp ambi_weight;
#X text 23 623 1.arg: <float> source-INDEX (1 .. N);
#X text 23 633 2.arg: <symbol> delay-interpolation-mode;
#X obj 312 280 pp col 1;
#X obj 932 320 pack 0 0;
#X obj 933 297 unpack 0 0;
#X obj 1015 311 pack f f f f f;
#X obj 1015 284 unpack f f f f f;
#X obj 1044 251 init 1 1 1 1 1;
#X connect 1 0 56 0;
#X connect 5 0 57 0;
#X connect 6 0 58 0;
#X connect 7 0 59 0;
#X connect 8 0 60 0;
#X connect 9 0 61 0;
#X connect 10 0 62 0;
#X connect 11 0 63 0;
#X connect 12 0 64 0;
#X connect 13 0 65 0;
#X connect 14 0 66 0;
#X connect 15 0 67 0;
#X connect 16 0 68 0;
#X connect 17 0 69 0;
#X connect 18 0 70 0;
#X connect 19 0 71 0;
#X connect 32 0 81 2;
#X connect 33 0 72 0;
#X connect 34 0 73 0;
#X connect 35 0 74 0;
#X connect 36 0 75 0;
#X connect 37 0 76 0;
#X connect 38 0 77 0;
#X connect 39 0 78 0;
#X connect 40 0 79 0;
#X connect 41 0 80 0;
#X connect 55 0 81 3;
#X connect 56 0 0 0;
#X connect 57 0 2 0;
#X connect 58 0 3 0;
#X connect 59 0 4 0;
#X connect 60 0 20 0;
#X connect 61 0 21 0;
#X connect 62 0 22 0;
#X connect 63 0 23 0;
#X connect 64 0 24 0;
#X connect 65 0 25 0;
#X connect 66 0 26 0;
#X connect 67 0 27 0;
#X connect 68 0 28 0;
#X connect 69 0 29 0;
#X connect 70 0 30 0;
#X connect 71 0 31 0;
#X connect 72 0 42 0;
#X connect 73 0 43 0;
#X connect 74 0 44 0;
#X connect 75 0 45 0;
#X connect 76 0 46 0;
#X connect 77 0 47 0;
#X connect 78 0 48 0;
#X connect 79 0 49 0;
#X connect 80 0 50 0;
#X connect 81 0 56 1;
#X connect 81 1 57 1;
#X connect 81 2 58 1;
#X connect 81 3 59 1;
#X connect 81 4 60 1;
#X connect 81 5 61 1;
#X connect 81 6 62 1;
#X connect 81 7 63 1;
#X connect 81 8 64 1;
#X connect 81 9 65 1;
#X connect 81 10 66 1;
#X connect 81 11 67 1;
#X connect 81 12 68 1;
#X connect 81 13 69 1;
#X connect 81 14 70 1;
#X connect 81 15 71 1;
#X connect 81 16 72 1;
#X connect 81 17 73 1;
#X connect 81 18 74 1;
#X connect 81 19 75 1;
#X connect 81 20 76 1;
#X connect 81 21 77 1;
#X connect 81 22 78 1;
#X connect 81 23 79 1;
#X connect 81 24 80 1;
#X connect 83 0 95 0;
#X connect 88 0 94 0;
#X connect 88 1 110 0;
#X connect 89 0 87 0;
#X connect 89 0 109 0;
#X connect 93 0 95 1;
#X connect 94 0 93 0;
#X connect 94 0 107 0;
#X connect 94 1 110 0;
#X connect 95 0 97 0;
#X connect 95 0 81 0;
#X connect 96 0 95 2;
#X connect 97 0 106 0;
#X connect 98 0 97 0;
#X connect 99 0 97 0;
#X connect 100 0 97 0;
#X connect 101 0 98 0;
#X connect 101 1 100 0;
#X connect 102 0 86 0;
#X connect 103 0 116 0;
#X connect 104 0 105 0;
#X connect 105 0 102 1;
#X connect 105 0 103 1;
#X connect 107 0 108 0;
#X connect 107 0 105 0;
#X connect 107 0 81 1;
#X connect 108 0 101 0;
#X connect 108 1 99 0;
#X connect 109 0 88 0;
#X connect 109 1 102 0;
#X connect 110 0 103 0;
#X connect 110 1 118 0;
#X connect 111 0 81 2;
#X connect 114 0 32 0;
#X connect 115 0 114 0;
#X connect 116 0 115 0;
#X connect 116 1 115 1;
#X connect 117 0 111 0;
#X connect 118 0 117 0;
#X connect 118 1 117 1;
#X connect 118 2 117 2;
#X connect 118 3 117 3;
#X connect 118 4 117 4;
#X connect 119 0 118 0;
