#N canvas 16 7 932 676 10;
#X obj 612 111 / 100;
#X obj 19 47 inlet~;
#X obj 33 47 inlet~;
#X obj 48 47 inlet~;
#X obj 63 47 inlet~;
#X obj 78 47 inlet~;
#X obj 92 47 inlet~;
#X obj 108 47 inlet~;
#X obj 122 47 inlet~;
#X obj 137 47 inlet~;
#X obj 152 47 inlet~;
#X obj 166 47 inlet~;
#X obj 181 47 inlet~;
#X obj 196 47 inlet~;
#X obj 19 426 +~;
#X obj 38 426 +~;
#X obj 58 426 +~;
#X obj 475 226 t b b b b b b b;
#X msg 475 539 pseudo_inverse;
#X obj 489 580 round_zero 1e-006;
#X obj 390 193 bng 15 250 50 0 empty empty empty 0 -6 0 8 -262144 -1
-1;
#X obj 531 507 pp pht_ls;
#X obj 517 469 pp mir_ls;
#X obj 503 418 pp mrg_ls;
#X obj 489 367 pp ind_ls;
#N canvas 0 0 503 306 zero_count 0;
#X obj 39 86 repack 1;
#X obj 40 109 sel 0;
#X obj 54 146 f;
#X obj 85 144 + 1;
#X msg 102 99 0;
#X obj 60 21 inlet;
#X obj 129 230 outlet;
#X obj 130 200 f;
#X obj 60 51 t a b;
#X obj 158 86 del 10;
#X msg 174 115 ***************************************;
#X obj 174 139 print ***;
#X obj 158 164 del 10;
#X connect 0 0 1 0;
#X connect 1 0 2 0;
#X connect 2 0 3 0;
#X connect 2 0 7 1;
#X connect 3 0 2 1;
#X connect 4 0 3 0;
#X connect 4 0 2 0;
#X connect 5 0 8 0;
#X connect 7 0 6 0;
#X connect 8 0 0 0;
#X connect 8 1 4 0;
#X connect 8 1 9 0;
#X connect 9 0 12 0;
#X connect 9 0 10 0;
#X connect 10 0 11 0;
#X connect 12 0 7 0;
#X restore 489 607 pd zero_count;
#X obj 489 627 print number_of_zeros_in_decoder:;
#X obj 212 47 inlet~;
#X obj 226 47 inlet~;
#X obj 241 47 inlet~;
#X obj 136 597 outlet~;
#X obj 149 597 outlet~;
#X obj 165 597 outlet~;
#X obj 16 597 outlet~;
#X obj 32 597 outlet~;
#X obj 45 597 outlet~;
#X obj 62 597 outlet~;
#X obj 75 597 outlet~;
#X obj 91 597 outlet~;
#X obj 105 597 outlet~;
#X obj 121 597 outlet~;
#X obj 734 604 outlet;
#X obj 583 606 print decoder;
#X obj 390 171 loadbang;
#X obj 612 132 t b f;
#X obj 560 265 pp mirror_weight;
#X obj 545 303 pp ambi_weight;
#X obj 455 172 t b l;
#X obj 612 90 clip 0 1;
#X obj 451 89 clip -10 10;
#X obj 477 109 clip -10 10;
#X obj 503 129 clip -10 10;
#X obj 530 89 clip -10 10;
#X msg 503 386 1 0 337.5 \, 2 0 292.5 \, 3 0 247.5 \, 4 0 202.5 \,
5 0 157.5 \, 6 0 112.5 \, 7 0 67.5 \, 8 0 22.5;
#X msg 489 347 1 45 300 \, 2 45 180 \, 3 45 60 \, 4 90 0;
#X msg 517 437 1 -45 337.5 \, 2 -45 292.5 \, 3 -45 247.5 \, 4 -45 202.5
\, 5 -45 157.5 \, 6 -45 112.5 \, 7 -45 67.5 \, 8 -45 22.5;
#X obj 560 246 f 0.707;
#X obj 545 284 any 1 0.854 0.5 0.146;
#X obj 489 560 ambi_decode2 3 3 4 8 1;
#X text 726 372 LS 1 .. 8;
#X text 634 332 LS 9 .. 11 + 12;
#X msg 531 488 1 -90 0;
#X obj 451 65 unpack 0 0 0 0;
#X obj 455 151 pack 0 0 0 0;
#X text 273 435 the 12-th LS will be added to;
#X text 296 448 LS 9 \, 10 \, and 11;
#X text 320 461 with 33 %;
#X obj 78 426 *~ 0.333;
#X obj 19 358 matrix_mul_stat~ 16 12 _______________;
#X text 127 25 16 ambisonic signals;
#X obj 241 596 outlet;
#X obj 251 596 outlet;
#X obj 261 596 outlet;
#X obj 271 596 outlet;
#X obj 281 596 outlet;
#X obj 450 13 inlet;
#X text 569 53 mirror loudspeaker weight in %;
#X text 390 50 ambi order weight list;
#X obj 450 36 route ambi_weight mirror_weight;
#X text 448 -4 parameter;
#X connect 0 0 44 0;
#X connect 1 0 68 0;
#X connect 2 0 68 1;
#X connect 3 0 68 2;
#X connect 4 0 68 3;
#X connect 5 0 68 4;
#X connect 6 0 68 5;
#X connect 7 0 68 6;
#X connect 8 0 68 7;
#X connect 9 0 68 8;
#X connect 10 0 68 9;
#X connect 11 0 68 10;
#X connect 12 0 68 11;
#X connect 13 0 68 12;
#X connect 14 0 30 0;
#X connect 15 0 31 0;
#X connect 16 0 32 0;
#X connect 17 0 18 0;
#X connect 17 1 54 0;
#X connect 17 2 53 0;
#X connect 17 3 55 0;
#X connect 17 4 61 0;
#X connect 17 5 57 0;
#X connect 17 6 56 0;
#X connect 18 0 58 0;
#X connect 19 0 25 0;
#X connect 19 0 68 0;
#X connect 20 0 17 0;
#X connect 21 0 58 0;
#X connect 22 0 58 0;
#X connect 23 0 58 0;
#X connect 24 0 58 0;
#X connect 25 0 26 0;
#X connect 27 0 68 13;
#X connect 28 0 68 14;
#X connect 29 0 68 15;
#X connect 43 0 20 0;
#X connect 44 0 17 0;
#X connect 44 1 56 1;
#X connect 45 0 58 0;
#X connect 46 0 58 0;
#X connect 47 0 17 0;
#X connect 47 1 57 1;
#X connect 48 0 0 0;
#X connect 49 0 63 0;
#X connect 50 0 63 1;
#X connect 51 0 63 2;
#X connect 52 0 63 3;
#X connect 53 0 23 0;
#X connect 54 0 24 0;
#X connect 55 0 22 0;
#X connect 56 0 45 0;
#X connect 57 0 46 0;
#X connect 58 0 19 0;
#X connect 61 0 21 0;
#X connect 62 0 49 0;
#X connect 62 1 50 0;
#X connect 62 2 51 0;
#X connect 62 3 52 0;
#X connect 63 0 47 0;
#X connect 67 0 14 1;
#X connect 67 0 15 1;
#X connect 67 0 16 1;
#X connect 68 0 14 0;
#X connect 68 1 15 0;
#X connect 68 2 16 0;
#X connect 68 3 67 0;
#X connect 68 4 33 0;
#X connect 68 5 34 0;
#X connect 68 6 35 0;
#X connect 68 7 36 0;
#X connect 68 8 37 0;
#X connect 68 9 38 0;
#X connect 68 10 39 0;
#X connect 68 11 40 0;
#X connect 75 0 78 0;
#X connect 78 0 62 0;
#X connect 78 1 48 0;
