#N canvas 7 20 980 696 10;
#X obj 17 587 outlet~;
#X obj 17 29 inlet~;
#X obj 17 563 +~;
#X obj 41 587 outlet~;
#X obj 41 563 +~;
#X obj 65 587 outlet~;
#X obj 65 563 +~;
#X obj 89 587 outlet~;
#X obj 89 563 +~;
#X obj 41 29 inlet~;
#X obj 65 29 inlet~;
#X obj 89 29 inlet~;
#X obj 113 29 inlet~;
#X obj 113 563 +~;
#X obj 137 563 +~;
#X obj 161 563 +~;
#X obj 185 563 +~;
#X obj 137 29 inlet~;
#X obj 161 29 inlet~;
#X obj 185 29 inlet~;
#X obj 209 29 inlet~;
#X obj 209 563 +~;
#X obj 113 587 outlet~;
#X obj 137 587 outlet~;
#X obj 161 587 outlet~;
#X obj 185 587 outlet~;
#X obj 209 587 outlet~;
#X text 23 609 A0;
#X text 27 12 A0;
#X text 552 11 src_in;
#X obj 549 29 inlet~;
#X obj 529 284 r \$0-interpol;
#X text 23 623 1.arg: <float> source-INDEX (1 .. N);
#X obj 587 587 outlet;
#X text 588 604 dummy;
#X obj 874 126 s \$0-interpol;
#X obj 680 589 outlet;
#X obj 707 103 route \$1 0;
#X obj 679 31 inlet;
#X text 681 15 parameters;
#X text 686 615 out;
#X text 681 606 para;
#X obj 707 242 dbtorms;
#X obj 707 149 route gain;
#X obj 549 110 mull~ 1 50;
#X obj 604 88 r \$0-interpol;
#X obj 551 427 prvu~;
#X msg 568 387 reset;
#X msg 639 387 start;
#X msg 606 387 stop;
#X obj 575 366 t b b;
#X obj 874 105 spigot;
#X obj 810 252 spigot;
#X obj 929 54 init 1;
#X obj 929 81 f;
#X obj 551 447 s \$1_rgui_vu;
#X obj 719 175 gain2switch;
#X obj 585 344 sel 0 1;
#X obj 707 64 route source interpol_time;
#X obj 264 307 \$2_direct_encode_4o_2d~ _____________________;
#X text 230 11 B4;
#X text 236 604 B4;
#X text 23 633 2.arg: <symbol> delay-interpolation-mode;
#X text 264 634 (stat \, dyn) (default: dyn);
#X obj 440 282 ambi_encode 4;
#X obj 810 225 route position ambi_weight;
#X obj 921 251 init 1 1 1 1 1;
#X obj 892 346 pp ambi_weight;
#X obj 892 284 unpack f f f f f;
#X obj 892 311 pack f f f f f;
#X obj 810 297 f;
#X obj 440 261 pp col 1;
#X connect 1 0 2 0;
#X connect 2 0 0 0;
#X connect 4 0 3 0;
#X connect 6 0 5 0;
#X connect 8 0 7 0;
#X connect 9 0 4 0;
#X connect 10 0 6 0;
#X connect 11 0 8 0;
#X connect 12 0 13 0;
#X connect 13 0 22 0;
#X connect 14 0 23 0;
#X connect 15 0 24 0;
#X connect 16 0 25 0;
#X connect 17 0 14 0;
#X connect 18 0 15 0;
#X connect 19 0 16 0;
#X connect 20 0 21 0;
#X connect 21 0 26 0;
#X connect 30 0 44 0;
#X connect 31 0 59 3;
#X connect 37 0 43 0;
#X connect 37 1 65 0;
#X connect 38 0 36 0;
#X connect 38 0 58 0;
#X connect 42 0 44 1;
#X connect 43 0 42 0;
#X connect 43 0 56 0;
#X connect 43 1 65 0;
#X connect 44 0 46 0;
#X connect 44 0 59 0;
#X connect 45 0 44 2;
#X connect 46 0 55 0;
#X connect 47 0 46 0;
#X connect 48 0 46 0;
#X connect 49 0 46 0;
#X connect 50 0 47 0;
#X connect 50 1 49 0;
#X connect 51 0 35 0;
#X connect 52 0 70 0;
#X connect 53 0 54 0;
#X connect 54 0 51 1;
#X connect 54 0 52 1;
#X connect 56 0 57 0;
#X connect 56 0 54 0;
#X connect 56 0 59 1;
#X connect 57 0 50 0;
#X connect 57 1 48 0;
#X connect 58 0 37 0;
#X connect 58 1 51 0;
#X connect 59 0 2 1;
#X connect 59 1 4 1;
#X connect 59 2 6 1;
#X connect 59 3 8 1;
#X connect 59 4 13 1;
#X connect 59 5 14 1;
#X connect 59 6 15 1;
#X connect 59 7 16 1;
#X connect 59 8 21 1;
#X connect 64 0 59 2;
#X connect 65 0 52 0;
#X connect 65 1 68 0;
#X connect 66 0 68 0;
#X connect 67 0 59 2;
#X connect 68 0 69 0;
#X connect 68 1 69 1;
#X connect 68 2 69 2;
#X connect 68 3 69 3;
#X connect 68 4 69 4;
#X connect 69 0 67 0;
#X connect 70 0 71 0;
#X connect 71 0 64 0;
