#N canvas 75 80 765 524 10;
#X obj 33 457 outlet~;
#X obj 58 457 outlet~;
#X obj 81 457 outlet~;
#X obj 105 457 outlet~;
#X obj 128 457 outlet~;
#X obj 152 457 outlet~;
#X obj 175 457 outlet~;
#X obj 199 457 outlet~;
#X obj 138 48 inlet~;
#X obj 371 44 inlet;
#X text 377 25 dpdd;
#X obj 236 47 inlet~;
#X obj 605 40 inlet;
#X text 611 20 time_ms;
#X text 144 31 src_1;
#X text 242 30 src_2;
#X obj 605 65 s \$0-interpol_time;
#X obj 190 334 pp time;
#X obj 190 312 r \$0-interpol_time;
#X obj 51 277 ambi_encode 4;
#X obj 224 457 outlet~;
#X obj 249 457 outlet~;
#X obj 272 457 outlet~;
#X obj 296 457 outlet~;
#X obj 319 457 outlet~;
#X obj 343 457 outlet~;
#X obj 366 457 outlet~;
#X obj 390 457 outlet~;
#X obj 414 457 outlet~;
#X obj 439 457 outlet~;
#X obj 462 457 outlet~;
#X obj 486 457 outlet~;
#X obj 509 457 outlet~;
#X obj 533 457 outlet~;
#X obj 556 457 outlet~;
#X obj 580 457 outlet~;
#X obj 605 457 outlet~;
#X obj 51 228 r \$0-index_delta_phi;
#X obj 371 95 s \$0-index_delta_phi;
#X obj 138 382 matrix_mul_line8~ 2 25 50 __________________________________
;
#X obj 51 253 pp col;
#X obj 491 148 pp ambi_weight;
#X obj 491 34 inlet;
#X obj 526 117 init 1 1 1 1 1;
#X connect 8 0 39 0;
#X connect 9 0 38 0;
#X connect 11 0 39 1;
#X connect 12 0 16 0;
#X connect 17 0 39 0;
#X connect 18 0 17 0;
#X connect 19 0 39 0;
#X connect 37 0 40 0;
#X connect 39 0 0 0;
#X connect 39 1 1 0;
#X connect 39 2 2 0;
#X connect 39 3 3 0;
#X connect 39 4 4 0;
#X connect 39 5 5 0;
#X connect 39 6 6 0;
#X connect 39 7 7 0;
#X connect 39 8 20 0;
#X connect 39 9 21 0;
#X connect 39 10 22 0;
#X connect 39 11 23 0;
#X connect 39 12 24 0;
#X connect 39 13 25 0;
#X connect 39 14 26 0;
#X connect 39 15 27 0;
#X connect 39 16 28 0;
#X connect 39 17 29 0;
#X connect 39 18 30 0;
#X connect 39 19 31 0;
#X connect 39 20 32 0;
#X connect 39 21 33 0;
#X connect 39 22 34 0;
#X connect 39 23 35 0;
#X connect 39 24 36 0;
#X connect 40 0 19 0;
#X connect 41 0 19 0;
#X connect 42 0 41 0;
#X connect 43 0 41 0;
