#N canvas 0 74 1012 549 10;
#X obj 16 395 outlet~;
#X obj 16 32 inlet~;
#X obj 16 372 +~;
#X obj 49 395 outlet~;
#X obj 49 371 +~;
#X obj 82 395 outlet~;
#X obj 82 371 +~;
#X obj 115 395 outlet~;
#X obj 115 371 +~;
#X obj 49 32 inlet~;
#X obj 82 32 inlet~;
#X obj 115 32 inlet~;
#X obj 148 32 inlet~;
#X obj 181 32 inlet~;
#X obj 214 32 inlet~;
#X obj 317 32 inlet~;
#X obj 341 32 inlet~;
#X obj 362 32 inlet~;
#X obj 385 32 inlet~;
#X obj 148 395 outlet~;
#X obj 181 395 outlet~;
#X obj 214 395 outlet~;
#X obj 317 395 outlet~;
#X obj 341 395 outlet~;
#X obj 362 395 outlet~;
#X obj 385 395 outlet~;
#X obj 148 372 +~;
#X obj 181 371 +~;
#X obj 214 371 +~;
#X obj 58 243 pp col;
#X msg 910 168 cutoff \$1;
#X msg 985 167 sonic_speed \$1;
#X obj 166 91 loadbang;
#X obj 735 215 pp room_dim;
#X obj 483 32 inlet~;
#X obj 493 32 inlet~;
#X obj 503 32 inlet~;
#X obj 513 32 inlet~;
#X obj 503 395 outlet;
#X obj 513 395 outlet;
#X obj 523 395 outlet;
#X obj 533 395 outlet;
#X obj 166 117 t b b;
#X obj 623 395 outlet;
#X obj 640 29 inlet;
#X text 642 13 parameters;
#X text 25 10 A0;
#X text 21 418 A0;
#X obj 700 99 route gain ambi_weight;
#X obj 780 122 s \$0-ambi_weight;
#X obj 37 84 r \$0-ambi_weight;
#X obj 37 164 t b l;
#X obj 96 193 pp ambi_weight;
#X text 491 13 4 earlies-sum;
#X text 554 418 5 x dummies;
#X text 403 9 B5;
#X obj 58 267 ambi_encode 3;
#X text 325 11 A4;
#X text 229 12 B3;
#X text 227 415 B3;
#X msg 191 144 1 1 1 0.5;
#X obj 37 140 pack 1 1 1 0.5;
#X msg 58 219 1 0 \, 2 90 \, 3 180 \, 4 270;
#X obj 606 87 route position;
#X obj 640 53 route listener diffuse room interpol_time;
#X msg 483 240 switch \$1;
#X obj 522 214 init 1;
#X obj 594 176 init 73;
#X obj 490 134 sel 0;
#X obj 524 170 t b;
#X msg 472 193 0;
#X msg 514 193 1;
#N canvas 0 0 809 628 forward_dominance 0;
#X obj 73 33 inlet;
#X obj 183 30 inlet;
#X obj 113 486 outlet;
#X obj 65 122 t b f;
#X obj 168 83 * 0.5;
#X obj 226 101 * 0.5;
#X obj 226 124 t b f;
#X obj 79 214 split3 -0.5 0.5;
#X msg 79 256 1;
#X obj 211 254 split3 -0.5 0.5;
#X msg 211 296 1;
#X obj 211 275 t b;
#X obj 296 298 * 2;
#X msg 296 320 1 \$1;
#X obj 296 276 - 0.5;
#X obj 296 341 -;
#X msg 253 320 1 \$1;
#X obj 253 341 -;
#X obj 253 276 + 0.5;
#X obj 253 298 * -2;
#X obj 211 233 clip -1 1;
#X obj 79 192 clip -1 1;
#X obj 164 258 * 2;
#X msg 164 280 1 \$1;
#X obj 164 236 - 0.5;
#X obj 164 301 -;
#X msg 121 280 1 \$1;
#X obj 121 301 -;
#X obj 121 236 + 0.5;
#X obj 121 258 * -2;
#X obj 79 235 t b;
#X obj 54 170 t b f;
#X obj 54 417 f;
#X obj 54 146 /;
#X obj 215 148 /;
#X text 179 11 room_xy;
#X text 71 15 head_xy;
#X obj 73 57 unpack 0 0;
#X obj 183 55 unpack 0 0;
#X obj 113 452 pack 0 0 0 0;
#X text 104 516 list of 4 lin. gains of +x \, +y \, -x \, -y;
#X connect 0 0 37 0;
#X connect 1 0 38 0;
#X connect 3 0 33 0;
#X connect 3 1 33 1;
#X connect 4 0 3 0;
#X connect 5 0 6 0;
#X connect 6 0 34 0;
#X connect 6 1 34 1;
#X connect 7 0 30 0;
#X connect 7 1 28 0;
#X connect 7 2 24 0;
#X connect 8 0 32 1;
#X connect 8 0 39 2;
#X connect 9 0 11 0;
#X connect 9 1 18 0;
#X connect 9 2 14 0;
#X connect 10 0 39 1;
#X connect 10 0 39 3;
#X connect 11 0 10 0;
#X connect 12 0 13 0;
#X connect 13 0 15 0;
#X connect 14 0 12 0;
#X connect 15 0 39 1;
#X connect 16 0 17 0;
#X connect 17 0 39 3;
#X connect 18 0 19 0;
#X connect 19 0 16 0;
#X connect 20 0 9 0;
#X connect 21 0 7 0;
#X connect 22 0 23 0;
#X connect 23 0 25 0;
#X connect 24 0 22 0;
#X connect 25 0 32 1;
#X connect 26 0 27 0;
#X connect 27 0 39 2;
#X connect 28 0 29 0;
#X connect 29 0 26 0;
#X connect 30 0 8 0;
#X connect 31 0 32 0;
#X connect 31 1 21 0;
#X connect 32 0 39 0;
#X connect 33 0 31 0;
#X connect 34 0 20 0;
#X connect 37 0 33 0;
#X connect 37 1 34 0;
#X connect 38 0 4 0;
#X connect 38 1 5 0;
#X connect 39 0 2 0;
#X restore 605 240 pd forward_dominance;
#N canvas 0 0 536 586 power_normalize 0;
#X obj 64 28 inlet;
#X obj 29 508 outlet;
#X msg 242 159 \$1 \$1;
#X obj 242 179 *;
#X msg 219 139 \$1 \$1;
#X obj 219 159 *;
#X msg 196 119 \$1 \$1;
#X obj 196 139 *;
#X msg 174 99 \$1 \$1;
#X obj 174 119 *;
#X obj 226 202 +;
#X obj 213 222 +;
#X obj 200 242 +;
#X obj 64 52 t l l;
#X obj 200 285 /;
#X obj 200 306 sqrt;
#X obj 97 199 *;
#X obj 74 179 *;
#X obj 51 159 *;
#X obj 29 139 *;
#X obj 97 429 *;
#X obj 74 409 *;
#X obj 51 389 *;
#X obj 29 369 *;
#X obj 374 47 inlet;
#X text 373 25 lin. gain;
#X obj 174 74 unpack 0 0 0 0;
#X obj 29 114 unpack 0 0 0 0;
#X msg 200 264 4 \$1;
#X obj 35 328 t b f b f b f b f;
#X obj 29 482 pack 0 0 0 0;
#X connect 0 0 13 0;
#X connect 2 0 3 0;
#X connect 3 0 10 1;
#X connect 4 0 5 0;
#X connect 5 0 10 0;
#X connect 6 0 7 0;
#X connect 7 0 11 0;
#X connect 8 0 9 0;
#X connect 9 0 12 0;
#X connect 10 0 11 1;
#X connect 11 0 12 1;
#X connect 12 0 28 0;
#X connect 13 0 27 0;
#X connect 13 1 26 0;
#X connect 14 0 15 0;
#X connect 15 0 19 1;
#X connect 15 0 18 1;
#X connect 15 0 17 1;
#X connect 15 0 16 1;
#X connect 16 0 20 0;
#X connect 17 0 21 0;
#X connect 18 0 22 0;
#X connect 19 0 23 0;
#X connect 20 0 30 3;
#X connect 21 0 30 2;
#X connect 22 0 30 1;
#X connect 23 0 30 0;
#X connect 24 0 29 0;
#X connect 26 0 8 0;
#X connect 26 1 6 0;
#X connect 26 2 4 0;
#X connect 26 3 2 0;
#X connect 27 0 19 0;
#X connect 27 1 18 0;
#X connect 27 2 17 0;
#X connect 27 3 16 0;
#X connect 28 0 14 0;
#X connect 29 0 23 0;
#X connect 29 1 23 1;
#X connect 29 2 22 0;
#X connect 29 3 22 1;
#X connect 29 4 21 0;
#X connect 29 5 21 1;
#X connect 29 6 20 0;
#X connect 29 7 20 1;
#X connect 30 0 1 0;
#X restore 605 263 pd power_normalize;
#X obj 578 198 dbtorms;
#X obj 605 286 pp gain;
#X obj 820 170 pp absorption;
#X obj 760 145 route size absorption_coeff cutoff_freq sonic_speed
;
#X text 42 60 the weight of 4 + 5.order is zero !!;
#X obj 37 109 unpack f f f f f f;
#X msg 536 144 stop;
#X obj 606 107 unpack 0 0;
#X obj 606 129 pack 0 0;
#X obj 726 169 unpack 0 0;
#X obj 726 190 pack 0 0;
#X obj 29 345 encode_diffuse_3o_2d_rev12~ ______;
#X obj 459 172 del 5000;
#X connect 1 0 2 0;
#X connect 2 0 0 0;
#X connect 4 0 3 0;
#X connect 6 0 5 0;
#X connect 8 0 7 0;
#X connect 9 0 4 0;
#X connect 10 0 6 0;
#X connect 11 0 8 0;
#X connect 12 0 26 0;
#X connect 13 0 27 0;
#X connect 14 0 28 0;
#X connect 15 0 22 0;
#X connect 16 0 23 0;
#X connect 17 0 24 0;
#X connect 18 0 25 0;
#X connect 26 0 19 0;
#X connect 27 0 20 0;
#X connect 28 0 21 0;
#X connect 29 0 56 0;
#X connect 30 0 85 4;
#X connect 31 0 85 4;
#X connect 32 0 42 0;
#X connect 33 0 85 4;
#X connect 34 0 85 0;
#X connect 35 0 85 1;
#X connect 36 0 85 2;
#X connect 37 0 85 3;
#X connect 42 0 62 0;
#X connect 42 1 60 0;
#X connect 44 0 64 0;
#X connect 48 0 68 0;
#X connect 48 0 74 0;
#X connect 48 1 49 0;
#X connect 50 0 79 0;
#X connect 51 0 62 0;
#X connect 51 1 52 0;
#X connect 52 0 56 0;
#X connect 56 0 85 5;
#X connect 60 0 52 0;
#X connect 61 0 51 0;
#X connect 62 0 29 0;
#X connect 63 0 81 0;
#X connect 64 0 63 0;
#X connect 64 1 48 0;
#X connect 64 2 77 0;
#X connect 65 0 85 4;
#X connect 66 0 65 0;
#X connect 67 0 74 0;
#X connect 68 0 86 0;
#X connect 68 1 69 0;
#X connect 69 0 71 0;
#X connect 69 0 80 0;
#X connect 70 0 65 0;
#X connect 71 0 65 0;
#X connect 72 0 73 0;
#X connect 73 0 75 0;
#X connect 74 0 73 1;
#X connect 75 0 85 4;
#X connect 76 0 85 4;
#X connect 77 0 83 0;
#X connect 77 1 76 0;
#X connect 77 2 30 0;
#X connect 77 3 31 0;
#X connect 79 0 61 0;
#X connect 79 1 61 1;
#X connect 79 2 61 2;
#X connect 79 3 61 3;
#X connect 80 0 86 0;
#X connect 81 0 82 0;
#X connect 81 1 82 1;
#X connect 82 0 72 0;
#X connect 83 0 84 0;
#X connect 83 1 84 1;
#X connect 84 0 33 0;
#X connect 84 0 72 1;
#X connect 85 0 2 1;
#X connect 85 1 4 1;
#X connect 85 2 6 1;
#X connect 85 3 8 1;
#X connect 85 4 26 1;
#X connect 85 5 27 1;
#X connect 85 6 28 1;
#X connect 86 0 70 0;
