#N canvas 123 84 749 412 10;
#X obj 152 22 inlet~;
#X obj 164 22 inlet~;
#X obj 235 20 inlet~;
#X obj 248 20 inlet~;
#X obj 317 22 inlet~;
#X obj 331 22 inlet~;
#X obj 70 20 inlet~;
#X obj 82 20 inlet~;
#X obj 11 21 inlet~;
#X obj 424 139 pp time;
#X obj 11 338 outlet~;
#X obj 76 338 outlet~;
#X obj 88 338 outlet~;
#X obj 163 338 outlet~;
#X obj 175 338 outlet~;
#X obj 242 339 outlet~;
#X obj 254 339 outlet~;
#X obj 329 338 outlet~;
#X obj 340 338 outlet~;
#X obj 488 339 outlet;
#X obj 424 113 r \$0-interpol_time;
#X obj 31 205 matrix_mul_line8~ 2 2 50;
#X obj 116 175 matrix_mul_line8~ 2 2 50;
#X obj 191 210 matrix_mul_line8~ 2 2 50;
#X obj 285 181 matrix_mul_line8~ 2 2 50;
#X obj 72 129 ambi_rot 4 ___________________________________________
;
#X obj 516 23 inlet;
#X obj 74 81 r \$0-rhoz;
#X obj 147 82 init 0;
#X text 588 91 interpol-time [ms];
#X obj 587 72 s \$0-interpol_time;
#X obj 515 73 s \$0-rhoz;
#X text 475 92 rho_z in degree;
#X obj 515 48 route rho_z interpol_time;
#X connect 0 0 22 0;
#X connect 1 0 22 1;
#X connect 2 0 23 0;
#X connect 3 0 23 1;
#X connect 4 0 24 0;
#X connect 5 0 24 1;
#X connect 6 0 21 0;
#X connect 7 0 21 1;
#X connect 8 0 10 0;
#X connect 9 0 21 0;
#X connect 9 0 22 0;
#X connect 9 0 23 0;
#X connect 9 0 24 0;
#X connect 20 0 9 0;
#X connect 21 0 11 0;
#X connect 21 1 12 0;
#X connect 22 0 13 0;
#X connect 22 1 14 0;
#X connect 23 0 15 0;
#X connect 23 1 16 0;
#X connect 24 0 17 0;
#X connect 24 1 18 0;
#X connect 25 0 21 0;
#X connect 25 1 22 0;
#X connect 25 2 23 0;
#X connect 25 3 24 0;
#X connect 26 0 33 0;
#X connect 27 0 25 0;
#X connect 28 0 25 0;
#X connect 33 0 31 0;
#X connect 33 1 30 0;
