#N canvas 13 11 666 395 10;
#X obj 384 21 inlet;
#X obj 171 21 inlet~;
#X obj 202 21 inlet~;
#X obj 234 21 inlet~;
#X obj 266 21 inlet~;
#X obj 315 21 inlet~;
#X obj 28 21 inlet~;
#X obj 80 21 inlet~;
#X obj 132 21 inlet~;
#X obj 11 21 inlet~;
#X obj 344 230 pp time;
#X obj 11 338 outlet~;
#X obj 29 338 outlet~;
#X obj 80 338 outlet~;
#X obj 132 338 outlet~;
#X obj 171 338 outlet~;
#X obj 202 338 outlet~;
#X obj 234 338 outlet~;
#X obj 266 338 outlet~;
#X obj 316 338 outlet~;
#X obj 433 332 outlet;
#X obj 110 160 r \$0-rhoz_rhoy_rhox;
#X obj 344 204 r \$0-interpol_time;
#X obj 41 160 init 0 0 0;
#X obj 41 213 ambi_rot 2 _________;
#X obj 29 278 matrix_mul_line8~ 3 3 50;
#X obj 184 278 matrix_mul_line8~ 5 5 50;
#X text 468 114 interpol-time [ms];
#X obj 384 92 s \$0-rhoz_rhoy_rhox;
#X obj 462 134 s \$0-interpol_time;
#X text 392 73 list of rho_z + rho_y + rho_x in degree;
#X obj 384 46 route rho_zyx interpol_time;
#X connect 0 0 31 0;
#X connect 1 0 26 0;
#X connect 2 0 26 1;
#X connect 3 0 26 2;
#X connect 4 0 26 3;
#X connect 5 0 26 4;
#X connect 6 0 25 0;
#X connect 7 0 25 1;
#X connect 8 0 25 2;
#X connect 9 0 11 0;
#X connect 10 0 26 0;
#X connect 10 0 25 0;
#X connect 21 0 24 0;
#X connect 22 0 10 0;
#X connect 23 0 24 0;
#X connect 24 0 25 0;
#X connect 24 1 26 0;
#X connect 25 0 12 0;
#X connect 25 1 13 0;
#X connect 25 2 14 0;
#X connect 26 0 15 0;
#X connect 26 1 16 0;
#X connect 26 2 17 0;
#X connect 26 3 18 0;
#X connect 26 4 19 0;
#X connect 31 0 28 0;
#X connect 31 1 29 0;
