#N canvas 18 215 873 399 10;
#X obj 601 20 inlet;
#X obj 177 20 inlet~;
#X obj 208 20 inlet~;
#X obj 240 20 inlet~;
#X obj 272 20 inlet~;
#X obj 304 20 inlet~;
#X obj 352 20 inlet~;
#X obj 382 20 inlet~;
#X obj 412 20 inlet~;
#X obj 442 20 inlet~;
#X obj 472 20 inlet~;
#X obj 502 20 inlet~;
#X obj 533 20 inlet~;
#X obj 62 21 inlet~;
#X obj 85 21 inlet~;
#X obj 109 21 inlet~;
#X obj 12 21 inlet~;
#X obj 571 194 pp time;
#X obj 12 338 outlet~;
#X obj 60 338 outlet~;
#X obj 86 338 outlet~;
#X obj 116 338 outlet~;
#X obj 183 336 outlet~;
#X obj 214 336 outlet~;
#X obj 246 336 outlet~;
#X obj 278 336 outlet~;
#X obj 310 336 outlet~;
#X obj 364 336 outlet~;
#X obj 394 336 outlet~;
#X obj 424 336 outlet~;
#X obj 454 336 outlet~;
#X obj 484 336 outlet~;
#X obj 514 336 outlet~;
#X obj 545 336 outlet~;
#X obj 613 336 outlet;
#X obj 105 149 r \$0-rhoz_rhoy_rhox;
#X obj 571 168 r \$0-interpol_time;
#X obj 36 149 init 0 0 0;
#X obj 30 278 matrix_mul_line8~ 3 3 50;
#X obj 179 278 matrix_mul_line8~ 5 5 50 __;
#X obj 346 278 matrix_mul_line8~ 7 7 50 ___________;
#X obj 42 211 ambi_rot 3 _________________________________;
#X text 685 113 interpol-time [ms];
#X obj 601 91 s \$0-rhoz_rhoy_rhox;
#X obj 679 133 s \$0-interpol_time;
#X text 609 72 list of rho_z + rho_y + rho_x in degree;
#X obj 601 45 route rho_zyx interpol_time;
#X connect 0 0 46 0;
#X connect 1 0 39 0;
#X connect 2 0 39 1;
#X connect 3 0 39 2;
#X connect 4 0 39 3;
#X connect 5 0 39 4;
#X connect 6 0 40 0;
#X connect 7 0 40 1;
#X connect 8 0 40 2;
#X connect 9 0 40 3;
#X connect 10 0 40 4;
#X connect 11 0 40 5;
#X connect 12 0 40 6;
#X connect 13 0 38 0;
#X connect 14 0 38 1;
#X connect 15 0 38 2;
#X connect 16 0 18 0;
#X connect 17 0 38 0;
#X connect 17 0 39 0;
#X connect 17 0 40 0;
#X connect 35 0 41 0;
#X connect 36 0 17 0;
#X connect 37 0 41 0;
#X connect 38 0 19 0;
#X connect 38 1 20 0;
#X connect 38 2 21 0;
#X connect 39 0 22 0;
#X connect 39 1 23 0;
#X connect 39 2 24 0;
#X connect 39 3 25 0;
#X connect 39 4 26 0;
#X connect 40 0 27 0;
#X connect 40 1 28 0;
#X connect 40 2 29 0;
#X connect 40 3 30 0;
#X connect 40 4 31 0;
#X connect 40 5 32 0;
#X connect 40 6 33 0;
#X connect 41 0 38 0;
#X connect 41 1 39 0;
#X connect 41 2 40 0;
#X connect 46 0 43 0;
#X connect 46 1 44 0;
