#N canvas 13 23 1012 665 10;
#X obj 16 495 outlet~;
#X obj 16 32 inlet~;
#X obj 49 495 outlet~;
#X obj 82 495 outlet~;
#X obj 115 495 outlet~;
#X obj 49 32 inlet~;
#X obj 82 32 inlet~;
#X obj 115 32 inlet~;
#X obj 148 32 inlet~;
#X obj 181 32 inlet~;
#X obj 214 32 inlet~;
#X obj 247 32 inlet~;
#X obj 281 32 inlet~;
#X obj 312 32 inlet~;
#X obj 345 32 inlet~;
#X obj 378 32 inlet~;
#X obj 411 32 inlet~;
#X obj 444 32 inlet~;
#X obj 477 32 inlet~;
#X obj 511 32 inlet~;
#X obj 148 495 outlet~;
#X obj 181 495 outlet~;
#X obj 214 495 outlet~;
#X obj 247 495 outlet~;
#X obj 281 495 outlet~;
#X obj 312 495 outlet~;
#X obj 345 495 outlet~;
#X obj 378 495 outlet~;
#X obj 411 495 outlet~;
#X obj 444 495 outlet~;
#X obj 477 495 outlet~;
#X obj 511 495 outlet~;
#X obj 37 251 pp col;
#X msg 1115 174 cutoff \$1;
#X msg 1192 176 sonic_speed \$1;
#X obj 37 275 ambi_encode 3;
#X msg 733 264 switch \$1;
#X obj 946 173 unpack 0 0 0;
#X obj 946 194 pack 0 0 3;
#X obj 763 242 init 1;
#X obj 166 91 loadbang;
#X obj 960 223 pp room_dim;
#X obj 563 32 inlet~;
#X obj 563 495 outlet~;
#X obj 573 32 inlet~;
#X obj 573 495 outlet~;
#X obj 583 32 inlet~;
#X obj 583 495 outlet~;
#X obj 593 32 inlet~;
#X obj 593 495 outlet~;
#X obj 603 32 inlet~;
#X obj 603 495 outlet~;
#X obj 613 32 inlet~;
#X obj 613 495 outlet~;
#X obj 623 32 inlet~;
#X obj 623 495 outlet~;
#X obj 633 32 inlet~;
#X obj 633 495 outlet~;
#X obj 643 32 inlet~;
#X obj 643 495 outlet~;
#X obj 693 32 inlet~;
#X obj 703 32 inlet~;
#X obj 713 32 inlet~;
#X obj 723 32 inlet~;
#X obj 693 495 outlet;
#X obj 703 495 outlet;
#X obj 713 495 outlet;
#X obj 723 495 outlet;
#X obj 166 117 t b b;
#X obj 813 495 outlet;
#X obj 1050 85 s \$0-interpol;
#X obj 830 29 inlet;
#X text 832 13 parameters;
#X obj 865 190 init 73;
#X obj 754 166 sel 0;
#X obj 786 195 t b;
#X msg 733 216 0;
#X msg 786 217 1;
#X text 669 10 I4;
#X text 25 10 A0;
#X text 566 11 A4;
#X text 525 9 G3;
#X text 665 518 I4;
#X text 21 518 A0;
#X obj 893 103 route gain ambi_weight;
#X obj 973 126 s \$0-ambi_weight;
#X obj 37 84 r \$0-ambi_weight;
#X obj 37 140 pack 1 1 1 0.5;
#X text 32 60 the weight of 4.order is zero !!;
#X obj 37 164 t b l;
#X obj 93 207 pp ambi_weight;
#X msg 191 144 1 1 1 0.5;
#X obj 736 32 inlet~;
#X text 701 13 5 earlies-sum;
#X text 703 518 6 x dummies;
#X obj 743 495 outlet;
#X obj 803 109 unpack 0 0 0;
#X obj 803 131 pack 0 0 1.7;
#X obj 803 89 route position;
#X obj 830 56 route listener diffuse room interpol_time;
#N canvas 151 70 833 652 forward_dominance 0;
#X obj 73 33 inlet;
#X text 71 15 head_xyz;
#X obj 183 30 inlet;
#X text 179 11 room_xyz;
#X obj 113 486 outlet;
#X text 104 516 list of 5 lin. gains of +x \, +y \, -x \, -y \, +z
;
#X obj 183 55 unpack 0 0 0;
#X obj 73 57 unpack 0 0 0;
#X obj 65 122 t b f;
#X obj 168 83 * 0.5;
#X obj 226 101 * 0.5;
#X obj 226 124 t b f;
#X obj 391 124 t b f;
#X obj 113 452 pack 0 0 0 0 0;
#X obj 79 214 split3 -0.5 0.5;
#X msg 79 256 1;
#X obj 211 254 split3 -0.5 0.5;
#X msg 211 296 1;
#X msg 380 365 1;
#X obj 380 342 t b;
#X msg 435 387 1 \$1;
#X obj 435 408 -;
#X obj 211 275 t b;
#X obj 296 298 * 2;
#X msg 296 320 1 \$1;
#X obj 296 276 - 0.5;
#X obj 296 341 -;
#X msg 253 320 1 \$1;
#X obj 253 341 -;
#X obj 253 276 + 0.5;
#X obj 253 298 * -2;
#X obj 211 233 clip -1 1;
#X obj 380 294 clip -1 1;
#X obj 79 192 clip -1 1;
#X obj 164 258 * 2;
#X msg 164 280 1 \$1;
#X obj 164 236 - 0.5;
#X obj 164 301 -;
#X msg 121 280 1 \$1;
#X obj 121 301 -;
#X obj 121 236 + 0.5;
#X obj 121 258 * -2;
#X obj 79 235 t b;
#X obj 54 170 t b f;
#X obj 54 417 f;
#X obj 54 146 /;
#X obj 215 148 /;
#X obj 380 148 /;
#X msg 530 249 \$1 \$1;
#X obj 530 270 *;
#X msg 487 250 \$1 \$1;
#X obj 487 271 *;
#X obj 512 292 +;
#X obj 512 312 sqrt;
#X obj 259 173 t f f;
#X obj 141 172 t f f;
#X obj 516 427 -;
#X text 666 384 azimuth;
#X text 534 496 elevation;
#X obj 516 448 * 90;
#X obj 659 320 * 180;
#X obj 659 341 / 3.14159;
#X msg 516 406 1 \$1;
#X obj 616 498 pack 0 0;
#X obj 616 541 outlet;
#X obj 659 366 - 180;
#X obj 602 311 * 2;
#X obj 602 333 cos;
#X obj 602 353 abs;
#X obj 516 381 +;
#X obj 512 333 t f f;
#X obj 555 357 * 0;
#X obj 513 357 * 0.65;
#X obj 602 395 / 90;
#X obj 602 374 * 24.3;
#X obj 647 284 iem_atan2;
#X obj 664 260 swap;
#X obj 380 319 moses 0.75;
#X obj 435 343 - 0.75;
#X obj 435 365 * 4;
#X connect 0 0 7 0;
#X connect 2 0 6 0;
#X connect 6 0 9 0;
#X connect 6 1 10 0;
#X connect 6 2 12 0;
#X connect 7 0 45 0;
#X connect 7 1 46 0;
#X connect 7 2 47 0;
#X connect 8 0 45 0;
#X connect 8 1 45 1;
#X connect 9 0 8 0;
#X connect 10 0 11 0;
#X connect 11 0 46 0;
#X connect 11 1 46 1;
#X connect 12 0 47 0;
#X connect 12 1 47 1;
#X connect 13 0 4 0;
#X connect 14 0 42 0;
#X connect 14 1 40 0;
#X connect 14 2 36 0;
#X connect 15 0 13 2;
#X connect 15 0 44 1;
#X connect 16 0 22 0;
#X connect 16 1 29 0;
#X connect 16 2 25 0;
#X connect 17 0 13 1;
#X connect 17 0 13 3;
#X connect 18 0 13 4;
#X connect 19 0 18 0;
#X connect 20 0 21 0;
#X connect 21 0 13 4;
#X connect 22 0 17 0;
#X connect 23 0 24 0;
#X connect 24 0 26 0;
#X connect 25 0 23 0;
#X connect 26 0 13 1;
#X connect 27 0 28 0;
#X connect 28 0 13 3;
#X connect 29 0 30 0;
#X connect 30 0 27 0;
#X connect 31 0 16 0;
#X connect 32 0 77 0;
#X connect 33 0 14 0;
#X connect 34 0 35 0;
#X connect 35 0 37 0;
#X connect 36 0 34 0;
#X connect 37 0 44 1;
#X connect 38 0 39 0;
#X connect 39 0 13 2;
#X connect 40 0 41 0;
#X connect 41 0 38 0;
#X connect 42 0 15 0;
#X connect 43 0 44 0;
#X connect 43 1 33 0;
#X connect 44 0 13 0;
#X connect 45 0 43 0;
#X connect 45 0 55 0;
#X connect 46 0 31 0;
#X connect 46 0 54 0;
#X connect 47 0 32 0;
#X connect 48 0 49 0;
#X connect 49 0 52 1;
#X connect 50 0 51 0;
#X connect 51 0 52 0;
#X connect 52 0 53 0;
#X connect 53 0 70 0;
#X connect 54 0 48 0;
#X connect 54 1 76 1;
#X connect 55 0 50 0;
#X connect 55 1 76 0;
#X connect 56 0 59 0;
#X connect 59 0 63 0;
#X connect 60 0 61 0;
#X connect 61 0 65 0;
#X connect 62 0 56 0;
#X connect 63 0 64 0;
#X connect 65 0 63 1;
#X connect 66 0 67 0;
#X connect 67 0 68 0;
#X connect 68 0 74 0;
#X connect 69 0 62 0;
#X connect 70 0 72 0;
#X connect 70 1 71 0;
#X connect 71 0 69 1;
#X connect 72 0 69 0;
#X connect 73 0 71 1;
#X connect 74 0 73 0;
#X connect 75 0 66 0;
#X connect 75 0 60 0;
#X connect 76 0 75 0;
#X connect 76 1 75 1;
#X connect 77 0 19 0;
#X connect 77 1 78 0;
#X connect 78 0 79 0;
#X connect 79 0 20 0;
#X restore 786 345 pd forward_dominance;
#N canvas 0 0 532 582 power_normalize 0;
#X obj 64 28 inlet;
#X obj 29 508 outlet;
#X obj 174 74 unpack 0 0 0 0 0;
#X msg 265 180 \$1 \$1;
#X obj 265 200 *;
#X obj 252 220 +;
#X msg 242 159 \$1 \$1;
#X obj 242 179 *;
#X msg 219 139 \$1 \$1;
#X obj 219 159 *;
#X msg 196 119 \$1 \$1;
#X obj 196 139 *;
#X msg 174 99 \$1 \$1;
#X obj 174 119 *;
#X obj 239 240 +;
#X obj 226 260 +;
#X obj 213 280 +;
#X obj 64 52 t l l;
#X obj 29 114 unpack 0 0 0 0 0;
#X obj 213 323 /;
#X msg 213 302 5 \$1;
#X obj 213 344 sqrt;
#X obj 120 220 *;
#X obj 97 199 *;
#X obj 74 179 *;
#X obj 51 159 *;
#X obj 29 139 *;
#X obj 29 482 pack 0 0 0 0 0;
#X obj 120 450 *;
#X obj 97 429 *;
#X obj 74 409 *;
#X obj 51 389 *;
#X obj 29 369 *;
#X obj 374 47 inlet;
#X text 373 25 lin. gain;
#X obj 35 328 t b f b f b f b f b f;
#X connect 0 0 17 0;
#X connect 2 0 12 0;
#X connect 2 1 10 0;
#X connect 2 2 8 0;
#X connect 2 3 6 0;
#X connect 2 4 3 0;
#X connect 3 0 4 0;
#X connect 4 0 5 1;
#X connect 5 0 14 1;
#X connect 6 0 7 0;
#X connect 7 0 5 0;
#X connect 8 0 9 0;
#X connect 9 0 14 0;
#X connect 10 0 11 0;
#X connect 11 0 15 0;
#X connect 12 0 13 0;
#X connect 13 0 16 0;
#X connect 14 0 15 1;
#X connect 15 0 16 1;
#X connect 16 0 20 0;
#X connect 17 0 18 0;
#X connect 17 1 2 0;
#X connect 18 0 26 0;
#X connect 18 1 25 0;
#X connect 18 2 24 0;
#X connect 18 3 23 0;
#X connect 18 4 22 0;
#X connect 19 0 21 0;
#X connect 20 0 19 0;
#X connect 21 0 26 1;
#X connect 21 0 25 1;
#X connect 21 0 24 1;
#X connect 21 0 23 1;
#X connect 21 0 22 1;
#X connect 22 0 28 0;
#X connect 23 0 29 0;
#X connect 24 0 30 0;
#X connect 25 0 31 0;
#X connect 26 0 32 0;
#X connect 27 0 1 0;
#X connect 28 0 27 4;
#X connect 29 0 27 3;
#X connect 30 0 27 2;
#X connect 31 0 27 1;
#X connect 32 0 27 0;
#X connect 33 0 35 0;
#X connect 35 0 32 0;
#X connect 35 1 32 1;
#X connect 35 2 31 0;
#X connect 35 3 31 1;
#X connect 35 4 30 0;
#X connect 35 5 30 1;
#X connect 35 6 29 0;
#X connect 35 7 29 1;
#X connect 35 8 28 0;
#X connect 35 9 28 1;
#X restore 786 373 pd power_normalize;
#X obj 849 212 dbtorms;
#X obj 786 397 pp gain;
#X obj 37 109 unpack f f f f f;
#X obj 15 472 +~;
#X obj 48 471 +~;
#X obj 81 471 +~;
#X obj 114 471 +~;
#X obj 147 472 +~;
#X obj 180 471 +~;
#X obj 213 471 +~;
#X obj 246 471 +~;
#X obj 280 471 +~;
#X obj 311 471 +~;
#X obj 344 471 +~;
#X obj 377 472 +~;
#X obj 410 471 +~;
#X obj 443 471 +~;
#X obj 476 471 +~;
#X obj 510 471 +~;
#X msg 37 228 1 -20 0 \, 2 -20 90 \, 3 -20 180 \, 4 -20 270;
#X obj 223 91 bng 15 250 50 0 empty empty empty 0 -6 0 8 -262144 -1
-1;
#X obj 914 441 ambi_encode 3;
#X obj 914 417 pp col 1;
#X obj 664 187 pp time;
#X obj 664 165 r \$0-interpol;
#X obj 1065 310 r \$0-ambi_weight;
#X obj 1065 366 pack 1 1 1 0.5;
#X obj 1065 389 pp ambi_weight;
#X obj 1065 335 unpack f f f f f;
#X obj 941 356 loadbang;
#X msg 941 377 90 0;
#X obj 969 274 loadbang;
#X msg 999 326 1 1 1 0.5;
#X obj 1031 273 bng 15 250 50 0 empty empty empty 0 -6 0 8 -262144
-1 -1;
#X obj 963 150 route size absorption_coeff cutoff_freq sonic_speed
;
#X obj 1024 174 pp absorption;
#X msg 798 169 stop;
#X obj 167 442 encode_diffuse_3o_3d_rev10~ ________________________________
;
#X obj 733 195 del 5000;
#X connect 1 0 105 0;
#X connect 5 0 106 0;
#X connect 6 0 107 0;
#X connect 7 0 108 0;
#X connect 8 0 109 0;
#X connect 9 0 110 0;
#X connect 10 0 111 0;
#X connect 11 0 112 0;
#X connect 12 0 113 0;
#X connect 13 0 114 0;
#X connect 14 0 115 0;
#X connect 15 0 116 0;
#X connect 16 0 117 0;
#X connect 17 0 118 0;
#X connect 18 0 119 0;
#X connect 19 0 120 0;
#X connect 32 0 35 0;
#X connect 33 0 139 5;
#X connect 34 0 139 5;
#X connect 35 0 139 6;
#X connect 36 0 139 5;
#X connect 37 0 38 0;
#X connect 37 1 38 1;
#X connect 37 2 38 2;
#X connect 38 0 41 0;
#X connect 38 0 100 1;
#X connect 39 0 36 0;
#X connect 40 0 68 0;
#X connect 41 0 139 5;
#X connect 42 0 43 0;
#X connect 44 0 45 0;
#X connect 46 0 47 0;
#X connect 48 0 49 0;
#X connect 50 0 51 0;
#X connect 52 0 53 0;
#X connect 54 0 55 0;
#X connect 56 0 57 0;
#X connect 58 0 59 0;
#X connect 60 0 139 0;
#X connect 61 0 139 1;
#X connect 62 0 139 2;
#X connect 63 0 139 3;
#X connect 68 0 121 0;
#X connect 68 1 91 0;
#X connect 71 0 99 0;
#X connect 73 0 102 0;
#X connect 74 0 140 0;
#X connect 74 1 75 0;
#X connect 75 0 77 0;
#X connect 75 0 138 0;
#X connect 76 0 36 0;
#X connect 77 0 36 0;
#X connect 84 0 74 0;
#X connect 84 0 102 0;
#X connect 84 1 85 0;
#X connect 86 0 104 0;
#X connect 87 0 89 0;
#X connect 89 0 121 0;
#X connect 89 1 90 0;
#X connect 90 0 35 0;
#X connect 91 0 90 0;
#X connect 92 0 139 4;
#X connect 96 0 97 0;
#X connect 96 1 97 1;
#X connect 96 2 97 2;
#X connect 97 0 100 0;
#X connect 98 0 96 0;
#X connect 99 0 98 0;
#X connect 99 1 84 0;
#X connect 99 2 136 0;
#X connect 99 3 70 0;
#X connect 100 0 101 0;
#X connect 100 1 124 0;
#X connect 101 0 103 0;
#X connect 102 0 101 1;
#X connect 103 0 139 5;
#X connect 104 0 87 0;
#X connect 104 1 87 1;
#X connect 104 2 87 2;
#X connect 104 3 87 3;
#X connect 105 0 0 0;
#X connect 106 0 2 0;
#X connect 107 0 3 0;
#X connect 108 0 4 0;
#X connect 109 0 20 0;
#X connect 110 0 21 0;
#X connect 111 0 22 0;
#X connect 112 0 23 0;
#X connect 113 0 24 0;
#X connect 114 0 25 0;
#X connect 115 0 26 0;
#X connect 116 0 27 0;
#X connect 117 0 28 0;
#X connect 118 0 29 0;
#X connect 119 0 30 0;
#X connect 120 0 31 0;
#X connect 121 0 32 0;
#X connect 122 0 68 0;
#X connect 123 0 139 7;
#X connect 124 0 123 0;
#X connect 125 0 139 7;
#X connect 126 0 125 0;
#X connect 127 0 130 0;
#X connect 128 0 129 0;
#X connect 129 0 123 0;
#X connect 130 0 128 0;
#X connect 130 1 128 1;
#X connect 130 2 128 2;
#X connect 130 3 128 3;
#X connect 131 0 132 0;
#X connect 132 0 124 0;
#X connect 133 0 134 0;
#X connect 134 0 129 0;
#X connect 135 0 134 0;
#X connect 136 0 37 0;
#X connect 136 1 137 0;
#X connect 136 2 33 0;
#X connect 136 3 34 0;
#X connect 137 0 139 5;
#X connect 138 0 140 0;
#X connect 139 0 105 1;
#X connect 139 1 106 1;
#X connect 139 2 107 1;
#X connect 139 3 108 1;
#X connect 139 4 109 1;
#X connect 139 5 110 1;
#X connect 139 6 111 1;
#X connect 139 7 112 1;
#X connect 139 8 113 1;
#X connect 139 9 114 1;
#X connect 139 10 115 1;
#X connect 139 11 116 1;
#X connect 139 12 117 1;
#X connect 139 13 118 1;
#X connect 139 14 119 1;
#X connect 139 15 120 1;
#X connect 140 0 76 0;
