#N canvas 21 8 944 683 10;
#X obj 17 587 outlet~;
#X obj 17 29 inlet~;
#X obj 17 563 +~;
#X obj 41 587 outlet~;
#X obj 41 563 +~;
#X obj 65 587 outlet~;
#X obj 65 563 +~;
#X obj 89 587 outlet~;
#X obj 89 563 +~;
#X obj 41 29 inlet~;
#X obj 65 29 inlet~;
#X obj 89 29 inlet~;
#X obj 113 29 inlet~;
#X obj 113 563 +~;
#X obj 137 563 +~;
#X obj 161 563 +~;
#X obj 185 563 +~;
#X obj 137 29 inlet~;
#X obj 161 29 inlet~;
#X obj 185 29 inlet~;
#X obj 209 29 inlet~;
#X obj 209 563 +~;
#X obj 233 563 +~;
#X obj 257 563 +~;
#X obj 281 563 +~;
#X obj 233 29 inlet~;
#X obj 257 29 inlet~;
#X obj 281 29 inlet~;
#X obj 305 29 inlet~;
#X obj 305 563 +~;
#X obj 329 563 +~;
#X obj 353 563 +~;
#X obj 377 563 +~;
#X obj 329 29 inlet~;
#X obj 353 29 inlet~;
#X obj 377 29 inlet~;
#X obj 113 587 outlet~;
#X obj 137 587 outlet~;
#X obj 161 587 outlet~;
#X obj 185 587 outlet~;
#X obj 209 587 outlet~;
#X obj 233 587 outlet~;
#X obj 257 587 outlet~;
#X obj 281 587 outlet~;
#X obj 305 587 outlet~;
#X obj 329 587 outlet~;
#X obj 353 587 outlet~;
#X obj 377 587 outlet~;
#X obj 401 563 +~;
#X obj 401 29 inlet~;
#X obj 425 29 inlet~;
#X obj 425 563 +~;
#X obj 449 563 +~;
#X obj 473 563 +~;
#X obj 497 563 +~;
#X obj 449 29 inlet~;
#X obj 473 29 inlet~;
#X obj 497 29 inlet~;
#X obj 521 29 inlet~;
#X obj 521 563 +~;
#X obj 545 563 +~;
#X obj 569 563 +~;
#X obj 593 563 +~;
#X obj 545 29 inlet~;
#X obj 569 29 inlet~;
#X obj 593 29 inlet~;
#X obj 401 587 outlet~;
#X obj 425 587 outlet~;
#X obj 449 587 outlet~;
#X obj 473 587 outlet~;
#X obj 497 587 outlet~;
#X obj 521 587 outlet~;
#X obj 545 587 outlet~;
#X obj 569 587 outlet~;
#X obj 593 587 outlet~;
#X text 23 609 A0;
#X text 27 12 A0;
#X obj 290 206 pp col;
#X text 1123 11 src_in;
#X obj 1120 29 inlet~;
#X obj 1542 132 s \$0-interpol;
#X obj 48 227 mull~ 1 50;
#X obj 103 205 r \$0-interpol;
#X obj 1450 319 s \$0-direct_gain;
#X obj 403 227 r \$0-interpol;
#X obj 1305 370 cart2del_damp_3d;
#X obj 1566 246 pp sonic_speed;
#X text 84 617 1.arg: <float> source-INDEX (1 .. N);
#X obj 1467 133 pp r_ambi;
#X obj 75 140 r \$0-direct_damp;
#X obj 17 533 +~;
#X obj 41 533 +~;
#X obj 65 533 +~;
#X obj 89 533 +~;
#X obj 113 533 +~;
#X obj 137 533 +~;
#X obj 161 533 +~;
#X obj 185 533 +~;
#X obj 209 533 +~;
#X obj 233 533 +~;
#X obj 257 533 +~;
#X obj 281 533 +~;
#X obj 305 533 +~;
#X obj 329 533 +~;
#X obj 353 533 +~;
#X obj 377 533 +~;
#X obj 401 533 +~;
#X obj 425 533 +~;
#X obj 449 533 +~;
#X obj 473 533 +~;
#X obj 497 533 +~;
#X obj 521 533 +~;
#X obj 545 533 +~;
#X obj 569 533 +~;
#X obj 593 533 +~;
#X obj 1298 578 s \$0-direct_del;
#X obj 1336 532 s \$0-early1_del;
#X obj 1305 391 route direct early1 early2;
#X obj 1401 415 route del damp index_theta_phi;
#X obj 1352 483 route del damp index_theta_phi;
#X obj 1298 555 route del damp index_theta_phi;
#X obj 1421 578 s \$0-direct_index_theta_phi;
#X obj 1538 483 s \$0-early1_index_theta_phi;
#X obj 1589 415 s \$0-early2_index_theta_phi;
#X obj 290 184 r \$0-direct_index_theta_phi;
#X obj 1223 589 outlet;
#X obj 1250 201 pp head_xyz;
#X obj 1339 345 pp src_xyz;
#X obj 1328 212 unpack 0 0 0;
#X obj 1339 301 unpack 0 0 0;
#X obj 1339 323 pack 0 0 1.7;
#X obj 1328 233 pack 0 0 3;
#X obj 1328 255 pp room_dim;
#X obj 1552 319 s \$0-gain_early1;
#X obj 1655 318 s \$0-gain_early2;
#X obj 90 161 r \$0-direct_gain;
#X obj 1250 158 unpack 0 0 0;
#X obj 1250 180 pack 0 0 1.7;
#X obj 1348 89 route \$1 0;
#X obj 969 29 inlet~;
#X obj 993 29 inlet~;
#X obj 1017 29 inlet~;
#X obj 1041 29 inlet~;
#X obj 970 534 +~;
#X obj 994 534 +~;
#X obj 1018 534 +~;
#X obj 1042 534 +~;
#X obj 970 587 outlet~;
#X obj 994 587 outlet~;
#X obj 1018 587 outlet~;
#X obj 1042 587 outlet~;
#X obj 1222 31 inlet;
#X obj 1552 298 dbtorms;
#X obj 1445 270 route position direct_gain early1_gain early2_gain
;
#X obj 1655 297 dbtorms;
#X obj 1450 298 dbtorms;
#X text 1308 35 ambisonic_radius;
#X text 1309 47 = minimum-radius between source and listener;
#X obj 1130 587 outlet;
#X text 1131 604 dummy;
#X obj 1250 64 route listener source room ambi_radius interpol_time
;
#X text 1224 15 parameters;
#X text 1229 615 out;
#X text 1224 606 para;
#X obj 1797 352 init 1;
#X obj 1250 138 route position;
#X obj 1086 201 noise~;
#X obj 1086 223 *~ 1e-015;
#X text 1087 176 dithering-noise;
#X text 1086 184 against denormals;
#X obj 970 563 +~;
#X obj 994 563 +~;
#X obj 1018 563 +~;
#X obj 1042 563 +~;
#X text 300 617 (stat \, dyn \, doppless) (default: doppless);
#X obj 1066 29 inlet~;
#X obj 1067 534 +~;
#X obj 1067 587 outlet~;
#X obj 1067 563 +~;
#X text 977 11 5 earlies for reverb in;
#X text 972 614 5 earlies for reverb out;
#X obj 75 203 *;
#X obj 90 181 t b f;
#N canvas 0 0 478 328 delwrite_orderforce~ 0;
#X obj 61 31 inlet~;
#X obj 40 143 outlet~;
#X obj 62 72 delwrite~ \$0-direct 500;
#X connect 0 0 2 0;
#X connect 0 0 1 0;
#X restore 47 77 pd delwrite_orderforce~;
#X obj 246 79 r \$0-interpol;
#X obj 141 98 r \$0-direct_del;
#X text 83 645 3.arg: <symbol> delay-interpolation-mode;
#X text 84 632 2.arg: <float> multiplication-factor of delay-interpolation
;
#X text 439 632 -time (default: 1);
#X obj 1110 318 init \$2;
#X obj 1110 339 default 1;
#X obj 1110 359 s \$0-del_mul_fact_interpol;
#X obj 269 99 r \$0-del_mul_fact_interpol;
#X obj 270 121 t b f;
#X obj 246 120 *;
#X obj 48 119 \$3_delread_orderforce~ \$0-direct;
#X obj 336 304 r \$0-interpol;
#X obj 211 284 r \$0-switch_early1;
#X obj 231 304 r \$0-early1_damp;
#X obj 252 324 r \$0-early1_del;
#X obj 326 284 r \$0-early1_index_theta_phi;
#X obj 1599 508 r \$0-gain_early1;
#X obj 350 323 r \$0-del_mul_fact_interpol;
#X obj 1215 426 sel doppless;
#X obj 1215 404 symbol \$3;
#X obj 1282 447 t b;
#X msg 1282 468 0;
#X msg 1215 453 1;
#X obj 1215 383 loadbang;
#X obj 1222 502 * 1;
#X obj 1348 166 dbtorms;
#X obj 1348 135 route gain;
#X obj 1348 188 s \$0-src_gain;
#X obj 512 234 lp1~ 1000 50;
#X obj 1103 132 +~;
#X obj 17 503 +~;
#X obj 41 503 +~;
#X obj 65 503 +~;
#X obj 89 503 +~;
#X obj 113 503 +~;
#X obj 137 503 +~;
#X obj 161 503 +~;
#X obj 185 503 +~;
#X obj 209 503 +~;
#X obj 233 503 +~;
#X obj 257 503 +~;
#X obj 281 503 +~;
#X obj 305 503 +~;
#X obj 329 503 +~;
#X obj 353 503 +~;
#X obj 377 503 +~;
#X obj 401 503 +~;
#X obj 425 503 +~;
#X obj 449 503 +~;
#X obj 473 503 +~;
#X obj 497 503 +~;
#X obj 521 503 +~;
#X obj 545 503 +~;
#X obj 569 503 +~;
#X obj 593 503 +~;
#X obj 970 504 +~;
#X obj 994 504 +~;
#X obj 1018 504 +~;
#X obj 1042 504 +~;
#X obj 1067 504 +~;
#X obj 331 412 r \$0-interpol;
#X obj 336 433 r \$0-del_mul_fact_interpol;
#X obj 205 393 r \$0-switch_early2;
#X obj 1639 438 r \$0-gain_early2;
#X obj 218 413 r \$0-early2_damp;
#X obj 236 431 r \$0-early2_del;
#X obj 319 393 r \$0-early2_index_theta_phi;
#X obj 1102 110 mull~ 1 50;
#X obj 1157 88 r \$0-interpol;
#X obj 1128 68 r \$0-src_gain;
#X obj 1471 390 s \$0-switch_direct;
#X obj 1588 390 s \$0-switch_early1;
#X obj 1704 390 s \$0-switch_early2;
#X obj 1704 369 * 1;
#X obj 1589 369 * 1;
#X obj 166 228 r \$0-switch_direct;
#X obj 1174 308 prvu~;
#X msg 1191 268 reset;
#X msg 1262 268 start;
#X msg 1229 268 stop;
#X obj 1198 247 t b b;
#X obj 1542 111 spigot;
#X obj 1467 113 spigot;
#X obj 1250 115 spigot;
#X obj 1339 278 spigot;
#X obj 1613 48 init 1;
#X obj 1613 75 f;
#X obj 1471 368 * 1;
#X obj 1783 185 t b f;
#X obj 1657 245 s \$0-dist_exp;
#X obj 1357 621 s \$0-direct_damp;
#X obj 1436 529 s \$0-early1_damp;
#X obj 1479 458 s \$0-early2_damp;
#X obj 1514 508 r \$0-dist_exp;
#X obj 1357 600 pow 1;
#X obj 1428 600 r \$0-dist_exp;
#X obj 1333 600 f;
#X obj 1392 600 t b f;
#X obj 1557 438 r \$0-dist_exp;
#X obj 1434 165 route size absorption_coeff cutoff_freq sonic_speed
distance_exponent;
#X obj 1439 223 s \$0-reflection_low;
#X obj 1560 223 s \$0-reflection_mid;
#X obj 1680 223 s \$0-reflection_high;
#X obj 608 192 r \$0-reflection_low;
#X obj 619 213 r \$0-reflection_mid;
#X obj 629 236 r \$0-reflection_high;
#X obj 513 260 hml_shelf~ -2 450 -4 3500 -6 50;
#X obj 514 311 hml_shelf~ -2 450 -4 3500 -6 50;
#N canvas 0 0 374 280 calc_reflection_cutoff 0;
#X obj 76 45 route low mid high;
#X obj 76 22 inlet;
#X obj 44 199 outlet;
#X obj 106 199 outlet;
#X obj 166 200 outlet;
#X obj 50 82 clip 0 1;
#X msg 50 103 1 \$1;
#X obj 50 123 -;
#X obj 109 82 clip 0 1;
#X msg 109 103 1 \$1;
#X obj 109 123 -;
#X obj 169 82 clip 0 1;
#X msg 169 103 1 \$1;
#X obj 169 123 -;
#X obj 49 157 v2db;
#X obj 106 155 v2db;
#X obj 168 152 v2db;
#X connect 0 0 5 0;
#X connect 0 1 8 0;
#X connect 0 2 11 0;
#X connect 1 0 0 0;
#X connect 5 0 6 0;
#X connect 6 0 7 0;
#X connect 7 0 14 0;
#X connect 8 0 9 0;
#X connect 9 0 10 0;
#X connect 10 0 15 0;
#X connect 11 0 12 0;
#X connect 12 0 13 0;
#X connect 13 0 16 0;
#X connect 14 0 2 0;
#X connect 15 0 3 0;
#X connect 16 0 4 0;
#X restore 1494 199 pd calc_reflection_cutoff;
#X obj 1382 458 s \$0-early2_del;
#X obj 651 167 r \$0-interpol;
#X obj 513 284 lp1~ 1000 50;
#X obj 1489 247 s \$0-cutoff;
#X obj 562 169 r \$0-cutoff;
#X obj 1763 162 gain2switch;
#X obj 1208 225 sel 0 1;
#X obj 1704 347 gain2switch;
#X obj 1589 347 gain2switch;
#X obj 1471 347 gain2switch;
#X obj 1336 511 list_sub;
#X obj 1479 438 list_pow_mul;
#X obj 1436 508 list_pow_mul;
#X obj 1382 437 list_sub;
#X obj 1130 560 pp vu src \$1;
#X obj 617 563 +~;
#X obj 641 563 +~;
#X obj 617 29 inlet~;
#X obj 641 29 inlet~;
#X obj 617 587 outlet~;
#X obj 641 587 outlet~;
#X obj 665 563 +~;
#X obj 665 29 inlet~;
#X obj 689 29 inlet~;
#X obj 689 563 +~;
#X obj 713 563 +~;
#X obj 737 563 +~;
#X obj 761 563 +~;
#X obj 713 29 inlet~;
#X obj 737 29 inlet~;
#X obj 761 29 inlet~;
#X obj 785 29 inlet~;
#X obj 785 563 +~;
#X obj 809 563 +~;
#X obj 833 563 +~;
#X obj 857 563 +~;
#X obj 809 29 inlet~;
#X obj 833 29 inlet~;
#X obj 857 29 inlet~;
#X obj 665 587 outlet~;
#X obj 689 587 outlet~;
#X obj 713 587 outlet~;
#X obj 737 587 outlet~;
#X obj 761 587 outlet~;
#X obj 785 587 outlet~;
#X obj 809 587 outlet~;
#X obj 833 587 outlet~;
#X obj 857 587 outlet~;
#X obj 617 533 +~;
#X obj 641 533 +~;
#X obj 665 533 +~;
#X obj 689 533 +~;
#X obj 713 533 +~;
#X obj 737 533 +~;
#X obj 761 533 +~;
#X obj 785 533 +~;
#X obj 809 533 +~;
#X obj 833 533 +~;
#X obj 857 533 +~;
#X obj 617 503 +~;
#X obj 641 503 +~;
#X obj 665 503 +~;
#X obj 689 503 +~;
#X obj 713 503 +~;
#X obj 737 503 +~;
#X obj 761 503 +~;
#X obj 785 503 +~;
#X obj 809 503 +~;
#X obj 833 503 +~;
#X obj 857 503 +~;
#X text 876 11 K5;
#X text 874 613 K5;
#X obj 48 251 \$3_direct_encode_5o_3d~ ____________________________________
;
#X obj 87 349 \$3_early1_encode_5o_3d~ ____________________________________
;
#X obj 97 463 \$3_early2_encode_5o_3d~ ____________________________________
;
#X obj 290 227 ambi_encode 5;
#X connect 1 0 215 0;
#X connect 2 0 0 0;
#X connect 4 0 3 0;
#X connect 6 0 5 0;
#X connect 8 0 7 0;
#X connect 9 0 216 0;
#X connect 10 0 217 0;
#X connect 11 0 218 0;
#X connect 12 0 219 0;
#X connect 13 0 36 0;
#X connect 14 0 37 0;
#X connect 15 0 38 0;
#X connect 16 0 39 0;
#X connect 17 0 220 0;
#X connect 18 0 221 0;
#X connect 19 0 222 0;
#X connect 20 0 223 0;
#X connect 21 0 40 0;
#X connect 22 0 41 0;
#X connect 23 0 42 0;
#X connect 24 0 43 0;
#X connect 25 0 224 0;
#X connect 26 0 225 0;
#X connect 27 0 226 0;
#X connect 28 0 227 0;
#X connect 29 0 44 0;
#X connect 30 0 45 0;
#X connect 31 0 46 0;
#X connect 32 0 47 0;
#X connect 33 0 228 0;
#X connect 34 0 229 0;
#X connect 35 0 230 0;
#X connect 48 0 66 0;
#X connect 49 0 231 0;
#X connect 50 0 232 0;
#X connect 51 0 67 0;
#X connect 52 0 68 0;
#X connect 53 0 69 0;
#X connect 54 0 70 0;
#X connect 55 0 233 0;
#X connect 56 0 234 0;
#X connect 57 0 235 0;
#X connect 58 0 236 0;
#X connect 59 0 71 0;
#X connect 60 0 72 0;
#X connect 61 0 73 0;
#X connect 62 0 74 0;
#X connect 63 0 237 0;
#X connect 64 0 238 0;
#X connect 65 0 239 0;
#X connect 77 0 369 0;
#X connect 79 0 252 0;
#X connect 81 0 366 0;
#X connect 82 0 81 2;
#X connect 84 0 366 3;
#X connect 85 0 117 0;
#X connect 86 0 85 0;
#X connect 88 0 85 0;
#X connect 89 0 181 0;
#X connect 90 0 2 0;
#X connect 91 0 4 0;
#X connect 92 0 6 0;
#X connect 93 0 8 0;
#X connect 94 0 13 0;
#X connect 95 0 14 0;
#X connect 96 0 15 0;
#X connect 97 0 16 0;
#X connect 98 0 21 0;
#X connect 99 0 22 0;
#X connect 100 0 23 0;
#X connect 101 0 24 0;
#X connect 102 0 29 0;
#X connect 103 0 30 0;
#X connect 104 0 31 0;
#X connect 105 0 32 0;
#X connect 106 0 48 0;
#X connect 107 0 51 0;
#X connect 108 0 52 0;
#X connect 109 0 53 0;
#X connect 110 0 54 0;
#X connect 111 0 59 0;
#X connect 112 0 60 0;
#X connect 113 0 61 0;
#X connect 114 0 62 0;
#X connect 117 0 120 0;
#X connect 117 1 119 0;
#X connect 117 2 118 0;
#X connect 118 0 307 0;
#X connect 118 1 305 0;
#X connect 118 2 123 0;
#X connect 119 0 304 0;
#X connect 119 1 306 0;
#X connect 119 2 122 0;
#X connect 120 0 115 0;
#X connect 120 0 209 0;
#X connect 120 1 281 0;
#X connect 120 2 121 0;
#X connect 124 0 77 0;
#X connect 126 0 85 0;
#X connect 127 0 85 0;
#X connect 128 0 131 0;
#X connect 128 1 131 1;
#X connect 128 2 131 2;
#X connect 129 0 130 0;
#X connect 129 1 130 1;
#X connect 129 2 130 2;
#X connect 130 0 127 0;
#X connect 131 0 132 0;
#X connect 132 0 85 0;
#X connect 135 0 182 0;
#X connect 136 0 137 0;
#X connect 136 1 137 1;
#X connect 136 2 137 2;
#X connect 137 0 126 0;
#X connect 138 0 211 0;
#X connect 138 1 153 0;
#X connect 139 0 240 0;
#X connect 140 0 241 0;
#X connect 141 0 242 0;
#X connect 142 0 243 0;
#X connect 143 0 170 0;
#X connect 144 0 171 0;
#X connect 145 0 172 0;
#X connect 146 0 173 0;
#X connect 151 0 125 0;
#X connect 151 0 160 0;
#X connect 152 0 133 0;
#X connect 153 0 269 0;
#X connect 153 1 155 0;
#X connect 153 1 303 0;
#X connect 153 2 152 0;
#X connect 153 2 302 0;
#X connect 153 3 154 0;
#X connect 153 3 301 0;
#X connect 154 0 134 0;
#X connect 155 0 83 0;
#X connect 160 0 268 0;
#X connect 160 1 138 0;
#X connect 160 2 284 0;
#X connect 160 3 267 0;
#X connect 160 4 266 0;
#X connect 164 0 258 0;
#X connect 164 0 259 0;
#X connect 164 0 272 0;
#X connect 165 0 136 0;
#X connect 166 0 167 0;
#X connect 167 0 170 1;
#X connect 167 0 171 1;
#X connect 167 0 172 1;
#X connect 167 0 173 1;
#X connect 167 0 178 1;
#X connect 167 0 214 1;
#X connect 170 0 147 0;
#X connect 171 0 148 0;
#X connect 172 0 149 0;
#X connect 173 0 150 0;
#X connect 175 0 244 0;
#X connect 176 0 178 0;
#X connect 178 0 177 0;
#X connect 181 0 81 1;
#X connect 182 0 181 0;
#X connect 182 1 181 1;
#X connect 183 0 195 0;
#X connect 184 0 194 0;
#X connect 185 0 195 1;
#X connect 189 0 190 0;
#X connect 190 0 191 0;
#X connect 192 0 193 0;
#X connect 193 0 194 0;
#X connect 193 1 194 1;
#X connect 194 0 195 2;
#X connect 195 0 81 0;
#X connect 196 0 367 5;
#X connect 197 0 367 1;
#X connect 198 0 367 2;
#X connect 199 0 367 3;
#X connect 200 0 367 4;
#X connect 201 0 306 2;
#X connect 202 0 367 6;
#X connect 203 0 207 0;
#X connect 203 1 205 0;
#X connect 204 0 203 0;
#X connect 205 0 206 0;
#X connect 206 0 209 1;
#X connect 207 0 209 1;
#X connect 208 0 204 0;
#X connect 209 0 304 1;
#X connect 209 0 307 1;
#X connect 210 0 212 0;
#X connect 211 0 210 0;
#X connect 211 0 299 0;
#X connect 211 1 153 0;
#X connect 213 0 291 0;
#X connect 214 0 213 0;
#X connect 214 0 261 0;
#X connect 214 0 183 0;
#X connect 215 0 90 0;
#X connect 216 0 91 0;
#X connect 217 0 92 0;
#X connect 218 0 93 0;
#X connect 219 0 94 0;
#X connect 220 0 95 0;
#X connect 221 0 96 0;
#X connect 222 0 97 0;
#X connect 223 0 98 0;
#X connect 224 0 99 0;
#X connect 225 0 100 0;
#X connect 226 0 101 0;
#X connect 227 0 102 0;
#X connect 228 0 103 0;
#X connect 229 0 104 0;
#X connect 230 0 105 0;
#X connect 231 0 106 0;
#X connect 232 0 107 0;
#X connect 233 0 108 0;
#X connect 234 0 109 0;
#X connect 235 0 110 0;
#X connect 236 0 111 0;
#X connect 237 0 112 0;
#X connect 238 0 113 0;
#X connect 239 0 114 0;
#X connect 240 0 143 0;
#X connect 241 0 144 0;
#X connect 242 0 145 0;
#X connect 243 0 146 0;
#X connect 244 0 176 0;
#X connect 245 0 368 5;
#X connect 246 0 368 6;
#X connect 247 0 368 1;
#X connect 248 0 305 2;
#X connect 249 0 368 2;
#X connect 250 0 368 3;
#X connect 251 0 368 4;
#X connect 252 0 214 0;
#X connect 253 0 252 2;
#X connect 254 0 252 1;
#X connect 258 0 257 0;
#X connect 259 0 256 0;
#X connect 260 0 366 1;
#X connect 261 0 308 0;
#X connect 262 0 261 0;
#X connect 263 0 261 0;
#X connect 264 0 261 0;
#X connect 265 0 262 0;
#X connect 265 1 264 0;
#X connect 266 0 80 0;
#X connect 267 0 88 0;
#X connect 268 0 165 0;
#X connect 269 0 129 0;
#X connect 270 0 271 0;
#X connect 271 0 266 1;
#X connect 271 0 267 1;
#X connect 271 0 268 1;
#X connect 271 0 269 1;
#X connect 272 0 255 0;
#X connect 273 0 272 0;
#X connect 273 0 259 0;
#X connect 273 0 258 0;
#X connect 273 1 272 1;
#X connect 273 1 259 1;
#X connect 273 1 258 1;
#X connect 278 0 306 1;
#X connect 279 0 275 0;
#X connect 280 0 282 0;
#X connect 281 0 279 0;
#X connect 282 0 281 0;
#X connect 282 1 279 1;
#X connect 283 0 305 1;
#X connect 284 0 128 0;
#X connect 284 1 293 0;
#X connect 284 2 297 0;
#X connect 284 3 86 0;
#X connect 284 4 274 0;
#X connect 288 0 291 1;
#X connect 288 0 292 1;
#X connect 289 0 291 3;
#X connect 289 0 292 3;
#X connect 290 0 291 5;
#X connect 290 0 292 5;
#X connect 291 0 296 0;
#X connect 291 0 367 0;
#X connect 292 0 368 0;
#X connect 293 0 285 0;
#X connect 293 1 286 0;
#X connect 293 2 287 0;
#X connect 295 0 213 2;
#X connect 295 0 291 6;
#X connect 295 0 296 2;
#X connect 295 0 292 6;
#X connect 296 0 292 0;
#X connect 298 0 213 1;
#X connect 298 0 296 1;
#X connect 299 0 300 0;
#X connect 299 0 273 0;
#X connect 299 0 271 0;
#X connect 300 0 265 0;
#X connect 300 1 263 0;
#X connect 301 0 258 0;
#X connect 302 0 259 0;
#X connect 303 0 272 0;
#X connect 304 0 116 0;
#X connect 305 0 277 0;
#X connect 306 0 276 0;
#X connect 307 0 294 0;
#X connect 308 0 158 0;
#X connect 309 0 313 0;
#X connect 310 0 314 0;
#X connect 311 0 353 0;
#X connect 312 0 354 0;
#X connect 315 0 333 0;
#X connect 316 0 355 0;
#X connect 317 0 356 0;
#X connect 318 0 334 0;
#X connect 319 0 335 0;
#X connect 320 0 336 0;
#X connect 321 0 337 0;
#X connect 322 0 357 0;
#X connect 323 0 358 0;
#X connect 324 0 359 0;
#X connect 325 0 360 0;
#X connect 326 0 338 0;
#X connect 327 0 339 0;
#X connect 328 0 340 0;
#X connect 329 0 341 0;
#X connect 330 0 361 0;
#X connect 331 0 362 0;
#X connect 332 0 363 0;
#X connect 342 0 309 0;
#X connect 343 0 310 0;
#X connect 344 0 315 0;
#X connect 345 0 318 0;
#X connect 346 0 319 0;
#X connect 347 0 320 0;
#X connect 348 0 321 0;
#X connect 349 0 326 0;
#X connect 350 0 327 0;
#X connect 351 0 328 0;
#X connect 352 0 329 0;
#X connect 353 0 342 0;
#X connect 354 0 343 0;
#X connect 355 0 344 0;
#X connect 356 0 345 0;
#X connect 357 0 346 0;
#X connect 358 0 347 0;
#X connect 359 0 348 0;
#X connect 360 0 349 0;
#X connect 361 0 350 0;
#X connect 362 0 351 0;
#X connect 363 0 352 0;
#X connect 366 0 215 1;
#X connect 366 1 216 1;
#X connect 366 2 217 1;
#X connect 366 3 218 1;
#X connect 366 4 219 1;
#X connect 366 5 220 1;
#X connect 366 6 221 1;
#X connect 366 7 222 1;
#X connect 366 8 223 1;
#X connect 366 9 224 1;
#X connect 366 10 225 1;
#X connect 366 11 226 1;
#X connect 366 12 227 1;
#X connect 366 13 228 1;
#X connect 366 14 229 1;
#X connect 366 15 230 1;
#X connect 366 16 231 1;
#X connect 366 17 232 1;
#X connect 366 18 233 1;
#X connect 366 19 234 1;
#X connect 366 20 235 1;
#X connect 366 21 236 1;
#X connect 366 22 237 1;
#X connect 366 23 238 1;
#X connect 366 24 239 1;
#X connect 366 25 353 1;
#X connect 366 26 354 1;
#X connect 366 27 355 1;
#X connect 366 28 356 1;
#X connect 366 29 357 1;
#X connect 366 30 358 1;
#X connect 366 31 359 1;
#X connect 366 32 360 1;
#X connect 366 33 361 1;
#X connect 366 34 362 1;
#X connect 366 35 363 1;
#X connect 367 0 90 1;
#X connect 367 1 91 1;
#X connect 367 2 92 1;
#X connect 367 3 93 1;
#X connect 367 4 94 1;
#X connect 367 5 95 1;
#X connect 367 6 96 1;
#X connect 367 7 97 1;
#X connect 367 8 98 1;
#X connect 367 9 99 1;
#X connect 367 10 100 1;
#X connect 367 11 101 1;
#X connect 367 12 102 1;
#X connect 367 13 103 1;
#X connect 367 14 104 1;
#X connect 367 15 105 1;
#X connect 367 16 106 1;
#X connect 367 17 107 1;
#X connect 367 18 108 1;
#X connect 367 19 109 1;
#X connect 367 20 110 1;
#X connect 367 21 111 1;
#X connect 367 22 112 1;
#X connect 367 23 113 1;
#X connect 367 24 114 1;
#X connect 367 25 342 1;
#X connect 367 26 343 1;
#X connect 367 27 344 1;
#X connect 367 28 345 1;
#X connect 367 29 346 1;
#X connect 367 30 347 1;
#X connect 367 31 348 1;
#X connect 367 32 349 1;
#X connect 367 33 350 1;
#X connect 367 34 351 1;
#X connect 367 35 352 1;
#X connect 367 36 240 1;
#X connect 367 37 241 1;
#X connect 367 38 242 1;
#X connect 367 39 243 1;
#X connect 367 40 244 1;
#X connect 368 0 2 1;
#X connect 368 1 4 1;
#X connect 368 2 6 1;
#X connect 368 3 8 1;
#X connect 368 4 13 1;
#X connect 368 5 14 1;
#X connect 368 6 15 1;
#X connect 368 7 16 1;
#X connect 368 8 21 1;
#X connect 368 9 22 1;
#X connect 368 10 23 1;
#X connect 368 11 24 1;
#X connect 368 12 29 1;
#X connect 368 13 30 1;
#X connect 368 14 31 1;
#X connect 368 15 32 1;
#X connect 368 16 48 1;
#X connect 368 17 51 1;
#X connect 368 18 52 1;
#X connect 368 19 53 1;
#X connect 368 20 54 1;
#X connect 368 21 59 1;
#X connect 368 22 60 1;
#X connect 368 23 61 1;
#X connect 368 24 62 1;
#X connect 368 25 309 1;
#X connect 368 26 310 1;
#X connect 368 27 315 1;
#X connect 368 28 318 1;
#X connect 368 29 319 1;
#X connect 368 30 320 1;
#X connect 368 31 321 1;
#X connect 368 32 326 1;
#X connect 368 33 327 1;
#X connect 368 34 328 1;
#X connect 368 35 329 1;
#X connect 368 36 143 1;
#X connect 368 37 144 1;
#X connect 368 38 145 1;
#X connect 368 39 146 1;
#X connect 368 40 176 1;
#X connect 369 0 366 2;
