#N canvas 16 7 781 678 10;
#X obj 19 47 inlet~;
#X obj 41 47 inlet~;
#X obj 63 47 inlet~;
#X obj 85 47 inlet~;
#X obj 108 47 inlet~;
#X obj 130 47 inlet~;
#X obj 152 47 inlet~;
#X obj 175 47 inlet~;
#X obj 197 47 inlet~;
#X obj 219 47 inlet~;
#X obj 242 47 inlet~;
#X obj 386 456 round_zero 1e-006;
#X obj 293 254 bng 15 250 50 0 empty empty empty 0 -6 0 8 -262144 -1
-1;
#N canvas 0 0 503 306 zero_count 0;
#X obj 39 86 repack 1;
#X obj 40 109 sel 0;
#X obj 54 146 f;
#X obj 85 144 + 1;
#X msg 102 99 0;
#X obj 60 21 inlet;
#X obj 129 230 outlet;
#X obj 130 200 f;
#X obj 60 51 t a b;
#X obj 158 86 del 10;
#X msg 174 115 ***************************************;
#X obj 174 139 print ***;
#X obj 158 164 del 10;
#X connect 0 0 1 0;
#X connect 1 0 2 0;
#X connect 2 0 3 0;
#X connect 2 0 7 1;
#X connect 3 0 2 1;
#X connect 4 0 3 0;
#X connect 4 0 2 0;
#X connect 5 0 8 0;
#X connect 7 0 6 0;
#X connect 8 0 0 0;
#X connect 8 1 4 0;
#X connect 8 1 9 0;
#X connect 9 0 12 0;
#X connect 9 0 10 0;
#X connect 10 0 11 0;
#X connect 12 0 7 0;
#X restore 400 479 pd zero_count;
#X obj 400 499 print number_of_zeros_in_decoder:;
#X obj 19 601 outlet~;
#X obj 39 601 outlet~;
#X obj 58 601 outlet~;
#X obj 101 601 outlet~;
#X obj 120 601 outlet~;
#X obj 140 601 outlet~;
#X obj 160 601 outlet~;
#X obj 181 601 outlet~;
#X obj 201 601 outlet~;
#X obj 221 601 outlet~;
#X obj 241 601 outlet~;
#X obj 494 478 print decoder;
#X obj 293 234 loadbang;
#X obj 409 331 pp ambi_weight;
#X obj 352 235 t b l;
#X obj 348 152 clip -10 10;
#X obj 374 172 clip -10 10;
#X obj 400 192 clip -10 10;
#X obj 420 152 clip -10 10;
#X text 114 22 11 ambisonic signals;
#X obj 19 358 matrix_mul_stat~ 11 12 _______________;
#X obj 79 601 outlet~;
#X obj 386 436 ambi_decode 5 2 12 0;
#X msg 372 415 pinv;
#X obj 390 388 pp ls;
#X text 613 339 LS 1 .. 12;
#X msg 390 355 1 0 \, 2 330 \, 3 300 \, 4 270 \, 5 240 \, 6 210 \,
7 180 \, 8 150 \, 9 120 \, 10 90 \, 11 60 \, 12 30;
#X obj 372 289 t b b b;
#X obj 348 128 unpack 0 0 0 0 0 0;
#X obj 446 172 clip -10 10;
#X obj 472 192 clip -10 10;
#X obj 352 214 pack 0 0 0 0 0 0;
#X obj 409 310 any 1 0.9505 0.8117 0.6113 0.3887 0.1883;
#X obj 348 43 inlet;
#X text 465 92 mirror loudspeaker weight in %;
#X text 287 91 ambi order weight list;
#X obj 348 66 route ambi_weight mirror_weight;
#X text 346 26 parameter;
#X connect 0 0 35 0;
#X connect 1 0 35 1;
#X connect 2 0 35 2;
#X connect 3 0 35 3;
#X connect 4 0 35 4;
#X connect 5 0 35 5;
#X connect 6 0 35 6;
#X connect 7 0 35 7;
#X connect 8 0 35 8;
#X connect 9 0 35 9;
#X connect 10 0 35 10;
#X connect 11 0 13 0;
#X connect 11 0 35 0;
#X connect 12 0 42 0;
#X connect 13 0 14 0;
#X connect 27 0 12 0;
#X connect 28 0 37 0;
#X connect 29 0 42 0;
#X connect 29 1 47 1;
#X connect 30 0 46 0;
#X connect 31 0 46 1;
#X connect 32 0 46 2;
#X connect 33 0 46 3;
#X connect 35 0 15 0;
#X connect 35 1 16 0;
#X connect 35 2 17 0;
#X connect 35 3 36 0;
#X connect 35 4 18 0;
#X connect 35 5 19 0;
#X connect 35 6 20 0;
#X connect 35 7 21 0;
#X connect 35 8 22 0;
#X connect 35 9 23 0;
#X connect 35 10 24 0;
#X connect 35 11 25 0;
#X connect 37 0 11 0;
#X connect 38 0 37 0;
#X connect 39 0 37 0;
#X connect 41 0 39 0;
#X connect 42 0 38 0;
#X connect 42 1 41 0;
#X connect 42 2 47 0;
#X connect 43 0 30 0;
#X connect 43 1 31 0;
#X connect 43 2 32 0;
#X connect 43 3 33 0;
#X connect 43 4 44 0;
#X connect 43 5 45 0;
#X connect 44 0 46 4;
#X connect 45 0 46 5;
#X connect 46 0 29 0;
#X connect 47 0 28 0;
#X connect 48 0 51 0;
#X connect 51 0 43 0;
