#N canvas 8 0 1000 716 10;
#X obj 17 587 outlet~;
#X obj 17 29 inlet~;
#X obj 41 587 outlet~;
#X obj 65 587 outlet~;
#X obj 89 587 outlet~;
#X obj 41 29 inlet~;
#X obj 65 29 inlet~;
#X obj 89 29 inlet~;
#X obj 113 29 inlet~;
#X obj 137 29 inlet~;
#X obj 161 29 inlet~;
#X obj 185 29 inlet~;
#X obj 209 29 inlet~;
#X obj 233 29 inlet~;
#X obj 257 29 inlet~;
#X obj 113 587 outlet~;
#X obj 137 587 outlet~;
#X obj 161 587 outlet~;
#X obj 185 587 outlet~;
#X obj 209 587 outlet~;
#X obj 233 587 outlet~;
#X obj 257 587 outlet~;
#X text 23 609 A0;
#X text 27 12 A0;
#X obj 290 286 pp col;
#X text 513 11 src_in;
#X obj 510 29 inlet~;
#X obj 48 307 mull~ 1 50;
#X obj 103 285 r \$0-interpol;
#X obj 407 307 r \$0-interpol;
#X text 84 617 1.arg: <float> source-INDEX (1 .. N);
#X obj 75 220 r \$0-direct_damp;
#X obj 359 29 inlet~;
#X obj 383 29 inlet~;
#X obj 407 29 inlet~;
#X obj 431 29 inlet~;
#X obj 360 587 outlet~;
#X obj 384 587 outlet~;
#X obj 408 587 outlet~;
#X obj 432 587 outlet~;
#X obj 520 587 outlet;
#X text 521 604 dummy;
#X obj 459 237 noise~;
#X obj 459 259 *~ 1e-015;
#X text 460 212 dithering-noise;
#X text 459 220 against denormals;
#X obj 360 563 +~;
#X obj 384 563 +~;
#X obj 408 563 +~;
#X obj 432 563 +~;
#X text 326 645 (stat \, dyn \, doppless) (default: doppless);
#N canvas 0 0 482 332 delwrite_orderforce~ 0;
#X obj 61 31 inlet~;
#X obj 40 143 outlet~;
#X obj 62 72 delwrite~ \$0-direct 500;
#X connect 0 0 2 0;
#X connect 0 0 1 0;
#X restore 47 77 pd delwrite_orderforce~;
#X text 83 645 3.arg: <symbol> delay-interpolation-mode;
#X text 84 632 2.arg: <float> multiplication-factor of delay-interpolation
;
#X text 439 632 -time (default: 1);
#X obj 17 503 +~;
#X obj 41 503 +~;
#X obj 65 503 +~;
#X obj 89 503 +~;
#X obj 113 503 +~;
#X obj 137 503 +~;
#X obj 161 503 +~;
#X obj 185 503 +~;
#X obj 209 503 +~;
#X obj 233 503 +~;
#X obj 257 503 +~;
#X obj 170 307 r \$0-switch_direct;
#X text 273 12 B5;
#X text 281 604 B5;
#X obj 48 329 \$3_direct_encode_5o_2d~ ____________________________________
;
#X obj 290 264 r \$0-direct_index_phi;
#X text 355 608 4 earlies for reverb out;
#X text 349 12 4 earlies for reverb in;
#X obj 290 307 ambi_encode 5;
#X obj 932 132 s \$0-interpol;
#X obj 962 359 s \$0-direct_gain;
#X obj 889 224 pp sonic_speed;
#X obj 857 133 pp r_ambi;
#X obj 688 567 route direct early1 early2;
#X obj 613 589 outlet;
#X obj 718 255 pp room_dim;
#X obj 738 89 route \$1 0;
#X obj 612 31 inlet;
#X obj 839 291 route position direct_gain early1_gain early2_gain;
#X obj 962 338 dbtorms;
#X text 698 35 ambisonic_radius;
#X text 699 47 = minimum-radius between source and listener;
#X obj 640 64 route listener source room ambi_radius interpol_time
;
#X text 614 15 parameters;
#X text 619 615 out;
#X text 614 606 para;
#X obj 875 265 init 1;
#X obj 640 138 route position;
#X obj 738 166 dbtorms;
#X obj 738 135 route gain;
#X obj 738 188 s \$0-src_gain;
#X obj 493 132 +~;
#X obj 492 110 mull~ 1 50;
#X obj 547 88 r \$0-interpol;
#X obj 518 68 r \$0-src_gain;
#X obj 847 358 s \$0-switch_direct;
#X obj 564 308 prvu~;
#X msg 581 268 reset;
#X msg 652 268 start;
#X msg 619 268 stop;
#X obj 588 247 t b b;
#X obj 932 111 spigot;
#X obj 857 113 spigot;
#X obj 640 115 spigot;
#X obj 729 278 spigot;
#X obj 1003 48 init 1;
#X obj 1003 75 f;
#X obj 847 337 * 1;
#X obj 1152 205 t b f;
#X obj 1016 204 s \$0-dist_exp;
#X obj 747 659 s \$0-direct_damp;
#X obj 747 638 pow 1;
#X obj 818 638 r \$0-dist_exp;
#X obj 723 638 f;
#X obj 782 638 t b f;
#X obj 824 165 route size absorption_coeff cutoff_freq sonic_speed
distance_exponent;
#X obj 1153 162 gain2switch;
#X obj 598 225 sel 0 1;
#X obj 847 315 gain2switch;
#X obj 695 370 cart2del_damp_2d;
#X obj 729 345 pp src_xy;
#X obj 640 201 pp head_xy;
#X obj 640 158 unpack 0 0;
#X obj 640 180 pack 0 0;
#X obj 729 301 unpack 0 0;
#X obj 729 323 pack 0 0;
#X obj 718 212 unpack 0 0;
#X obj 718 233 pack 0 0;
#X obj 811 616 s \$0-direct_index_phi;
#X obj 688 593 route del damp index_phi;
#X obj 520 560 pp vu src \$1;
#X obj 48 119 doppless_delread_orderforce~ \$0-direct;
#X connect 1 0 55 0;
#X connect 5 0 56 0;
#X connect 6 0 57 0;
#X connect 7 0 58 0;
#X connect 8 0 59 0;
#X connect 9 0 60 0;
#X connect 10 0 61 0;
#X connect 11 0 62 0;
#X connect 12 0 63 0;
#X connect 13 0 64 0;
#X connect 14 0 65 0;
#X connect 24 0 73 0;
#X connect 26 0 97 0;
#X connect 27 0 69 0;
#X connect 28 0 27 2;
#X connect 29 0 69 3;
#X connect 31 0 27 1;
#X connect 32 0 46 0;
#X connect 33 0 47 0;
#X connect 34 0 48 0;
#X connect 35 0 49 0;
#X connect 42 0 43 0;
#X connect 43 0 46 1;
#X connect 43 0 47 1;
#X connect 43 0 48 1;
#X connect 43 0 49 1;
#X connect 43 0 96 1;
#X connect 46 0 36 0;
#X connect 47 0 37 0;
#X connect 48 0 38 0;
#X connect 49 0 39 0;
#X connect 51 0 136 0;
#X connect 55 0 0 0;
#X connect 56 0 2 0;
#X connect 57 0 3 0;
#X connect 58 0 4 0;
#X connect 59 0 15 0;
#X connect 60 0 16 0;
#X connect 61 0 17 0;
#X connect 62 0 18 0;
#X connect 63 0 19 0;
#X connect 64 0 20 0;
#X connect 65 0 21 0;
#X connect 66 0 69 1;
#X connect 69 0 55 1;
#X connect 69 1 56 1;
#X connect 69 2 57 1;
#X connect 69 3 58 1;
#X connect 69 4 59 1;
#X connect 69 5 60 1;
#X connect 69 6 61 1;
#X connect 69 7 62 1;
#X connect 69 8 63 1;
#X connect 69 9 64 1;
#X connect 69 10 65 1;
#X connect 70 0 24 0;
#X connect 73 0 69 2;
#X connect 76 0 124 0;
#X connect 77 0 124 0;
#X connect 78 0 134 0;
#X connect 80 0 124 0;
#X connect 81 0 94 0;
#X connect 81 1 83 0;
#X connect 82 0 79 0;
#X connect 82 0 87 0;
#X connect 83 0 109 0;
#X connect 83 1 84 0;
#X connect 83 1 123 0;
#X connect 84 0 75 0;
#X connect 87 0 108 0;
#X connect 87 1 81 0;
#X connect 87 2 120 0;
#X connect 87 3 107 0;
#X connect 87 4 106 0;
#X connect 91 0 112 0;
#X connect 92 0 127 0;
#X connect 93 0 95 0;
#X connect 94 0 93 0;
#X connect 94 0 121 0;
#X connect 94 1 83 0;
#X connect 96 0 101 0;
#X connect 96 0 51 0;
#X connect 97 0 96 0;
#X connect 98 0 97 2;
#X connect 99 0 97 1;
#X connect 101 0 135 0;
#X connect 102 0 101 0;
#X connect 103 0 101 0;
#X connect 104 0 101 0;
#X connect 105 0 102 0;
#X connect 105 1 104 0;
#X connect 106 0 74 0;
#X connect 107 0 77 0;
#X connect 108 0 92 0;
#X connect 109 0 129 0;
#X connect 110 0 111 0;
#X connect 111 0 106 1;
#X connect 111 0 107 1;
#X connect 111 0 108 1;
#X connect 111 0 109 1;
#X connect 112 0 100 0;
#X connect 113 0 112 0;
#X connect 113 1 112 1;
#X connect 116 0 115 0;
#X connect 117 0 119 0;
#X connect 118 0 116 0;
#X connect 119 0 118 0;
#X connect 119 1 116 1;
#X connect 120 0 131 0;
#X connect 120 3 76 0;
#X connect 120 4 114 0;
#X connect 121 0 122 0;
#X connect 121 0 113 0;
#X connect 121 0 111 0;
#X connect 122 0 105 0;
#X connect 122 1 103 0;
#X connect 123 0 112 0;
#X connect 124 0 78 0;
#X connect 125 0 124 0;
#X connect 126 0 124 0;
#X connect 127 0 128 0;
#X connect 127 1 128 1;
#X connect 128 0 126 0;
#X connect 129 0 130 0;
#X connect 129 1 130 1;
#X connect 130 0 125 0;
#X connect 131 0 132 0;
#X connect 131 1 132 1;
#X connect 132 0 80 0;
#X connect 134 1 118 0;
#X connect 134 2 133 0;
#X connect 135 0 40 0;
#X connect 136 0 27 0;
