#N canvas 153 126 475 472 10;
#X obj 34 163 delread~ \$1 \$2;
#X obj 144 162 delread~ \$1 \$2;
#X obj 34 340 *~;
#X obj 144 340 *~;
#X obj 80 374 +~;
#X obj 80 407 outlet~;
#X text 204 342 1.arg: <symbol> delay-name;
#X text 204 352 2.arg: <float> delay in ms;
#X text 204 362 3.arg: <float> interpol-time in ms;
#X obj 48 294 line~;
#X obj 36 15 inlet;
#X obj 36 38 t f b;
#N canvas 0 0 458 308 toggle 0;
#X obj 119 47 inlet;
#X obj 119 133 sel 0 1;
#X obj 119 101 f 0;
#X msg 156 72 1;
#X msg 184 73 0;
#X obj 58 149 outlet;
#X obj 207 154 outlet;
#X connect 0 0 2 0;
#X connect 1 0 3 0;
#X connect 1 1 4 0;
#X connect 2 0 1 0;
#X connect 2 0 5 0;
#X connect 3 0 2 1;
#X connect 3 0 6 0;
#X connect 4 0 2 1;
#X connect 4 0 6 0;
#X restore 159 71 pd toggle 0 1;
#X obj 48 224 pack 0 50;
#X obj 158 225 pack 0 50;
#X obj 158 294 line~;
#X obj 34 131 spigot;
#X obj 144 130 spigot;
#X obj 73 248 loadbang;
#X text 73 15 delay in ms;
#X obj 256 15 inlet;
#X text 294 14 interpol-time in ms;
#X obj 158 316 cos~;
#X obj 48 318 cos~;
#X msg 60 269 0;
#X msg 119 270 0.25;
#X obj 48 203 * 0.25;
#X obj 158 203 * 0.25;
#X connect 0 0 2 0;
#X connect 1 0 3 0;
#X connect 2 0 4 0;
#X connect 3 0 4 1;
#X connect 4 0 5 0;
#X connect 9 0 23 0;
#X connect 10 0 11 0;
#X connect 11 0 16 0;
#X connect 11 0 17 0;
#X connect 11 1 12 0;
#X connect 12 0 16 1;
#X connect 12 0 27 0;
#X connect 12 1 17 1;
#X connect 12 1 26 0;
#X connect 13 0 9 0;
#X connect 14 0 15 0;
#X connect 15 0 22 0;
#X connect 16 0 0 0;
#X connect 17 0 1 0;
#X connect 18 0 24 0;
#X connect 18 0 25 0;
#X connect 20 0 13 1;
#X connect 20 0 14 1;
#X connect 22 0 3 1;
#X connect 23 0 2 1;
#X connect 24 0 9 0;
#X connect 25 0 15 0;
#X connect 26 0 13 0;
#X connect 27 0 14 0;
