#N canvas 0 0 724 584 10;
#X text 313 31 cmd;
#X text 91 526 +x;
#X text 153 526 +y;
#X text 209 526 -x;
#X text 264 526 -y;
#X obj 101 51 inlet~;
#X obj 308 51 inlet;
#X obj 138 509 outlet~;
#X obj 77 509 outlet~;
#X obj 193 509 outlet~;
#X obj 249 509 outlet~;
#X obj 136 412 lp2~ 3000 0.2 200;
#X obj 249 412 lp2~ 3000 0.2 200;
#X obj 192 460 lp2~ 3000 0.2 200;
#X obj 79 460 lp2~ 3000 0.2 200;
#X obj 308 151 route cutoff gain Q;
#X obj 101 205 hp1~ 7;
#N canvas 55 66 838 644 para_convert 0;
#X obj 126 359 outlet;
#X obj 270 277 pp reverb;
#X obj 263 97 pp cutoff;
#X obj 348 70 pp gain;
#X obj 169 167 pp dec_l_time;
#X obj 256 167 pp dec_m_time;
#X obj 342 166 pp dec_h_time;
#N canvas 0 0 455 442 reverb_delay_time 0;
#X obj 32 107 repack 1;
#X obj 57 197 * 40;
#X obj 57 218 + 60;
#X msg 123 143 \$2 \$1;
#X obj 123 164 -;
#X msg 173 171 \$1;
#X obj 32 22 inlet;
#X obj 32 46 t b b l l;
#X msg 141 240 0;
#X obj 32 129 t b f;
#X obj 32 321 pp reverb del_time;
#X obj 32 299 pack 0 0;
#X obj 32 344 outlet;
#X obj 57 151 - 0.5;
#X obj 57 174 / 0.5;
#X text 74 19 min max;
#N canvas 0 0 840 607 exp 0;
#X obj 79 42 inlet;
#X obj 79 126 - 1;
#X obj 58 389 pack 0 0;
#X obj 58 410 outlet;
#X text 182 102 1.arg: <float> number of exponential growing values
;
#X obj 258 144 loadbang;
#X obj 237 190 - 1;
#X obj 243 34 inlet;
#X obj 237 167 f 8;
#X obj 79 103 for++ 1 8 0;
#X obj 237 281 pow;
#X msg 237 260 2 \$1;
#X obj 237 234 /;
#X msg 237 213 1 \$1;
#X text 122 40 min max;
#X obj 118 267 f;
#X obj 149 267 * 1.06;
#X floatatom 120 313 5 0 0 0 - - -;
#X msg 202 140 8;
#X obj 127 227 bng 15 250 50 0 empty empty empty 0 -6 0 8 -262144 -1
-1;
#X msg 159 214 0.5;
#X obj 79 69 t b b;
#X obj 79 148 t f b;
#X connect 0 0 21 0;
#X connect 1 0 22 0;
#X connect 2 0 3 0;
#X connect 5 0 8 0;
#X connect 6 0 13 0;
#X connect 7 0 8 0;
#X connect 7 0 9 1;
#X connect 8 0 6 0;
#X connect 9 0 1 0;
#X connect 10 0 16 1;
#X connect 11 0 10 0;
#X connect 12 0 11 0;
#X connect 13 0 12 0;
#X connect 15 0 16 0;
#X connect 15 0 17 0;
#X connect 15 0 2 1;
#X connect 16 0 15 1;
#X connect 18 0 8 0;
#X connect 19 0 15 0;
#X connect 20 0 15 1;
#X connect 21 0 9 0;
#X connect 21 1 20 0;
#X connect 22 0 2 0;
#X connect 22 1 15 0;
#X restore 324 208 pd exp;
#X obj 318 188 bng 15 250 50 0 empty empty empty 0 -6 0 8 -262144 -1
-1;
#X msg 355 179 12;
#X obj 297 237 unpack 0 0;
#X msg 314 260 add2 \$1;
#X msg 32 70 0.5 0.532521 0.567156 0.604045 0.643332 0.685175 0.72974
0.777203 0.827753 0.881591 0.938931 1;
#X msg 344 159 8;
#X obj 32 263 modulo_counter 12 0;
#X msg 316 293;
#X connect 0 0 9 0;
#X connect 1 0 2 0;
#X connect 2 0 11 1;
#X connect 3 0 4 0;
#X connect 4 0 1 1;
#X connect 5 0 2 1;
#X connect 6 0 7 0;
#X connect 7 0 21 0;
#X connect 7 1 8 0;
#X connect 7 2 3 0;
#X connect 7 3 5 0;
#X connect 8 0 23 1;
#X connect 9 0 23 0;
#X connect 9 1 13 0;
#X connect 10 0 12 0;
#X connect 11 0 10 0;
#X connect 13 0 14 0;
#X connect 14 0 1 0;
#X connect 16 0 19 0;
#X connect 17 0 16 0;
#X connect 18 0 16 1;
#X connect 19 1 20 0;
#X connect 20 0 24 0;
#X connect 21 0 0 0;
#X connect 22 0 16 1;
#X connect 23 0 11 0;
#X restore 29 258 pd reverb_delay_time;
#N canvas 12 60 546 525 calc_room 0;
#X obj 72 36 inlet;
#X obj 279 35 inlet;
#X obj 46 449 outlet;
#X obj 49 375 / 340;
#X obj 278 64 t b b b f;
#X obj 89 375 / 340;
#X obj 85 127 t f f;
#X obj 88 149 *;
#X obj 123 128 t f f;
#X obj 126 150 *;
#X obj 101 174 +;
#X obj 101 196 sqrt;
#X obj 43 270 minmax;
#X obj 71 71 t l l;
#X obj 47 398 * 1000;
#X obj 47 423 pack 0 0;
#X obj 91 397 * 1000;
#X text 110 424 min max;
#X obj 101 218 * 1.5;
#X obj 43 296 * 0.5;
#X text 83 297 halbe geringste Raum-Abmessung = minimale Distanz;
#X text 356 66 2-D-Modell;
#X obj 96 104 unpack 0 0;
#X text 139 218 1.5-fache Flaechen-Diagonale = maximale Distanz;
#X connect 0 0 13 0;
#X connect 1 0 4 0;
#X connect 3 0 14 0;
#X connect 4 0 3 0;
#X connect 4 1 5 0;
#X connect 4 3 5 1;
#X connect 4 3 3 1;
#X connect 5 0 16 0;
#X connect 6 0 7 0;
#X connect 6 1 7 1;
#X connect 7 0 10 0;
#X connect 8 0 9 0;
#X connect 8 1 9 1;
#X connect 9 0 10 1;
#X connect 10 0 11 0;
#X connect 11 0 18 0;
#X connect 12 0 19 0;
#X connect 13 0 12 0;
#X connect 13 1 22 0;
#X connect 14 0 15 0;
#X connect 15 0 2 0;
#X connect 16 0 15 1;
#X connect 18 0 5 0;
#X connect 19 0 3 0;
#X connect 22 0 6 0;
#X connect 22 1 8 0;
#X restore 51 207 pd calc_room;
#X msg 654 143 0.4;
#X obj 654 165 pp Q;
#X msg 671 86 3.5;
#X obj 671 107 pp dec_mh_freq;
#X msg 500 201 0.45;
#X obj 500 223 pp dec_lm_freq;
#X obj 100 12 inlet;
#N canvas 20 100 1002 590 absorption2reverb_decay_time 0;
#X obj 103 23 inlet;
#X obj 131 430 outlet;
#X obj 228 431 outlet;
#X obj 329 430 outlet;
#X obj 483 430 outlet;
#X obj 348 27 inlet;
#X obj 61 158 *;
#X obj 163 167 * 2;
#X obj 89 207 /;
#X obj 348 53 route low mid high;
#X obj 348 99 clip 0 1;
#X obj 405 99 clip 0 1;
#X obj 461 99 clip 0 1;
#X obj 89 227 * 0.161;
#X obj 91 304 f;
#X obj 348 128 t b f;
#X obj 406 127 t b f;
#X obj 460 128 t b f;
#X obj 230 402 / 0.5;
#X obj 331 401 / 0.5;
#X obj 132 401 / 0.5;
#X text 131 452 T60_low;
#X text 229 453 T60_mid;
#X text 324 449 T60_high;
#X text 177 55 Lx x Wy;
#X obj 164 104 unpack 0 0;
#X obj 163 140 +;
#X text 190 168 umfang;
#X obj 47 128 unpack 0 0;
#X text 84 158 flaeche;
#X obj 89 251 * 0.5;
#X text 129 252 empir. korrektur;
#X obj 174 305 f;
#X obj 257 306 f;
#X obj 103 54 t l l;
#X obj 131 549 pack 0 0 0;
#X obj 131 528 f;
#X obj 131 478 t b f;
#X obj 229 483 t b f;
#X obj 330 482 t b f;
#X obj 131 506 del 1000;
#X obj 197 636 print Tr60_low;
#X msg 131 571 \$3 \$2 \$1;
#X obj 131 592 unpack 0 0 0;
#X msg 197 613 \$1 sec;
#X msg 163 664 \$1 sec;
#X msg 134 714 \$1 sec;
#X obj 163 687 print Tr60_mid;
#X obj 134 737 print Tr60_high;
#X connect 0 0 34 0;
#X connect 5 0 9 0;
#X connect 6 0 8 0;
#X connect 7 0 8 1;
#X connect 8 0 13 0;
#X connect 9 0 10 0;
#X connect 9 1 11 0;
#X connect 9 2 12 0;
#X connect 10 0 15 0;
#X connect 11 0 16 0;
#X connect 12 0 17 0;
#X connect 13 0 30 0;
#X connect 14 0 20 0;
#X connect 15 0 14 0;
#X connect 15 0 4 0;
#X connect 15 1 20 1;
#X connect 16 0 32 0;
#X connect 16 0 4 0;
#X connect 16 1 18 1;
#X connect 17 0 33 0;
#X connect 17 0 4 0;
#X connect 17 1 19 1;
#X connect 18 0 2 0;
#X connect 18 0 38 0;
#X connect 19 0 3 0;
#X connect 19 0 39 0;
#X connect 20 0 1 0;
#X connect 20 0 37 0;
#X connect 25 0 26 0;
#X connect 25 1 26 1;
#X connect 26 0 7 0;
#X connect 28 0 6 0;
#X connect 28 1 6 1;
#X connect 30 0 14 0;
#X connect 30 0 32 1;
#X connect 30 0 33 0;
#X connect 32 0 18 0;
#X connect 33 0 19 0;
#X connect 34 0 28 0;
#X connect 34 1 25 0;
#X connect 35 0 42 0;
#X connect 36 0 35 0;
#X connect 37 0 40 0;
#X connect 37 1 36 1;
#X connect 38 0 40 0;
#X connect 38 1 35 1;
#X connect 39 0 40 0;
#X connect 39 1 35 2;
#X connect 40 0 36 0;
#X connect 42 0 43 0;
#X connect 43 0 46 0;
#X connect 43 1 45 0;
#X connect 43 2 44 0;
#X connect 44 0 41 0;
#X connect 45 0 47 0;
#X connect 46 0 48 0;
#X restore 165 131 pd absorption2reverb_decay_time;
#X obj 100 34 route room_dim sonic_speed absorption cutoff gain;
#X connect 1 0 0 0;
#X connect 2 0 1 0;
#X connect 3 0 1 0;
#X connect 4 0 1 0;
#X connect 5 0 1 0;
#X connect 6 0 1 0;
#X connect 7 0 0 0;
#X connect 8 0 7 0;
#X connect 9 0 10 0;
#X connect 10 0 1 0;
#X connect 11 0 12 0;
#X connect 12 0 1 0;
#X connect 13 0 14 0;
#X connect 14 0 1 0;
#X connect 15 0 17 0;
#X connect 16 0 4 0;
#X connect 16 1 5 0;
#X connect 16 2 6 0;
#X connect 16 3 13 0;
#X connect 16 3 11 0;
#X connect 16 3 9 0;
#X connect 17 0 8 0;
#X connect 17 0 16 0;
#X connect 17 1 8 1;
#X connect 17 2 16 1;
#X connect 17 3 2 0;
#X connect 17 4 3 0;
#X restore 308 94 pd para_convert;
#X obj 249 433 mull~ 0.02 50;
#X obj 137 433 mull~ 0.02 50;
#X obj 78 481 mull~ 0.02 50;
#X obj 193 481 mull~ 0.02 50;
#X obj 141 51 inlet~;
#X obj 141 225 hp1~ 7;
#X obj 181 51 inlet~;
#X obj 181 245 hp1~ 7;
#X obj 221 51 inlet~;
#X obj 221 265 hp1~ 7;
#X obj 308 123 route reverb;
#N canvas 10 20 1010 651 reverberation12_4_________ 0;
#X text 510 20 parameter update message;
#X obj 507 37 inlet;
#X text 141 9 you can sum front + back to get a stereo output;
#X obj 601 604 outlet~;
#X obj 554 604 outlet~;
#X obj 506 604 outlet~;
#X obj 459 604 outlet~;
#X obj 591 497 +~;
#X obj 450 497 +~;
#X obj 543 496 +~;
#X obj 497 497 +~;
#X obj 44 131 +~;
#X obj 71 150 +~;
#X obj 99 169 +~;
#X obj 127 188 +~;
#X obj 154 206 +~;
#X obj 182 226 +~;
#X obj 209 245 +~;
#X obj 18 112 +~;
#X obj 18 69 inlet~;
#X obj 44 88 inlet~;
#X obj 71 107 inlet~;
#X obj 99 126 inlet~;
#X obj 154 164 inlet~;
#X obj 182 183 inlet~;
#X obj 209 202 inlet~;
#X obj 127 145 inlet~;
#X text 552 43 1.arg: <sym> delay-pre-name;
#X obj 982 204 t b f;
#X obj 932 203 t b f;
#X obj 882 205 t b f;
#X obj 832 205 t b f;
#X obj 782 204 t b f;
#X obj 782 274 f;
#X obj 782 253 del 0.5;
#X msg 507 94 \$1 del_time \$2;
#X obj 782 166 route dec_lm_freq dec_mh_freq dec_l_time dec_m_time
dec_h_time;
#X obj 782 297 pack 0 0 0 0 0;
#X obj 18 371 delwrite~ \$0rd0 1000;
#X obj 46 392 delwrite~ \$0rd1 1000;
#X obj 71 414 delwrite~ \$0rd2 1000;
#X obj 101 435 delwrite~ \$0rd3 1000;
#X obj 131 458 delwrite~ \$0rd4 1000;
#X obj 158 478 delwrite~ \$0rd5 1000;
#X obj 186 499 delwrite~ \$0rd6 1000;
#X obj 215 520 delwrite~ \$0rd7 1000;
#N canvas 8 40 773 606 rev_tap7________________ 0;
#X obj 74 519 outlet~;
#X obj 22 40 inlet;
#X obj 434 84 inlet;
#X obj 588 226 t b f;
#X obj 569 277 * 0.001;
#X obj 507 226 t b f;
#X obj 488 277 * 0.001;
#X obj 431 227 t b f;
#X obj 412 278 * 0.001;
#X obj 431 332 * -60;
#X obj 506 331 * -60;
#X obj 588 331 * -60;
#X obj 435 502 outlet;
#X obj 574 504 outlet;
#X obj 111 52 inlet;
#X text 19 19 dummy;
#X obj 135 454 * 1000;
#X obj 197 453 * 1000;
#X obj 407 115 unpack 0 0 0 0 0;
#X obj 135 423 init 0.45;
#X obj 198 423 init 3.5;
#X obj 73 496 hml_shelf~ -2 450 -4 3500 -6 100;
#X obj 412 256 f 50;
#X obj 488 255 f 50;
#X obj 569 255 f 50;
#X obj 431 311 / 4;
#X obj 507 310 / 2;
#X obj 588 310 / 1;
#X obj 111 86 route 7;
#X obj 40 458 delread~ \$0rd7;
#X obj 111 114 route del_time;
#X connect 2 0 13 0;
#X connect 2 0 18 0;
#X connect 3 0 24 0;
#X connect 3 1 27 1;
#X connect 4 0 27 0;
#X connect 5 0 23 0;
#X connect 5 1 26 1;
#X connect 6 0 26 0;
#X connect 7 0 22 0;
#X connect 7 1 25 1;
#X connect 8 0 25 0;
#X connect 9 0 21 1;
#X connect 10 0 21 3;
#X connect 11 0 21 5;
#X connect 14 0 28 0;
#X connect 16 0 21 2;
#X connect 17 0 21 4;
#X connect 18 0 16 0;
#X connect 18 1 17 0;
#X connect 18 2 7 0;
#X connect 18 3 5 0;
#X connect 18 4 3 0;
#X connect 19 0 16 0;
#X connect 20 0 17 0;
#X connect 21 0 0 0;
#X connect 22 0 8 0;
#X connect 23 0 6 0;
#X connect 24 0 4 0;
#X connect 25 0 9 0;
#X connect 26 0 10 0;
#X connect 27 0 11 0;
#X connect 28 0 30 0;
#X connect 28 1 12 0;
#X connect 29 0 21 0;
#X connect 30 0 22 0;
#X connect 30 0 23 0;
#X connect 30 0 24 0;
#X connect 30 0 29 0;
#X restore 566 302 pd rev_tap7________________;
#N canvas 8 40 783 616 rev_tap6________________ 0;
#X obj 74 519 outlet~;
#X obj 22 40 inlet;
#X obj 438 82 inlet;
#X obj 588 226 t b f;
#X obj 569 277 * 0.001;
#X obj 507 226 t b f;
#X obj 488 277 * 0.001;
#X obj 431 227 t b f;
#X obj 412 278 * 0.001;
#X obj 431 332 * -60;
#X obj 506 331 * -60;
#X obj 588 331 * -60;
#X obj 435 502 outlet;
#X obj 574 504 outlet;
#X obj 111 52 inlet;
#X text 19 19 dummy;
#X obj 135 454 * 1000;
#X obj 197 453 * 1000;
#X obj 399 114 unpack 0 0 0 0 0;
#X obj 135 423 init 0.45;
#X obj 198 423 init 3.5;
#X obj 73 496 hml_shelf~ -2 450 -4 3500 -6 100;
#X obj 412 256 f 50;
#X obj 488 255 f 50;
#X obj 569 255 f 50;
#X obj 431 311 / 4;
#X obj 507 310 / 2;
#X obj 588 310 / 1;
#X obj 111 86 route 6;
#X obj 38 438 delread~ \$0rd6;
#X obj 111 114 route del_time;
#X connect 2 0 13 0;
#X connect 2 0 18 0;
#X connect 3 0 24 0;
#X connect 3 1 27 1;
#X connect 4 0 27 0;
#X connect 5 0 23 0;
#X connect 5 1 26 1;
#X connect 6 0 26 0;
#X connect 7 0 22 0;
#X connect 7 1 25 1;
#X connect 8 0 25 0;
#X connect 9 0 21 1;
#X connect 10 0 21 3;
#X connect 11 0 21 5;
#X connect 14 0 28 0;
#X connect 16 0 21 2;
#X connect 17 0 21 4;
#X connect 18 0 16 0;
#X connect 18 1 17 0;
#X connect 18 2 7 0;
#X connect 18 3 5 0;
#X connect 18 4 3 0;
#X connect 19 0 16 0;
#X connect 20 0 17 0;
#X connect 21 0 0 0;
#X connect 22 0 8 0;
#X connect 23 0 6 0;
#X connect 24 0 4 0;
#X connect 25 0 9 0;
#X connect 26 0 10 0;
#X connect 27 0 11 0;
#X connect 28 0 30 0;
#X connect 28 1 12 0;
#X connect 29 0 21 0;
#X connect 30 0 22 0;
#X connect 30 0 23 0;
#X connect 30 0 24 0;
#X connect 30 0 29 0;
#X restore 555 280 pd rev_tap6________________;
#N canvas 8 40 781 614 rev_tap5________________ 0;
#X obj 74 519 outlet~;
#X obj 22 40 inlet;
#X obj 425 80 inlet;
#X obj 588 226 t b f;
#X obj 569 277 * 0.001;
#X obj 507 226 t b f;
#X obj 488 277 * 0.001;
#X obj 431 227 t b f;
#X obj 412 278 * 0.001;
#X obj 431 332 * -60;
#X obj 506 331 * -60;
#X obj 588 331 * -60;
#X obj 435 502 outlet;
#X obj 574 504 outlet;
#X obj 111 52 inlet;
#X text 19 19 dummy;
#X obj 135 454 * 1000;
#X obj 197 453 * 1000;
#X obj 403 114 unpack 0 0 0 0 0;
#X obj 135 423 init 0.45;
#X obj 198 423 init 3.5;
#X obj 73 496 hml_shelf~ -2 450 -4 3500 -6 100;
#X obj 412 256 f 50;
#X obj 488 255 f 50;
#X obj 569 255 f 50;
#X obj 431 311 / 4;
#X obj 507 310 / 2;
#X obj 588 310 / 1;
#X obj 111 86 route 5;
#X obj 35 457 delread~ \$0rd5;
#X obj 111 114 route del_time;
#X connect 2 0 13 0;
#X connect 2 0 18 0;
#X connect 3 0 24 0;
#X connect 3 1 27 1;
#X connect 4 0 27 0;
#X connect 5 0 23 0;
#X connect 5 1 26 1;
#X connect 6 0 26 0;
#X connect 7 0 22 0;
#X connect 7 1 25 1;
#X connect 8 0 25 0;
#X connect 9 0 21 1;
#X connect 10 0 21 3;
#X connect 11 0 21 5;
#X connect 14 0 28 0;
#X connect 16 0 21 2;
#X connect 17 0 21 4;
#X connect 18 0 16 0;
#X connect 18 1 17 0;
#X connect 18 2 7 0;
#X connect 18 3 5 0;
#X connect 18 4 3 0;
#X connect 19 0 16 0;
#X connect 20 0 17 0;
#X connect 21 0 0 0;
#X connect 22 0 8 0;
#X connect 23 0 6 0;
#X connect 24 0 4 0;
#X connect 25 0 9 0;
#X connect 26 0 10 0;
#X connect 27 0 11 0;
#X connect 28 0 30 0;
#X connect 28 1 12 0;
#X connect 29 0 21 0;
#X connect 30 0 22 0;
#X connect 30 0 23 0;
#X connect 30 0 24 0;
#X connect 30 0 29 0;
#X restore 542 258 pd rev_tap5________________;
#N canvas 12 60 777 610 rev_tap4________________ 0;
#X obj 74 519 outlet~;
#X obj 22 40 inlet;
#X obj 400 73 inlet;
#X obj 588 226 t b f;
#X obj 569 277 * 0.001;
#X obj 507 226 t b f;
#X obj 488 277 * 0.001;
#X obj 431 227 t b f;
#X obj 412 278 * 0.001;
#X obj 431 332 * -60;
#X obj 506 331 * -60;
#X obj 588 331 * -60;
#X obj 435 502 outlet;
#X obj 574 504 outlet;
#X obj 111 52 inlet;
#X text 19 19 dummy;
#X obj 135 454 * 1000;
#X obj 197 453 * 1000;
#X obj 393 114 unpack 0 0 0 0 0;
#X obj 135 423 init 0.45;
#X obj 198 423 init 3.5;
#X obj 73 496 hml_shelf~ -2 450 -4 3500 -6 100;
#X obj 412 256 f 50;
#X obj 488 255 f 50;
#X obj 569 255 f 50;
#X obj 431 311 / 4;
#X obj 507 310 / 2;
#X obj 588 310 / 1;
#X obj 111 86 route 4;
#X obj 41 460 delread~ \$0rd4;
#X obj 111 114 route del_time;
#X connect 2 0 13 0;
#X connect 2 0 18 0;
#X connect 3 0 24 0;
#X connect 3 1 27 1;
#X connect 4 0 27 0;
#X connect 5 0 23 0;
#X connect 5 1 26 1;
#X connect 6 0 26 0;
#X connect 7 0 22 0;
#X connect 7 1 25 1;
#X connect 8 0 25 0;
#X connect 9 0 21 1;
#X connect 10 0 21 3;
#X connect 11 0 21 5;
#X connect 14 0 28 0;
#X connect 16 0 21 2;
#X connect 17 0 21 4;
#X connect 18 0 16 0;
#X connect 18 1 17 0;
#X connect 18 2 7 0;
#X connect 18 3 5 0;
#X connect 18 4 3 0;
#X connect 19 0 16 0;
#X connect 20 0 17 0;
#X connect 21 0 0 0;
#X connect 22 0 8 0;
#X connect 23 0 6 0;
#X connect 24 0 4 0;
#X connect 25 0 9 0;
#X connect 26 0 10 0;
#X connect 27 0 11 0;
#X connect 28 0 30 0;
#X connect 28 1 12 0;
#X connect 29 0 21 0;
#X connect 30 0 22 0;
#X connect 30 0 23 0;
#X connect 30 0 24 0;
#X connect 30 0 29 0;
#X restore 531 236 pd rev_tap4________________;
#N canvas 8 40 783 616 rev_tap3________________ 0;
#X obj 74 519 outlet~;
#X obj 22 40 inlet;
#X obj 411 76 inlet;
#X obj 588 226 t b f;
#X obj 569 277 * 0.001;
#X obj 507 226 t b f;
#X obj 488 277 * 0.001;
#X obj 431 227 t b f;
#X obj 412 278 * 0.001;
#X obj 431 332 * -60;
#X obj 506 331 * -60;
#X obj 588 331 * -60;
#X obj 435 502 outlet;
#X obj 574 504 outlet;
#X obj 111 52 inlet;
#X text 19 19 dummy;
#X obj 135 454 * 1000;
#X obj 197 453 * 1000;
#X obj 395 115 unpack 0 0 0 0 0;
#X obj 135 423 init 0.45;
#X obj 198 423 init 3.5;
#X obj 73 496 hml_shelf~ -2 450 -4 3500 -6 100;
#X obj 412 256 f 50;
#X obj 488 255 f 50;
#X obj 569 255 f 50;
#X obj 431 311 / 4;
#X obj 507 310 / 2;
#X obj 588 310 / 1;
#X obj 111 86 route 3;
#X obj 29 451 delread~ \$0rd3;
#X obj 111 114 route del_time;
#X connect 2 0 13 0;
#X connect 2 0 18 0;
#X connect 3 0 24 0;
#X connect 3 1 27 1;
#X connect 4 0 27 0;
#X connect 5 0 23 0;
#X connect 5 1 26 1;
#X connect 6 0 26 0;
#X connect 7 0 22 0;
#X connect 7 1 25 1;
#X connect 8 0 25 0;
#X connect 9 0 21 1;
#X connect 10 0 21 3;
#X connect 11 0 21 5;
#X connect 14 0 28 0;
#X connect 16 0 21 2;
#X connect 17 0 21 4;
#X connect 18 0 16 0;
#X connect 18 1 17 0;
#X connect 18 2 7 0;
#X connect 18 3 5 0;
#X connect 18 4 3 0;
#X connect 19 0 16 0;
#X connect 20 0 17 0;
#X connect 21 0 0 0;
#X connect 22 0 8 0;
#X connect 23 0 6 0;
#X connect 24 0 4 0;
#X connect 25 0 9 0;
#X connect 26 0 10 0;
#X connect 27 0 11 0;
#X connect 28 0 30 0;
#X connect 28 1 12 0;
#X connect 29 0 21 0;
#X connect 30 0 22 0;
#X connect 30 0 23 0;
#X connect 30 0 24 0;
#X connect 30 0 29 0;
#X restore 515 214 pd rev_tap3________________;
#N canvas 8 40 781 614 rev_tap2________________ 0;
#X obj 74 519 outlet~;
#X obj 22 40 inlet;
#X obj 410 81 inlet;
#X obj 588 226 t b f;
#X obj 569 277 * 0.001;
#X obj 507 226 t b f;
#X obj 488 277 * 0.001;
#X obj 431 227 t b f;
#X obj 412 278 * 0.001;
#X obj 431 332 * -60;
#X obj 506 331 * -60;
#X obj 588 331 * -60;
#X obj 435 502 outlet;
#X obj 574 504 outlet;
#X obj 111 52 inlet;
#X text 19 19 dummy;
#X obj 135 454 * 1000;
#X obj 197 453 * 1000;
#X obj 399 117 unpack 0 0 0 0 0;
#X obj 135 423 init 0.45;
#X obj 198 423 init 3.5;
#X obj 73 496 hml_shelf~ -2 450 -4 3500 -6 100;
#X obj 412 256 f 50;
#X obj 488 255 f 50;
#X obj 569 255 f 50;
#X obj 431 311 / 4;
#X obj 507 310 / 2;
#X obj 588 310 / 1;
#X obj 111 86 route 2;
#X obj 38 455 delread~ \$0rd2;
#X obj 112 114 route del_time;
#X connect 2 0 13 0;
#X connect 2 0 18 0;
#X connect 3 0 24 0;
#X connect 3 1 27 1;
#X connect 4 0 27 0;
#X connect 5 0 23 0;
#X connect 5 1 26 1;
#X connect 6 0 26 0;
#X connect 7 0 22 0;
#X connect 7 1 25 1;
#X connect 8 0 25 0;
#X connect 9 0 21 1;
#X connect 10 0 21 3;
#X connect 11 0 21 5;
#X connect 14 0 28 0;
#X connect 16 0 21 2;
#X connect 17 0 21 4;
#X connect 18 0 16 0;
#X connect 18 1 17 0;
#X connect 18 2 7 0;
#X connect 18 3 5 0;
#X connect 18 4 3 0;
#X connect 19 0 16 0;
#X connect 20 0 17 0;
#X connect 21 0 0 0;
#X connect 22 0 8 0;
#X connect 23 0 6 0;
#X connect 24 0 4 0;
#X connect 25 0 9 0;
#X connect 26 0 10 0;
#X connect 27 0 11 0;
#X connect 28 0 30 0;
#X connect 28 1 12 0;
#X connect 29 0 21 0;
#X connect 30 0 22 0;
#X connect 30 0 23 0;
#X connect 30 0 24 0;
#X connect 30 0 29 0;
#X restore 504 192 pd rev_tap2________________;
#N canvas 8 40 777 610 rev_tap1________________ 0;
#X obj 74 519 outlet~;
#X obj 22 40 inlet;
#X obj 411 82 inlet;
#X obj 588 226 t b f;
#X obj 569 277 * 0.001;
#X obj 507 226 t b f;
#X obj 488 277 * 0.001;
#X obj 431 227 t b f;
#X obj 412 278 * 0.001;
#X obj 431 332 * -60;
#X obj 506 331 * -60;
#X obj 588 331 * -60;
#X obj 435 502 outlet;
#X obj 574 504 outlet;
#X obj 111 52 inlet;
#X text 19 19 dummy;
#X obj 135 454 * 1000;
#X obj 197 453 * 1000;
#X obj 397 115 unpack 0 0 0 0 0;
#X obj 135 423 init 0.45;
#X obj 198 423 init 3.5;
#X obj 73 496 hml_shelf~ -2 450 -4 3500 -6 100;
#X obj 412 256 f 50;
#X obj 488 255 f 50;
#X obj 569 255 f 50;
#X obj 431 311 / 4;
#X obj 507 310 / 2;
#X obj 588 310 / 1;
#X obj 111 86 route 1;
#X obj 37 461 delread~ \$0rd1;
#X obj 111 114 route del_time;
#X connect 2 0 13 0;
#X connect 2 0 18 0;
#X connect 3 0 24 0;
#X connect 3 1 27 1;
#X connect 4 0 27 0;
#X connect 5 0 23 0;
#X connect 5 1 26 1;
#X connect 6 0 26 0;
#X connect 7 0 22 0;
#X connect 7 1 25 1;
#X connect 8 0 25 0;
#X connect 9 0 21 1;
#X connect 10 0 21 3;
#X connect 11 0 21 5;
#X connect 14 0 28 0;
#X connect 16 0 21 2;
#X connect 17 0 21 4;
#X connect 18 0 16 0;
#X connect 18 1 17 0;
#X connect 18 2 7 0;
#X connect 18 3 5 0;
#X connect 18 4 3 0;
#X connect 19 0 16 0;
#X connect 20 0 17 0;
#X connect 21 0 0 0;
#X connect 22 0 8 0;
#X connect 23 0 6 0;
#X connect 24 0 4 0;
#X connect 25 0 9 0;
#X connect 26 0 10 0;
#X connect 27 0 11 0;
#X connect 28 0 30 0;
#X connect 28 1 12 0;
#X connect 29 0 21 0;
#X connect 30 0 22 0;
#X connect 30 0 23 0;
#X connect 30 0 24 0;
#X connect 30 0 29 0;
#X restore 491 170 pd rev_tap1________________;
#N canvas 16 80 781 614 rev_tap0________________ 0;
#X obj 74 519 outlet~;
#X obj 22 40 inlet;
#X obj 468 76 inlet;
#X obj 588 226 t b f;
#X obj 569 277 * 0.001;
#X obj 507 226 t b f;
#X obj 488 277 * 0.001;
#X obj 431 227 t b f;
#X obj 412 278 * 0.001;
#X obj 431 332 * -60;
#X obj 506 331 * -60;
#X obj 588 331 * -60;
#X obj 435 502 outlet;
#X obj 574 504 outlet;
#X obj 111 52 inlet;
#X text 19 19 dummy;
#X obj 135 454 * 1000;
#X obj 197 453 * 1000;
#X obj 135 423 init 0.45;
#X obj 198 423 init 3.5;
#X obj 73 496 hml_shelf~ -2 450 -4 3500 -6 100;
#X obj 412 256 f 50;
#X obj 488 255 f 50;
#X obj 569 255 f 50;
#X obj 431 311 / 4;
#X obj 507 310 / 2;
#X obj 588 310 / 1;
#X obj 111 86 route 0;
#X obj 451 114 unpack 0 0 0 0 0;
#X obj 39 452 delread~ \$0rd0;
#X obj 111 114 route del_time;
#X connect 2 0 13 0;
#X connect 2 0 28 0;
#X connect 3 0 23 0;
#X connect 3 1 26 1;
#X connect 4 0 26 0;
#X connect 5 0 22 0;
#X connect 5 1 25 1;
#X connect 6 0 25 0;
#X connect 7 0 21 0;
#X connect 7 1 24 1;
#X connect 8 0 24 0;
#X connect 9 0 20 1;
#X connect 10 0 20 3;
#X connect 11 0 20 5;
#X connect 14 0 27 0;
#X connect 16 0 20 2;
#X connect 17 0 20 4;
#X connect 18 0 16 0;
#X connect 19 0 17 0;
#X connect 20 0 0 0;
#X connect 21 0 8 0;
#X connect 22 0 6 0;
#X connect 23 0 4 0;
#X connect 24 0 9 0;
#X connect 25 0 10 0;
#X connect 26 0 11 0;
#X connect 27 0 30 0;
#X connect 27 1 12 0;
#X connect 28 0 16 0;
#X connect 28 1 17 0;
#X connect 28 2 7 0;
#X connect 28 3 5 0;
#X connect 28 4 3 0;
#X connect 29 0 20 0;
#X connect 30 0 21 0;
#X connect 30 0 22 0;
#X connect 30 0 23 0;
#X connect 30 0 29 0;
#X restore 480 148 pd rev_tap0________________;
#X obj 507 71 route del_time;
#N canvas 12 60 781 614 rev_tap8________________ 0;
#X obj 74 519 outlet~;
#X obj 22 40 inlet;
#X obj 400 73 inlet;
#X obj 588 226 t b f;
#X obj 569 277 * 0.001;
#X obj 507 226 t b f;
#X obj 488 277 * 0.001;
#X obj 431 227 t b f;
#X obj 412 278 * 0.001;
#X obj 431 332 * -60;
#X obj 506 331 * -60;
#X obj 588 331 * -60;
#X obj 435 502 outlet;
#X obj 574 504 outlet;
#X obj 111 52 inlet;
#X text 19 19 dummy;
#X obj 135 454 * 1000;
#X obj 197 453 * 1000;
#X obj 393 114 unpack 0 0 0 0 0;
#X obj 135 423 init 0.45;
#X obj 198 423 init 3.5;
#X obj 73 496 hml_shelf~ -2 450 -4 3500 -6 100;
#X obj 412 256 f 50;
#X obj 488 255 f 50;
#X obj 569 255 f 50;
#X obj 431 311 / 4;
#X obj 507 310 / 2;
#X obj 588 310 / 1;
#X obj 111 114 route del_time;
#X obj 111 86 route 8;
#X obj 41 460 delread~ \$0rd8;
#X connect 2 0 13 0;
#X connect 2 0 18 0;
#X connect 3 0 24 0;
#X connect 3 1 27 1;
#X connect 4 0 27 0;
#X connect 5 0 23 0;
#X connect 5 1 26 1;
#X connect 6 0 26 0;
#X connect 7 0 22 0;
#X connect 7 1 25 1;
#X connect 8 0 25 0;
#X connect 9 0 21 1;
#X connect 10 0 21 3;
#X connect 11 0 21 5;
#X connect 14 0 29 0;
#X connect 16 0 21 2;
#X connect 17 0 21 4;
#X connect 18 0 16 0;
#X connect 18 1 17 0;
#X connect 18 2 7 0;
#X connect 18 3 5 0;
#X connect 18 4 3 0;
#X connect 19 0 16 0;
#X connect 20 0 17 0;
#X connect 21 0 0 0;
#X connect 22 0 8 0;
#X connect 23 0 6 0;
#X connect 24 0 4 0;
#X connect 25 0 9 0;
#X connect 26 0 10 0;
#X connect 27 0 11 0;
#X connect 28 0 22 0;
#X connect 28 0 23 0;
#X connect 28 0 24 0;
#X connect 28 0 30 0;
#X connect 29 0 28 0;
#X connect 29 1 12 0;
#X connect 30 0 21 0;
#X restore 581 324 pd rev_tap8________________;
#N canvas 8 40 781 614 rev_tap9________________ 0;
#X obj 74 519 outlet~;
#X obj 22 40 inlet;
#X obj 425 80 inlet;
#X obj 588 226 t b f;
#X obj 569 277 * 0.001;
#X obj 507 226 t b f;
#X obj 488 277 * 0.001;
#X obj 431 227 t b f;
#X obj 412 278 * 0.001;
#X obj 431 332 * -60;
#X obj 506 331 * -60;
#X obj 588 331 * -60;
#X obj 435 502 outlet;
#X obj 574 504 outlet;
#X obj 111 52 inlet;
#X text 19 19 dummy;
#X obj 135 454 * 1000;
#X obj 197 453 * 1000;
#X obj 403 114 unpack 0 0 0 0 0;
#X obj 135 423 init 0.45;
#X obj 198 423 init 3.5;
#X obj 73 496 hml_shelf~ -2 450 -4 3500 -6 100;
#X obj 412 256 f 50;
#X obj 488 255 f 50;
#X obj 569 255 f 50;
#X obj 431 311 / 4;
#X obj 507 310 / 2;
#X obj 588 310 / 1;
#X obj 111 114 route del_time;
#X obj 111 86 route 9;
#X obj 35 457 delread~ \$0rd9;
#X connect 2 0 13 0;
#X connect 2 0 18 0;
#X connect 3 0 24 0;
#X connect 3 1 27 1;
#X connect 4 0 27 0;
#X connect 5 0 23 0;
#X connect 5 1 26 1;
#X connect 6 0 26 0;
#X connect 7 0 22 0;
#X connect 7 1 25 1;
#X connect 8 0 25 0;
#X connect 9 0 21 1;
#X connect 10 0 21 3;
#X connect 11 0 21 5;
#X connect 14 0 29 0;
#X connect 16 0 21 2;
#X connect 17 0 21 4;
#X connect 18 0 16 0;
#X connect 18 1 17 0;
#X connect 18 2 7 0;
#X connect 18 3 5 0;
#X connect 18 4 3 0;
#X connect 19 0 16 0;
#X connect 20 0 17 0;
#X connect 21 0 0 0;
#X connect 22 0 8 0;
#X connect 23 0 6 0;
#X connect 24 0 4 0;
#X connect 25 0 9 0;
#X connect 26 0 10 0;
#X connect 27 0 11 0;
#X connect 28 0 22 0;
#X connect 28 0 23 0;
#X connect 28 0 24 0;
#X connect 28 0 30 0;
#X connect 29 0 28 0;
#X connect 29 1 12 0;
#X connect 30 0 21 0;
#X restore 592 346 pd rev_tap9________________;
#N canvas 8 40 783 616 rev_tap10_______________ 0;
#X obj 74 519 outlet~;
#X obj 22 40 inlet;
#X obj 438 82 inlet;
#X obj 588 226 t b f;
#X obj 569 277 * 0.001;
#X obj 507 226 t b f;
#X obj 488 277 * 0.001;
#X obj 431 227 t b f;
#X obj 412 278 * 0.001;
#X obj 431 332 * -60;
#X obj 506 331 * -60;
#X obj 588 331 * -60;
#X obj 435 502 outlet;
#X obj 574 504 outlet;
#X obj 111 52 inlet;
#X text 19 19 dummy;
#X obj 135 454 * 1000;
#X obj 197 453 * 1000;
#X obj 399 114 unpack 0 0 0 0 0;
#X obj 135 423 init 0.45;
#X obj 198 423 init 3.5;
#X obj 73 496 hml_shelf~ -2 450 -4 3500 -6 100;
#X obj 412 256 f 50;
#X obj 488 255 f 50;
#X obj 569 255 f 50;
#X obj 431 311 / 4;
#X obj 507 310 / 2;
#X obj 588 310 / 1;
#X obj 111 114 route del_time;
#X obj 111 86 route 10;
#X obj 38 438 delread~ \$0rd10;
#X connect 2 0 13 0;
#X connect 2 0 18 0;
#X connect 3 0 24 0;
#X connect 3 1 27 1;
#X connect 4 0 27 0;
#X connect 5 0 23 0;
#X connect 5 1 26 1;
#X connect 6 0 26 0;
#X connect 7 0 22 0;
#X connect 7 1 25 1;
#X connect 8 0 25 0;
#X connect 9 0 21 1;
#X connect 10 0 21 3;
#X connect 11 0 21 5;
#X connect 14 0 29 0;
#X connect 16 0 21 2;
#X connect 17 0 21 4;
#X connect 18 0 16 0;
#X connect 18 1 17 0;
#X connect 18 2 7 0;
#X connect 18 3 5 0;
#X connect 18 4 3 0;
#X connect 19 0 16 0;
#X connect 20 0 17 0;
#X connect 21 0 0 0;
#X connect 22 0 8 0;
#X connect 23 0 6 0;
#X connect 24 0 4 0;
#X connect 25 0 9 0;
#X connect 26 0 10 0;
#X connect 27 0 11 0;
#X connect 28 0 22 0;
#X connect 28 0 23 0;
#X connect 28 0 24 0;
#X connect 28 0 30 0;
#X connect 29 0 28 0;
#X connect 29 1 12 0;
#X connect 30 0 21 0;
#X restore 605 368 pd rev_tap10_______________;
#N canvas 8 40 773 606 rev_tap11_______________ 0;
#X obj 74 519 outlet~;
#X obj 22 40 inlet;
#X obj 434 84 inlet;
#X obj 588 226 t b f;
#X obj 569 277 * 0.001;
#X obj 507 226 t b f;
#X obj 488 277 * 0.001;
#X obj 431 227 t b f;
#X obj 412 278 * 0.001;
#X obj 431 332 * -60;
#X obj 506 331 * -60;
#X obj 588 331 * -60;
#X obj 435 502 outlet;
#X obj 574 504 outlet;
#X obj 111 52 inlet;
#X text 19 19 dummy;
#X obj 135 454 * 1000;
#X obj 197 453 * 1000;
#X obj 407 115 unpack 0 0 0 0 0;
#X obj 135 423 init 0.45;
#X obj 198 423 init 3.5;
#X obj 73 496 hml_shelf~ -2 450 -4 3500 -6 100;
#X obj 412 256 f 50;
#X obj 488 255 f 50;
#X obj 569 255 f 50;
#X obj 431 311 / 4;
#X obj 507 310 / 2;
#X obj 588 310 / 1;
#X obj 111 114 route del_time;
#X obj 111 86 route 11;
#X obj 36 451 delread~ \$0rd11;
#X connect 2 0 13 0;
#X connect 2 0 18 0;
#X connect 3 0 24 0;
#X connect 3 1 27 1;
#X connect 4 0 27 0;
#X connect 5 0 23 0;
#X connect 5 1 26 1;
#X connect 6 0 26 0;
#X connect 7 0 22 0;
#X connect 7 1 25 1;
#X connect 8 0 25 0;
#X connect 9 0 21 1;
#X connect 10 0 21 3;
#X connect 11 0 21 5;
#X connect 14 0 29 0;
#X connect 16 0 21 2;
#X connect 17 0 21 4;
#X connect 18 0 16 0;
#X connect 18 1 17 0;
#X connect 18 2 7 0;
#X connect 18 3 5 0;
#X connect 18 4 3 0;
#X connect 19 0 16 0;
#X connect 20 0 17 0;
#X connect 21 0 0 0;
#X connect 22 0 8 0;
#X connect 23 0 6 0;
#X connect 24 0 4 0;
#X connect 25 0 9 0;
#X connect 26 0 10 0;
#X connect 27 0 11 0;
#X connect 28 0 22 0;
#X connect 28 0 23 0;
#X connect 28 0 24 0;
#X connect 28 0 30 0;
#X connect 29 0 28 0;
#X connect 29 1 12 0;
#X connect 30 0 21 0;
#X restore 616 390 pd rev_tap11_______________;
#X obj 237 265 +~;
#X obj 264 283 +~;
#X obj 292 303 +~;
#X obj 319 322 +~;
#X obj 264 241 inlet~;
#X obj 292 260 inlet~;
#X obj 319 279 inlet~;
#X obj 237 222 inlet~;
#N canvas 4 20 598 521 feedback12______________________________________
0;
#X obj 344 27 inlet~;
#X obj 302 27 inlet~;
#X obj 106 27 inlet~;
#X obj 64 27 inlet~;
#X obj 23 27 inlet~;
#X obj 245 27 inlet~;
#X obj 203 27 inlet~;
#X obj 162 27 inlet~;
#X obj 212 226 outlet~;
#X obj 258 226 outlet~;
#X obj 304 226 outlet~;
#X obj 351 226 outlet~;
#X obj 23 226 outlet~;
#X obj 70 226 outlet~;
#X obj 116 226 outlet~;
#X obj 163 226 outlet~;
#N canvas 4 20 454 304 feeback4_____________ 0;
#X obj 168 263 outlet~;
#X obj 122 263 outlet~;
#X obj 76 263 outlet~;
#X obj 30 263 outlet~;
#X obj 153 214 +~;
#X obj 112 214 +~;
#X obj 30 217 +~;
#X obj 71 215 +~;
#X obj 84 109 +~;
#X obj 30 26 inlet~;
#X obj 112 26 inlet~;
#X obj 153 26 inlet~;
#X obj 124 65 +~;
#X obj 44 63 +~;
#X obj 71 26 inlet~;
#X obj 84 147 *~ -0.5;
#X connect 4 0 3 0;
#X connect 5 0 0 0;
#X connect 6 0 2 0;
#X connect 7 0 1 0;
#X connect 8 0 15 0;
#X connect 9 0 13 0;
#X connect 9 0 6 0;
#X connect 10 0 12 0;
#X connect 10 0 5 0;
#X connect 11 0 12 1;
#X connect 11 0 4 0;
#X connect 12 0 8 1;
#X connect 13 0 8 0;
#X connect 14 0 13 1;
#X connect 14 0 7 0;
#X connect 15 0 6 1;
#X connect 15 0 7 1;
#X connect 15 0 5 1;
#X connect 15 0 4 1;
#X restore 22 173 pd feeback4_____________;
#N canvas 4 20 458 308 feeback4_____________ 0;
#X obj 168 263 outlet~;
#X obj 122 263 outlet~;
#X obj 76 263 outlet~;
#X obj 30 263 outlet~;
#X obj 153 214 +~;
#X obj 112 214 +~;
#X obj 30 217 +~;
#X obj 71 215 +~;
#X obj 84 109 +~;
#X obj 30 26 inlet~;
#X obj 112 26 inlet~;
#X obj 153 26 inlet~;
#X obj 124 65 +~;
#X obj 44 63 +~;
#X obj 71 26 inlet~;
#X obj 84 147 *~ -0.5;
#X connect 4 0 3 0;
#X connect 5 0 0 0;
#X connect 6 0 2 0;
#X connect 7 0 1 0;
#X connect 8 0 15 0;
#X connect 9 0 13 0;
#X connect 9 0 6 0;
#X connect 10 0 12 0;
#X connect 10 0 5 0;
#X connect 11 0 12 1;
#X connect 11 0 4 0;
#X connect 12 0 8 1;
#X connect 13 0 8 0;
#X connect 14 0 13 1;
#X connect 14 0 7 0;
#X connect 15 0 6 1;
#X connect 15 0 7 1;
#X connect 15 0 5 1;
#X connect 15 0 4 1;
#X restore 210 175 pd feeback4_____________;
#N canvas 0 0 454 304 feedback3___ 0;
#X obj 134 282 outlet~;
#X obj 87 282 outlet~;
#X obj 39 282 outlet~;
#X obj 53 125 +~;
#X obj 39 30 inlet~;
#X obj 53 69 +~;
#X obj 80 30 inlet~;
#X obj 121 30 inlet~;
#X obj 39 234 +~;
#X obj 80 232 +~;
#X obj 121 232 +~;
#X obj 53 191 *~ -0.666667;
#X connect 3 0 11 0;
#X connect 4 0 5 0;
#X connect 4 0 8 0;
#X connect 5 0 3 0;
#X connect 6 0 5 1;
#X connect 6 0 9 0;
#X connect 7 0 3 1;
#X connect 7 0 10 0;
#X connect 8 0 1 0;
#X connect 9 0 0 0;
#X connect 10 0 2 0;
#X connect 11 0 8 1;
#X connect 11 0 9 1;
#X connect 11 0 10 1;
#X restore 23 113 pd feedback3___;
#X obj 400 226 outlet~;
#X obj 446 226 outlet~;
#X obj 492 226 outlet~;
#X obj 539 226 outlet~;
#N canvas 4 20 454 304 feeback4_____________ 0;
#X obj 168 263 outlet~;
#X obj 122 263 outlet~;
#X obj 76 263 outlet~;
#X obj 30 263 outlet~;
#X obj 153 214 +~;
#X obj 112 214 +~;
#X obj 30 217 +~;
#X obj 71 215 +~;
#X obj 84 109 +~;
#X obj 30 26 inlet~;
#X obj 112 26 inlet~;
#X obj 153 26 inlet~;
#X obj 124 65 +~;
#X obj 44 63 +~;
#X obj 71 26 inlet~;
#X obj 84 147 *~ -0.5;
#X connect 4 0 3 0;
#X connect 5 0 0 0;
#X connect 6 0 2 0;
#X connect 7 0 1 0;
#X connect 8 0 15 0;
#X connect 9 0 13 0;
#X connect 9 0 6 0;
#X connect 10 0 12 0;
#X connect 10 0 5 0;
#X connect 11 0 12 1;
#X connect 11 0 4 0;
#X connect 12 0 8 1;
#X connect 13 0 8 0;
#X connect 14 0 13 1;
#X connect 14 0 7 0;
#X connect 15 0 6 1;
#X connect 15 0 7 1;
#X connect 15 0 5 1;
#X connect 15 0 4 1;
#X restore 398 175 pd feeback4_____________;
#N canvas 0 0 462 312 feedback3___ 0;
#X obj 134 282 outlet~;
#X obj 87 282 outlet~;
#X obj 39 282 outlet~;
#X obj 53 125 +~;
#X obj 39 30 inlet~;
#X obj 53 69 +~;
#X obj 80 30 inlet~;
#X obj 121 30 inlet~;
#X obj 39 234 +~;
#X obj 80 232 +~;
#X obj 121 232 +~;
#X obj 53 191 *~ -0.666667;
#X connect 3 0 11 0;
#X connect 4 0 5 0;
#X connect 4 0 8 0;
#X connect 5 0 3 0;
#X connect 6 0 5 1;
#X connect 6 0 9 0;
#X connect 7 0 3 1;
#X connect 7 0 10 0;
#X connect 8 0 1 0;
#X connect 9 0 0 0;
#X connect 10 0 2 0;
#X connect 11 0 8 1;
#X connect 11 0 9 1;
#X connect 11 0 10 1;
#X restore 163 113 pd feedback3___;
#N canvas 0 0 454 304 feedback3___ 0;
#X obj 134 282 outlet~;
#X obj 87 282 outlet~;
#X obj 39 282 outlet~;
#X obj 53 125 +~;
#X obj 39 30 inlet~;
#X obj 53 69 +~;
#X obj 80 30 inlet~;
#X obj 121 30 inlet~;
#X obj 39 234 +~;
#X obj 80 232 +~;
#X obj 121 232 +~;
#X obj 53 191 *~ -0.666667;
#X connect 3 0 11 0;
#X connect 4 0 5 0;
#X connect 4 0 8 0;
#X connect 5 0 3 0;
#X connect 6 0 5 1;
#X connect 6 0 9 0;
#X connect 7 0 3 1;
#X connect 7 0 10 0;
#X connect 8 0 1 0;
#X connect 9 0 0 0;
#X connect 10 0 2 0;
#X connect 11 0 8 1;
#X connect 11 0 9 1;
#X connect 11 0 10 1;
#X restore 303 112 pd feedback3___;
#N canvas 0 0 454 304 feedback3___ 0;
#X obj 134 282 outlet~;
#X obj 87 282 outlet~;
#X obj 39 282 outlet~;
#X obj 53 125 +~;
#X obj 39 30 inlet~;
#X obj 53 69 +~;
#X obj 80 30 inlet~;
#X obj 121 30 inlet~;
#X obj 39 234 +~;
#X obj 80 232 +~;
#X obj 121 232 +~;
#X obj 53 191 *~ -0.666667;
#X connect 3 0 11 0;
#X connect 4 0 5 0;
#X connect 4 0 8 0;
#X connect 5 0 3 0;
#X connect 6 0 5 1;
#X connect 6 0 9 0;
#X connect 7 0 3 1;
#X connect 7 0 10 0;
#X connect 8 0 1 0;
#X connect 9 0 0 0;
#X connect 10 0 2 0;
#X connect 11 0 8 1;
#X connect 11 0 9 1;
#X connect 11 0 10 1;
#X restore 443 113 pd feedback3___;
#X obj 385 27 inlet~;
#X obj 484 27 inlet~;
#X obj 442 27 inlet~;
#X obj 525 27 inlet~;
#X connect 0 0 25 1;
#X connect 1 0 25 0;
#X connect 2 0 18 2;
#X connect 3 0 18 1;
#X connect 4 0 18 0;
#X connect 5 0 24 2;
#X connect 6 0 24 1;
#X connect 7 0 24 0;
#X connect 16 0 12 0;
#X connect 16 1 13 0;
#X connect 16 2 14 0;
#X connect 16 3 15 0;
#X connect 17 0 8 0;
#X connect 17 1 9 0;
#X connect 17 2 10 0;
#X connect 17 3 11 0;
#X connect 18 0 16 0;
#X connect 18 1 17 0;
#X connect 18 2 23 0;
#X connect 23 0 19 0;
#X connect 23 1 20 0;
#X connect 23 2 21 0;
#X connect 23 3 22 0;
#X connect 24 0 16 1;
#X connect 24 1 17 1;
#X connect 24 2 23 1;
#X connect 25 0 16 2;
#X connect 25 1 17 2;
#X connect 25 2 23 2;
#X connect 26 0 16 3;
#X connect 26 1 17 3;
#X connect 26 2 23 3;
#X connect 27 0 25 2;
#X connect 28 0 26 1;
#X connect 29 0 26 0;
#X connect 30 0 26 2;
#X restore 18 349 pd feedback12______________________________________
;
#X obj 241 541 delwrite~ \$0rd8 1000;
#X obj 268 561 delwrite~ \$0rd9 1000;
#X obj 296 582 delwrite~ \$0rd10 1000;
#X obj 325 603 delwrite~ \$0rd11 1000;
#X obj 601 527 +~;
#X obj 460 527 +~;
#X obj 553 526 +~;
#X obj 507 527 +~;
#X connect 1 0 54 0;
#X connect 7 0 72 0;
#X connect 8 0 73 0;
#X connect 9 0 74 0;
#X connect 10 0 75 0;
#X connect 11 0 67 1;
#X connect 12 0 67 2;
#X connect 13 0 67 3;
#X connect 14 0 67 4;
#X connect 15 0 67 5;
#X connect 16 0 67 6;
#X connect 17 0 67 7;
#X connect 18 0 67 0;
#X connect 19 0 18 0;
#X connect 20 0 11 0;
#X connect 21 0 12 0;
#X connect 22 0 13 0;
#X connect 23 0 15 0;
#X connect 24 0 16 0;
#X connect 25 0 17 0;
#X connect 26 0 14 0;
#X connect 28 0 34 0;
#X connect 28 1 37 4;
#X connect 29 0 34 0;
#X connect 29 1 37 3;
#X connect 30 0 34 0;
#X connect 30 1 37 2;
#X connect 31 0 34 0;
#X connect 31 1 37 1;
#X connect 32 0 34 0;
#X connect 32 1 33 1;
#X connect 33 0 37 0;
#X connect 34 0 33 0;
#X connect 35 0 53 1;
#X connect 36 0 32 0;
#X connect 36 1 31 0;
#X connect 36 2 30 0;
#X connect 36 3 29 0;
#X connect 36 4 28 0;
#X connect 37 0 53 2;
#X connect 46 0 17 1;
#X connect 46 0 7 1;
#X connect 46 1 55 1;
#X connect 46 2 55 2;
#X connect 47 0 16 1;
#X connect 47 0 9 1;
#X connect 47 1 46 1;
#X connect 47 2 46 2;
#X connect 48 0 15 1;
#X connect 48 0 10 1;
#X connect 48 1 47 1;
#X connect 48 2 47 2;
#X connect 49 0 14 1;
#X connect 49 0 8 1;
#X connect 49 1 48 1;
#X connect 49 2 48 2;
#X connect 50 0 13 1;
#X connect 50 0 7 0;
#X connect 50 1 49 1;
#X connect 50 2 49 2;
#X connect 51 0 12 1;
#X connect 51 0 9 0;
#X connect 51 1 50 1;
#X connect 51 2 50 2;
#X connect 52 0 11 1;
#X connect 52 0 10 0;
#X connect 52 1 51 1;
#X connect 52 2 51 2;
#X connect 53 0 18 1;
#X connect 53 0 8 0;
#X connect 53 1 52 1;
#X connect 53 2 52 2;
#X connect 54 0 35 0;
#X connect 54 1 36 0;
#X connect 55 0 59 1;
#X connect 55 0 75 1;
#X connect 55 1 56 1;
#X connect 55 2 56 2;
#X connect 56 0 60 1;
#X connect 56 0 73 1;
#X connect 56 1 57 1;
#X connect 56 2 57 2;
#X connect 57 0 61 1;
#X connect 57 0 72 1;
#X connect 57 1 58 1;
#X connect 57 2 58 2;
#X connect 58 0 62 1;
#X connect 58 0 74 1;
#X connect 59 0 67 8;
#X connect 60 0 67 9;
#X connect 61 0 67 10;
#X connect 62 0 67 11;
#X connect 63 0 60 0;
#X connect 64 0 61 0;
#X connect 65 0 62 0;
#X connect 66 0 59 0;
#X connect 67 0 38 0;
#X connect 67 1 39 0;
#X connect 67 2 40 0;
#X connect 67 3 41 0;
#X connect 67 4 42 0;
#X connect 67 5 43 0;
#X connect 67 6 44 0;
#X connect 67 7 45 0;
#X connect 67 8 68 0;
#X connect 67 9 69 0;
#X connect 67 10 70 0;
#X connect 67 11 71 0;
#X connect 72 0 3 0;
#X connect 73 0 6 0;
#X connect 74 0 4 0;
#X connect 75 0 5 0;
#X restore 80 308 pd reverberation12_4_________;
#X obj 233 116 noise~;
#X obj 233 139 *~ 1e-015;
#X obj 344 174 unpack 0 0 0 0;
#X obj 423 198 * 0.0278;
#X obj 396 219 * 0.0278;
#X obj 370 240 * 0.0278;
#X obj 344 261 * 0.0278;
#X text 113 28 4 earlies;
#X obj 100 181 +~;
#X obj 140 181 +~;
#X obj 180 181 +~;
#X obj 220 181 +~;
#X connect 5 0 38 0;
#X connect 6 0 17 0;
#X connect 11 0 19 0;
#X connect 12 0 18 0;
#X connect 13 0 21 0;
#X connect 14 0 20 0;
#X connect 15 0 12 1;
#X connect 15 0 13 1;
#X connect 15 0 11 1;
#X connect 15 0 14 1;
#X connect 15 1 32 0;
#X connect 15 2 11 2;
#X connect 15 2 14 2;
#X connect 15 2 12 2;
#X connect 15 2 13 2;
#X connect 15 3 29 12;
#X connect 16 0 29 0;
#X connect 16 0 29 4;
#X connect 16 0 29 8;
#X connect 17 0 28 0;
#X connect 18 0 10 0;
#X connect 19 0 7 0;
#X connect 20 0 8 0;
#X connect 21 0 9 0;
#X connect 22 0 39 0;
#X connect 23 0 29 1;
#X connect 23 0 29 5;
#X connect 23 0 29 9;
#X connect 24 0 40 0;
#X connect 25 0 29 2;
#X connect 25 0 29 6;
#X connect 25 0 29 10;
#X connect 26 0 41 0;
#X connect 27 0 29 3;
#X connect 27 0 29 7;
#X connect 27 0 29 11;
#X connect 28 0 15 0;
#X connect 29 0 14 0;
#X connect 29 1 11 0;
#X connect 29 2 13 0;
#X connect 29 3 12 0;
#X connect 30 0 31 0;
#X connect 31 0 38 1;
#X connect 31 0 39 1;
#X connect 31 0 40 1;
#X connect 31 0 41 1;
#X connect 32 0 36 0;
#X connect 32 1 35 0;
#X connect 32 2 34 0;
#X connect 32 3 33 0;
#X connect 33 0 18 1;
#X connect 34 0 21 1;
#X connect 35 0 19 1;
#X connect 36 0 20 1;
#X connect 38 0 16 0;
#X connect 39 0 23 0;
#X connect 40 0 25 0;
#X connect 41 0 27 0;
