#N canvas 7 10 657 628 10;
#X obj 42 51 inlet~;
#X obj 150 106 switch~;
#X obj 381 214 pp time;
#X obj 202 122 pp diag;
#X obj 186 191 pp col;
#X obj 331 186 pp time;
#X text 44 33 signal in;
#X obj 167 81 inlet;
#X text 166 65 switch_early1;
#X obj 343 125 inlet;
#X text 343 107 interpol;
#X obj 394 160 t b f;
#X obj 381 188 *;
#X obj 394 133 inlet;
#X text 393 116 dmfi;
#X obj 213 92 inlet;
#X text 211 75 damp_early1;
#X obj 255 104 inlet;
#X text 251 87 del_early1;
#X obj 297 116 inlet;
#X obj 43 516 outlet~;
#X obj 57 516 outlet~;
#X obj 71 516 outlet~;
#X obj 85 516 outlet~;
#X obj 99 516 outlet~;
#X obj 113 516 outlet~;
#X obj 127 516 outlet~;
#X text 49 538 A0;
#X obj 43 278 4_delay1p_doppless~ 500 150 ________________________________
;
#X obj 43 399 matrix_diag_mul_line8~ 4 50 ________________________________
;
#X text 296 98 ip_early1;
#X text 160 538 B3;
#X obj 42 422 matrix_mul_line8~ 4 7 50 ___________________________________
;
#X obj 186 212 ambi_encode 3;
#X obj 248 516 outlet~;
#X obj 272 516 outlet~;
#X obj 296 516 outlet~;
#X obj 320 516 outlet~;
#X text 255 536 4 earlies for reverb;
#X connect 0 0 28 0;
#X connect 2 0 28 2;
#X connect 3 0 29 0;
#X connect 4 0 33 0;
#X connect 5 0 29 0;
#X connect 5 0 32 0;
#X connect 7 0 1 0;
#X connect 9 0 12 0;
#X connect 9 0 5 0;
#X connect 11 0 12 0;
#X connect 11 1 12 1;
#X connect 12 0 2 0;
#X connect 13 0 11 0;
#X connect 15 0 3 0;
#X connect 17 0 28 1;
#X connect 19 0 4 0;
#X connect 28 0 29 0;
#X connect 28 0 34 0;
#X connect 28 1 29 1;
#X connect 28 1 35 0;
#X connect 28 2 29 2;
#X connect 28 2 36 0;
#X connect 28 3 29 3;
#X connect 28 3 37 0;
#X connect 29 0 32 0;
#X connect 29 1 32 1;
#X connect 29 2 32 2;
#X connect 29 3 32 3;
#X connect 32 0 20 0;
#X connect 32 1 21 0;
#X connect 32 2 22 0;
#X connect 32 3 23 0;
#X connect 32 4 24 0;
#X connect 32 5 25 0;
#X connect 32 6 26 0;
#X connect 33 0 32 0;
