#N canvas 0 0 768 331 10;
#X obj 35 225 outlet~;
#X obj 59 225 outlet~;
#X obj 83 225 outlet~;
#X obj 107 225 outlet~;
#X obj 131 225 outlet~;
#X obj 155 225 outlet~;
#X obj 179 225 outlet~;
#X obj 203 225 outlet~;
#X obj 227 225 outlet~;
#X obj 251 225 outlet~;
#X obj 275 225 outlet~;
#X obj 299 225 outlet~;
#X obj 323 225 outlet~;
#X obj 347 225 outlet~;
#X obj 371 225 outlet~;
#X obj 395 225 outlet~;
#X obj 419 225 outlet~;
#X obj 443 225 outlet~;
#X obj 467 225 outlet~;
#X obj 491 225 outlet~;
#X obj 515 225 outlet~;
#X obj 539 225 outlet~;
#X obj 563 225 outlet~;
#X obj 587 225 outlet~;
#X obj 611 225 outlet~;
#X obj 35 53 inlet~;
#X obj 239 55 inlet;
#X obj 352 56 inlet;
#X obj 352 78 pp time;
#X text 348 34 interpol-time;
#X text 236 36 encoder-list;
#X text 38 35 signal_in;
#X obj 132 54 inlet;
#X text 129 35 switch;
#X obj 132 76 switch~;
#X obj 175 150 matrix_mul_line8~ 1 36 50 __________________________________
;
#X obj 635 225 outlet~;
#X obj 659 225 outlet~;
#X obj 683 225 outlet~;
#X obj 707 225 outlet~;
#X obj 731 225 outlet~;
#X obj 755 225 outlet~;
#X obj 779 225 outlet~;
#X obj 803 225 outlet~;
#X obj 827 225 outlet~;
#X obj 851 225 outlet~;
#X obj 875 225 outlet~;
#X connect 25 0 35 0;
#X connect 26 0 35 0;
#X connect 27 0 28 0;
#X connect 28 0 35 0;
#X connect 32 0 34 0;
#X connect 35 0 0 0;
#X connect 35 1 1 0;
#X connect 35 2 2 0;
#X connect 35 3 3 0;
#X connect 35 4 4 0;
#X connect 35 5 5 0;
#X connect 35 6 6 0;
#X connect 35 7 7 0;
#X connect 35 8 8 0;
#X connect 35 9 9 0;
#X connect 35 10 10 0;
#X connect 35 11 11 0;
#X connect 35 12 12 0;
#X connect 35 13 13 0;
#X connect 35 14 14 0;
#X connect 35 15 15 0;
#X connect 35 16 16 0;
#X connect 35 17 17 0;
#X connect 35 18 18 0;
#X connect 35 19 19 0;
#X connect 35 20 20 0;
#X connect 35 21 21 0;
#X connect 35 22 22 0;
#X connect 35 23 23 0;
#X connect 35 24 24 0;
#X connect 35 25 36 0;
#X connect 35 26 37 0;
#X connect 35 27 38 0;
#X connect 35 28 39 0;
#X connect 35 29 40 0;
#X connect 35 30 41 0;
#X connect 35 31 42 0;
#X connect 35 32 43 0;
#X connect 35 33 44 0;
#X connect 35 34 45 0;
#X connect 35 35 46 0;
