#N canvas 132 300 458 308 10;
#X obj 52 34 inlet~;
#X obj 82 183 outlet~;
#X obj 82 132 line~;
#X obj 82 108 pack 2 150;
#X obj 149 33 inlet;
#X obj 256 32 inlet;
#X text 45 7 orderforce;
#X text 41 16 signal-inlet;
#X text 147 14 delaytime [ms];
#X text 253 14 interpolation-time [ms];
#X obj 82 158 vd~ \$1;
#X text 141 158 1.arg: <symbol> delayline-name;
#X obj 88 76 speedlim 150;
#X connect 2 0 10 0;
#X connect 3 0 2 0;
#X connect 4 0 12 0;
#X connect 5 0 3 1;
#X connect 5 0 12 1;
#X connect 10 0 1 0;
#X connect 12 0 3 0;
