#N canvas 83 16 653 624 10;
#X obj 41 51 inlet~;
#X obj 145 122 switch~;
#X obj 356 219 pp time;
#X obj 197 128 pp diag;
#X obj 185 183 pp col;
#X obj 302 219 pp time;
#X text 41 35 signal in;
#X obj 165 82 inlet;
#X text 163 66 switch_early1;
#X obj 342 129 inlet;
#X text 342 111 interpol;
#X obj 387 163 t b f;
#X obj 357 197 *;
#X obj 387 138 inlet;
#X text 386 121 dmfi;
#X obj 206 94 inlet;
#X text 204 77 damp_early1;
#X obj 250 105 inlet;
#X text 246 88 del_early1;
#X obj 294 115 inlet;
#X obj 43 516 outlet~;
#X obj 57 516 outlet~;
#X obj 71 516 outlet~;
#X obj 85 516 outlet~;
#X obj 99 516 outlet~;
#X obj 113 516 outlet~;
#X obj 127 516 outlet~;
#X obj 141 516 outlet~;
#X obj 155 516 outlet~;
#X obj 169 516 outlet~;
#X obj 183 516 outlet~;
#X text 49 538 A0;
#X obj 185 204 ambi_encode 5;
#X text 293 100 ip_early1;
#X obj 43 278 4_delay4p_line~ 500 150 ____________________________________
;
#X obj 43 399 matrix_diag_mul_line8~ 4 50 ________________________________
;
#X obj 42 422 matrix_mul_line8~ 4 11 50 __________________________________
;
#X text 207 535 B5;
#X obj 255 514 outlet~;
#X obj 279 514 outlet~;
#X obj 303 514 outlet~;
#X obj 327 514 outlet~;
#X text 255 533 4 earlies for reverb;
#X connect 0 0 34 0;
#X connect 2 0 34 2;
#X connect 3 0 35 0;
#X connect 4 0 32 0;
#X connect 5 0 35 0;
#X connect 5 0 36 0;
#X connect 7 0 1 0;
#X connect 9 0 12 0;
#X connect 9 0 5 0;
#X connect 11 0 12 0;
#X connect 11 1 12 1;
#X connect 12 0 2 0;
#X connect 13 0 11 0;
#X connect 15 0 3 0;
#X connect 17 0 34 1;
#X connect 19 0 4 0;
#X connect 32 0 36 0;
#X connect 34 0 35 0;
#X connect 34 0 38 0;
#X connect 34 1 35 1;
#X connect 34 1 39 0;
#X connect 34 2 35 2;
#X connect 34 2 40 0;
#X connect 34 3 35 3;
#X connect 34 3 41 0;
#X connect 35 0 36 0;
#X connect 35 1 36 1;
#X connect 35 2 36 2;
#X connect 35 3 36 3;
#X connect 36 0 20 0;
#X connect 36 1 21 0;
#X connect 36 2 22 0;
#X connect 36 3 23 0;
#X connect 36 4 24 0;
#X connect 36 5 25 0;
#X connect 36 6 26 0;
#X connect 36 7 27 0;
#X connect 36 8 28 0;
#X connect 36 9 29 0;
#X connect 36 10 30 0;
