#N canvas 72 332 719 632 10;
#X obj 46 543 outlet~;
#X obj 60 543 outlet~;
#X obj 74 543 outlet~;
#X obj 88 543 outlet~;
#X obj 102 543 outlet~;
#X obj 116 543 outlet~;
#X obj 130 543 outlet~;
#X obj 144 543 outlet~;
#X obj 158 543 outlet~;
#X obj 172 543 outlet~;
#X obj 186 543 outlet~;
#X text 52 565 A0;
#X obj 45 45 inlet~;
#X obj 426 215 pp time;
#X obj 169 109 switch~;
#X obj 221 120 pp diag;
#X obj 264 181 pp col;
#X obj 368 210 pp time;
#X obj 383 129 inlet;
#X text 383 112 interpol;
#X obj 434 163 t b f;
#X obj 426 191 *;
#X obj 434 137 inlet;
#X text 438 120 dmfi;
#X obj 170 81 inlet;
#X obj 226 94 inlet;
#X obj 277 105 inlet;
#X obj 327 116 inlet;
#X text 168 65 switch_early2;
#X text 224 78 damp_early2;
#X text 275 89 del_early2;
#X text 44 28 signal in;
#X text 330 100 ip_early2;
#X obj 264 202 ambi_encode 5;
#X obj 45 259 n_delay2p_line~ 8 500 150 _________________________________
;
#X obj 45 395 matrix_diag_mul_line8~ 8 50 _______________________________
;
#X obj 46 430 matrix_mul_line8~ 8 11 50 _________________________________
;
#X text 209 562 B5;
#X obj 336 519 +~;
#X obj 360 519 +~;
#X obj 384 519 +~;
#X obj 407 519 +~;
#X obj 336 543 outlet~;
#X obj 360 543 outlet~;
#X obj 384 543 outlet~;
#X obj 408 543 outlet~;
#X text 335 562 4 earlies for reverb;
#X connect 12 0 34 0;
#X connect 13 0 34 0;
#X connect 15 0 35 0;
#X connect 16 0 33 0;
#X connect 17 0 35 0;
#X connect 17 0 36 0;
#X connect 18 0 21 0;
#X connect 18 0 17 0;
#X connect 20 0 21 0;
#X connect 20 1 21 1;
#X connect 21 0 13 0;
#X connect 22 0 20 0;
#X connect 24 0 14 0;
#X connect 25 0 15 0;
#X connect 26 0 34 0;
#X connect 27 0 16 0;
#X connect 33 0 36 0;
#X connect 34 0 35 0;
#X connect 34 0 38 0;
#X connect 34 1 35 1;
#X connect 34 1 39 0;
#X connect 34 2 35 2;
#X connect 34 2 40 0;
#X connect 34 3 35 3;
#X connect 34 3 41 0;
#X connect 34 4 35 4;
#X connect 34 4 38 1;
#X connect 34 5 35 5;
#X connect 34 5 39 1;
#X connect 34 6 35 6;
#X connect 34 6 40 1;
#X connect 34 7 35 7;
#X connect 34 7 41 1;
#X connect 35 0 36 0;
#X connect 35 1 36 1;
#X connect 35 2 36 2;
#X connect 35 3 36 3;
#X connect 35 4 36 4;
#X connect 35 5 36 5;
#X connect 35 6 36 6;
#X connect 35 7 36 7;
#X connect 36 0 0 0;
#X connect 36 1 1 0;
#X connect 36 2 2 0;
#X connect 36 3 3 0;
#X connect 36 4 4 0;
#X connect 36 5 5 0;
#X connect 36 6 6 0;
#X connect 36 7 7 0;
#X connect 36 8 8 0;
#X connect 36 9 9 0;
#X connect 36 10 10 0;
#X connect 38 0 42 0;
#X connect 39 0 43 0;
#X connect 40 0 44 0;
#X connect 41 0 45 0;
