#N canvas 173 36 715 628 10;
#X obj 46 543 outlet~;
#X obj 60 543 outlet~;
#X obj 74 543 outlet~;
#X obj 88 543 outlet~;
#X obj 102 543 outlet~;
#X obj 116 543 outlet~;
#X obj 130 543 outlet~;
#X obj 144 543 outlet~;
#X obj 158 543 outlet~;
#X obj 172 543 outlet~;
#X obj 186 543 outlet~;
#X obj 200 543 outlet~;
#X obj 214 543 outlet~;
#X obj 228 543 outlet~;
#X obj 242 543 outlet~;
#X obj 256 543 outlet~;
#X obj 270 543 outlet~;
#X obj 284 543 outlet~;
#X obj 298 543 outlet~;
#X obj 312 543 outlet~;
#X obj 326 543 outlet~;
#X obj 340 543 outlet~;
#X obj 354 543 outlet~;
#X obj 368 543 outlet~;
#X obj 382 543 outlet~;
#X text 408 565 I4;
#X text 52 565 A0;
#X obj 45 45 inlet~;
#X obj 45 405 matrix_diag_mul_line8~ 18 50 _______________________________
;
#X obj 46 440 matrix_mul_line8~ 18 25 50 _________________________________
;
#X obj 426 215 pp time;
#X obj 169 109 switch~;
#X obj 221 120 pp diag;
#X obj 264 202 ambi_encode 4;
#X obj 264 181 pp col;
#X obj 368 210 pp time;
#X obj 383 129 inlet;
#X text 383 112 interpol;
#X obj 434 163 t b f;
#X obj 426 191 *;
#X obj 434 137 inlet;
#X text 438 120 dmfi;
#X obj 170 81 inlet;
#X obj 226 94 inlet;
#X obj 277 105 inlet;
#X obj 327 116 inlet;
#X text 168 65 switch_early2;
#X text 224 78 damp_early2;
#X text 275 89 del_early2;
#X text 330 100 itp_early2;
#X obj 45 259 n_delay2p_line~ 18 500 150 _________________________________
;
#X text 44 28 signal in;
#X obj 449 519 +~;
#X obj 473 519 +~;
#X obj 497 519 +~;
#X obj 520 519 +~;
#X obj 463 497 +~;
#X obj 487 497 +~;
#X obj 511 497 +~;
#X obj 534 497 +~;
#X obj 449 543 outlet~;
#X obj 473 543 outlet~;
#X obj 497 543 outlet~;
#X obj 521 543 outlet~;
#X obj 477 476 +~;
#X obj 525 476 +~;
#X text 458 562 5 earlies for reverb;
#X obj 544 519 +~;
#X obj 558 497 +~;
#X obj 545 543 outlet~;
#X obj 572 476 +~;
#X connect 27 0 50 0;
#X connect 28 0 29 0;
#X connect 28 1 29 1;
#X connect 28 2 29 2;
#X connect 28 3 29 3;
#X connect 28 4 29 4;
#X connect 28 5 29 5;
#X connect 28 6 29 6;
#X connect 28 7 29 7;
#X connect 28 8 29 8;
#X connect 28 9 29 9;
#X connect 28 10 29 10;
#X connect 28 11 29 11;
#X connect 28 12 29 12;
#X connect 28 13 29 13;
#X connect 28 14 29 14;
#X connect 28 15 29 15;
#X connect 28 16 29 16;
#X connect 28 17 29 17;
#X connect 29 0 0 0;
#X connect 29 1 1 0;
#X connect 29 2 2 0;
#X connect 29 3 3 0;
#X connect 29 4 4 0;
#X connect 29 5 5 0;
#X connect 29 6 6 0;
#X connect 29 7 7 0;
#X connect 29 8 8 0;
#X connect 29 9 9 0;
#X connect 29 10 10 0;
#X connect 29 11 11 0;
#X connect 29 12 12 0;
#X connect 29 13 13 0;
#X connect 29 14 14 0;
#X connect 29 15 15 0;
#X connect 29 16 16 0;
#X connect 29 17 17 0;
#X connect 29 18 18 0;
#X connect 29 19 19 0;
#X connect 29 20 20 0;
#X connect 29 21 21 0;
#X connect 29 22 22 0;
#X connect 29 23 23 0;
#X connect 29 24 24 0;
#X connect 30 0 50 0;
#X connect 32 0 28 0;
#X connect 33 0 29 0;
#X connect 34 0 33 0;
#X connect 35 0 28 0;
#X connect 35 0 29 0;
#X connect 36 0 39 0;
#X connect 36 0 35 0;
#X connect 38 0 39 0;
#X connect 38 1 39 1;
#X connect 39 0 30 0;
#X connect 40 0 38 0;
#X connect 42 0 31 0;
#X connect 43 0 32 0;
#X connect 44 0 50 0;
#X connect 45 0 34 0;
#X connect 50 0 28 0;
#X connect 50 0 52 0;
#X connect 50 1 28 1;
#X connect 50 1 53 0;
#X connect 50 2 28 2;
#X connect 50 2 54 0;
#X connect 50 3 28 3;
#X connect 50 3 55 0;
#X connect 50 4 28 4;
#X connect 50 4 67 0;
#X connect 50 5 28 5;
#X connect 50 5 56 0;
#X connect 50 6 28 6;
#X connect 50 6 57 0;
#X connect 50 7 28 7;
#X connect 50 7 58 0;
#X connect 50 8 28 8;
#X connect 50 8 59 0;
#X connect 50 9 28 9;
#X connect 50 9 68 0;
#X connect 50 10 28 10;
#X connect 50 10 64 0;
#X connect 50 11 28 11;
#X connect 50 11 57 1;
#X connect 50 12 28 12;
#X connect 50 12 65 0;
#X connect 50 13 28 13;
#X connect 50 13 59 1;
#X connect 50 14 28 14;
#X connect 50 14 70 0;
#X connect 50 15 28 15;
#X connect 50 15 64 1;
#X connect 50 16 28 16;
#X connect 50 16 65 1;
#X connect 50 17 28 17;
#X connect 50 17 70 1;
#X connect 52 0 60 0;
#X connect 53 0 61 0;
#X connect 54 0 62 0;
#X connect 55 0 63 0;
#X connect 56 0 52 1;
#X connect 57 0 53 1;
#X connect 58 0 54 1;
#X connect 59 0 55 1;
#X connect 64 0 56 1;
#X connect 65 0 58 1;
#X connect 67 0 69 0;
#X connect 68 0 67 1;
#X connect 70 0 68 1;
