#N canvas 0 0 501 334 10;
#X obj 39 224 outlet~;
#X obj 63 224 outlet~;
#X obj 87 224 outlet~;
#X obj 111 224 outlet~;
#X obj 135 224 outlet~;
#X obj 159 224 outlet~;
#X obj 183 224 outlet~;
#X obj 207 224 outlet~;
#X obj 231 224 outlet~;
#X obj 255 224 outlet~;
#X obj 279 224 outlet~;
#X obj 303 224 outlet~;
#X obj 327 224 outlet~;
#X obj 351 224 outlet~;
#X obj 375 224 outlet~;
#X obj 399 224 outlet~;
#X obj 39 52 inlet~;
#X obj 276 58 inlet;
#X obj 389 59 inlet;
#X obj 389 81 pp time;
#X text 385 37 interpol-time;
#X text 273 39 encoder-list;
#X obj 39 145 matrix_mul_line8~ 1 16 50 __________________________________
;
#X text 38 35 signal_in;
#X obj 132 54 inlet;
#X text 129 35 switch;
#X obj 132 76 switch~;
#X connect 16 0 22 0;
#X connect 17 0 22 0;
#X connect 18 0 19 0;
#X connect 19 0 22 0;
#X connect 22 0 0 0;
#X connect 22 1 1 0;
#X connect 22 2 2 0;
#X connect 22 3 3 0;
#X connect 22 4 4 0;
#X connect 22 5 5 0;
#X connect 22 6 6 0;
#X connect 22 7 7 0;
#X connect 22 8 8 0;
#X connect 22 9 9 0;
#X connect 22 10 10 0;
#X connect 22 11 11 0;
#X connect 22 12 12 0;
#X connect 22 13 13 0;
#X connect 22 14 14 0;
#X connect 22 15 15 0;
#X connect 24 0 26 0;
