#N canvas 0 0 764 327 10;
#X obj 35 225 outlet~;
#X obj 59 225 outlet~;
#X obj 83 225 outlet~;
#X obj 107 225 outlet~;
#X obj 131 225 outlet~;
#X obj 155 225 outlet~;
#X obj 179 225 outlet~;
#X obj 203 225 outlet~;
#X obj 227 225 outlet~;
#X obj 251 225 outlet~;
#X obj 275 225 outlet~;
#X obj 299 225 outlet~;
#X obj 323 225 outlet~;
#X obj 347 225 outlet~;
#X obj 371 225 outlet~;
#X obj 395 225 outlet~;
#X obj 419 225 outlet~;
#X obj 443 225 outlet~;
#X obj 467 225 outlet~;
#X obj 491 225 outlet~;
#X obj 515 225 outlet~;
#X obj 539 225 outlet~;
#X obj 563 225 outlet~;
#X obj 587 225 outlet~;
#X obj 611 225 outlet~;
#X obj 35 146 matrix_mul_line8~ 1 25 50 __________________________________
;
#X obj 35 53 inlet~;
#X obj 244 60 inlet;
#X obj 357 61 inlet;
#X obj 357 83 pp time;
#X text 353 39 interpol-time;
#X text 241 41 encoder-list;
#X text 34 36 signal_in;
#X obj 128 55 inlet;
#X text 125 36 switch;
#X obj 128 77 switch~;
#X connect 25 0 0 0;
#X connect 25 1 1 0;
#X connect 25 2 2 0;
#X connect 25 3 3 0;
#X connect 25 4 4 0;
#X connect 25 5 5 0;
#X connect 25 6 6 0;
#X connect 25 7 7 0;
#X connect 25 8 8 0;
#X connect 25 9 9 0;
#X connect 25 10 10 0;
#X connect 25 11 11 0;
#X connect 25 12 12 0;
#X connect 25 13 13 0;
#X connect 25 14 14 0;
#X connect 25 15 15 0;
#X connect 25 16 16 0;
#X connect 25 17 17 0;
#X connect 25 18 18 0;
#X connect 25 19 19 0;
#X connect 25 20 20 0;
#X connect 25 21 21 0;
#X connect 25 22 22 0;
#X connect 25 23 23 0;
#X connect 25 24 24 0;
#X connect 26 0 25 0;
#X connect 27 0 25 0;
#X connect 28 0 29 0;
#X connect 29 0 25 0;
#X connect 33 0 35 0;
