#N canvas 159 23 649 620 10;
#X obj 41 51 inlet~;
#X obj 43 399 matrix_diag_mul_line8~ 6 50 ________________________________
;
#X obj 145 122 switch~;
#X obj 356 219 pp time;
#X obj 197 128 pp diag;
#X obj 185 183 pp col;
#X obj 302 219 pp time;
#X text 41 35 signal in;
#X obj 165 82 inlet;
#X text 163 66 switch_early1;
#X obj 342 129 inlet;
#X text 342 111 interpol;
#X obj 387 163 t b f;
#X obj 357 197 *;
#X obj 387 138 inlet;
#X text 386 121 dmfi;
#X obj 206 94 inlet;
#X text 204 77 damp_early1;
#X obj 250 105 inlet;
#X text 246 88 del_early1;
#X obj 294 115 inlet;
#X text 293 100 itp_early1;
#X obj 43 516 outlet~;
#X obj 57 516 outlet~;
#X obj 71 516 outlet~;
#X obj 85 516 outlet~;
#X obj 99 516 outlet~;
#X obj 113 516 outlet~;
#X obj 127 516 outlet~;
#X obj 141 516 outlet~;
#X obj 155 516 outlet~;
#X obj 169 516 outlet~;
#X obj 183 516 outlet~;
#X obj 197 516 outlet~;
#X obj 211 516 outlet~;
#X obj 225 516 outlet~;
#X obj 239 516 outlet~;
#X obj 253 516 outlet~;
#X text 49 538 A0;
#X obj 43 278 6_delay4p_line~ 500 150 ____________________________________
;
#X obj 185 204 ambi_encode 3;
#X obj 42 422 matrix_mul_line8~ 6 16 50 __________________________________
;
#X text 275 537 G3;
#X obj 337 492 +~;
#X obj 313 516 outlet~;
#X obj 337 516 outlet~;
#X obj 361 516 outlet~;
#X obj 385 516 outlet~;
#X text 328 537 5 earlies for reverb;
#X obj 409 516 outlet~;
#X connect 0 0 39 0;
#X connect 1 0 41 0;
#X connect 1 1 41 1;
#X connect 1 2 41 2;
#X connect 1 3 41 3;
#X connect 1 4 41 4;
#X connect 1 5 41 5;
#X connect 3 0 39 2;
#X connect 4 0 1 0;
#X connect 5 0 40 0;
#X connect 6 0 1 0;
#X connect 6 0 41 0;
#X connect 8 0 2 0;
#X connect 10 0 13 0;
#X connect 10 0 6 0;
#X connect 12 0 13 0;
#X connect 12 1 13 1;
#X connect 13 0 3 0;
#X connect 14 0 12 0;
#X connect 16 0 4 0;
#X connect 18 0 39 1;
#X connect 20 0 5 0;
#X connect 39 0 1 0;
#X connect 39 0 44 0;
#X connect 39 1 1 1;
#X connect 39 1 43 0;
#X connect 39 2 1 2;
#X connect 39 2 46 0;
#X connect 39 3 1 3;
#X connect 39 3 47 0;
#X connect 39 4 1 4;
#X connect 39 4 49 0;
#X connect 39 5 1 5;
#X connect 39 5 43 1;
#X connect 40 0 41 0;
#X connect 41 0 22 0;
#X connect 41 1 23 0;
#X connect 41 2 24 0;
#X connect 41 3 25 0;
#X connect 41 4 26 0;
#X connect 41 5 27 0;
#X connect 41 6 28 0;
#X connect 41 7 29 0;
#X connect 41 8 30 0;
#X connect 41 9 31 0;
#X connect 41 10 32 0;
#X connect 41 11 33 0;
#X connect 41 12 34 0;
#X connect 41 13 35 0;
#X connect 41 14 36 0;
#X connect 41 15 37 0;
#X connect 43 0 45 0;
