#N canvas 169 62 526 544 10;
#X obj 22 495 outlet~;
#X obj 64 495 outlet~;
#X obj 106 495 outlet~;
#X obj 148 495 outlet~;
#X obj 190 495 outlet~;
#X obj 20 30 inlet~;
#X obj 73 30 inlet~;
#X obj 126 30 inlet~;
#X obj 179 30 inlet~;
#X obj 287 33 inlet;
#X text 287 16 rev-para;
#X obj 394 34 inlet;
#X text 394 17 xy_enc-para;
#X obj 261 83 switch~;
#X obj 261 62 route switch;
#X text 97 8 4 earlies-sum;
#X obj 21 358 diffuse_reverberation_12_4_4~;
#X obj 21 398 matrix_mul_stat~ 4 5 ________;
#X connect 5 0 16 0;
#X connect 6 0 16 1;
#X connect 7 0 16 2;
#X connect 8 0 16 3;
#X connect 9 0 14 0;
#X connect 11 0 17 0;
#X connect 14 0 13 0;
#X connect 14 1 16 4;
#X connect 16 0 17 0;
#X connect 16 1 17 1;
#X connect 16 2 17 2;
#X connect 16 3 17 3;
#X connect 17 0 0 0;
#X connect 17 1 1 0;
#X connect 17 2 2 0;
#X connect 17 3 3 0;
#X connect 17 4 4 0;
