#N canvas 119 126 617 525 10;
#X obj 16 495 outlet~;
#X obj 49 495 outlet~;
#X obj 82 495 outlet~;
#X obj 115 495 outlet~;
#X obj 148 495 outlet~;
#X obj 181 495 outlet~;
#X obj 214 495 outlet~;
#X obj 247 495 outlet~;
#X obj 281 495 outlet~;
#X obj 14 30 inlet~;
#X obj 67 30 inlet~;
#X obj 120 30 inlet~;
#X obj 173 30 inlet~;
#X obj 226 30 inlet~;
#X text 91 8 5 earlies-sum;
#X obj 15 472 +~;
#X obj 48 471 +~;
#X obj 81 471 +~;
#X obj 114 471 +~;
#X obj 147 472 +~;
#X obj 180 471 +~;
#X obj 213 471 +~;
#X obj 246 471 +~;
#X obj 280 471 +~;
#X obj 15 358 diffuse_reverberation_10_5_5~ _______________;
#X obj 310 30 inlet;
#X text 310 13 rev-para;
#X obj 417 31 inlet;
#X obj 533 32 inlet;
#X text 417 14 xy_enc-para;
#X text 529 13 z_enc-para;
#X obj 284 80 switch~;
#X obj 284 59 route switch;
#X obj 281 399 matrix_mul_line8~ 1 9 50 _______________;
#X obj 14 398 matrix_mul_stat~ 4 9 _____________;
#X connect 9 0 24 0;
#X connect 10 0 24 1;
#X connect 11 0 24 2;
#X connect 12 0 24 3;
#X connect 13 0 24 4;
#X connect 15 0 0 0;
#X connect 16 0 1 0;
#X connect 17 0 2 0;
#X connect 18 0 3 0;
#X connect 19 0 4 0;
#X connect 20 0 5 0;
#X connect 21 0 6 0;
#X connect 22 0 7 0;
#X connect 23 0 8 0;
#X connect 24 0 34 0;
#X connect 24 1 34 1;
#X connect 24 2 34 2;
#X connect 24 3 34 3;
#X connect 24 4 33 0;
#X connect 25 0 32 0;
#X connect 27 0 34 0;
#X connect 28 0 33 0;
#X connect 32 0 31 0;
#X connect 32 1 24 5;
#X connect 33 0 15 1;
#X connect 33 1 16 1;
#X connect 33 2 17 1;
#X connect 33 3 18 1;
#X connect 33 4 19 1;
#X connect 33 5 20 1;
#X connect 33 6 21 1;
#X connect 33 7 22 1;
#X connect 33 8 23 1;
#X connect 34 0 15 0;
#X connect 34 1 16 0;
#X connect 34 2 17 0;
#X connect 34 3 18 0;
#X connect 34 4 19 0;
#X connect 34 5 20 0;
#X connect 34 6 21 0;
#X connect 34 7 22 0;
#X connect 34 8 23 0;
