#N canvas 119 126 637 515 10;
#X obj 16 495 outlet~;
#X obj 49 495 outlet~;
#X obj 82 495 outlet~;
#X obj 115 495 outlet~;
#X obj 148 495 outlet~;
#X obj 181 495 outlet~;
#X obj 214 495 outlet~;
#X obj 247 495 outlet~;
#X obj 281 495 outlet~;
#X obj 312 495 outlet~;
#X obj 345 495 outlet~;
#X obj 378 495 outlet~;
#X obj 411 495 outlet~;
#X obj 444 495 outlet~;
#X obj 477 495 outlet~;
#X obj 511 495 outlet~;
#X obj 14 30 inlet~;
#X obj 67 30 inlet~;
#X obj 120 30 inlet~;
#X obj 173 30 inlet~;
#X obj 226 30 inlet~;
#X text 91 8 5 earlies-sum;
#X obj 15 472 +~;
#X obj 48 471 +~;
#X obj 81 471 +~;
#X obj 114 471 +~;
#X obj 147 472 +~;
#X obj 180 471 +~;
#X obj 213 471 +~;
#X obj 246 471 +~;
#X obj 280 471 +~;
#X obj 311 471 +~;
#X obj 344 471 +~;
#X obj 377 472 +~;
#X obj 410 471 +~;
#X obj 443 471 +~;
#X obj 476 471 +~;
#X obj 510 471 +~;
#X obj 14 398 matrix_mul_stat~ 4 16 ____________;
#X obj 15 358 diffuse_reverberation_10_5_5~ _______________;
#X obj 281 399 matrix_mul_line8~ 1 16 50 _______________;
#X obj 310 30 inlet;
#X text 310 13 rev-para;
#X obj 417 31 inlet;
#X obj 533 32 inlet;
#X text 417 14 xy_enc-para;
#X text 529 13 z_enc-para;
#X obj 284 80 switch~;
#X obj 284 59 route switch;
#X connect 16 0 39 0;
#X connect 17 0 39 1;
#X connect 18 0 39 2;
#X connect 19 0 39 3;
#X connect 20 0 39 4;
#X connect 22 0 0 0;
#X connect 23 0 1 0;
#X connect 24 0 2 0;
#X connect 25 0 3 0;
#X connect 26 0 4 0;
#X connect 27 0 5 0;
#X connect 28 0 6 0;
#X connect 29 0 7 0;
#X connect 30 0 8 0;
#X connect 31 0 9 0;
#X connect 32 0 10 0;
#X connect 33 0 11 0;
#X connect 34 0 12 0;
#X connect 35 0 13 0;
#X connect 36 0 14 0;
#X connect 37 0 15 0;
#X connect 38 0 22 0;
#X connect 38 1 23 0;
#X connect 38 2 24 0;
#X connect 38 3 25 0;
#X connect 38 4 26 0;
#X connect 38 5 27 0;
#X connect 38 6 28 0;
#X connect 38 7 29 0;
#X connect 38 8 30 0;
#X connect 38 9 31 0;
#X connect 38 10 32 0;
#X connect 38 11 33 0;
#X connect 38 12 34 0;
#X connect 38 13 35 0;
#X connect 38 14 36 0;
#X connect 38 15 37 0;
#X connect 39 0 38 0;
#X connect 39 1 38 1;
#X connect 39 2 38 2;
#X connect 39 3 38 3;
#X connect 39 4 40 0;
#X connect 40 0 22 1;
#X connect 40 1 23 1;
#X connect 40 2 24 1;
#X connect 40 3 25 1;
#X connect 40 4 26 1;
#X connect 40 5 27 1;
#X connect 40 6 28 1;
#X connect 40 7 29 1;
#X connect 40 8 30 1;
#X connect 40 9 31 1;
#X connect 40 10 32 1;
#X connect 40 11 33 1;
#X connect 40 12 34 1;
#X connect 40 13 35 1;
#X connect 40 14 36 1;
#X connect 40 15 37 1;
#X connect 41 0 48 0;
#X connect 43 0 38 0;
#X connect 44 0 40 0;
#X connect 48 0 47 0;
#X connect 48 1 39 5;
