#N canvas 169 62 542 560 10;
#X obj 22 495 outlet~;
#X obj 55 495 outlet~;
#X obj 88 495 outlet~;
#X obj 121 495 outlet~;
#X obj 154 495 outlet~;
#X obj 187 495 outlet~;
#X obj 220 495 outlet~;
#X obj 20 30 inlet~;
#X obj 73 30 inlet~;
#X obj 126 30 inlet~;
#X obj 179 30 inlet~;
#X obj 287 33 inlet;
#X text 287 16 rev-para;
#X obj 394 34 inlet;
#X text 394 17 xy_enc-para;
#X obj 261 83 switch~;
#X obj 261 62 route switch;
#X text 97 8 4 earlies-sum;
#X obj 21 398 matrix_mul_stat~ 4 7 _____________;
#X obj 21 358 diffuse_reverberation_12_4_4~ ____;
#X connect 7 0 19 0;
#X connect 8 0 19 1;
#X connect 9 0 19 2;
#X connect 10 0 19 3;
#X connect 11 0 16 0;
#X connect 13 0 18 0;
#X connect 16 0 15 0;
#X connect 16 1 19 4;
#X connect 18 0 0 0;
#X connect 18 1 1 0;
#X connect 18 2 2 0;
#X connect 18 3 3 0;
#X connect 18 4 4 0;
#X connect 18 5 5 0;
#X connect 18 6 6 0;
#X connect 19 0 18 0;
#X connect 19 1 18 1;
#X connect 19 2 18 2;
#X connect 19 3 18 3;
