#N canvas 0 0 665 587 10;
#X obj 31 29 inlet~;
#X obj 226 31 inlet~;
#X obj 227 250 outlet~;
#X obj 32 241 outlet~;
#X floatatom 172 130 5 0 0 0 - - -;
#X floatatom 130 105 5 0 0 0 - - -;
#X obj 130 124 / 100;
#X obj 227 164 para_bp2~ 2500 1 5 100;
#X obj 31 159 para_bp2~ 2500 1 5 100;
#X obj 227 220 hml_shelf~ 6 150 0 3500 0 100;
#X obj 32 215 hml_shelf~ 6 150 0 3500 0 100;
#X connect 0 0 8 0;
#X connect 1 0 7 0;
#X connect 4 0 7 3;
#X connect 4 0 8 3;
#X connect 5 0 6 0;
#X connect 6 0 7 2;
#X connect 6 0 8 2;
#X connect 7 0 9 0;
#X connect 8 0 10 0;
#X connect 9 0 2 0;
#X connect 10 0 3 0;
