#N canvas 119 3 639 494 10;
#X obj 23 26 inlet~;
#X obj 33 26 inlet~;
#X obj 48 26 inlet~;
#X obj 63 26 inlet~;
#X obj 79 26 inlet~;
#X obj 93 26 inlet~;
#X obj 107 26 inlet~;
#X text 33 9 A0;
#X obj 22 432 outlet~;
#X obj 245 434 outlet~;
#X obj 314 26 inlet;
#X obj 122 26 inlet~;
#X obj 138 26 inlet~;
#X obj 153 26 inlet~;
#X obj 168 26 inlet~;
#X obj 183 26 inlet~;
#X obj 197 26 inlet~;
#X obj 213 26 inlet~;
#X obj 228 26 inlet~;
#X obj 243 26 inlet~;
#X text 353 26 matrix_bundle element;
#X text 287 284 1.arg: <float> prefix of tablenames;
#X text 287 297 2.arg: <float> fftsize;
#X obj 242 63 FIR~ \$1_16_HRIR_red \$2;
#X obj 227 83 FIR~ \$1_15_HRIR_red \$2;
#X obj 212 103 FIR~ \$1_14_HRIR_red \$2;
#X obj 198 123 FIR~ \$1_13_HRIR_red \$2;
#X obj 182 143 FIR~ \$1_12_HRIR_red \$2;
#X obj 167 163 FIR~ \$1_11_HRIR_red \$2;
#X obj 152 183 FIR~ \$1_10_HRIR_red \$2;
#X obj 138 203 FIR~ \$1_9_HRIR_red \$2;
#X obj 122 223 FIR~ \$1_8_HRIR_red \$2;
#X obj 107 243 FIR~ \$1_7_HRIR_red \$2;
#X obj 92 263 FIR~ \$1_6_HRIR_red \$2;
#X obj 78 283 FIR~ \$1_5_HRIR_red \$2;
#X obj 62 303 FIR~ \$1_4_HRIR_red \$2;
#X obj 47 323 FIR~ \$1_3_HRIR_red \$2;
#X obj 32 343 FIR~ \$1_2_HRIR_red \$2;
#X obj 22 363 FIR~ \$1_1_HRIR_red \$2;
#X obj 22 409 matrix_bundle_stat~ 16 2 _____________;
#X connect 0 0 38 0;
#X connect 1 0 37 0;
#X connect 2 0 36 0;
#X connect 3 0 35 0;
#X connect 4 0 34 0;
#X connect 5 0 33 0;
#X connect 6 0 32 0;
#X connect 10 0 39 0;
#X connect 11 0 31 0;
#X connect 12 0 30 0;
#X connect 13 0 29 0;
#X connect 14 0 28 0;
#X connect 15 0 27 0;
#X connect 16 0 26 0;
#X connect 17 0 25 0;
#X connect 18 0 24 0;
#X connect 19 0 23 0;
#X connect 23 0 39 15;
#X connect 24 0 39 14;
#X connect 25 0 39 13;
#X connect 26 0 39 12;
#X connect 27 0 39 11;
#X connect 28 0 39 10;
#X connect 29 0 39 9;
#X connect 30 0 39 8;
#X connect 31 0 39 7;
#X connect 32 0 39 6;
#X connect 33 0 39 5;
#X connect 34 0 39 4;
#X connect 35 0 39 3;
#X connect 36 0 39 2;
#X connect 37 0 39 1;
#X connect 38 0 39 0;
#X connect 39 0 8 0;
#X connect 39 1 9 0;
