#N canvas 119 3 737 674 10;
#X obj 23 24 inlet~;
#X obj 33 24 inlet~;
#X obj 48 24 inlet~;
#X obj 63 24 inlet~;
#X obj 79 24 inlet~;
#X obj 93 24 inlet~;
#X obj 107 24 inlet~;
#X text 33 7 A0;
#X obj 22 600 outlet~;
#X obj 377 601 outlet~;
#X obj 427 24 inlet;
#X obj 122 24 inlet~;
#X obj 138 24 inlet~;
#X obj 153 24 inlet~;
#X obj 168 24 inlet~;
#X obj 183 24 inlet~;
#X obj 197 24 inlet~;
#X obj 213 24 inlet~;
#X obj 228 24 inlet~;
#X obj 243 24 inlet~;
#X obj 257 24 inlet~;
#X obj 270 24 inlet~;
#X obj 286 24 inlet~;
#X obj 301 24 inlet~;
#X obj 316 24 inlet~;
#X obj 332 24 inlet~;
#X obj 345 24 inlet~;
#X obj 361 24 inlet~;
#X obj 377 24 inlet~;
#X text 466 24 matrix_bundle element;
#X obj 361 71 FIR~ \$1_dummy \$3;
#X obj 346 91 FIR~ \$1_dummy \$3;
#X obj 331 111 FIR~ \$1_dummy \$3;
#X obj 317 131 FIR~ \$1_dummy \$3;
#X obj 301 151 FIR~ \$1_dummy \$3;
#X obj 286 171 FIR~ \$1_dummy \$3;
#X obj 271 191 FIR~ \$1_dummy \$3;
#X obj 258 211 FIR~ \$1_dummy \$3;
#X obj 242 231 FIR~ \$1_dummy \$3;
#X obj 227 251 FIR~ \$1_dummy \$3;
#X obj 212 271 FIR~ \$1_dummy \$3;
#X obj 198 291 FIR~ \$1_dummy \$3;
#X obj 182 311 FIR~ \$1_dummy \$3;
#X obj 167 331 FIR~ \$1_dummy \$3;
#X obj 152 351 FIR~ \$1_dummy \$3;
#X obj 138 371 FIR~ \$1_dummy \$3;
#X obj 122 391 FIR~ \$1_dummy \$3;
#X obj 107 411 FIR~ \$1_dummy \$3;
#X obj 92 431 FIR~ \$1_dummy \$3;
#X obj 78 451 FIR~ \$1_dummy \$3;
#X obj 62 471 FIR~ \$1_dummy \$3;
#X obj 47 491 FIR~ \$1_dummy \$3;
#X obj 32 511 FIR~ \$1_dummy \$3;
#X obj 22 531 FIR~ \$1_dummy \$3;
#X obj 22 577 matrix_bundle_stat~ 25 2 ___________________________________
;
#X text 407 515 1.arg: <float> unique-number used as table-name-prefix
;
#X text 407 536 3.arg: <float> firsize;
#X text 407 525 2.arg: <symbol> reduced HRIR-table-name;
#X obj 684 241 mergefilename _;
#X obj 160 600 table \$1_dummy \$3;
#X obj 377 51 FIR~ \$1_dummy \$3;
#X obj 397 359 route 1 2 3 4 5 6 7 8 9 10;
#X obj 397 434 pp set;
#X obj 412 413 pp set;
#X obj 427 392 pp set;
#X obj 442 434 pp set;
#X obj 457 413 pp set;
#X obj 472 392 pp set;
#X obj 486 434 pp set;
#X obj 501 413 pp set;
#X obj 516 392 pp set;
#X obj 531 434 pp set;
#X obj 573 435 pp set;
#X obj 588 414 pp set;
#X obj 603 393 pp set;
#X obj 618 435 pp set;
#X obj 633 414 pp set;
#X obj 648 393 pp set;
#X obj 662 435 pp set;
#X obj 677 414 pp set;
#X obj 692 393 pp set;
#X obj 707 435 pp set;
#X obj 573 360 route 11 12 13 14 15 16 17 18 19 20;
#X obj 792 435 pp set;
#X obj 807 414 pp set;
#X obj 822 393 pp set;
#X obj 837 435 pp set;
#X obj 852 414 pp set;
#X obj 792 360 route 21 22 23 24 25;
#X obj 671 128 for++ 1 25 1;
#X obj 684 195 pp \$1;
#X obj 684 218 iem_append \$2;
#X obj 671 161 t f f;
#X obj 647 265 pack f s \$3;
#X obj 671 23 inlet;
#X text 714 23 init;
#X connect 0 0 53 0;
#X connect 1 0 52 0;
#X connect 2 0 51 0;
#X connect 3 0 50 0;
#X connect 4 0 49 0;
#X connect 5 0 48 0;
#X connect 6 0 47 0;
#X connect 10 0 54 0;
#X connect 11 0 46 0;
#X connect 12 0 45 0;
#X connect 13 0 44 0;
#X connect 14 0 43 0;
#X connect 15 0 42 0;
#X connect 16 0 41 0;
#X connect 17 0 40 0;
#X connect 18 0 39 0;
#X connect 19 0 38 0;
#X connect 20 0 37 0;
#X connect 21 0 36 0;
#X connect 22 0 35 0;
#X connect 23 0 34 0;
#X connect 24 0 33 0;
#X connect 25 0 32 0;
#X connect 26 0 31 0;
#X connect 27 0 30 0;
#X connect 28 0 60 0;
#X connect 30 0 54 23;
#X connect 31 0 54 22;
#X connect 32 0 54 21;
#X connect 33 0 54 20;
#X connect 34 0 54 19;
#X connect 35 0 54 18;
#X connect 36 0 54 17;
#X connect 37 0 54 16;
#X connect 38 0 54 15;
#X connect 39 0 54 14;
#X connect 40 0 54 13;
#X connect 41 0 54 12;
#X connect 42 0 54 11;
#X connect 43 0 54 10;
#X connect 44 0 54 9;
#X connect 45 0 54 8;
#X connect 46 0 54 7;
#X connect 47 0 54 6;
#X connect 48 0 54 5;
#X connect 49 0 54 4;
#X connect 50 0 54 3;
#X connect 51 0 54 2;
#X connect 52 0 54 1;
#X connect 53 0 54 0;
#X connect 54 0 8 0;
#X connect 54 1 9 0;
#X connect 58 0 93 1;
#X connect 60 0 54 24;
#X connect 61 0 62 0;
#X connect 61 1 63 0;
#X connect 61 2 64 0;
#X connect 61 3 65 0;
#X connect 61 4 66 0;
#X connect 61 5 67 0;
#X connect 61 6 68 0;
#X connect 61 7 69 0;
#X connect 61 8 70 0;
#X connect 61 9 71 0;
#X connect 61 10 82 0;
#X connect 62 0 53 0;
#X connect 63 0 52 0;
#X connect 64 0 51 0;
#X connect 65 0 50 0;
#X connect 66 0 49 0;
#X connect 67 0 48 0;
#X connect 68 0 47 0;
#X connect 69 0 46 0;
#X connect 70 0 45 0;
#X connect 71 0 44 0;
#X connect 72 0 43 0;
#X connect 73 0 42 0;
#X connect 74 0 41 0;
#X connect 75 0 40 0;
#X connect 76 0 39 0;
#X connect 77 0 38 0;
#X connect 78 0 37 0;
#X connect 79 0 36 0;
#X connect 80 0 35 0;
#X connect 81 0 34 0;
#X connect 82 0 72 0;
#X connect 82 1 73 0;
#X connect 82 2 74 0;
#X connect 82 3 75 0;
#X connect 82 4 76 0;
#X connect 82 5 77 0;
#X connect 82 6 78 0;
#X connect 82 7 79 0;
#X connect 82 8 80 0;
#X connect 82 9 81 0;
#X connect 82 10 88 0;
#X connect 83 0 33 0;
#X connect 84 0 32 0;
#X connect 85 0 31 0;
#X connect 86 0 30 0;
#X connect 87 0 60 0;
#X connect 88 0 83 0;
#X connect 88 1 84 0;
#X connect 88 2 85 0;
#X connect 88 3 86 0;
#X connect 88 4 87 0;
#X connect 89 0 92 0;
#X connect 90 0 91 0;
#X connect 91 0 58 0;
#X connect 92 0 93 0;
#X connect 92 1 90 0;
#X connect 93 0 61 0;
#X connect 94 0 89 0;
