#N canvas 244 250 454 304 10;
#X obj 62 72 sel 0;
#X obj 62 157 del 1000;
#X obj 139 94 t b;
#X msg 62 179 0;
#X msg 139 171 1;
#X msg 84 127 stop;
#X obj 62 43 inlet;
#X obj 102 213 outlet;
#X text 62 22 gain in midi db;
#X text 101 236 switch~ on off;
#X connect 0 0 1 0;
#X connect 0 1 2 0;
#X connect 1 0 3 0;
#X connect 2 0 4 0;
#X connect 2 0 5 0;
#X connect 3 0 7 0;
#X connect 4 0 7 0;
#X connect 5 0 1 0;
#X connect 6 0 0 0;
