#N canvas 445 47 58 182 10;
#X obj 2 16 cnv 15 56 165 empty \$0-gaincvs gain_3 1 8 0 10 -233017
-1 0;
#X floatatom 6 161 5 0 0 0 - - -;
#X obj 37 34 iem_vu 16 120 empty empty -1 -8 0 8 -66577 -1 0 0;
#X obj 6 34 vsl 15 121 0 120 0 0 empty empty empty 0 -10 0 10 -262131
-1 -33289 0 1;
#X obj 23 32 vfad_scale -1;
#X obj 60 80 r \$1_rgui_vu;
#X obj 63 288 r \$1_rgui_gain;
#X obj 304 229 s \$1_gui_gain;
#X obj 263 204 fadtodb;
#X obj 263 230 - 100;
#X obj 14 374 dbtofad;
#X obj 63 310 route set float;
#X obj 64 378 pp set;
#X obj 64 358 dbtofad;
#X obj 117 362 pp set;
#X obj 216 333 makefilename gain_%d;
#X obj 216 312 init \$1;
#X obj 216 375 s \$0-gaincvs;
#X obj 216 354 pp label;
#X obj 42 164 cnv 8 1 1 empty empty dB 1 4 0 8 -233017 -1 0;
#X text 11 229 1.arg: <float> src-Index (1 .. N);
#X obj 117 341 - 100;
#X obj 155 342 t b;
#X text 76 479 and do ctrl X \, ctrl V;
#X text 28 420 edit first line of data-file "gain_vu.pd" with Editor
to;
#X text 85 439 #N canvas 0 0 58 182 10 \;;
#X text 27 461 when use in patch \, edit properties to 58 181;
#X connect 3 0 8 0;
#X connect 5 0 2 0;
#X connect 6 0 11 0;
#X connect 8 0 9 0;
#X connect 8 0 7 0;
#X connect 9 0 1 0;
#X connect 10 0 3 0;
#X connect 11 0 13 0;
#X connect 11 0 21 0;
#X connect 11 1 10 0;
#X connect 11 2 22 0;
#X connect 12 0 3 0;
#X connect 13 0 12 0;
#X connect 14 0 1 0;
#X connect 15 0 18 0;
#X connect 16 0 15 0;
#X connect 18 0 17 0;
#X connect 21 0 14 0;
#X connect 22 0 3 0;
#X coords 0 0 1 1 58 181 1;
