#N canvas 7 5 1012 708 10;
#X obj 106 239 bng 15 250 50 0 empty empty empty 0 -6 0 8 -262144 -1
-1;
#X msg 247 492 0 \$1;
#X msg 106 287 1 \$1;
#X obj 184 337 - 192;
#X obj 149 240 - 1;
#X obj 234 268 - 1;
#X obj 184 363 / 64;
#X obj 304 290 -;
#X obj 304 312 * -1;
#X obj 184 385 * 3.14159;
#X obj 184 407 cos;
#X obj 184 429 + 1;
#X obj 184 450 * 0.5;
#X obj 206 313 t f f;
#X obj 183 471 pack 0 0;
#X text 717 91 weight = cos*cos_fade_out;
#X obj 348 292 - 1;
#X obj 202 202 * 0.375;
#X obj 258 202 * 0.5;
#X obj 205 162 t b f f f;
#X text 420 78 from 0 to (3/8*tablesize)-1 \, weight = 1;
#X text 420 106 from (1/2*tablesize) to tablesize-1 \, weight = 0;
#X text 420 91 from (3/8*tablesize) to (1/2*tablesize-1) \,;
#X text 261 8 1.arg: <float> prefix of name;
#X obj 351 497 del 2;
#X obj 351 540 outlet;
#X obj 205 22 inlet;
#X obj 205 107 default 512;
#X msg 380 280 \; \$1 resize \$2;
#X obj 380 257 pack s f;
#X obj 691 286 default 512;
#X obj 691 262 f \$3;
#X obj 618 222 t b b b;
#X text 261 30 3.arg: <float> fftsize = tablesize;
#X obj 205 86 f \$3;
#X obj 340 406 pp set;
#X obj 636 338 mergefilename _;
#X text 261 19 2.arg: <symbol> kernel of name;
#X obj 636 295 f \$1;
#X obj 636 317 iem_append \$2;
#X obj 666 152 namecanvas \$0_hrir_fadeout_table;
#X obj 618 376 symbol \$0_hrir_fadeout_table;
#X obj 618 408 pack s s f;
#X obj 20 72 table \$0_dummy 5;
#X obj 183 516 tabwrite \$0_dummy;
#X msg 618 435 \; \$1 obj 16 120 table \$2 \$3;
#X obj 618 198 once;
#X obj 205 128 t f b b f b;
#X obj 380 232 symbol \$0_dummy;
#X obj 841 240 bng 15 250 50 0 empty empty empty 0 -6 0 8 -262144 -1
-1;
#X msg 982 493 0 \$1;
#X msg 841 288 1 \$1;
#X obj 919 338 - 192;
#X obj 884 241 - 1;
#X obj 969 269 - 1;
#X obj 919 364 / 64;
#X obj 1039 291 -;
#X obj 1039 313 * -1;
#X obj 919 386 * 3.14159;
#X obj 919 408 cos;
#X obj 919 430 + 1;
#X obj 919 451 * 0.5;
#X obj 941 314 t f f;
#X obj 918 472 pack 0 0;
#X obj 940 23 inlet;
#X obj 1075 407 pp set;
#X obj 918 517 tabwrite \$0_dummy;
#X obj 940 163 t b f f;
#X obj 940 94 t f b;
#X text 976 22 float HRIR-length;
#X obj 411 357 symbol \$0_dummy;
#X obj 1075 385 symbol \$0_dummy;
#X obj 1070 499 del 2;
#X obj 1068 542 outlet;
#X obj 106 263 for++ 0 191;
#X obj 184 290 for++ 192 255;
#X obj 247 470 for++ 256 511;
#X obj 205 55 t b b;
#X obj 937 203 * 0.75;
#X obj 993 203 * 1;
#X obj 841 264 for++ 0 191;
#X obj 920 291 for++ 192 255;
#X obj 982 471 for++ 256 511;
#X connect 0 0 74 0;
#X connect 1 0 44 0;
#X connect 2 0 44 0;
#X connect 3 0 6 0;
#X connect 4 0 74 1;
#X connect 5 0 75 1;
#X connect 6 0 9 0;
#X connect 7 0 8 0;
#X connect 8 0 6 1;
#X connect 9 0 10 0;
#X connect 10 0 11 0;
#X connect 11 0 12 0;
#X connect 12 0 14 0;
#X connect 13 0 3 0;
#X connect 13 1 14 1;
#X connect 14 0 44 0;
#X connect 16 0 76 1;
#X connect 16 0 82 1;
#X connect 17 0 4 0;
#X connect 17 0 3 1;
#X connect 17 0 7 0;
#X connect 17 0 75 0;
#X connect 18 0 7 1;
#X connect 18 0 5 0;
#X connect 18 0 76 0;
#X connect 19 0 0 0;
#X connect 19 1 17 0;
#X connect 19 2 18 0;
#X connect 19 3 16 0;
#X connect 24 0 25 0;
#X connect 26 0 77 0;
#X connect 27 0 47 0;
#X connect 29 0 28 0;
#X connect 30 0 42 2;
#X connect 31 0 30 0;
#X connect 32 0 41 0;
#X connect 32 1 38 0;
#X connect 32 2 31 0;
#X connect 34 0 27 0;
#X connect 35 0 44 0;
#X connect 36 0 42 1;
#X connect 36 0 48 1;
#X connect 36 0 70 1;
#X connect 36 0 71 1;
#X connect 38 0 39 0;
#X connect 39 0 36 0;
#X connect 41 0 42 0;
#X connect 42 0 45 0;
#X connect 46 0 32 0;
#X connect 47 0 19 0;
#X connect 47 1 70 0;
#X connect 47 2 48 0;
#X connect 47 3 29 1;
#X connect 48 0 29 0;
#X connect 49 0 80 0;
#X connect 50 0 66 0;
#X connect 51 0 66 0;
#X connect 52 0 55 0;
#X connect 53 0 80 1;
#X connect 54 0 81 1;
#X connect 55 0 58 0;
#X connect 56 0 57 0;
#X connect 57 0 55 1;
#X connect 58 0 59 0;
#X connect 59 0 60 0;
#X connect 60 0 61 0;
#X connect 61 0 63 0;
#X connect 62 0 52 0;
#X connect 62 1 63 1;
#X connect 63 0 66 0;
#X connect 64 0 68 0;
#X connect 65 0 66 0;
#X connect 67 0 49 0;
#X connect 67 1 78 0;
#X connect 67 2 79 0;
#X connect 68 0 67 0;
#X connect 68 1 71 0;
#X connect 70 0 35 0;
#X connect 71 0 65 0;
#X connect 72 0 73 0;
#X connect 74 0 2 0;
#X connect 74 1 75 0;
#X connect 75 0 13 0;
#X connect 75 1 76 0;
#X connect 76 0 1 0;
#X connect 76 1 24 0;
#X connect 77 0 34 0;
#X connect 77 1 46 0;
#X connect 78 0 53 0;
#X connect 78 0 52 1;
#X connect 78 0 56 0;
#X connect 78 0 81 0;
#X connect 79 0 56 1;
#X connect 79 0 54 0;
#X connect 79 0 82 0;
#X connect 80 0 51 0;
#X connect 80 1 81 0;
#X connect 81 0 62 0;
#X connect 81 1 82 0;
#X connect 82 0 50 0;
#X connect 82 1 72 0;
