#N canvas 216 289 456 375 10;
#X obj 74 25 inlet;
#X obj 199 27 inlet;
#X text 58 7 list of n floats;
#X obj 98 275 outlet;
#X obj 82 155 repack 1;
#X obj 98 191 pow 1;
#X obj 98 254 repack 6;
#X obj 199 69 t b f;
#X obj 141 222 length;
#X obj 82 135 any;
#X obj 74 47 t l l b;
#X msg 118 68 1;
#X obj 93 112 spigot;
#X text 194 8 float exponent;
#X obj 314 27 inlet;
#X obj 314 69 t b f;
#X text 309 8 float multiplicator;
#X obj 146 112 spigot;
#X text 86 301 list of power-product-operations;
#X obj 98 230 *;
#X connect 0 0 10 0;
#X connect 1 0 7 0;
#X connect 4 0 5 0;
#X connect 5 0 19 0;
#X connect 6 0 3 0;
#X connect 7 0 12 0;
#X connect 7 1 5 1;
#X connect 8 0 6 1;
#X connect 9 0 4 0;
#X connect 10 0 9 0;
#X connect 10 1 8 0;
#X connect 10 2 11 0;
#X connect 11 0 12 1;
#X connect 11 0 17 1;
#X connect 12 0 9 0;
#X connect 14 0 15 0;
#X connect 15 0 17 0;
#X connect 15 1 19 1;
#X connect 17 0 9 0;
#X connect 19 0 6 0;
