#N canvas 0 0 470 320 10;
#X obj 74 25 inlet;
#X obj 199 27 inlet;
#X text 58 7 list of n floats;
#X obj 98 235 outlet;
#X obj 57 108 repack 1;
#X obj 98 214 repack 6;
#X obj 144 190 length;
#X text 194 8 float subtractor;
#X text 86 261 list of subtractions;
#X obj 98 191 -;
#X text 209 88 kein "trigger float bang";
#X obj 74 47 t l l;
#X connect 0 0 11 0;
#X connect 1 0 9 1;
#X connect 4 0 9 0;
#X connect 5 0 3 0;
#X connect 6 0 5 1;
#X connect 9 0 5 0;
#X connect 11 0 4 0;
#X connect 11 1 6 0;
