#N canvas 0 0 458 308 10;
#X obj 180 537 outlet~;
#X obj 107 106 openpanel;
#X msg 107 142 set \$1;
#X msg 317 325 1;
#X obj 317 282 t b;
#X obj 317 304 del 500;
#X msg 225 108 0;
#X obj 107 87 bng 15 250 50 0 empty empty empty 0 -6 0 8 -262144 -1
-1;
#X obj 181 106 bng 15 250 50 0 empty empty empty 0 -6 0 8 -262144 -1
-1;
#X obj 176 333 readsf~ 2;
#X msg 178 288 open \$1;
#X obj 178 144 symbol;
#X obj 225 356 del 200;
#X obj 180 359 +~;
#X obj 181 480 mull~ 0 20;
#X obj 269 80 bng 15 250 50 0 empty empty empty 0 -6 0 8 -262144 -1
-1;
#X obj 269 109 tgl 15 0 empty empty empty 0 -6 0 8 -262144 -1 -1 0
1;
#X obj 303 209 switch~;
#X obj 269 128 sel 0 1;
#X obj 315 158 del 20;
#X msg 315 179 0;
#X msg 260 163 0;
#X msg 309 90 1;
#X obj 208 459 * 0.5;
#X msg 284 184 1;
#X obj 178 13 r \$1_gui_player;
#X obj 178 44 route new start stop pause;
#X msg 107 230 ../sounds/bagsgroove.wav;
#X connect 1 0 2 0;
#X connect 1 0 11 0;
#X connect 2 0 27 0;
#X connect 3 0 9 0;
#X connect 4 0 5 0;
#X connect 4 0 22 0;
#X connect 5 0 3 0;
#X connect 6 0 9 0;
#X connect 7 0 1 0;
#X connect 8 0 27 0;
#X connect 9 0 13 0;
#X connect 9 1 13 1;
#X connect 9 2 12 0;
#X connect 10 0 9 0;
#X connect 11 0 10 0;
#X connect 11 0 4 0;
#X connect 12 0 27 0;
#X connect 13 0 14 0;
#X connect 14 0 0 0;
#X connect 15 0 16 0;
#X connect 16 0 18 0;
#X connect 18 0 19 0;
#X connect 18 0 21 0;
#X connect 18 1 24 0;
#X connect 19 0 20 0;
#X connect 20 0 17 0;
#X connect 21 0 23 0;
#X connect 22 0 16 0;
#X connect 23 0 14 1;
#X connect 24 0 17 0;
#X connect 24 0 23 0;
#X connect 25 0 26 0;
#X connect 26 0 7 0;
#X connect 26 1 8 0;
#X connect 26 2 6 0;
#X connect 26 3 15 0;
#X connect 27 0 11 0;
