#N canvas 0 0 835 633 10;
#X obj 176 537 outlet~;
#X obj 107 176 openpanel;
#X msg 107 212 set \$1;
#X msg 279 362 0;
#X obj 107 157 bng 15 250 50 0 empty empty empty 0 -6 0 8 -262144 -1
-1;
#X obj 244 172 bng 15 250 50 0 empty empty empty 0 -6 0 8 -262144 -1
-1;
#X msg 176 362 open \$1;
#X obj 176 339 symbol;
#X obj 177 480 mull~ 0 20;
#X obj 372 175 bng 15 250 50 0 empty empty empty 0 -6 0 8 -262144 -1
-1;
#X obj 372 204 tgl 15 0 empty empty empty 0 -6 0 8 -262144 -1 -1 0
1;
#X obj 406 304 switch~;
#X obj 372 223 sel 0 1;
#X msg 418 274 0;
#X msg 363 258 0;
#X msg 303 217 1;
#X msg 387 279 1;
#X msg 107 300 D:/Projekte/Ambisonic_CD/sounds3/Mond1.WAV;
#X msg 238 356 1;
#X obj 186 174 bng 15 250 50 0 empty empty empty 0 -6 0 8 -262144 -1
-1;
#X obj 281 166 bng 15 250 50 0 empty empty empty 0 -6 0 8 -262144 -1
-1;
#X msg 325 190 0;
#X obj 419 253 del 30;
#X obj 306 278 del 20;
#X obj 178 114 route new rewind start stop pause;
#X obj 531 105 parent$0;
#X obj 531 127 makefilename %s-sync;
#X obj 531 83 loadbang;
#X obj 531 149 pp set;
#X obj 531 170 iem_r 1000-sync;
#X obj 178 71 route \$1;
#X obj 531 191 route start stop pause;
#X obj 178 13 inlet;
#X obj 176 403 readsf~ 1 1e+006;
#X connect 1 0 2 0;
#X connect 1 0 7 0;
#X connect 2 0 17 0;
#X connect 3 0 33 0;
#X connect 4 0 1 0;
#X connect 5 0 18 0;
#X connect 5 0 15 0;
#X connect 6 0 33 0;
#X connect 7 0 6 0;
#X connect 7 0 15 0;
#X connect 8 0 0 0;
#X connect 9 0 10 0;
#X connect 10 0 12 0;
#X connect 12 0 14 0;
#X connect 12 0 22 0;
#X connect 12 0 23 0;
#X connect 12 1 16 0;
#X connect 13 0 11 0;
#X connect 14 0 8 1;
#X connect 15 0 10 0;
#X connect 16 0 11 0;
#X connect 16 0 8 1;
#X connect 17 0 7 0;
#X connect 18 0 33 0;
#X connect 19 0 17 0;
#X connect 20 0 21 0;
#X connect 21 0 10 0;
#X connect 22 0 13 0;
#X connect 23 0 3 0;
#X connect 24 0 4 0;
#X connect 24 1 19 0;
#X connect 24 2 5 0;
#X connect 24 3 20 0;
#X connect 24 4 9 0;
#X connect 25 0 26 0;
#X connect 26 0 28 0;
#X connect 27 0 25 0;
#X connect 28 0 29 0;
#X connect 29 0 31 0;
#X connect 30 0 24 0;
#X connect 31 0 5 0;
#X connect 31 1 20 0;
#X connect 31 2 9 0;
#X connect 32 0 30 0;
#X connect 33 0 8 0;
