#N canvas 37 1 855 653 10;
#X obj 75 586 outlet~;
#X obj 107 176 openpanel;
#X msg 107 212 set \$1;
#X obj 107 157 bng 15 250 50 0 empty empty empty 0 -6 0 8 -262144 -1
-1;
#X obj 221 172 bng 15 250 50 0 empty empty empty 0 -6 0 8 -262144 -1
-1;
#X msg 75 411 open \$1;
#X obj 75 388 symbol;
#X obj 76 529 mull~ 0 20;
#X obj 371 146 bng 15 250 50 0 empty empty empty 0 -6 0 8 -262144 -1
-1;
#X obj 372 204 tgl 15 0 empty empty empty 0 -6 0 8 -262144 -1 -1 1
1;
#X obj 451 294 switch~;
#X obj 372 223 sel 0 1;
#X msg 463 264 0;
#X msg 402 269 0;
#X msg 244 240 1;
#X msg 432 269 1;
#X msg 29 303 D:/Projekte/MP3/Nino_Rota_Hommage_To_Federico_Fellini/4_LaDolceVita3.mp3
;
#X obj 186 174 bng 15 250 50 0 empty empty empty 0 -6 0 8 -262144 -1
-1;
#X obj 268 184 bng 15 250 50 0 empty empty empty 0 -6 0 8 -262144 -1
-1;
#X msg 279 211 0;
#X obj 464 243 del 30;
#X obj 276 271 del 20;
#X obj 531 105 parent$0;
#X obj 531 127 makefilename %s-sync;
#X obj 531 83 loadbang;
#X obj 531 149 pp set;
#X obj 531 170 iem_r 1000-sync;
#X obj 178 71 route \$1;
#X obj 178 13 inlet;
#X obj 75 451 mp3play~;
#X msg 174 365 start;
#X msg 189 389 stop;
#X obj 75 477 +~;
#X obj 74 505 *~ 0.5;
#X obj 292 532 del 20;
#X obj 466 357 spigot;
#X obj 664 294 tgl 15 0 empty empty empty 0 -6 0 8 -262144 -1 -1 1
1;
#X obj 178 114 route new rewind start stop pause loop;
#X obj 531 191 route start stop pause loop;
#X obj 203 342 del 500;
#X msg 192 415 open_again;
#X floatatom 183 521 5 0 0 0 - - -;
#X obj 200 561 bng 15 250 50 0 empty empty empty 0 -6 0 8 -262144 -1
-1;
#X obj 286 508 spigot;
#X obj 286 419 t b b;
#X msg 308 466 0;
#X obj 238 443 t b b;
#X msg 281 466 1;
#X obj 371 167 t b b;
#X msg 496 222 30;
#X obj 280 234 t f b;
#X msg 457 220 1500;
#X connect 1 0 2 0;
#X connect 1 0 6 0;
#X connect 2 0 16 0;
#X connect 3 0 1 0;
#X connect 4 0 14 0;
#X connect 4 0 30 0;
#X connect 5 0 29 0;
#X connect 6 0 5 0;
#X connect 6 0 14 0;
#X connect 6 0 47 0;
#X connect 7 0 0 0;
#X connect 8 0 48 0;
#X connect 9 0 11 0;
#X connect 11 0 13 0;
#X connect 11 0 20 0;
#X connect 11 1 15 0;
#X connect 12 0 10 0;
#X connect 13 0 7 1;
#X connect 14 0 9 0;
#X connect 15 0 10 0;
#X connect 15 0 7 1;
#X connect 16 0 6 0;
#X connect 17 0 16 0;
#X connect 18 0 19 0;
#X connect 18 0 21 0;
#X connect 19 0 50 0;
#X connect 20 0 12 0;
#X connect 21 0 44 0;
#X connect 22 0 23 0;
#X connect 23 0 25 0;
#X connect 24 0 22 0;
#X connect 25 0 26 0;
#X connect 26 0 38 0;
#X connect 27 0 37 0;
#X connect 28 0 27 0;
#X connect 29 0 32 0;
#X connect 29 1 32 1;
#X connect 29 2 41 0;
#X connect 29 3 42 0;
#X connect 29 3 46 0;
#X connect 30 0 29 0;
#X connect 31 0 29 0;
#X connect 32 0 33 0;
#X connect 33 0 7 0;
#X connect 34 0 35 0;
#X connect 35 0 39 0;
#X connect 35 0 40 0;
#X connect 36 0 35 1;
#X connect 37 0 3 0;
#X connect 37 1 17 0;
#X connect 37 2 4 0;
#X connect 37 3 18 0;
#X connect 37 4 8 0;
#X connect 37 5 36 0;
#X connect 38 0 4 0;
#X connect 38 1 18 0;
#X connect 38 2 8 0;
#X connect 38 3 36 0;
#X connect 39 0 30 0;
#X connect 40 0 29 0;
#X connect 43 0 34 0;
#X connect 44 0 31 0;
#X connect 44 1 45 0;
#X connect 45 0 43 1;
#X connect 46 0 47 0;
#X connect 46 1 43 0;
#X connect 47 0 43 1;
#X connect 48 0 9 0;
#X connect 48 1 49 0;
#X connect 49 0 20 1;
#X connect 50 0 9 0;
#X connect 50 1 51 0;
#X connect 51 0 20 1;
