#N canvas 0 0 843 641 10;
#X obj 311 582 outlet~;
#X obj 107 166 openpanel;
#X msg 107 202 set \$1;
#X obj 107 147 bng 15 250 50 0 empty empty empty 0 -6 0 8 -262144 -1
-1;
#X obj 179 143 bng 15 250 50 0 empty empty empty 0 -6 0 8 -262144 -1
-1;
#X obj 72 336 symbol;
#X obj 312 525 mull~ 0 20;
#X obj 277 143 bng 15 250 50 0 empty empty empty 0 -6 0 8 -262144 -1
-1;
#X obj 375 189 tgl 15 0 empty empty empty 0 -6 0 8 -262144 -1 -1 1
1;
#X obj 409 289 switch~;
#X obj 375 208 sel 0 1;
#X msg 421 259 0;
#X msg 366 243 0;
#X msg 303 207 1;
#X msg 390 264 1;
#X obj 228 141 bng 15 250 50 0 empty empty empty 0 -6 0 8 -262144 -1
-1;
#X msg 305 184 0;
#X obj 422 238 del 30;
#X obj 320 361 del 20;
#X obj 72 448 soundfiler;
#X obj 71 477 table \$0-mytable;
#X msg 72 424 read -maxsize 4e+007 -resize \$1 \$2;
#X obj 311 472 tabplay~ \$0-mytable;
#X obj 72 359 t s b;
#X obj 115 382 symbol \$0-mytable;
#X obj 72 403 pack s s;
#X msg 287 388 bang;
#X msg 318 388 stop;
#X obj 137 263 loadbang;
#X obj 453 123 makefilename %s-sync;
#X obj 453 79 loadbang;
#X obj 453 145 pp set;
#X obj 453 166 iem_r 1000-sync;
#X obj 178 13 inlet;
#X obj 178 55 route \$1;
#X obj 420 495 del 20;
#X obj 316 296 spigot;
#X obj 178 104 route new start stop pause loop;
#X obj 347 275 tgl 15 0 empty empty empty 0 -6 0 8 -262144 -1 -1 0
1;
#X obj 453 187 route start stop pause loop;
#X msg 107 290 ../sounds/schritte.wav;
#X obj 453 101 parentdollarzero;
#X connect 1 0 2 0;
#X connect 1 0 5 0;
#X connect 2 0 40 0;
#X connect 3 0 1 0;
#X connect 4 0 26 0;
#X connect 4 0 13 0;
#X connect 5 0 13 0;
#X connect 5 0 23 0;
#X connect 6 0 0 0;
#X connect 7 0 8 0;
#X connect 8 0 10 0;
#X connect 10 0 12 0;
#X connect 10 0 17 0;
#X connect 10 1 14 0;
#X connect 11 0 9 0;
#X connect 12 0 6 1;
#X connect 13 0 8 0;
#X connect 14 0 9 0;
#X connect 14 0 6 1;
#X connect 15 0 16 0;
#X connect 15 0 18 0;
#X connect 16 0 8 0;
#X connect 17 0 11 0;
#X connect 18 0 27 0;
#X connect 21 0 19 0;
#X connect 22 0 6 0;
#X connect 22 1 35 0;
#X connect 23 0 25 0;
#X connect 23 1 24 0;
#X connect 24 0 25 1;
#X connect 25 0 21 0;
#X connect 26 0 22 0;
#X connect 27 0 22 0;
#X connect 28 0 40 0;
#X connect 29 0 31 0;
#X connect 30 0 41 0;
#X connect 31 0 32 0;
#X connect 32 0 39 0;
#X connect 33 0 34 0;
#X connect 34 0 37 0;
#X connect 35 0 36 0;
#X connect 36 0 26 0;
#X connect 37 0 3 0;
#X connect 37 1 4 0;
#X connect 37 2 15 0;
#X connect 37 3 7 0;
#X connect 37 4 38 0;
#X connect 38 0 36 1;
#X connect 39 0 4 0;
#X connect 39 1 15 0;
#X connect 39 2 7 0;
#X connect 39 3 38 0;
#X connect 40 0 5 0;
#X connect 41 0 29 0;
