#N canvas 250 19 740 619 10;
#X obj 2 16 cnv 15 56 84 empty empty empty 0 10 0 4 -233017 -62784
0;
#X obj 2 103 cnv 15 56 165 empty \$0-gaincvs gain_0 1 8 0 10 -233017
-1 0;
#X floatatom 6 248 5 0 0 0 - - -;
#X obj 37 121 iem_vu 16 120 empty empty -1 -8 0 8 -66577 -1 0 0;
#X obj 6 121 vsl 15 121 0 120 0 0 empty empty empty 0 -10 0 10 -262131
-1 -33289 0 1;
#X obj 23 119 vfad_scale -1;
#X obj 8 21 bng 15 250 50 0 empty empty empty 0 -6 0 8 -262144 -1 -1
;
#X obj 22 21 bng 15 250 50 0 empty empty empty 0 -6 0 8 -262144 -1
-1;
#X obj 8 41 bng 15 250 50 0 empty empty empty 0 -6 0 8 -262144 -1 -1
;
#X obj 23 41 bng 15 250 50 0 empty empty empty 0 -6 0 8 -262144 -1
-1;
#X obj 36 41 bng 15 250 50 0 empty empty empty 0 -6 0 8 -262144 -1
-1;
#X obj 8 61 bng 15 250 50 0 empty empty empty 0 -6 0 8 -262144 -1 -1
;
#X obj 23 61 bng 15 250 50 0 empty empty empty 0 -6 0 8 -262144 -1
-1;
#X obj 36 61 bng 15 250 50 0 empty empty empty 0 -6 0 8 -262144 -1
-1;
#X obj 8 81 bng 15 250 50 0 empty empty empty 0 -6 0 8 -262144 -1 -1
;
#X obj 23 81 bng 15 250 50 0 empty empty empty 0 -6 0 8 -262144 -1
-1;
#X obj 36 81 bng 15 250 50 0 empty empty empty 0 -6 0 8 -262144 -1
-1;
#X obj 8 81 cnv 15 42 15 empty \$0-pause pause 5 7 0 9 -262131 -1 0
;
#X obj 8 95 cnv 1 42 1 empty empty empty 20 12 0 14 -231490 -66577
0;
#X obj 8 81 cnv 1 1 14 empty empty empty 20 12 0 14 -231490 -66577
0;
#X obj 50 81 cnv 1 1 14 empty empty empty 20 12 0 14 -261547 -66577
0;
#X obj 8 81 cnv 1 42 1 empty empty empty 20 12 0 14 -261547 -66577
0;
#X obj 8 61 cnv 15 42 15 empty \$0-stop stop 9 7 0 9 -262131 -1 0;
#X obj 8 75 cnv 1 42 1 empty empty empty 20 12 0 14 -231490 -66577
0;
#X obj 8 61 cnv 1 1 14 empty empty empty 20 12 0 14 -231490 -66577
0;
#X obj 50 61 cnv 1 1 14 empty empty empty 20 12 0 14 -261547 -66577
0;
#X obj 8 61 cnv 1 42 1 empty empty empty 20 12 0 14 -261547 -66577
0;
#X obj 8 41 cnv 15 42 15 empty \$0-start start 5 7 0 9 -262131 -1 0
;
#X obj 8 55 cnv 1 42 1 empty empty empty 20 12 0 14 -231490 -66577
0;
#X obj 8 41 cnv 1 1 14 empty empty empty 20 12 0 14 -231490 -66577
0;
#X obj 50 41 cnv 1 1 14 empty empty empty 20 12 0 14 -261547 -66577
0;
#X obj 8 41 cnv 1 42 1 empty empty empty 20 12 0 14 -261547 -66577
0;
#X obj 8 21 cnv 15 28 15 empty \$0-new new 4 7 0 9 -262131 -1 0;
#X obj 8 35 cnv 1 28 1 empty empty empty 20 12 0 14 -231490 -66577
0;
#X obj 8 21 cnv 1 1 14 empty empty empty 20 12 0 14 -231490 -66577
0;
#X obj 36 21 cnv 1 1 14 empty empty empty 20 12 0 14 -261547 -66577
0;
#X obj 8 21 cnv 1 28 1 empty empty empty 20 12 0 14 -261547 -66577
0;
#X obj 137 7 t b;
#X obj 212 8 del 300;
#X obj 328 53 s \$0-new;
#X obj 328 120 s \$0-start;
#X obj 328 186 s \$0-stop;
#X obj 326 253 s \$0-pause;
#X msg 251 53 color \$1 -1;
#X msg 137 29 -51351 -220;
#X obj 137 51 unpack;
#X obj 179 51 * 65536;
#X obj 227 52 +;
#X msg 212 29 -64713 -252;
#X obj 137 73 t b;
#X obj 212 74 del 300;
#X msg 251 119 color \$1 -1;
#X msg 137 95 -51351 -220;
#X obj 137 117 unpack;
#X obj 179 117 * 65536;
#X obj 227 118 +;
#X msg 212 95 -64713 -252;
#X obj 137 140 t b;
#X obj 212 141 del 300;
#X msg 251 186 color \$1 -1;
#X msg 137 162 -51351 -220;
#X obj 137 184 unpack;
#X obj 179 184 * 65536;
#X obj 227 185 +;
#X msg 212 162 -64713 -252;
#X obj 137 207 t b;
#X obj 212 208 del 300;
#X msg 251 253 color \$1 -1;
#X msg 137 229 -51351 -220;
#X obj 137 251 unpack;
#X obj 179 251 * 65536;
#X obj 227 252 +;
#X msg 212 229 -64713 -252;
#X msg 173 7 new;
#X msg 163 73 start;
#X msg 165 141 stop;
#X msg 164 207 pause;
#X obj 60 80 r \$1_rgui_vu;
#X obj 63 368 r \$1_rgui_gain;
#X obj 304 309 s \$1_gui_gain;
#X obj 183 361 s \$1_gui_player;
#X obj 263 284 fadtodb;
#X obj 263 310 - 100;
#X obj 14 454 dbtofad;
#X obj 63 390 route set float;
#X obj 64 458 pp set;
#X obj 64 438 dbtofad;
#X obj 117 442 pp set;
#X obj 216 413 makefilename gain_%d;
#X obj 216 392 init \$1;
#X obj 216 455 s \$0-gaincvs;
#X obj 216 434 pp label;
#X obj 42 251 cnv 8 1 1 empty empty dB 1 4 0 8 -233017 -1 0;
#X text 28 500 edit first line of data-file "player.pd" with Editor
to;
#X text 11 309 1.arg: <float> src-Index (1 .. N);
#X obj 117 421 - 100;
#X obj 155 422 t b;
#X text 85 519 #N canvas 0 0 58 269 10 \;;
#X text 27 541 when use in patch \, edit properties to 58 268;
#X text 76 559 and do ctrl X \, ctrl V;
#X obj 40 22 tgl 13 0 empty empty empty 0 -6 0 8 -262131 -123526 -1
0 1;
#X obj 509 289 parent$0;
#X obj 509 311 makefilename %s-sync;
#X obj 509 267 loadbang;
#X obj 509 333 pp set;
#X obj 442 354 iem_s 1000-sync;
#X obj 442 289 gate 0;
#X obj 167 338 gate 1;
#X obj 492 240 == 0;
#X connect 4 0 81 0;
#X connect 6 0 37 0;
#X connect 7 0 37 0;
#X connect 8 0 49 0;
#X connect 9 0 49 0;
#X connect 10 0 49 0;
#X connect 11 0 57 0;
#X connect 12 0 57 0;
#X connect 13 0 57 0;
#X connect 14 0 65 0;
#X connect 15 0 65 0;
#X connect 16 0 65 0;
#X connect 37 0 38 0;
#X connect 37 0 44 0;
#X connect 37 0 73 0;
#X connect 38 0 48 0;
#X connect 43 0 39 0;
#X connect 44 0 45 0;
#X connect 45 0 47 0;
#X connect 45 1 46 0;
#X connect 46 0 47 1;
#X connect 47 0 43 0;
#X connect 48 0 45 0;
#X connect 49 0 50 0;
#X connect 49 0 52 0;
#X connect 49 0 74 0;
#X connect 50 0 56 0;
#X connect 51 0 40 0;
#X connect 52 0 53 0;
#X connect 53 0 55 0;
#X connect 53 1 54 0;
#X connect 54 0 55 1;
#X connect 55 0 51 0;
#X connect 56 0 53 0;
#X connect 57 0 58 0;
#X connect 57 0 60 0;
#X connect 57 0 75 0;
#X connect 58 0 64 0;
#X connect 59 0 41 0;
#X connect 60 0 61 0;
#X connect 61 0 63 0;
#X connect 61 1 62 0;
#X connect 62 0 63 1;
#X connect 63 0 59 0;
#X connect 64 0 61 0;
#X connect 65 0 66 0;
#X connect 65 0 68 0;
#X connect 65 0 76 0;
#X connect 66 0 72 0;
#X connect 67 0 42 0;
#X connect 68 0 69 0;
#X connect 69 0 71 0;
#X connect 69 1 70 0;
#X connect 70 0 71 1;
#X connect 71 0 67 0;
#X connect 72 0 69 0;
#X connect 73 0 80 0;
#X connect 74 0 107 0;
#X connect 74 0 106 0;
#X connect 75 0 107 0;
#X connect 75 0 106 0;
#X connect 76 0 107 0;
#X connect 76 0 106 0;
#X connect 77 0 3 0;
#X connect 78 0 84 0;
#X connect 81 0 82 0;
#X connect 81 0 79 0;
#X connect 82 0 2 0;
#X connect 83 0 4 0;
#X connect 84 0 86 0;
#X connect 84 0 95 0;
#X connect 84 1 83 0;
#X connect 84 2 96 0;
#X connect 85 0 4 0;
#X connect 86 0 85 0;
#X connect 87 0 2 0;
#X connect 88 0 91 0;
#X connect 89 0 88 0;
#X connect 91 0 90 0;
#X connect 95 0 87 0;
#X connect 96 0 4 0;
#X connect 100 0 106 1;
#X connect 100 0 108 0;
#X connect 101 0 102 0;
#X connect 102 0 104 0;
#X connect 103 0 101 0;
#X connect 104 0 105 1;
#X connect 106 0 105 0;
#X connect 107 0 80 0;
#X connect 108 0 107 1;
#X coords 0 0 1 1 58 268 1;
