#N canvas 0 0 462 312 10;
#X obj 52 34 inlet~;
#X obj 82 183 outlet~;
#X obj 149 33 inlet;
#X obj 256 32 inlet;
#X text 45 7 orderforce;
#X text 41 16 signal-inlet;
#X text 147 14 delaytime [ms];
#X text 253 14 interpolation-time [ms];
#X text 175 156 1.arg: <symbol> delayline-name;
#X obj 82 158 delread~ \$1 2;
#X obj 94 108 pack 2 150;
#X obj 85 136 line 2 1.5;
#X obj 101 77 speedlim 150;
#X connect 2 0 12 0;
#X connect 3 0 10 1;
#X connect 3 0 12 1;
#X connect 9 0 1 0;
#X connect 10 0 11 0;
#X connect 11 0 9 0;
#X connect 12 0 10 0;
