#N canvas 0 0 415 324 10;
#X obj 37 227 outlet~;
#X obj 61 227 outlet~;
#X obj 85 227 outlet~;
#X obj 109 227 outlet~;
#X obj 133 227 outlet~;
#X obj 157 227 outlet~;
#X obj 181 227 outlet~;
#X obj 37 55 inlet~;
#X obj 204 58 inlet;
#X obj 317 59 inlet;
#X text 313 37 interpol-time;
#X text 201 39 encoder-list;
#X text 33 37 signal_in;
#X obj 127 56 inlet;
#X text 124 37 switch;
#X obj 127 78 switch~;
#X obj 37 148 matrix_mul_stat~ 1 7 _____;
#X connect 7 0 16 0;
#X connect 8 0 16 0;
#X connect 13 0 15 0;
#X connect 16 0 0 0;
#X connect 16 1 1 0;
#X connect 16 2 2 0;
#X connect 16 3 3 0;
#X connect 16 4 4 0;
#X connect 16 5 5 0;
#X connect 16 6 6 0;
