#N canvas 166 73 653 624 10;
#X obj 41 51 inlet~;
#X obj 150 117 switch~;
#X obj 354 230 pp time;
#X obj 202 131 pp diag;
#X obj 227 186 pp col;
#X text 43 33 signal in;
#X obj 170 88 inlet;
#X text 164 68 switch_early1;
#X obj 340 134 inlet;
#X text 340 116 interpol;
#X obj 367 173 t b f;
#X obj 354 201 *;
#X obj 385 143 inlet;
#X text 384 126 dmfi;
#X obj 212 99 inlet;
#X text 210 82 damp_early1;
#X obj 258 110 inlet;
#X text 254 93 del_early1;
#X obj 299 120 inlet;
#X obj 43 516 outlet~;
#X obj 57 516 outlet~;
#X obj 71 516 outlet~;
#X obj 85 516 outlet~;
#X obj 99 516 outlet~;
#X obj 113 516 outlet~;
#X obj 127 516 outlet~;
#X text 49 538 A0;
#X obj 43 278 n_delay1p_line~ 4 500 150 __________________________________
;
#X obj 42 359 matrix_diag_mul_stat~ 4 ____________________________________
;
#X text 158 536 B3;
#X obj 42 382 matrix_mul_stat~ 4 7 _______________________________________
;
#X obj 227 207 ambi_encode 3;
#X text 298 105 ip_early1;
#X obj 251 517 outlet~;
#X obj 275 517 outlet~;
#X obj 299 517 outlet~;
#X obj 323 517 outlet~;
#X text 256 541 4 earlies for reverb;
#X connect 0 0 27 0;
#X connect 2 0 27 0;
#X connect 3 0 28 0;
#X connect 4 0 31 0;
#X connect 6 0 1 0;
#X connect 8 0 11 0;
#X connect 10 0 11 0;
#X connect 10 1 11 1;
#X connect 11 0 2 0;
#X connect 12 0 10 0;
#X connect 14 0 3 0;
#X connect 16 0 27 0;
#X connect 18 0 4 0;
#X connect 27 0 28 0;
#X connect 27 0 33 0;
#X connect 27 1 28 1;
#X connect 27 1 34 0;
#X connect 27 2 28 2;
#X connect 27 2 35 0;
#X connect 27 3 28 3;
#X connect 27 3 36 0;
#X connect 28 0 30 0;
#X connect 28 1 30 1;
#X connect 28 2 30 2;
#X connect 28 3 30 3;
#X connect 30 0 19 0;
#X connect 30 1 20 0;
#X connect 30 2 21 0;
#X connect 30 3 22 0;
#X connect 30 4 23 0;
#X connect 30 5 24 0;
#X connect 30 6 25 0;
#X connect 31 0 30 0;
