#N canvas 0 0 760 323 10;
#X obj 35 225 outlet~;
#X obj 59 225 outlet~;
#X obj 83 225 outlet~;
#X obj 107 225 outlet~;
#X obj 131 225 outlet~;
#X obj 155 225 outlet~;
#X obj 179 225 outlet~;
#X obj 203 225 outlet~;
#X obj 227 225 outlet~;
#X obj 251 225 outlet~;
#X obj 275 225 outlet~;
#X obj 299 225 outlet~;
#X obj 323 225 outlet~;
#X obj 347 225 outlet~;
#X obj 371 225 outlet~;
#X obj 395 225 outlet~;
#X obj 419 225 outlet~;
#X obj 443 225 outlet~;
#X obj 467 225 outlet~;
#X obj 491 225 outlet~;
#X obj 515 225 outlet~;
#X obj 539 225 outlet~;
#X obj 563 225 outlet~;
#X obj 587 225 outlet~;
#X obj 611 225 outlet~;
#X obj 35 53 inlet~;
#X obj 238 59 inlet;
#X obj 351 60 inlet;
#X text 347 38 interpol-time;
#X text 235 40 encoder-list;
#X obj 35 146 matrix_mul_stat~ 1 25 ______________________________________
;
#X text 35 36 signal_in;
#X obj 129 55 inlet;
#X text 126 36 switch;
#X obj 129 77 switch~;
#X connect 25 0 30 0;
#X connect 26 0 30 0;
#X connect 30 0 0 0;
#X connect 30 1 1 0;
#X connect 30 2 2 0;
#X connect 30 3 3 0;
#X connect 30 4 4 0;
#X connect 30 5 5 0;
#X connect 30 6 6 0;
#X connect 30 7 7 0;
#X connect 30 8 8 0;
#X connect 30 9 9 0;
#X connect 30 10 10 0;
#X connect 30 11 11 0;
#X connect 30 12 12 0;
#X connect 30 13 13 0;
#X connect 30 14 14 0;
#X connect 30 15 15 0;
#X connect 30 16 16 0;
#X connect 30 17 17 0;
#X connect 30 18 18 0;
#X connect 30 19 19 0;
#X connect 30 20 20 0;
#X connect 30 21 21 0;
#X connect 30 22 22 0;
#X connect 30 23 23 0;
#X connect 30 24 24 0;
#X connect 32 0 34 0;
