#N canvas 129 277 719 632 10;
#X obj 47 540 outlet~;
#X obj 61 540 outlet~;
#X obj 75 540 outlet~;
#X obj 89 540 outlet~;
#X obj 103 540 outlet~;
#X obj 117 540 outlet~;
#X obj 131 540 outlet~;
#X obj 145 540 outlet~;
#X obj 159 540 outlet~;
#X obj 173 540 outlet~;
#X obj 187 540 outlet~;
#X text 53 562 A0;
#X obj 45 45 inlet~;
#X obj 393 218 pp time;
#X obj 162 112 switch~;
#X obj 215 125 pp diag;
#X obj 277 190 pp col;
#X obj 351 135 inlet;
#X text 351 118 interpol;
#X obj 402 169 t b f;
#X obj 393 196 *;
#X obj 402 143 inlet;
#X text 406 126 dmfi;
#X obj 171 85 inlet;
#X obj 215 100 inlet;
#X obj 261 112 inlet;
#X obj 304 123 inlet;
#X text 169 68 switch_early2;
#X text 215 82 damp_early2;
#X text 259 96 del_early2;
#X text 44 29 signal in;
#X text 307 107 ip_early2;
#X obj 277 211 ambi_encode 5;
#X text 213 559 B5;
#X obj 45 407 matrix_diag_mul_stat~ 8 ___________________________________
;
#X obj 46 272 n_delay1p_line~ 8 500 150 _________________________________
;
#X obj 46 432 matrix_mul_stat~ 8 11 _____________________________________
;
#X obj 274 517 +~;
#X obj 298 517 +~;
#X obj 322 517 +~;
#X obj 345 517 +~;
#X obj 274 541 outlet~;
#X obj 298 541 outlet~;
#X obj 322 541 outlet~;
#X obj 346 541 outlet~;
#X text 276 561 4 earlies for reverb;
#X connect 12 0 35 0;
#X connect 13 0 35 0;
#X connect 15 0 34 0;
#X connect 16 0 32 0;
#X connect 17 0 20 0;
#X connect 19 0 20 0;
#X connect 19 1 20 1;
#X connect 20 0 13 0;
#X connect 21 0 19 0;
#X connect 23 0 14 0;
#X connect 24 0 15 0;
#X connect 25 0 35 0;
#X connect 26 0 16 0;
#X connect 32 0 36 0;
#X connect 34 0 36 0;
#X connect 34 1 36 1;
#X connect 34 2 36 2;
#X connect 34 3 36 3;
#X connect 34 4 36 4;
#X connect 34 5 36 5;
#X connect 34 6 36 6;
#X connect 34 7 36 7;
#X connect 35 0 34 0;
#X connect 35 0 37 0;
#X connect 35 1 34 1;
#X connect 35 1 38 0;
#X connect 35 2 34 2;
#X connect 35 2 39 0;
#X connect 35 3 34 3;
#X connect 35 3 40 0;
#X connect 35 4 34 4;
#X connect 35 4 37 1;
#X connect 35 5 34 5;
#X connect 35 5 38 1;
#X connect 35 6 34 6;
#X connect 35 6 39 1;
#X connect 35 7 34 7;
#X connect 35 7 40 1;
#X connect 36 0 0 0;
#X connect 36 1 1 0;
#X connect 36 2 2 0;
#X connect 36 3 3 0;
#X connect 36 4 4 0;
#X connect 36 5 5 0;
#X connect 36 6 6 0;
#X connect 36 7 7 0;
#X connect 36 8 8 0;
#X connect 36 9 9 0;
#X connect 36 10 10 0;
#X connect 37 0 41 0;
#X connect 38 0 42 0;
#X connect 39 0 43 0;
#X connect 40 0 44 0;
