#N canvas 158 75 715 628 10;
#X obj 47 540 outlet~;
#X obj 61 540 outlet~;
#X obj 75 540 outlet~;
#X obj 89 540 outlet~;
#X obj 103 540 outlet~;
#X obj 117 540 outlet~;
#X obj 131 540 outlet~;
#X obj 145 540 outlet~;
#X obj 159 540 outlet~;
#X obj 173 540 outlet~;
#X obj 187 540 outlet~;
#X obj 201 540 outlet~;
#X obj 215 540 outlet~;
#X obj 229 540 outlet~;
#X obj 243 540 outlet~;
#X obj 257 540 outlet~;
#X text 53 562 A0;
#X obj 45 45 inlet~;
#X obj 393 218 pp time;
#X obj 162 112 switch~;
#X obj 215 125 pp diag;
#X obj 277 190 pp col;
#X obj 351 135 inlet;
#X text 351 118 interpol;
#X obj 402 169 t b f;
#X obj 393 196 *;
#X obj 402 143 inlet;
#X text 406 126 dmfi;
#X obj 171 85 inlet;
#X obj 215 100 inlet;
#X obj 261 112 inlet;
#X obj 304 123 inlet;
#X text 169 68 switch_early2;
#X text 215 82 damp_early2;
#X text 259 96 del_early2;
#X text 307 107 itp_early2;
#X obj 46 272 n_delay1p_line~ 18 500 150 _________________________________
;
#X obj 45 407 matrix_diag_mul_stat~ 18 ___________________________________
;
#X text 44 29 signal in;
#X obj 277 211 ambi_encode 3;
#X obj 46 432 matrix_mul_stat~ 18 16 _____________________________________
;
#X text 279 560 G3;
#X obj 405 517 +~;
#X obj 429 517 +~;
#X obj 453 517 +~;
#X obj 476 517 +~;
#X obj 419 495 +~;
#X obj 443 495 +~;
#X obj 467 495 +~;
#X obj 490 495 +~;
#X obj 405 541 outlet~;
#X obj 429 541 outlet~;
#X obj 453 541 outlet~;
#X obj 477 541 outlet~;
#X obj 433 474 +~;
#X obj 481 474 +~;
#X text 418 563 5 earlies for reverb;
#X obj 500 517 +~;
#X obj 514 495 +~;
#X obj 501 541 outlet~;
#X obj 528 474 +~;
#X connect 17 0 36 0;
#X connect 18 0 36 0;
#X connect 20 0 37 0;
#X connect 21 0 39 0;
#X connect 22 0 25 0;
#X connect 24 0 25 0;
#X connect 24 1 25 1;
#X connect 25 0 18 0;
#X connect 26 0 24 0;
#X connect 28 0 19 0;
#X connect 29 0 20 0;
#X connect 30 0 36 0;
#X connect 31 0 21 0;
#X connect 36 0 37 0;
#X connect 36 0 42 0;
#X connect 36 1 37 1;
#X connect 36 1 43 0;
#X connect 36 2 37 2;
#X connect 36 2 44 0;
#X connect 36 3 37 3;
#X connect 36 3 45 0;
#X connect 36 4 37 4;
#X connect 36 4 57 0;
#X connect 36 5 37 5;
#X connect 36 5 46 0;
#X connect 36 6 37 6;
#X connect 36 6 47 0;
#X connect 36 7 37 7;
#X connect 36 7 48 0;
#X connect 36 8 37 8;
#X connect 36 8 49 0;
#X connect 36 9 37 9;
#X connect 36 9 58 0;
#X connect 36 10 37 10;
#X connect 36 10 54 0;
#X connect 36 11 37 11;
#X connect 36 11 47 1;
#X connect 36 12 37 12;
#X connect 36 12 55 0;
#X connect 36 13 37 13;
#X connect 36 13 49 1;
#X connect 36 14 37 14;
#X connect 36 14 60 0;
#X connect 36 15 37 15;
#X connect 36 15 54 1;
#X connect 36 16 37 16;
#X connect 36 16 55 1;
#X connect 36 17 37 17;
#X connect 36 17 60 1;
#X connect 37 0 40 0;
#X connect 37 1 40 1;
#X connect 37 2 40 2;
#X connect 37 3 40 3;
#X connect 37 4 40 4;
#X connect 37 5 40 5;
#X connect 37 6 40 6;
#X connect 37 7 40 7;
#X connect 37 8 40 8;
#X connect 37 9 40 9;
#X connect 37 10 40 10;
#X connect 37 11 40 11;
#X connect 37 12 40 12;
#X connect 37 13 40 13;
#X connect 37 14 40 14;
#X connect 37 15 40 15;
#X connect 37 16 40 16;
#X connect 37 17 40 17;
#X connect 39 0 40 0;
#X connect 40 0 0 0;
#X connect 40 1 1 0;
#X connect 40 2 2 0;
#X connect 40 3 3 0;
#X connect 40 4 4 0;
#X connect 40 5 5 0;
#X connect 40 6 6 0;
#X connect 40 7 7 0;
#X connect 40 8 8 0;
#X connect 40 9 9 0;
#X connect 40 10 10 0;
#X connect 40 11 11 0;
#X connect 40 12 12 0;
#X connect 40 13 13 0;
#X connect 40 14 14 0;
#X connect 40 15 15 0;
#X connect 42 0 50 0;
#X connect 43 0 51 0;
#X connect 44 0 52 0;
#X connect 45 0 53 0;
#X connect 46 0 42 1;
#X connect 47 0 43 1;
#X connect 48 0 44 1;
#X connect 49 0 45 1;
#X connect 54 0 46 1;
#X connect 55 0 48 1;
#X connect 57 0 59 0;
#X connect 58 0 57 1;
#X connect 60 0 58 1;
