#N canvas 155 68 649 620 10;
#X obj 41 51 inlet~;
#X obj 150 117 switch~;
#X obj 354 230 pp time;
#X obj 202 131 pp diag;
#X obj 227 186 pp col;
#X text 43 33 signal in;
#X obj 170 88 inlet;
#X text 164 68 switch_early1;
#X obj 340 134 inlet;
#X text 340 116 interpol;
#X obj 367 173 t b f;
#X obj 354 201 *;
#X obj 385 143 inlet;
#X text 384 126 dmfi;
#X obj 212 99 inlet;
#X text 210 82 damp_early1;
#X obj 258 110 inlet;
#X text 254 93 del_early1;
#X obj 299 120 inlet;
#X text 298 105 itp_early1;
#X obj 43 516 outlet~;
#X obj 57 516 outlet~;
#X obj 71 516 outlet~;
#X obj 85 516 outlet~;
#X obj 99 516 outlet~;
#X obj 113 516 outlet~;
#X obj 127 516 outlet~;
#X obj 141 516 outlet~;
#X obj 155 516 outlet~;
#X text 49 538 A0;
#X obj 43 278 n_delay1p_line~ 6 500 150 __________________________________
;
#X obj 43 379 matrix_diag_mul_stat~ 6 ____________________________________
;
#X obj 227 207 ambi_encode 2;
#X text 181 538 E2;
#X obj 42 402 matrix_mul_stat~ 6 9 _______________________________________
;
#X obj 333 492 +~;
#X obj 309 516 outlet~;
#X obj 333 516 outlet~;
#X obj 357 516 outlet~;
#X obj 381 516 outlet~;
#X text 316 540 5 earlies for reverb;
#X obj 405 516 outlet~;
#X connect 0 0 30 0;
#X connect 2 0 30 0;
#X connect 3 0 31 0;
#X connect 4 0 32 0;
#X connect 6 0 1 0;
#X connect 8 0 11 0;
#X connect 10 0 11 0;
#X connect 10 1 11 1;
#X connect 11 0 2 0;
#X connect 12 0 10 0;
#X connect 14 0 3 0;
#X connect 16 0 30 0;
#X connect 18 0 4 0;
#X connect 30 0 31 0;
#X connect 30 0 36 0;
#X connect 30 1 31 1;
#X connect 30 1 35 0;
#X connect 30 2 31 2;
#X connect 30 2 38 0;
#X connect 30 3 31 3;
#X connect 30 3 39 0;
#X connect 30 4 31 4;
#X connect 30 4 41 0;
#X connect 30 5 31 5;
#X connect 30 5 35 1;
#X connect 31 0 34 0;
#X connect 31 1 34 1;
#X connect 31 2 34 2;
#X connect 31 3 34 3;
#X connect 31 4 34 4;
#X connect 31 5 34 5;
#X connect 32 0 34 0;
#X connect 34 0 20 0;
#X connect 34 1 21 0;
#X connect 34 2 22 0;
#X connect 34 3 23 0;
#X connect 34 4 24 0;
#X connect 34 5 25 0;
#X connect 34 6 26 0;
#X connect 34 7 27 0;
#X connect 34 8 28 0;
#X connect 35 0 37 0;
