#N canvas 154 73 649 620 10;
#X obj 41 51 inlet~;
#X obj 150 117 switch~;
#X obj 354 230 pp time;
#X obj 202 131 pp diag;
#X obj 227 186 pp col;
#X text 43 33 signal in;
#X obj 170 88 inlet;
#X text 164 68 switch_early1;
#X obj 340 134 inlet;
#X text 340 116 interpol;
#X obj 367 173 t b f;
#X obj 354 201 *;
#X obj 385 143 inlet;
#X text 384 126 dmfi;
#X obj 212 99 inlet;
#X text 210 82 damp_early1;
#X obj 258 110 inlet;
#X text 254 93 del_early1;
#X obj 299 120 inlet;
#X text 298 105 itp_early1;
#X obj 43 516 outlet~;
#X obj 57 516 outlet~;
#X obj 71 516 outlet~;
#X obj 85 516 outlet~;
#X obj 99 516 outlet~;
#X obj 113 516 outlet~;
#X obj 127 516 outlet~;
#X obj 141 516 outlet~;
#X obj 155 516 outlet~;
#X obj 169 516 outlet~;
#X obj 183 516 outlet~;
#X obj 197 516 outlet~;
#X obj 211 516 outlet~;
#X obj 225 516 outlet~;
#X obj 239 516 outlet~;
#X obj 253 516 outlet~;
#X text 49 538 A0;
#X obj 43 278 n_delay1p_line~ 6 500 150 __________________________________
;
#X obj 43 389 matrix_diag_mul_stat~ 6 ____________________________________
;
#X obj 227 207 ambi_encode 3;
#X obj 42 412 matrix_mul_stat~ 6 16 ______________________________________
;
#X text 272 537 G3;
#X obj 368 491 +~;
#X obj 344 515 outlet~;
#X obj 368 515 outlet~;
#X obj 392 515 outlet~;
#X obj 416 515 outlet~;
#X text 351 539 5 earlies for reverb;
#X obj 440 515 outlet~;
#X connect 0 0 37 0;
#X connect 2 0 37 0;
#X connect 3 0 38 0;
#X connect 4 0 39 0;
#X connect 6 0 1 0;
#X connect 8 0 11 0;
#X connect 10 0 11 0;
#X connect 10 1 11 1;
#X connect 11 0 2 0;
#X connect 12 0 10 0;
#X connect 14 0 3 0;
#X connect 16 0 37 0;
#X connect 18 0 4 0;
#X connect 37 0 38 0;
#X connect 37 0 43 0;
#X connect 37 1 38 1;
#X connect 37 1 42 0;
#X connect 37 2 38 2;
#X connect 37 2 45 0;
#X connect 37 3 38 3;
#X connect 37 3 46 0;
#X connect 37 4 38 4;
#X connect 37 4 48 0;
#X connect 37 5 38 5;
#X connect 37 5 42 1;
#X connect 38 0 40 0;
#X connect 38 1 40 1;
#X connect 38 2 40 2;
#X connect 38 3 40 3;
#X connect 38 4 40 4;
#X connect 38 5 40 5;
#X connect 39 0 40 0;
#X connect 40 0 20 0;
#X connect 40 1 21 0;
#X connect 40 2 22 0;
#X connect 40 3 23 0;
#X connect 40 4 24 0;
#X connect 40 5 25 0;
#X connect 40 6 26 0;
#X connect 40 7 27 0;
#X connect 40 8 28 0;
#X connect 40 9 29 0;
#X connect 40 10 30 0;
#X connect 40 11 31 0;
#X connect 40 12 32 0;
#X connect 40 13 33 0;
#X connect 40 14 34 0;
#X connect 40 15 35 0;
#X connect 42 0 44 0;
