#N canvas 148 73 711 624 10;
#X obj 47 540 outlet~;
#X obj 61 540 outlet~;
#X obj 75 540 outlet~;
#X obj 89 540 outlet~;
#X obj 103 540 outlet~;
#X obj 117 540 outlet~;
#X obj 131 540 outlet~;
#X obj 145 540 outlet~;
#X obj 159 540 outlet~;
#X obj 173 540 outlet~;
#X obj 187 540 outlet~;
#X obj 201 540 outlet~;
#X obj 215 540 outlet~;
#X obj 229 540 outlet~;
#X obj 243 540 outlet~;
#X obj 257 540 outlet~;
#X obj 271 540 outlet~;
#X obj 285 540 outlet~;
#X obj 299 540 outlet~;
#X obj 313 540 outlet~;
#X obj 327 540 outlet~;
#X obj 341 540 outlet~;
#X obj 355 540 outlet~;
#X obj 369 540 outlet~;
#X obj 383 540 outlet~;
#X text 409 562 I4;
#X text 53 562 A0;
#X obj 45 45 inlet~;
#X obj 393 218 pp time;
#X obj 162 112 switch~;
#X obj 215 125 pp diag;
#X obj 277 211 ambi_encode 4;
#X obj 277 190 pp col;
#X obj 351 135 inlet;
#X text 351 118 interpol;
#X obj 402 169 t b f;
#X obj 393 196 *;
#X obj 402 143 inlet;
#X text 406 126 dmfi;
#X obj 171 85 inlet;
#X obj 215 100 inlet;
#X obj 261 112 inlet;
#X obj 304 123 inlet;
#X text 169 68 switch_early2;
#X text 215 82 damp_early2;
#X text 259 96 del_early2;
#X text 307 107 itp_early2;
#X obj 46 272 n_delay1p_line~ 18 500 150 _________________________________
;
#X obj 45 427 matrix_diag_mul_stat~ 18 ___________________________________
;
#X obj 46 462 matrix_mul_stat~ 18 25 _____________________________________
;
#X text 44 29 signal in;
#X obj 458 517 +~;
#X obj 482 517 +~;
#X obj 506 517 +~;
#X obj 529 517 +~;
#X obj 472 495 +~;
#X obj 496 495 +~;
#X obj 520 495 +~;
#X obj 543 495 +~;
#X obj 458 541 outlet~;
#X obj 482 541 outlet~;
#X obj 506 541 outlet~;
#X obj 530 541 outlet~;
#X obj 486 474 +~;
#X obj 534 474 +~;
#X text 471 563 5 earlies for reverb;
#X obj 553 517 +~;
#X obj 567 495 +~;
#X obj 554 541 outlet~;
#X obj 581 474 +~;
#X connect 27 0 47 0;
#X connect 28 0 47 0;
#X connect 30 0 48 0;
#X connect 31 0 49 0;
#X connect 32 0 31 0;
#X connect 33 0 36 0;
#X connect 35 0 36 0;
#X connect 35 1 36 1;
#X connect 36 0 28 0;
#X connect 37 0 35 0;
#X connect 39 0 29 0;
#X connect 40 0 30 0;
#X connect 41 0 47 0;
#X connect 42 0 32 0;
#X connect 47 0 48 0;
#X connect 47 0 51 0;
#X connect 47 1 48 1;
#X connect 47 1 52 0;
#X connect 47 2 48 2;
#X connect 47 2 53 0;
#X connect 47 3 48 3;
#X connect 47 3 54 0;
#X connect 47 4 48 4;
#X connect 47 4 66 0;
#X connect 47 5 48 5;
#X connect 47 5 55 0;
#X connect 47 6 48 6;
#X connect 47 6 56 0;
#X connect 47 7 48 7;
#X connect 47 7 57 0;
#X connect 47 8 48 8;
#X connect 47 8 58 0;
#X connect 47 9 48 9;
#X connect 47 9 67 0;
#X connect 47 10 48 10;
#X connect 47 10 63 0;
#X connect 47 11 48 11;
#X connect 47 11 56 1;
#X connect 47 12 48 12;
#X connect 47 12 64 0;
#X connect 47 13 48 13;
#X connect 47 13 58 1;
#X connect 47 14 48 14;
#X connect 47 14 69 0;
#X connect 47 15 48 15;
#X connect 47 15 63 1;
#X connect 47 16 48 16;
#X connect 47 16 64 1;
#X connect 47 17 48 17;
#X connect 47 17 69 1;
#X connect 48 0 49 0;
#X connect 48 1 49 1;
#X connect 48 2 49 2;
#X connect 48 3 49 3;
#X connect 48 4 49 4;
#X connect 48 5 49 5;
#X connect 48 6 49 6;
#X connect 48 7 49 7;
#X connect 48 8 49 8;
#X connect 48 9 49 9;
#X connect 48 10 49 10;
#X connect 48 11 49 11;
#X connect 48 12 49 12;
#X connect 48 13 49 13;
#X connect 48 14 49 14;
#X connect 48 15 49 15;
#X connect 48 16 49 16;
#X connect 48 17 49 17;
#X connect 49 0 0 0;
#X connect 49 1 1 0;
#X connect 49 2 2 0;
#X connect 49 3 3 0;
#X connect 49 4 4 0;
#X connect 49 5 5 0;
#X connect 49 6 6 0;
#X connect 49 7 7 0;
#X connect 49 8 8 0;
#X connect 49 9 9 0;
#X connect 49 10 10 0;
#X connect 49 11 11 0;
#X connect 49 12 12 0;
#X connect 49 13 13 0;
#X connect 49 14 14 0;
#X connect 49 15 15 0;
#X connect 49 16 16 0;
#X connect 49 17 17 0;
#X connect 49 18 18 0;
#X connect 49 19 19 0;
#X connect 49 20 20 0;
#X connect 49 21 21 0;
#X connect 49 22 22 0;
#X connect 49 23 23 0;
#X connect 49 24 24 0;
#X connect 51 0 59 0;
#X connect 52 0 60 0;
#X connect 53 0 61 0;
#X connect 54 0 62 0;
#X connect 55 0 51 1;
#X connect 56 0 52 1;
#X connect 57 0 53 1;
#X connect 58 0 54 1;
#X connect 63 0 55 1;
#X connect 64 0 57 1;
#X connect 66 0 68 0;
#X connect 67 0 66 1;
#X connect 69 0 67 1;
