#N canvas 75 361 657 628 10;
#X obj 41 51 inlet~;
#X obj 150 117 switch~;
#X obj 354 230 pp time;
#X obj 202 131 pp diag;
#X obj 227 186 pp col;
#X text 43 33 signal in;
#X obj 170 88 inlet;
#X text 164 68 switch_early1;
#X obj 340 134 inlet;
#X text 340 116 interpol;
#X obj 367 173 t b f;
#X obj 354 201 *;
#X obj 385 143 inlet;
#X text 384 126 dmfi;
#X obj 212 99 inlet;
#X text 210 82 damp_early1;
#X obj 258 110 inlet;
#X text 254 93 del_early1;
#X obj 299 120 inlet;
#X obj 43 516 outlet~;
#X obj 57 516 outlet~;
#X obj 71 516 outlet~;
#X obj 85 516 outlet~;
#X obj 99 516 outlet~;
#X obj 113 516 outlet~;
#X obj 127 516 outlet~;
#X obj 141 516 outlet~;
#X obj 155 516 outlet~;
#X obj 169 516 outlet~;
#X obj 183 516 outlet~;
#X text 49 538 A0;
#X obj 43 278 n_delay1p_line~ 4 500 150 __________________________________
;
#X obj 43 379 matrix_diag_mul_stat~ 4 ____________________________________
;
#X obj 42 402 matrix_mul_stat~ 4 11 ______________________________________
;
#X text 207 542 B5;
#X obj 227 207 ambi_encode 5;
#X text 298 105 ip_early1;
#X obj 309 516 outlet~;
#X obj 333 516 outlet~;
#X obj 357 516 outlet~;
#X obj 381 516 outlet~;
#X text 314 540 4 earlies for reverb;
#X connect 0 0 31 0;
#X connect 2 0 31 0;
#X connect 3 0 32 0;
#X connect 4 0 35 0;
#X connect 6 0 1 0;
#X connect 8 0 11 0;
#X connect 10 0 11 0;
#X connect 10 1 11 1;
#X connect 11 0 2 0;
#X connect 12 0 10 0;
#X connect 14 0 3 0;
#X connect 16 0 31 0;
#X connect 18 0 4 0;
#X connect 31 0 32 0;
#X connect 31 0 37 0;
#X connect 31 1 32 1;
#X connect 31 1 38 0;
#X connect 31 2 32 2;
#X connect 31 2 39 0;
#X connect 31 3 32 3;
#X connect 31 3 40 0;
#X connect 32 0 33 0;
#X connect 32 1 33 1;
#X connect 32 2 33 2;
#X connect 32 3 33 3;
#X connect 33 0 19 0;
#X connect 33 1 20 0;
#X connect 33 2 21 0;
#X connect 33 3 22 0;
#X connect 33 4 23 0;
#X connect 33 5 24 0;
#X connect 33 6 25 0;
#X connect 33 7 26 0;
#X connect 33 8 27 0;
#X connect 33 9 28 0;
#X connect 33 10 29 0;
#X connect 35 0 33 0;
