#N canvas 182 80 645 616 10;
#X obj 41 51 inlet~;
#X obj 150 117 switch~;
#X obj 354 230 pp time;
#X obj 202 131 pp diag;
#X obj 227 207 ambi_encode 4;
#X obj 227 186 pp col;
#X text 43 33 signal in;
#X obj 170 88 inlet;
#X text 164 68 switch_early1;
#X obj 340 134 inlet;
#X text 340 116 interpol;
#X obj 367 173 t b f;
#X obj 354 201 *;
#X obj 385 143 inlet;
#X text 384 126 dmfi;
#X obj 212 99 inlet;
#X text 210 82 damp_early1;
#X obj 258 110 inlet;
#X text 254 93 del_early1;
#X obj 299 120 inlet;
#X text 298 105 itp_early1;
#X obj 43 516 outlet~;
#X obj 57 516 outlet~;
#X obj 71 516 outlet~;
#X obj 85 516 outlet~;
#X obj 99 516 outlet~;
#X obj 113 516 outlet~;
#X obj 127 516 outlet~;
#X obj 141 516 outlet~;
#X obj 155 516 outlet~;
#X obj 169 516 outlet~;
#X obj 183 516 outlet~;
#X obj 197 516 outlet~;
#X obj 211 516 outlet~;
#X obj 225 516 outlet~;
#X obj 239 516 outlet~;
#X obj 253 516 outlet~;
#X obj 267 516 outlet~;
#X obj 281 516 outlet~;
#X obj 295 516 outlet~;
#X obj 309 516 outlet~;
#X obj 323 516 outlet~;
#X obj 337 516 outlet~;
#X obj 351 516 outlet~;
#X obj 365 516 outlet~;
#X obj 379 516 outlet~;
#X text 405 538 I4;
#X text 49 538 A0;
#X obj 43 278 n_delay1p_line~ 6 500 150 __________________________________
;
#X obj 43 379 matrix_diag_mul_stat~ 6 ____________________________________
;
#X obj 42 402 matrix_mul_stat~ 6 25 ______________________________________
;
#X obj 461 490 +~;
#X obj 437 514 outlet~;
#X obj 461 514 outlet~;
#X obj 485 514 outlet~;
#X obj 509 514 outlet~;
#X text 475 541 5 earlies for reverb;
#X obj 533 514 outlet~;
#X connect 0 0 48 0;
#X connect 2 0 48 0;
#X connect 3 0 49 0;
#X connect 4 0 50 0;
#X connect 5 0 4 0;
#X connect 7 0 1 0;
#X connect 9 0 12 0;
#X connect 11 0 12 0;
#X connect 11 1 12 1;
#X connect 12 0 2 0;
#X connect 13 0 11 0;
#X connect 15 0 3 0;
#X connect 17 0 48 0;
#X connect 19 0 5 0;
#X connect 48 0 49 0;
#X connect 48 0 52 0;
#X connect 48 1 49 1;
#X connect 48 1 51 0;
#X connect 48 2 49 2;
#X connect 48 2 54 0;
#X connect 48 3 49 3;
#X connect 48 3 55 0;
#X connect 48 4 49 4;
#X connect 48 4 57 0;
#X connect 48 5 49 5;
#X connect 48 5 51 1;
#X connect 49 0 50 0;
#X connect 49 1 50 1;
#X connect 49 2 50 2;
#X connect 49 3 50 3;
#X connect 49 4 50 4;
#X connect 49 5 50 5;
#X connect 50 0 21 0;
#X connect 50 1 22 0;
#X connect 50 2 23 0;
#X connect 50 3 24 0;
#X connect 50 4 25 0;
#X connect 50 5 26 0;
#X connect 50 6 27 0;
#X connect 50 7 28 0;
#X connect 50 8 29 0;
#X connect 50 9 30 0;
#X connect 50 10 31 0;
#X connect 50 11 32 0;
#X connect 50 12 33 0;
#X connect 50 13 34 0;
#X connect 50 14 35 0;
#X connect 50 15 36 0;
#X connect 50 16 37 0;
#X connect 50 17 38 0;
#X connect 50 18 39 0;
#X connect 50 19 40 0;
#X connect 50 20 41 0;
#X connect 50 21 42 0;
#X connect 50 22 43 0;
#X connect 50 23 44 0;
#X connect 50 24 45 0;
#X connect 51 0 53 0;
