#N canvas 33 7 980 663 10;
#X obj 755 426 pp rho;
#X obj 800 425 pp src_font;
#X obj 755 405 init 0;
#X obj 800 404 init 35;
#X obj 288 161 * 0.01;
#X obj 11 295 r gui_ratio_pix_p_m;
#X obj 307 138 r gui_r_ambi;
#X obj 332 186 pp ambi_radius;
#X obj 442 72 r gui_direct_gain;
#X obj 443 155 r gui_early1_gain;
#X obj 444 317 r gui_rev_gain;
#X obj 442 112 pp source 0 direct_gain;
#X obj 443 195 pp source 0 early1_gain;
#X obj 444 276 pp source 0 early2_gain;
#X obj 275 43 pp interpol_time;
#X obj 11 316 pp pix_per_m_ratio;
#X obj 444 337 + 100;
#X obj 444 256 + 100;
#X obj 443 175 + 100;
#X obj 442 92 + 100;
#X obj 444 236 r gui_early2_gain;
#X obj 237 187 pp r_ambi;
#X obj 252 137 init 140;
#X obj 444 357 pp diffuse gain;
#X obj 295 260 r gui_HRIR_onset;
#X obj 295 281 pp HRIR_onset;
#X obj 160 305 r gui_mirror_weight;
#X obj 160 326 pp mirror_weight;
#X obj 725 494 fadtodb;
#X obj 799 534 - 100;
#X obj 629 502 + 100;
#X obj 629 522 dbtofad;
#X obj 799 555 s gui_out_db;
#X obj 629 542 s rgui_out_gain;
#X obj 629 461 r rout_gain;
#X obj 725 473 r gui_out_gain;
#X obj 629 481 f 0;
#X obj 402 437 r gui_itrax2_on;
#X obj 402 599 outlet;
#X obj 402 457 pp to_itrax2;
#X obj 725 555 pp out_gain;
#X obj 17 372 inlet;
#X obj 80 570 s gui_dsp_mean;
#X obj 100 549 s gui_dsp_peak;
#X obj 80 505 route 1 2 3;
#X obj 120 527 s rgui_dsp_on;
#X obj 515 456 r gui_dsp_on;
#X obj 515 476 pp to_dspmeter;
#X obj 275 21 r gui_interpol_time;
#X obj 507 542 pp rotate_listener;
#X obj 421 499 pp encode_src_listener_early_room;
#X obj 503 433 pp decode;
#X obj 419 564 pp encode_listener_diffuse_room;
#X obj 421 479 r \$0_enc_early;
#X obj 419 544 r \$0_enc_diff;
#X obj 507 522 r \$0_rot;
#X obj 503 412 r \$0_dec;
#X obj 332 208 s \$0_enc_early;
#X obj 444 378 s \$0_enc_diff;
#X obj 283 63 s \$0_enc_early;
#X obj 283 85 s \$0_enc_diff;
#X obj 283 109 s \$0_rot;
#X obj 296 376 s \$0_dec;
#X obj 442 132 s \$0_enc_early;
#X obj 443 215 s \$0_enc_early;
#X obj 444 296 s \$0_enc_early;
#X obj 11 337 s rgui_room_sim;
#X obj 237 208 s rgui_room_sim;
#X obj 788 448 s rgui_room_sim;
#X msg 625 220 \; W resize \$1 \; Wd resize \$1;
#X obj 625 200 + 1;
#X obj 633 181 cnv 15 36 15 empty empty empty 20 12 0 14 -114524 -66577
0;
#X obj 765 291 cnv 15 36 15 empty empty empty 20 12 0 14 -114524 -66577
0;
#X obj 775 378 cnv 15 36 15 empty empty empty 20 12 0 14 -114524 -66577
0;
#X obj 606 399 pp diffuse ambi_weight;
#X obj 606 421 s \$0_enc_diff;
#X obj 606 356 r gui_diff_weight;
#X obj 659 312 pp ambi_weight;
#X obj 614 269 r gui_ambi_weight;
#X obj 659 333 s \$0_dec;
#X obj 576 400 pp 0;
#X obj 576 421 s Wd;
#X obj 614 312 pp 0;
#X obj 614 334 s W;
#X obj 736 82 cnv 15 36 15 empty empty empty 20 12 0 14 -114524 -66577
0;
#X obj 597 101 s \$0_enc_early;
#X obj 712 102 s \$0_enc_diff;
#X obj 597 60 r gui_room_sim;
#X text 777 80 dim + nr.src;
#X text 768 131 nr.src;
#X obj 726 134 cnv 15 36 15 empty empty empty 20 12 0 14 -114524 -66577
0;
#X obj 623 154 s \$0_enc_early;
#X text 480 11 1.arg: <float> ambisonic order (2 \, 3 \, 4 \, 5);
#X text 480 22 2.arg: <float> Dimension (2 or 3);
#X text 480 34 3.arg: <float> Number of Sources (N = 1..8);
#X text 674 179 order;
#X obj 625 180 init \$1;
#X obj 26 28 * 0.01;
#X obj 40 130 r gui_sonic_speed;
#X obj 15 228 pp room;
#X obj 40 150 pp sonic_speed;
#X obj 65 191 pp cutoff_freq;
#X obj 65 170 r gui_cutoff_freq;
#X obj 29 252 s \$0_enc_early;
#X obj 15 272 s \$0_enc_diff;
#X obj 78 232 pp distance_exponent;
#X obj 78 211 r gui_dist_exp;
#X obj 17 484 route vu from_dspmeter;
#X obj 144 393 cnv 15 36 15 empty empty empty 20 12 0 14 -114524 -66577
0;
#X obj 69 460 s \$0_enc_early;
#X obj 121 439 s \$0_enc_diff;
#X obj 174 418 s \$0_rot;
#X obj 26 109 pp absorption_coeff;
#X obj 26 49 pp low;
#X obj 26 7 r gui_absorption_low;
#X obj 70 47 * 0.01;
#X obj 122 66 * 0.01;
#X obj 70 68 pp mid;
#X obj 122 87 pp high;
#X obj 122 45 r gui_absorption_high;
#X obj 70 26 r gui_absorption_mid;
#X text 150 596 nr.src;
#X obj 108 599 cnv 15 36 15 empty empty empty 20 12 0 14 -114524 -66577
0;
#X obj 17 598 multiple/vu_transf \$3;
#X obj 597 81 multiple/position_cnvrt \$2 \$3;
#X obj 614 290 multiple/presets_ambi_weight \$1;
#X text 807 289 order;
#X text 817 377 order;
#X obj 606 377 multiple/presets_diffuse_weight \$1;
#X obj 17 392 multiple/rot_room_transf \$2;
#X text 187 392 dim;
#X obj 256 430 pp player;
#X obj 623 133 multiple/gain_transf \$3;
#X text 419 406 nr.src;
#X obj 377 409 cnv 15 36 15 empty empty empty 20 12 0 14 -114524 -66577
0;
#X obj 256 408 multiple/playcmd_transf \$3;
#X obj 162 260 r gui_HRIR_pathname;
#X obj 162 282 pp HRIR_pathname;
#X obj 308 306 r gui_HRIR_length;
#X obj 308 327 pp HRIR_length;
#X connect 0 0 68 0;
#X connect 1 0 68 0;
#X connect 2 0 0 0;
#X connect 3 0 1 0;
#X connect 4 0 7 0;
#X connect 4 0 21 0;
#X connect 5 0 15 0;
#X connect 6 0 4 0;
#X connect 7 0 57 0;
#X connect 8 0 19 0;
#X connect 9 0 18 0;
#X connect 10 0 16 0;
#X connect 11 0 63 0;
#X connect 12 0 64 0;
#X connect 13 0 65 0;
#X connect 14 0 59 0;
#X connect 14 0 60 0;
#X connect 14 0 61 0;
#X connect 15 0 66 0;
#X connect 16 0 23 0;
#X connect 17 0 13 0;
#X connect 18 0 12 0;
#X connect 19 0 11 0;
#X connect 20 0 17 0;
#X connect 21 0 67 0;
#X connect 22 0 4 0;
#X connect 23 0 58 0;
#X connect 24 0 25 0;
#X connect 25 0 62 0;
#X connect 26 0 27 0;
#X connect 27 0 62 0;
#X connect 28 0 29 0;
#X connect 28 0 40 0;
#X connect 29 0 32 0;
#X connect 29 0 36 1;
#X connect 30 0 31 0;
#X connect 31 0 33 0;
#X connect 34 0 36 0;
#X connect 35 0 28 0;
#X connect 36 0 30 0;
#X connect 37 0 39 0;
#X connect 39 0 38 0;
#X connect 40 0 38 0;
#X connect 41 0 129 0;
#X connect 44 0 42 0;
#X connect 44 1 43 0;
#X connect 44 2 45 0;
#X connect 46 0 47 0;
#X connect 47 0 38 0;
#X connect 48 0 14 0;
#X connect 49 0 38 0;
#X connect 50 0 38 0;
#X connect 51 0 38 0;
#X connect 52 0 38 0;
#X connect 53 0 50 0;
#X connect 54 0 52 0;
#X connect 55 0 49 0;
#X connect 56 0 51 0;
#X connect 70 0 69 0;
#X connect 74 0 75 0;
#X connect 76 0 128 0;
#X connect 77 0 79 0;
#X connect 78 0 125 0;
#X connect 80 0 81 0;
#X connect 82 0 83 0;
#X connect 87 0 124 0;
#X connect 96 0 70 0;
#X connect 97 0 113 0;
#X connect 98 0 100 0;
#X connect 99 0 103 0;
#X connect 99 0 104 0;
#X connect 100 0 99 0;
#X connect 101 0 99 0;
#X connect 102 0 101 0;
#X connect 105 0 99 0;
#X connect 106 0 105 0;
#X connect 107 0 123 0;
#X connect 107 1 44 0;
#X connect 112 0 99 0;
#X connect 113 0 112 0;
#X connect 114 0 97 0;
#X connect 115 0 117 0;
#X connect 116 0 118 0;
#X connect 117 0 112 0;
#X connect 118 0 112 0;
#X connect 119 0 116 0;
#X connect 120 0 115 0;
#X connect 124 0 85 0;
#X connect 124 1 86 0;
#X connect 125 0 82 0;
#X connect 125 0 77 0;
#X connect 128 0 80 0;
#X connect 128 0 74 0;
#X connect 129 0 107 0;
#X connect 129 1 109 0;
#X connect 129 2 110 0;
#X connect 129 3 111 0;
#X connect 131 0 38 0;
#X connect 132 0 91 0;
#X connect 135 0 131 0;
#X connect 136 0 137 0;
#X connect 137 0 62 0;
#X connect 138 0 139 0;
#X connect 139 0 62 0;
