#N canvas 104 8 500 380 10;
#X obj 314 69 t b f;
#X obj 306 28 r gui_x_room_length;
#X obj 314 49 r gui_y_room_width;
#X obj 306 209 pp room_dim;
#X obj 306 231 s rgui_room_sim;
#X obj 306 91 pack 12 10;
#X obj 164 208 * -1;
#X obj 35 28 inlet;
#X obj 69 170 r gui_z_rotate;
#X text 193 208 invert;
#X obj 31 265 pp set;
#X obj 57 200 pp set_rho;
#X obj 35 79 unpack 0 0 0;
#X obj 35 102 f;
#X obj 57 220 s rgui_room_sim;
#X obj 74 243 r gui_room_sim;
#X obj 74 264 route rho_z;
#X obj 49 292 s rgui_z_rotate;
#X obj 164 233 pp rho_z;
#X obj 34 332 outlet;
#X obj 35 50 route from_itrax2;
#X obj 331 331 outlet;
#X obj 148 334 outlet;
#X obj 233 334 outlet;
#X obj 315 146 pp room size;
#X connect 0 0 5 0;
#X connect 0 1 5 1;
#X connect 1 0 5 0;
#X connect 2 0 0 0;
#X connect 3 0 4 0;
#X connect 5 0 3 0;
#X connect 5 0 24 0;
#X connect 6 0 18 0;
#X connect 7 0 20 0;
#X connect 8 0 11 0;
#X connect 8 0 6 0;
#X connect 10 0 17 0;
#X connect 11 0 14 0;
#X connect 12 0 13 0;
#X connect 13 0 10 0;
#X connect 13 0 11 0;
#X connect 13 0 6 0;
#X connect 15 0 16 0;
#X connect 16 0 17 0;
#X connect 18 0 21 0;
#X connect 20 0 12 0;
#X connect 20 1 19 0;
#X connect 24 0 22 0;
#X connect 24 0 23 0;
