#N canvas 152 15 623 702 10;
#X obj 88 224 pp source 1 position;
#X obj 105 267 pp source 2 position;
#X obj 70 183 pp listener position;
#X obj 113 309 pp source 3 position;
#X obj 70 123 route pos;
#X obj 70 163 route head_xy;
#X obj 113 287 route src_xy;
#X text 221 15 1.arg: <float> Dimension (2 or 3);
#X obj 230 54 init \$1;
#X obj 230 76 sel 2;
#X obj 255 97 t b;
#X msg 83 70 0;
#X msg 111 70 1;
#X msg 376 82 0;
#X msg 404 82 1;
#X obj 70 99 spigot;
#X obj 364 109 spigot;
#X text 112 99 2D;
#X text 406 110 3D;
#X obj 71 40 inlet;
#X obj 382 231 pp source 1 position;
#X obj 399 274 pp source 2 position;
#X obj 364 190 pp listener position;
#X obj 407 316 pp source 3 position;
#X obj 364 130 route pos;
#X obj 364 170 route head_xyz;
#X obj 382 211 route src_xyz;
#X obj 399 252 route src_xyz;
#X obj 105 245 route src_xy;
#X obj 88 204 route src_xy;
#X obj 407 294 route src_xyz;
#X obj 421 784 outlet;
#X obj 88 790 outlet;
#X obj 127 333 route src_xy;
#X obj 420 338 route src_xyz;
#X obj 140 378 route src_xy;
#X obj 433 383 route src_xyz;
#X obj 420 360 pp source 4 position;
#X obj 127 355 pp source 4 position;
#X obj 140 400 pp source 5 position;
#X obj 433 405 pp source 5 position;
#X obj 153 422 route src_xy;
#X obj 446 427 route src_xyz;
#X obj 446 449 pp source 6 position;
#X obj 153 445 pp source 6 position;
#X obj 166 467 route src_xy;
#X obj 459 472 route src_xyz;
#X obj 166 490 pp source 7 position;
#X obj 459 494 pp source 7 position;
#X obj 177 512 route src_xy;
#X obj 470 517 route src_xyz;
#X obj 470 539 pp source 8 position;
#X obj 177 535 pp source 8 position;
#X obj 187 558 route src_xy;
#X obj 480 562 route src_xyz;
#X obj 480 584 pp source 9 position;
#X obj 187 581 pp source 9 position;
#X obj 492 606 route src_xyz;
#X obj 198 604 route src_xy;
#X obj 198 624 pp source 10 position;
#X obj 492 626 pp source 10 position;
#X obj 502 646 route src_xyz;
#X obj 208 644 route src_xy;
#X obj 502 666 pp source 11 position;
#X obj 208 664 pp source 11 position;
#X obj 364 150 route 0 1 2 3 4 5 6 7 8 9 10 11;
#X obj 70 143 route 0 1 2 3 4 5 6 7 8 9 10 11;
#X connect 0 0 32 0;
#X connect 1 0 32 0;
#X connect 2 0 32 0;
#X connect 2 0 31 0;
#X connect 3 0 32 0;
#X connect 4 0 66 0;
#X connect 5 0 2 0;
#X connect 6 0 3 0;
#X connect 8 0 9 0;
#X connect 9 0 12 0;
#X connect 9 0 13 0;
#X connect 9 1 10 0;
#X connect 10 0 11 0;
#X connect 10 0 14 0;
#X connect 11 0 15 1;
#X connect 12 0 15 1;
#X connect 13 0 16 1;
#X connect 14 0 16 1;
#X connect 15 0 4 0;
#X connect 16 0 24 0;
#X connect 19 0 15 0;
#X connect 19 0 16 0;
#X connect 20 0 32 0;
#X connect 21 0 32 0;
#X connect 22 0 31 0;
#X connect 22 0 32 0;
#X connect 23 0 32 0;
#X connect 24 0 65 0;
#X connect 25 0 22 0;
#X connect 26 0 20 0;
#X connect 27 0 21 0;
#X connect 28 0 1 0;
#X connect 29 0 0 0;
#X connect 30 0 23 0;
#X connect 33 0 38 0;
#X connect 34 0 37 0;
#X connect 35 0 39 0;
#X connect 36 0 40 0;
#X connect 37 0 32 0;
#X connect 38 0 32 0;
#X connect 39 0 32 0;
#X connect 40 0 32 0;
#X connect 41 0 44 0;
#X connect 42 0 43 0;
#X connect 43 0 32 0;
#X connect 44 0 32 0;
#X connect 45 0 47 0;
#X connect 46 0 48 0;
#X connect 47 0 32 0;
#X connect 48 0 32 0;
#X connect 49 0 52 0;
#X connect 50 0 51 0;
#X connect 51 0 32 0;
#X connect 52 0 32 0;
#X connect 53 0 56 0;
#X connect 54 0 55 0;
#X connect 55 0 32 0;
#X connect 56 0 32 0;
#X connect 57 0 60 0;
#X connect 58 0 59 0;
#X connect 59 0 32 0;
#X connect 60 0 32 0;
#X connect 61 0 63 0;
#X connect 62 0 64 0;
#X connect 63 0 32 0;
#X connect 64 0 32 0;
#X connect 65 0 25 0;
#X connect 65 1 26 0;
#X connect 65 2 27 0;
#X connect 65 3 30 0;
#X connect 65 4 34 0;
#X connect 65 5 36 0;
#X connect 65 6 42 0;
#X connect 65 7 46 0;
#X connect 65 8 50 0;
#X connect 65 9 54 0;
#X connect 65 10 57 0;
#X connect 65 11 61 0;
#X connect 66 0 5 0;
#X connect 66 1 29 0;
#X connect 66 2 28 0;
#X connect 66 3 6 0;
#X connect 66 4 33 0;
#X connect 66 5 35 0;
#X connect 66 6 41 0;
#X connect 66 7 45 0;
#X connect 66 8 49 0;
#X connect 66 9 53 0;
#X connect 66 10 58 0;
#X connect 66 11 62 0;
