#N canvas 470 237 462 312 10;
#X obj 34 27 gain_cnvrt 1;
#X obj 42 48 gain_cnvrt 2;
#X obj 50 69 gain_cnvrt 3;
#X obj 43 320 outlet;
#X obj 58 90 gain_cnvrt 4;
#X obj 66 111 gain_cnvrt 5;
#X obj 74 132 gain_cnvrt 6;
#X obj 84 153 gain_cnvrt 7;
#X obj 92 174 gain_cnvrt 8;
#X obj 99 195 gain_cnvrt 9;
#X obj 110 217 gain_cnvrt 10;
#X obj 117 239 gain_cnvrt 11;
#X obj 125 261 gain_cnvrt 12;
#X obj 135 281 gain_cnvrt 13;
#X connect 0 0 3 0;
#X connect 1 0 3 0;
#X connect 2 0 3 0;
#X connect 4 0 3 0;
#X connect 5 0 3 0;
#X connect 6 0 3 0;
#X connect 7 0 3 0;
#X connect 8 0 3 0;
#X connect 9 0 3 0;
#X connect 10 0 3 0;
#X connect 11 0 3 0;
#X connect 12 0 3 0;
#X connect 13 0 3 0;
