#N canvas 414 127 440 370 10;
#X obj 69 313 outlet;
#X obj 37 222 pp 1;
#X obj 37 191 r 1_gui_player;
#X obj 56 170 r 2_gui_player;
#X obj 73 149 r 3_gui_player;
#X obj 56 243 pp 2;
#X obj 73 222 pp 3;
#X obj 92 243 pp 4;
#X obj 111 222 pp 5;
#X obj 128 243 pp 6;
#X obj 146 222 pp 7;
#X obj 163 243 pp 8;
#X obj 163 42 r 8_gui_player;
#X obj 146 63 r 7_gui_player;
#X obj 128 85 r 6_gui_player;
#X obj 111 106 r 5_gui_player;
#X obj 92 127 r 4_gui_player;
#X obj 181 223 pp 9;
#X obj 181 22 r 9_gui_player;
#X obj 201 243 pp 10;
#X obj 217 222 pp 11;
#X obj 236 243 pp 12;
#X obj 253 222 pp 13;
#X obj 201 192 r 10_gui_player;
#X obj 217 171 r 11_gui_player;
#X obj 236 150 r 12_gui_player;
#X obj 253 129 r 13_gui_player;
#X connect 1 0 0 0;
#X connect 2 0 1 0;
#X connect 3 0 5 0;
#X connect 4 0 6 0;
#X connect 5 0 0 0;
#X connect 6 0 0 0;
#X connect 7 0 0 0;
#X connect 8 0 0 0;
#X connect 9 0 0 0;
#X connect 10 0 0 0;
#X connect 11 0 0 0;
#X connect 12 0 11 0;
#X connect 13 0 10 0;
#X connect 14 0 9 0;
#X connect 15 0 8 0;
#X connect 16 0 7 0;
#X connect 17 0 0 0;
#X connect 18 0 17 0;
#X connect 19 0 0 0;
#X connect 20 0 0 0;
#X connect 21 0 0 0;
#X connect 22 0 0 0;
#X connect 23 0 19 0;
#X connect 24 0 20 0;
#X connect 25 0 21 0;
#X connect 26 0 22 0;
