#N canvas 0 0 704 550 10;
#X obj 177 18 inlet;
#X obj 232 445 outlet;
#X msg 62 71 \$1;
#X obj 177 39 t l l;
#X obj 62 155 speedlim 50;
#X obj 102 377 any;
#X obj 130 377 any;
#X obj 158 377 any;
#X obj 186 377 any;
#X obj 216 377 any;
#X obj 248 377 any;
#X obj 348 15 inlet;
#X obj 62 125 modulo_counter 123;
#X obj 279 378 any;
#X obj 309 377 any;
#X obj 340 376 any;
#X obj 70 377 any;
#X obj 89 350 pp 0;
#X obj 121 349 pp 1;
#X obj 150 349 pp 2;
#X obj 180 349 pp 3;
#X obj 208 349 pp 4;
#X obj 236 349 pp 5;
#X obj 265 349 pp 6;
#X obj 294 349 pp 7;
#X obj 322 349 pp 8;
#X obj 350 349 pp 9;
#X obj 252 182 route 0 1 2 3 4 5 6 7 8 9 10 11 12 13;
#X obj 370 376 any;
#X obj 406 376 any;
#X obj 442 376 any;
#X obj 478 376 any;
#X obj 380 349 pp 10;
#X obj 416 349 pp 11;
#X obj 452 349 pp 12;
#X obj 488 349 pp 13;
#X obj 62 99 sel 13;
#X obj 62 183 t b b b b b b b b b b b b b b;
#X connect 0 0 3 0;
#X connect 2 0 36 0;
#X connect 3 0 2 0;
#X connect 3 1 27 0;
#X connect 4 0 37 0;
#X connect 5 0 1 0;
#X connect 6 0 1 0;
#X connect 7 0 1 0;
#X connect 8 0 1 0;
#X connect 9 0 1 0;
#X connect 10 0 1 0;
#X connect 11 0 4 1;
#X connect 12 0 4 0;
#X connect 13 0 1 0;
#X connect 14 0 1 0;
#X connect 15 0 1 0;
#X connect 16 0 1 0;
#X connect 17 0 16 1;
#X connect 18 0 5 1;
#X connect 19 0 6 1;
#X connect 20 0 7 1;
#X connect 21 0 8 1;
#X connect 22 0 9 1;
#X connect 23 0 10 1;
#X connect 24 0 13 1;
#X connect 25 0 14 1;
#X connect 26 0 15 1;
#X connect 27 0 17 0;
#X connect 27 1 18 0;
#X connect 27 2 19 0;
#X connect 27 3 20 0;
#X connect 27 4 21 0;
#X connect 27 5 22 0;
#X connect 27 6 23 0;
#X connect 27 7 24 0;
#X connect 27 8 25 0;
#X connect 27 9 26 0;
#X connect 27 10 32 0;
#X connect 27 11 33 0;
#X connect 27 12 34 0;
#X connect 27 13 35 0;
#X connect 28 0 1 0;
#X connect 29 0 1 0;
#X connect 30 0 1 0;
#X connect 31 0 1 0;
#X connect 32 0 28 1;
#X connect 33 0 29 1;
#X connect 34 0 30 1;
#X connect 35 0 31 1;
#X connect 36 0 12 0;
#X connect 37 0 31 0;
#X connect 37 1 30 0;
#X connect 37 2 29 0;
#X connect 37 3 28 0;
#X connect 37 4 15 0;
#X connect 37 5 14 0;
#X connect 37 6 13 0;
#X connect 37 7 10 0;
#X connect 37 8 9 0;
#X connect 37 9 8 0;
#X connect 37 10 7 0;
#X connect 37 11 6 0;
#X connect 37 12 5 0;
#X connect 37 13 16 0;
