#N canvas 124 45 422 385 10;
#X obj 28 25 inlet;
#X obj 28 262 s out_left_vu;
#X obj 82 287 s out_right_vu;
#X obj 28 47 route out_left out_right src;
#X obj 136 266 s 1_rgui_vu;
#X obj 154 246 s 2_rgui_vu;
#X obj 172 226 s 3_rgui_vu;
#X obj 190 206 s 4_rgui_vu;
#X obj 260 126 s 8_rgui_vu;
#X obj 242 146 s 7_rgui_vu;
#X obj 224 166 s 6_rgui_vu;
#X obj 206 186 s 5_rgui_vu;
#X obj 272 105 s 9_rgui_vu;
#X obj 136 71 route 1 2 3 4 5 6 7 8 9 10 11 12 13;
#X obj 277 268 s 10_rgui_vu;
#X obj 297 248 s 11_rgui_vu;
#X obj 317 228 s 12_rgui_vu;
#X obj 337 208 s 13_rgui_vu;
#X connect 0 0 3 0;
#X connect 3 0 1 0;
#X connect 3 1 2 0;
#X connect 3 2 13 0;
#X connect 13 0 4 0;
#X connect 13 1 5 0;
#X connect 13 2 6 0;
#X connect 13 3 7 0;
#X connect 13 4 11 0;
#X connect 13 5 10 0;
#X connect 13 6 9 0;
#X connect 13 7 8 0;
#X connect 13 8 12 0;
#X connect 13 9 14 0;
#X connect 13 10 15 0;
#X connect 13 11 16 0;
#X connect 13 12 17 0;
