#N canvas 98 29 748 374 10;
#X obj 94 17 inlet;
#X obj 94 40 sel 0 1 2 3;
#X obj 94 172 outlet;
#X text 140 64 (basic);
#X text 255 85 (medium1);
#X text 273 105 (medium2);
#X text 235 127 (strong weighted);
#X msg 94 64 1 1 1;
#X msg 109 85 1.22449 1.22449 0.55102;
#X msg 139 127 1.5 1.125 0.375;
#X msg 123 106 1.30435 1.17391 0.521739;
#X msg 321 80 1 1 0.45;
#X msg 340 102 1 0.9 0.4;
#X msg 345 127 1 0.75 0.25;
#X connect 0 0 1 0;
#X connect 1 0 7 0;
#X connect 1 1 8 0;
#X connect 1 2 10 0;
#X connect 1 3 9 0;
#X connect 7 0 2 0;
#X connect 8 0 2 0;
#X connect 9 0 2 0;
#X connect 10 0 2 0;
