#N canvas 0 0 696 542 10;
#X obj 177 18 inlet;
#X obj 232 445 outlet;
#X msg 62 71 \$1;
#X obj 177 39 t l l;
#X obj 62 155 speedlim 50;
#X obj 102 377 any;
#X obj 130 377 any;
#X obj 158 377 any;
#X obj 150 349 pp 1;
#X obj 121 349 pp 0;
#X obj 180 349 pp 2;
#X obj 348 15 inlet;
#X obj 62 125 modulo_counter 123;
#X obj 62 99 sel 2;
#X obj 233 177 route 0 1 2;
#X obj 63 183 t b b b;
#X connect 0 0 3 0;
#X connect 2 0 13 0;
#X connect 3 0 2 0;
#X connect 3 1 14 0;
#X connect 4 0 15 0;
#X connect 5 0 1 0;
#X connect 6 0 1 0;
#X connect 7 0 1 0;
#X connect 8 0 6 1;
#X connect 9 0 5 1;
#X connect 10 0 7 1;
#X connect 11 0 4 1;
#X connect 12 0 4 0;
#X connect 13 0 12 0;
#X connect 14 0 9 0;
#X connect 14 1 8 0;
#X connect 14 2 10 0;
#X connect 15 0 7 0;
#X connect 15 1 6 0;
#X connect 15 2 5 0;
