#N canvas 231 114 583 564 10;
#X obj 33 26 inlet;
#X obj 33 238 s out_left_vu;
#X obj 87 263 s out_right_vu;
#X obj 33 48 route out_left out_right src;
#X obj 141 242 s 1_rgui_vu;
#X obj 159 222 s 2_rgui_vu;
#X obj 141 72 route 1 2;
#X connect 0 0 3 0;
#X connect 3 0 1 0;
#X connect 3 1 2 0;
#X connect 3 2 6 0;
#X connect 6 0 4 0;
#X connect 6 1 5 0;
