#N canvas 152 15 553 677 10;
#X obj 88 224 pp source 1 position;
#X obj 105 267 pp source 2 position;
#X obj 70 183 pp listener position;
#X obj 70 143 route 0 1 2 3;
#X obj 113 309 pp source 3 position;
#X obj 70 123 route pos;
#X obj 70 163 route head_xy;
#X obj 113 287 route src_xy;
#X text 221 15 1.arg: <float> Dimension (2 or 3);
#X obj 230 54 init \$1;
#X obj 230 76 sel 2;
#X obj 255 97 t b;
#X msg 83 70 0;
#X msg 111 70 1;
#X msg 376 82 0;
#X msg 404 82 1;
#X obj 70 99 spigot;
#X obj 364 109 spigot;
#X text 112 99 2D;
#X text 406 110 3D;
#X obj 71 40 inlet;
#X obj 382 231 pp source 1 position;
#X obj 399 274 pp source 2 position;
#X obj 364 190 pp listener position;
#X obj 364 150 route 0 1 2 3;
#X obj 407 316 pp source 3 position;
#X obj 364 130 route pos;
#X obj 364 170 route head_xyz;
#X obj 382 211 route src_xyz;
#X obj 399 252 route src_xyz;
#X obj 105 245 route src_xy;
#X obj 88 204 route src_xy;
#X obj 407 294 route src_xyz;
#X obj 468 615 outlet;
#X obj 56 618 outlet;
#X connect 0 0 34 0;
#X connect 1 0 34 0;
#X connect 2 0 34 0;
#X connect 2 0 33 0;
#X connect 3 0 6 0;
#X connect 3 1 31 0;
#X connect 3 2 30 0;
#X connect 3 3 7 0;
#X connect 4 0 34 0;
#X connect 5 0 3 0;
#X connect 6 0 2 0;
#X connect 7 0 4 0;
#X connect 9 0 10 0;
#X connect 10 0 13 0;
#X connect 10 0 14 0;
#X connect 10 1 11 0;
#X connect 11 0 12 0;
#X connect 11 0 15 0;
#X connect 12 0 16 1;
#X connect 13 0 16 1;
#X connect 14 0 17 1;
#X connect 15 0 17 1;
#X connect 16 0 5 0;
#X connect 17 0 26 0;
#X connect 20 0 16 0;
#X connect 20 0 17 0;
#X connect 21 0 34 0;
#X connect 22 0 34 0;
#X connect 23 0 33 0;
#X connect 23 0 34 0;
#X connect 24 0 27 0;
#X connect 24 1 28 0;
#X connect 24 2 29 0;
#X connect 24 3 32 0;
#X connect 25 0 34 0;
#X connect 26 0 24 0;
#X connect 27 0 23 0;
#X connect 28 0 21 0;
#X connect 29 0 22 0;
#X connect 30 0 1 0;
#X connect 31 0 0 0;
#X connect 32 0 25 0;
