#N canvas 18 31 748 374 10;
#X obj 94 17 inlet;
#X obj 94 40 sel 0 1 2 3;
#X obj 94 172 outlet;
#X text 144 64 (basic);
#X text 306 85 (medium1);
#X text 327 107 (medium2);
#X text 286 130 (strong weighted);
#X msg 109 86 1.15942 1.15942 1.15942 0.521739;
#X msg 139 130 1.6 1.36569 0.8 0.234315;
#X msg 124 108 1.42857 1.28571 0.857143 0.428571;
#X msg 94 64 1 1 1 1;
#X msg 370 85 1 1 1 0.45;
#X msg 394 106 1 0.9 0.6 0.3;
#X msg 406 130 1 0.853556 0.5 0.146447;
#X connect 0 0 1 0;
#X connect 1 0 10 0;
#X connect 1 1 7 0;
#X connect 1 2 9 0;
#X connect 1 3 8 0;
#X connect 7 0 2 0;
#X connect 8 0 2 0;
#X connect 9 0 2 0;
#X connect 10 0 2 0;
