#N canvas 335 131 600 378 10;
#X obj 34 35 inlet;
#X obj 51 330 outlet;
#X obj 34 57 route from_itrax2;
#X obj 384 71 t b f;
#X obj 376 117 pack 12 10 5;
#X obj 418 93 t b f;
#X obj 376 30 r gui_x_room_length;
#X obj 384 51 r gui_y_room_width;
#X obj 418 73 r gui_z_room_height;
#X obj 376 265 pp room_dim;
#X obj 376 287 s rgui_room_sim;
#X obj 257 166 unpack 0 0 0;
#X obj 257 186 * -1;
#X obj 290 186 * -1;
#X obj 324 186 * -1;
#X obj 257 208 pack 0 0 0;
#X obj 257 236 pp rho_zyx;
#X obj 206 94 r gui_x_rotate;
#X obj 115 94 r gui_z_rotate;
#X obj 140 114 r gui_y_rotate;
#X obj 34 260 s rgui_z_rotate;
#X obj 76 240 s rgui_y_rotate;
#X obj 118 220 s rgui_x_rotate;
#X text 272 221 invert;
#X obj 150 157 pack 0 0 0;
#X obj 140 135 t b f;
#X obj 176 135 t b f;
#X obj 34 152 pack 0 0 0;
#X obj 34 240 pp set;
#X obj 76 220 pp set;
#X obj 118 200 pp set;
#X obj 160 179 pp set_rho;
#X obj 34 94 unpack 0 0 0;
#X obj 34 121 f;
#X obj 61 121 f;
#X obj 89 121 f;
#X obj 160 199 s rgui_room_sim;
#X obj 42 178 r gui_room_sim;
#X obj 42 199 route rho_z;
#X obj 409 201 pp room size;
#X obj 331 331 outlet;
#X obj 173 332 outlet;
#X obj 258 332 outlet;
#X connect 0 0 2 0;
#X connect 2 0 32 0;
#X connect 2 1 1 0;
#X connect 3 0 4 0;
#X connect 3 1 4 1;
#X connect 4 0 9 0;
#X connect 4 0 39 0;
#X connect 5 0 4 0;
#X connect 5 1 4 2;
#X connect 6 0 4 0;
#X connect 7 0 3 0;
#X connect 8 0 5 0;
#X connect 9 0 10 0;
#X connect 11 0 12 0;
#X connect 11 1 13 0;
#X connect 11 2 14 0;
#X connect 12 0 15 0;
#X connect 13 0 15 1;
#X connect 14 0 15 2;
#X connect 15 0 16 0;
#X connect 16 0 40 0;
#X connect 17 0 26 0;
#X connect 18 0 24 0;
#X connect 18 0 31 0;
#X connect 19 0 25 0;
#X connect 24 0 11 0;
#X connect 25 0 24 0;
#X connect 25 1 24 1;
#X connect 26 0 24 0;
#X connect 26 1 24 2;
#X connect 27 0 11 0;
#X connect 28 0 20 0;
#X connect 29 0 21 0;
#X connect 30 0 22 0;
#X connect 31 0 36 0;
#X connect 32 0 33 0;
#X connect 32 1 34 0;
#X connect 32 2 35 0;
#X connect 33 0 27 0;
#X connect 33 0 28 0;
#X connect 33 0 31 0;
#X connect 34 0 27 1;
#X connect 34 0 29 0;
#X connect 35 0 27 2;
#X connect 35 0 30 0;
#X connect 37 0 38 0;
#X connect 38 0 20 0;
#X connect 39 0 42 0;
#X connect 39 0 41 0;
