#N canvas 18 31 752 378 10;
#X obj 94 17 inlet;
#X obj 94 40 sel 0 1 2 3;
#X text 153 67 (basic);
#X obj 94 172 outlet;
#X text 330 89 (medium1);
#X text 383 134 (strong weighted);
#X msg 493 133 1 0.904509 0.654509 0.345492 0.0954921;
#X msg 94 66 1 1 1 1 1;
#X msg 139 134 1.66667 1.50751 1.09085 0.57582 0.159154;
#X msg 109 90 1.1236 1.1236 1.1236 1.1236 0.505618;
#X msg 390 88 1 1 1 1 0.45;
#X msg 124 112 1.32767 1.33032 1.1949 0.819172 0.327934;
#X msg 430 113 1 1.002 0.9 0.617 0.247;
#X text 375 291 (medium2);
#X msg 124 292 1.31579 1.31579 1.18421 0.789474 0.394737;
#X msg 435 292 1 1 0.9 0.6 0.3;
#X text 371 112 (medium2);
#X connect 0 0 1 0;
#X connect 1 0 7 0;
#X connect 1 1 9 0;
#X connect 1 2 11 0;
#X connect 1 3 8 0;
#X connect 7 0 3 0;
#X connect 8 0 3 0;
#X connect 9 0 3 0;
#X connect 11 0 3 0;
