#N canvas 204 146 748 374 10;
#X obj 94 17 inlet;
#X obj 94 40 sel 0 1 2 3;
#X text 169 61 (basic);
#X msg 94 61 1 1 1 1 1 1;
#X msg 109 81 1.10092 1.10092 1.10092 1.10092 1.10092 0.495413;
#X msg 125 103 1.37931 1.33793 1.21379 1.03448 0.689655 0.344828;
#X msg 138 126 1.71429 1.59945 1.28571 0.857145 0.428573 0.114836;
#X obj 94 172 outlet;
#X text 403 81 (medium1);
#X text 425 103 (medium2);
#X text 442 126 (strong weighted);
#X msg 485 104 1 0.97 0.88 0.75 0.5 0.25;
#X msg 462 80 1 1 1 1 1 0.45;
#X msg 551 126 1 0.933013 0.75 0.500001 0.250001 0.0669878;
#X connect 0 0 1 0;
#X connect 1 0 3 0;
#X connect 1 1 4 0;
#X connect 1 2 5 0;
#X connect 1 3 6 0;
#X connect 3 0 7 0;
#X connect 4 0 7 0;
#X connect 5 0 7 0;
#X connect 6 0 7 0;
