#N canvas 414 127 407 357 10;
#X obj 73 286 outlet;
#X obj 37 212 pp 1;
#X obj 37 181 r 1_gui_player;
#X obj 56 160 r 2_gui_player;
#X obj 73 139 r 3_gui_player;
#X obj 56 233 pp 2;
#X obj 73 212 pp 3;
#X obj 92 233 pp 4;
#X obj 111 212 pp 5;
#X obj 128 233 pp 6;
#X obj 128 75 r 6_gui_player;
#X obj 111 96 r 5_gui_player;
#X obj 92 117 r 4_gui_player;
#X connect 1 0 0 0;
#X connect 2 0 1 0;
#X connect 3 0 5 0;
#X connect 4 0 6 0;
#X connect 5 0 0 0;
#X connect 6 0 0 0;
#X connect 7 0 0 0;
#X connect 8 0 0 0;
#X connect 9 0 0 0;
#X connect 10 0 9 0;
#X connect 11 0 8 0;
#X connect 12 0 7 0;
