#N canvas 0 0 696 542 10;
#X obj 177 18 inlet;
#X obj 232 445 outlet;
#X msg 62 71 \$1;
#X obj 177 39 t l l;
#X obj 62 155 speedlim 50;
#X obj 102 377 any;
#X obj 130 377 any;
#X obj 158 377 any;
#X obj 150 349 pp 1;
#X obj 121 349 pp 0;
#X obj 180 349 pp 2;
#X obj 186 377 any;
#X obj 216 377 any;
#X obj 248 377 any;
#X obj 208 349 pp 3;
#X obj 236 349 pp 4;
#X obj 265 349 pp 5;
#X obj 348 15 inlet;
#X obj 62 125 modulo_counter 123;
#X obj 279 378 any;
#X obj 294 349 pp 6;
#X obj 62 183 t b b b b b b b b b;
#X obj 233 177 route 0 1 2 3 4 5 6;
#X obj 62 99 sel 6;
#X connect 0 0 3 0;
#X connect 2 0 23 0;
#X connect 3 0 2 0;
#X connect 3 1 22 0;
#X connect 4 0 21 0;
#X connect 5 0 1 0;
#X connect 6 0 1 0;
#X connect 7 0 1 0;
#X connect 8 0 6 1;
#X connect 9 0 5 1;
#X connect 10 0 7 1;
#X connect 11 0 1 0;
#X connect 12 0 1 0;
#X connect 13 0 1 0;
#X connect 14 0 11 1;
#X connect 15 0 12 1;
#X connect 16 0 13 1;
#X connect 17 0 4 1;
#X connect 18 0 4 0;
#X connect 19 0 1 0;
#X connect 20 0 19 1;
#X connect 21 2 19 0;
#X connect 21 3 13 0;
#X connect 21 4 12 0;
#X connect 21 5 11 0;
#X connect 21 6 7 0;
#X connect 21 7 6 0;
#X connect 21 8 5 0;
#X connect 22 0 9 0;
#X connect 22 1 8 0;
#X connect 22 2 10 0;
#X connect 22 3 14 0;
#X connect 22 4 15 0;
#X connect 22 5 16 0;
#X connect 22 6 20 0;
#X connect 23 0 18 0;
