#N canvas 231 114 579 560 10;
#X obj 33 26 inlet;
#X obj 33 238 s out_left_vu;
#X obj 87 263 s out_right_vu;
#X obj 33 48 route out_left out_right src;
#X obj 141 242 s 1_rgui_vu;
#X obj 159 222 s 2_rgui_vu;
#X obj 177 202 s 3_rgui_vu;
#X obj 195 182 s 4_rgui_vu;
#X obj 141 72 route 1 2 3 4 5 6 7 8;
#X obj 265 102 s 8_rgui_vu;
#X obj 247 122 s 7_rgui_vu;
#X obj 229 142 s 6_rgui_vu;
#X obj 211 162 s 5_rgui_vu;
#X connect 0 0 3 0;
#X connect 3 0 1 0;
#X connect 3 1 2 0;
#X connect 3 2 8 0;
#X connect 8 0 4 0;
#X connect 8 1 5 0;
#X connect 8 2 6 0;
#X connect 8 3 7 0;
#X connect 8 4 12 0;
#X connect 8 5 11 0;
#X connect 8 6 10 0;
#X connect 8 7 9 0;
