#N canvas 0 0 700 546 10;
#X obj 177 18 inlet;
#X obj 232 445 outlet;
#X msg 62 71 \$1;
#X obj 177 39 t l l;
#X obj 62 155 speedlim 50;
#X obj 102 377 any;
#X obj 130 377 any;
#X obj 158 377 any;
#X obj 186 377 any;
#X obj 216 377 any;
#X obj 248 377 any;
#X obj 348 15 inlet;
#X obj 62 125 modulo_counter 123;
#X obj 279 378 any;
#X obj 309 377 any;
#X obj 340 376 any;
#X obj 62 183 t b b b b b b b b b b;
#X obj 243 182 route 0 1 2 3 4 5 6 7 8 9;
#X obj 79 377 any;
#X obj 89 350 pp 0;
#X obj 121 349 pp 1;
#X obj 150 349 pp 2;
#X obj 180 349 pp 3;
#X obj 208 349 pp 4;
#X obj 236 349 pp 5;
#X obj 265 349 pp 6;
#X obj 294 349 pp 7;
#X obj 322 349 pp 8;
#X obj 350 349 pp 9;
#X obj 62 99 sel 9;
#X connect 0 0 3 0;
#X connect 2 0 29 0;
#X connect 3 0 2 0;
#X connect 3 1 17 0;
#X connect 4 0 16 0;
#X connect 5 0 1 0;
#X connect 6 0 1 0;
#X connect 7 0 1 0;
#X connect 8 0 1 0;
#X connect 9 0 1 0;
#X connect 10 0 1 0;
#X connect 11 0 4 1;
#X connect 12 0 4 0;
#X connect 13 0 1 0;
#X connect 14 0 1 0;
#X connect 15 0 1 0;
#X connect 16 0 15 0;
#X connect 16 1 14 0;
#X connect 16 2 13 0;
#X connect 16 3 10 0;
#X connect 16 4 9 0;
#X connect 16 5 8 0;
#X connect 16 6 7 0;
#X connect 16 7 6 0;
#X connect 16 8 5 0;
#X connect 16 9 18 0;
#X connect 17 0 19 0;
#X connect 17 1 20 0;
#X connect 17 2 21 0;
#X connect 17 3 22 0;
#X connect 17 4 23 0;
#X connect 17 5 24 0;
#X connect 17 6 25 0;
#X connect 17 7 26 0;
#X connect 17 8 27 0;
#X connect 17 9 28 0;
#X connect 18 0 1 0;
#X connect 19 0 18 1;
#X connect 20 0 5 1;
#X connect 21 0 6 1;
#X connect 22 0 7 1;
#X connect 23 0 8 1;
#X connect 24 0 9 1;
#X connect 25 0 10 1;
#X connect 26 0 13 1;
#X connect 27 0 14 1;
#X connect 28 0 15 1;
#X connect 29 0 12 0;
