#N canvas 610 19 379 378 10;
#X obj 36 129 + 100;
#X obj 85 200 r \$1_gui_gain;
#X obj 85 177 s \$1_rgui_gain;
#X text 86 269 1.arg: <float> src-Index (1 .. N);
#X obj 37 223 pp source \$1 gain;
#X obj 37 246 outlet;
#X obj 36 42 r src_gain;
#X obj 36 64 route \$1;
#X obj 70 153 pp set;
#X obj 36 96 route float bang;
#X connect 0 0 8 0;
#X connect 0 0 4 0;
#X connect 1 0 4 0;
#X connect 4 0 5 0;
#X connect 6 0 7 0;
#X connect 7 0 9 0;
#X connect 8 0 2 0;
#X connect 9 0 0 0;
#X connect 9 1 2 0;
