#N canvas 386 100 1673 893 10;
#X declare -lib mrpeach;
#X obj -61 22 import mrpeach;
#X obj -20 385 udpsend;
#X obj -263 93 vsl 15 128 0 1 0 0 empty empty empty 0 -9 0 10 -262144
-1 -1 0 1;
#X obj -239 94 vsl 15 128 0 1 0 0 empty empty empty 0 -9 0 10 -262144
-1 -1 0 1;
#X obj -316 93 vsl 15 128 0 1 0 0 empty empty empty 0 -9 0 10 -262144
-1 -1 0 1;
#X obj -215 94 vsl 15 128 0 1 0 0 empty empty empty 0 -9 0 10 -262144
-1 -1 0 1;
#X obj -191 93 vsl 15 128 0 1 0 0 empty empty empty 0 -9 0 10 -262144
-1 -1 0 1;
#X obj -167 94 vsl 15 128 0 1 0 0 empty empty empty 0 -9 0 10 -262144
-1 -1 0 1;
#X obj 8 91 vsl 15 128 0 50 0 0 empty empty empty 0 -9 0 10 -262144
-1 -1 0 1;
#X text -19 50 5 tones - offset 0-127 mapped 0-50;
#X obj 32 91 vsl 15 128 0 50 0 0 empty empty empty 0 -9 0 10 -262144
-1 -1 0 1;
#X obj 56 91 vsl 15 128 0 50 0 0 empty empty empty 0 -9 0 10 -262144
-1 -1 0 1;
#X obj 85 91 vsl 15 128 0 50 0 0 empty empty empty 0 -9 0 10 -262144
-1 -1 0 1;
#X obj 113 92 vsl 15 128 0 50 0 0 empty empty empty 0 -9 0 10 -262144
-1 -1 0 1;
#X obj -93 91 vsl 15 128 0 127 0 0 empty empty empty 0 -9 0 10 -262144
-1 -1 0 1;
#X text -117 67 master tune;
#X text -280 67 6 tones - amp 0-1;
#X obj 238 92 vsl 15 128 0 127 0 0 empty empty empty 0 -9 0 10 -262144
-1 -1 0 1;
#X text 221 72 tones lpf;
#X obj 329 90 vsl 15 128 0 127 0 0 empty empty empty 0 -9 0 10 -262144
-1 -1 0 1;
#X text 312 70 tones hpf;
#X obj 442 91 vsl 15 128 0 1 0 0 empty empty empty 0 -9 0 10 -262144
-1 -1 0 1;
#X msg 283 370 disconnect;
#X obj -20 359 packOSC;
#X text 87 69 +;
#X text 10 69 +;
#X text 33 69 -;
#X text 58 68 -;
#X text 115 69 -;
#X msg -90 282 send /t1 \$1;
#X msg -12 282 send /t2 \$1;
#X msg 67 282 send /t3 \$1;
#X msg 145 282 send /t4 \$1;
#X msg 223 284 send /t5 \$1;
#X msg 302 282 send /t6 \$1;
#X msg 406 282 send /tlpf \$1;
#X msg 502 282 send /thpf \$1;
#X msg 607 282 send /tvca \$1;
#X msg -316 242 send /vca1 \$1;
#X msg -301 267 send /vca2 \$1;
#X msg -281 294 send /vca3 \$1;
#X msg -270 318 send /vca4 \$1;
#X msg -247 339 send /vca5 \$1;
#X msg -238 364 send /vca6 \$1;
#X obj -327 422 hsl 128 15 0 360 0 0 empty empty empty -2 -8 0 10 -262144
-1 -1 0 1;
#X msg -329 449 send /pan1 \$1;
#X obj -185 422 hsl 128 15 0 360 0 0 empty empty empty -2 -8 0 10 -262144
-1 -1 0 1;
#X obj -48 422 hsl 128 15 0 360 0 0 empty empty empty -2 -8 0 10 -262144
-1 -1 0 1;
#X obj 94 422 hsl 128 15 0 360 0 0 empty empty empty -2 -8 0 10 -262144
-1 -1 0 1;
#X obj 233 422 hsl 128 15 0 360 0 0 empty empty empty -2 -8 0 10 -262144
-1 -1 0 1;
#X obj 375 422 hsl 128 15 0 360 0 0 empty empty empty -2 -8 0 10 -262144
-1 -1 0 1;
#X msg -187 449 send /pan2 \$1;
#X msg -50 449 send /pan3 \$1;
#X msg 92 449 send /pan4 \$1;
#X msg 231 449 send /pan5 \$1;
#X msg 373 449 send /pan6 \$1;
#X obj 582 98 vsl 15 128 0 1 0 0 empty empty empty 0 -9 0 10 -262144
-1 -1 0 1;
#X msg 705 283 send /nvca \$1;
#X obj 283 318 loadbang;
#X obj 655 152 hsl 128 15 0 360 0 0 empty empty empty -2 -8 0 10 -262144
-1 -1 0 1;
#X text 676 127 noise pan;
#X msg 652 178 send /npan \$1;
#X obj 818 93 vsl 15 128 0 1 0 0 empty empty empty 0 -9 0 10 -262144
-1 -1 0 1;
#X text 810 69 bass vca;
#X text 574 74 noise vca;
#X text 434 67 tones vca;
#X msg 801 283 send /bvca \$1;
#X obj 895 96 vsl 15 128 0 127 0 0 empty empty empty 0 -9 0 10 -262144
-1 -1 0 1;
#X text 883 69 bass freq;
#X msg 895 282 send /bfreq \$1;
#X obj 1023 98 vsl 15 128 0 127 0 0 empty empty empty 0 -9 0 10 -262144
-1 -1 0 1;
#X text 1011 71 formant time;
#X msg 1023 287 send /formanttime \$1;
#X obj 1109 96 vradio 15 1 0 9 empty empty empty 0 -8 0 10 -262144
-1 -1 0;
#X text 1102 71 vowel;
#X text 1129 94 ee;
#X text 1128 109 ih;
#X text 1127 124 eh;
#X text 1128 141 ae;
#X text 1127 171 oo;
#X text 1126 184 uh;
#X text 1131 200 o;
#X text 1129 216 ah;
#X obj 1038 340 sel 0 1 2 3 4 5 6 7 8;
#X text 1127 155 a;
#X obj -168 535 vsl 15 128 0 1 0 0 empty empty empty 0 -9 0 10 -262144
-1 -1 0 1;
#X obj -91 530 vsl 15 128 0 1 0 0 empty empty empty 0 -9 0 10 -262144
-1 -1 0 1;
#X obj -10 535 vsl 15 128 0 1 0 0 empty empty empty 0 -9 0 10 -262144
-1 -1 0 1;
#X text -171 508 hue;
#X text -101 508 saturation;
#X text -13 510 value;
#X msg 976 375 send /vowel_ee;
#X msg 1000 397 send /vowel_ih;
#X msg 1020 420 send /vowel_eh;
#X msg 1044 442 send /vowel_ae;
#X msg 1066 465 send /vowel_a;
#X msg 1090 487 send /vowel_oo;
#X msg 1110 510 send /vowel_uh;
#X msg 1134 532 send /vowel_o;
#X msg 1154 558 send /vowel_ah;
#X msg 245 22 /remote;
#X msg 314 21 /generative;
#X msg 408 21 /bi;
#X msg 451 20 /quad;
#X msg 280 343 connect 192.168.0.100 9001;
#X obj -112 729 pack f f f;
#X obj -168 686 t b f;
#X obj -91 686 t b f;
#X obj -10 685 t b f;
#X msg -72 780 /led1 \$1 \$2 \$3;
#X msg -72 819 /led4 \$1 \$2 \$3;
#X text -134 487 leds;
#X msg 30 779 /led2 \$1 \$2 \$3;
#X msg 133 779 /led3 \$1 \$2 \$3;
#X msg 33 819 /led5 \$1 \$2 \$3;
#X msg 137 820 /led6 \$1 \$2 \$3;
#X obj 328 545 vsl 15 128 0 1 0 0 empty empty empty 0 -9 0 10 -262144
-1 -1 8700 1;
#X obj 405 540 vsl 15 128 0 1 0 0 empty empty empty 0 -9 0 10 -262144
-1 -1 5800 1;
#X obj 486 545 vsl 15 128 0 1 0 0 empty empty empty 0 -9 0 10 -262144
-1 -1 5600 1;
#X text 325 518 hue;
#X text 395 518 saturation;
#X text 483 520 value;
#X obj 390 700 oscled 1;
#X msg 434 798 /led1 0.685039 0.456693 0.440945;
#X msg 434 768 set \$1 \$2 \$3 \$4;
#X text 450 700 outputs formatted msg for led defined by creation arg
;
#X connect 2 0 39 0;
#X connect 3 0 40 0;
#X connect 4 0 38 0;
#X connect 5 0 41 0;
#X connect 6 0 42 0;
#X connect 7 0 43 0;
#X connect 8 0 30 0;
#X connect 10 0 31 0;
#X connect 11 0 32 0;
#X connect 12 0 33 0;
#X connect 13 0 34 0;
#X connect 14 0 29 0;
#X connect 17 0 35 0;
#X connect 19 0 36 0;
#X connect 21 0 37 0;
#X connect 22 0 1 0;
#X connect 23 0 1 0;
#X connect 29 0 23 0;
#X connect 30 0 23 0;
#X connect 31 0 23 0;
#X connect 32 0 23 0;
#X connect 33 0 23 0;
#X connect 34 0 23 0;
#X connect 35 0 23 0;
#X connect 36 0 23 0;
#X connect 37 0 23 0;
#X connect 38 0 23 0;
#X connect 39 0 23 0;
#X connect 40 0 23 0;
#X connect 41 0 23 0;
#X connect 42 0 23 0;
#X connect 43 0 23 0;
#X connect 44 0 45 0;
#X connect 45 0 23 0;
#X connect 46 0 51 0;
#X connect 47 0 52 0;
#X connect 48 0 53 0;
#X connect 49 0 54 0;
#X connect 50 0 55 0;
#X connect 51 0 23 0;
#X connect 52 0 23 0;
#X connect 53 0 23 0;
#X connect 54 0 23 0;
#X connect 55 0 23 0;
#X connect 56 0 57 0;
#X connect 57 0 23 0;
#X connect 58 0 104 0;
#X connect 59 0 61 0;
#X connect 61 0 23 0;
#X connect 62 0 66 0;
#X connect 66 0 23 0;
#X connect 67 0 69 0;
#X connect 69 0 23 0;
#X connect 70 0 72 0;
#X connect 73 0 83 0;
#X connect 83 0 91 0;
#X connect 83 1 92 0;
#X connect 83 2 93 0;
#X connect 83 3 94 0;
#X connect 83 4 95 0;
#X connect 83 5 96 0;
#X connect 83 6 97 0;
#X connect 83 7 98 0;
#X connect 83 8 99 0;
#X connect 85 0 106 0;
#X connect 86 0 107 0;
#X connect 87 0 108 0;
#X connect 91 0 23 0;
#X connect 92 0 23 0;
#X connect 93 0 23 0;
#X connect 94 0 23 0;
#X connect 95 0 23 0;
#X connect 96 0 23 0;
#X connect 97 0 23 0;
#X connect 98 0 23 0;
#X connect 99 0 23 0;
#X connect 100 0 23 0;
#X connect 101 0 23 0;
#X connect 104 0 1 0;
#X connect 105 0 109 0;
#X connect 105 0 112 0;
#X connect 106 0 105 0;
#X connect 106 1 105 0;
#X connect 107 0 105 0;
#X connect 107 1 105 1;
#X connect 108 0 105 0;
#X connect 108 1 105 2;
#X connect 109 0 23 0;
#X connect 112 0 23 0;
#X connect 116 0 122 0;
#X connect 117 0 122 1;
#X connect 118 0 122 2;
#X connect 122 0 124 0;
#X connect 122 0 23 0;
#X connect 124 0 123 0;
