#N canvas 83 174 987 761 10;
#X obj 135 61 inlet;
#X obj 183 61 inlet;
#X obj 233 61 inlet;
#X obj 95 130 float \$1;
#X obj 183 100 t b f;
#X obj 233 100 t b f;
#X obj 156 195 pack f f f f;
#X msg 156 231 send /led\$1 \$2 \$3 \$4;
#X obj 136 100 t b f;
#X obj 155 277 outlet;
#X connect 0 0 8 0;
#X connect 1 0 4 0;
#X connect 2 0 5 0;
#X connect 3 0 6 0;
#X connect 4 0 3 0;
#X connect 4 1 6 2;
#X connect 5 0 3 0;
#X connect 5 1 6 3;
#X connect 6 0 7 0;
#X connect 7 0 9 0;
#X connect 8 0 3 0;
#X connect 8 1 6 1;
